{
  "asset": {
    "generator": "Khronos glTF Blender I/O v5.2.39",
    "version": "2.0"
  },
  "scene": 0,
  "scenes": [
    {
      "name": "DEBRIS KIT",
      "nodes": [
        0
      ]
    }
  ],
  "nodes": [
    {
      "mesh": 0,
      "name": "Beam_End_Rebar_Export"
    }
  ],
  "materials": [
    {
      "doubleSided": true,
      "name": "Debris_Concrete_Formed.011",
      "normalTexture": {
        "index": 0
      },
      "pbrMetallicRoughness": {
        "baseColorTexture": {
          "index": 1
        },
        "metallicRoughnessTexture": {
          "index": 2
        },
        "baseColorFactor": [
          0.63,
          0.61,
          0.58,
          1
        ]
      }
    },
    {
      "doubleSided": true,
      "name": "Debris_Concrete_Fracture.016",
      "normalTexture": {
        "index": 3
      },
      "pbrMetallicRoughness": {
        "baseColorTexture": {
          "index": 4
        },
        "metallicRoughnessTexture": {
          "index": 5
        },
        "baseColorFactor": [
          0.63,
          0.61,
          0.58,
          1
        ]
      }
    },
    {
      "doubleSided": true,
      "name": "Debris_Rebar_Rust.008",
      "normalTexture": {
        "index": 6
      },
      "pbrMetallicRoughness": {
        "baseColorTexture": {
          "index": 7
        },
        "metallicRoughnessTexture": {
          "index": 8
        }
      }
    }
  ],
  "meshes": [
    {
      "name": "Beam_End.004",
      "primitives": [
        {
          "attributes": {
            "POSITION": 0,
            "NORMAL": 1,
            "TEXCOORD_0": 2,
            "TANGENT": 3
          },
          "indices": 4,
          "material": 0
        },
        {
          "attributes": {
            "POSITION": 5,
            "NORMAL": 6,
            "TEXCOORD_0": 7,
            "TANGENT": 8
          },
          "indices": 9,
          "material": 1
        },
        {
          "attributes": {
            "POSITION": 10,
            "NORMAL": 11,
            "TEXCOORD_0": 12,
            "TANGENT": 13
          },
          "indices": 14,
          "material": 2
        }
      ]
    }
  ],
  "textures": [
    {
      "sampler": 0,
      "source": 0
    },
    {
      "sampler": 0,
      "source": 1
    },
    {
      "sampler": 0,
      "source": 2
    },
    {
      "sampler": 0,
      "source": 3
    },
    {
      "sampler": 0,
      "source": 4
    },
    {
      "sampler": 0,
      "source": 5
    },
    {
      "sampler": 0,
      "source": 6
    },
    {
      "sampler": 0,
      "source": 7
    },
    {
      "sampler": 0,
      "source": 8
    }
  ],
  "images": [
    {
      "mimeType": "image/png",
      "name": "Concrete_Formed_normal_opengl",
      "uri": "textures/Concrete_Formed_normal_opengl.png"
    },
    {
      "mimeType": "image/png",
      "name": "Concrete_Formed_basecolor",
      "uri": "textures/Concrete_Formed_basecolor.png"
    },
    {
      "mimeType": "image/png",
      "name": "Concrete_Formed_orm",
      "uri": "textures/Concrete_Formed_orm.png"
    },
    {
      "mimeType": "image/png",
      "name": "Concrete_Fracture_normal_opengl",
      "uri": "textures/Concrete_Fracture_normal_opengl.png"
    },
    {
      "mimeType": "image/png",
      "name": "Concrete_Fracture_basecolor",
      "uri": "textures/Concrete_Fracture_basecolor.png"
    },
    {
      "mimeType": "image/png",
      "name": "Concrete_Fracture_orm",
      "uri": "textures/Concrete_Fracture_orm.png"
    },
    {
      "mimeType": "image/png",
      "name": "Rebar_Rust_normal_opengl",
      "uri": "textures/Rebar_Rust_normal_opengl.png"
    },
    {
      "mimeType": "image/png",
      "name": "Rebar_Rust_basecolor",
      "uri": "textures/Rebar_Rust_basecolor.png"
    },
    {
      "mimeType": "image/png",
      "name": "Rebar_Rust_orm",
      "uri": "textures/Rebar_Rust_orm.png"
    }
  ],
  "accessors": [
    {
      "bufferView": 0,
      "componentType": 5126,
      "count": 21,
      "max": [
        0.2530445456504822,
        0.33080238103866577,
        0.08633464574813843
      ],
      "min": [
        -0.27694496512413025,
        0,
        -0.17584900557994843
      ],
      "type": "VEC3"
    },
    {
      "bufferView": 1,
      "componentType": 5126,
      "count": 21,
      "type": "VEC3"
    },
    {
      "bufferView": 2,
      "componentType": 5126,
      "count": 21,
      "type": "VEC2"
    },
    {
      "bufferView": 3,
      "componentType": 5126,
      "count": 21,
      "type": "VEC4"
    },
    {
      "bufferView": 4,
      "componentType": 5123,
      "count": 51,
      "type": "SCALAR"
    },
    {
      "bufferView": 5,
      "componentType": 5126,
      "count": 173,
      "max": [
        0.3035527467727661,
        0.33080238103866577,
        0.09567919373512268
      ],
      "min": [
        -0.3396558463573456,
        0,
        -0.20685094594955444
      ],
      "type": "VEC3"
    },
    {
      "bufferView": 6,
      "componentType": 5126,
      "count": 173,
      "type": "VEC3"
    },
    {
      "bufferView": 7,
      "componentType": 5126,
      "count": 173,
      "type": "VEC2"
    },
    {
      "bufferView": 8,
      "componentType": 5126,
      "count": 173,
      "type": "VEC4"
    },
    {
      "bufferView": 9,
      "componentType": 5123,
      "count": 195,
      "type": "SCALAR"
    },
    {
      "bufferView": 10,
      "componentType": 5126,
      "count": 156,
      "max": [
        0.5955499410629272,
        0.27739572525024414,
        0.20685094594955444
      ],
      "min": [
        -0.5955499410629272,
        0.08868448436260223,
        -0.1771128922700882
      ],
      "type": "VEC3"
    },
    {
      "bufferView": 11,
      "componentType": 5126,
      "count": 156,
      "type": "VEC3"
    },
    {
      "bufferView": 12,
      "componentType": 5126,
      "count": 156,
      "type": "VEC2"
    },
    {
      "bufferView": 13,
      "componentType": 5126,
      "count": 156,
      "type": "VEC4"
    },
    {
      "bufferView": 14,
      "componentType": 5123,
      "count": 540,
      "type": "SCALAR"
    }
  ],
  "bufferViews": [
    {
      "buffer": 0,
      "byteLength": 252,
      "byteOffset": 0,
      "target": 34962
    },
    {
      "buffer": 0,
      "byteLength": 252,
      "byteOffset": 252,
      "target": 34962
    },
    {
      "buffer": 0,
      "byteLength": 168,
      "byteOffset": 504,
      "target": 34962
    },
    {
      "buffer": 0,
      "byteLength": 336,
      "byteOffset": 672,
      "target": 34962
    },
    {
      "buffer": 0,
      "byteLength": 102,
      "byteOffset": 1008,
      "target": 34963
    },
    {
      "buffer": 0,
      "byteLength": 2076,
      "byteOffset": 1112,
      "target": 34962
    },
    {
      "buffer": 0,
      "byteLength": 2076,
      "byteOffset": 3188,
      "target": 34962
    },
    {
      "buffer": 0,
      "byteLength": 1384,
      "byteOffset": 5264,
      "target": 34962
    },
    {
      "buffer": 0,
      "byteLength": 2768,
      "byteOffset": 6648,
      "target": 34962
    },
    {
      "buffer": 0,
      "byteLength": 390,
      "byteOffset": 9416,
      "target": 34963
    },
    {
      "buffer": 0,
      "byteLength": 1872,
      "byteOffset": 9808,
      "target": 34962
    },
    {
      "buffer": 0,
      "byteLength": 1872,
      "byteOffset": 11680,
      "target": 34962
    },
    {
      "buffer": 0,
      "byteLength": 1248,
      "byteOffset": 13552,
      "target": 34962
    },
    {
      "buffer": 0,
      "byteLength": 2496,
      "byteOffset": 14800,
      "target": 34962
    },
    {
      "buffer": 0,
      "byteLength": 1080,
      "byteOffset": 17296,
      "target": 34963
    }
  ],
  "samplers": [
    {
      "magFilter": 9729,
      "minFilter": 9987
    }
  ],
  "buffers": [
    {
      "byteLength": 18376,
      "uri": "Beam_End_Rebar.bin"
    }
  ]
}
