{
  "asset": {
    "generator": "Khronos glTF Blender I/O v5.2.39",
    "version": "2.0"
  },
  "scene": 0,
  "scenes": [
    {
      "name": "DEBRIS KIT",
      "nodes": [
        0
      ]
    }
  ],
  "nodes": [
    {
      "mesh": 0,
      "name": "Collapse_B_Broken_Beams_Export"
    }
  ],
  "materials": [
    {
      "doubleSided": true,
      "name": "Debris_Concrete_Formed.011",
      "normalTexture": {
        "index": 0
      },
      "pbrMetallicRoughness": {
        "baseColorTexture": {
          "index": 1
        },
        "metallicRoughnessTexture": {
          "index": 2
        },
        "baseColorFactor": [
          0.63,
          0.61,
          0.58,
          1
        ]
      }
    },
    {
      "doubleSided": true,
      "name": "Debris_Concrete_Fracture.016",
      "normalTexture": {
        "index": 3
      },
      "pbrMetallicRoughness": {
        "baseColorTexture": {
          "index": 4
        },
        "metallicRoughnessTexture": {
          "index": 5
        },
        "baseColorFactor": [
          0.63,
          0.61,
          0.58,
          1
        ]
      }
    },
    {
      "doubleSided": true,
      "name": "Debris_Rebar_Rust.008",
      "normalTexture": {
        "index": 6
      },
      "pbrMetallicRoughness": {
        "baseColorTexture": {
          "index": 7
        },
        "metallicRoughnessTexture": {
          "index": 8
        }
      }
    }
  ],
  "meshes": [
    {
      "name": "Dense_fractured_core.012",
      "primitives": [
        {
          "attributes": {
            "POSITION": 0,
            "NORMAL": 1,
            "TEXCOORD_0": 2,
            "TANGENT": 3
          },
          "indices": 4,
          "material": 0
        },
        {
          "attributes": {
            "POSITION": 5,
            "NORMAL": 6,
            "TEXCOORD_0": 7,
            "TANGENT": 8
          },
          "indices": 9,
          "material": 1
        },
        {
          "attributes": {
            "POSITION": 10,
            "NORMAL": 11,
            "TEXCOORD_0": 12,
            "TANGENT": 13
          },
          "indices": 14,
          "material": 2
        }
      ]
    }
  ],
  "textures": [
    {
      "sampler": 0,
      "source": 0
    },
    {
      "sampler": 0,
      "source": 1
    },
    {
      "sampler": 0,
      "source": 2
    },
    {
      "sampler": 0,
      "source": 3
    },
    {
      "sampler": 0,
      "source": 4
    },
    {
      "sampler": 0,
      "source": 5
    },
    {
      "sampler": 0,
      "source": 6
    },
    {
      "sampler": 0,
      "source": 7
    },
    {
      "sampler": 0,
      "source": 8
    }
  ],
  "images": [
    {
      "mimeType": "image/png",
      "name": "Concrete_Formed_normal_opengl",
      "uri": "textures/Concrete_Formed_normal_opengl.png"
    },
    {
      "mimeType": "image/png",
      "name": "Concrete_Formed_basecolor",
      "uri": "textures/Concrete_Formed_basecolor.png"
    },
    {
      "mimeType": "image/png",
      "name": "Concrete_Formed_orm",
      "uri": "textures/Concrete_Formed_orm.png"
    },
    {
      "mimeType": "image/png",
      "name": "Concrete_Fracture_normal_opengl",
      "uri": "textures/Concrete_Fracture_normal_opengl.png"
    },
    {
      "mimeType": "image/png",
      "name": "Concrete_Fracture_basecolor",
      "uri": "textures/Concrete_Fracture_basecolor.png"
    },
    {
      "mimeType": "image/png",
      "name": "Concrete_Fracture_orm",
      "uri": "textures/Concrete_Fracture_orm.png"
    },
    {
      "mimeType": "image/png",
      "name": "Rebar_Rust_normal_opengl",
      "uri": "textures/Rebar_Rust_normal_opengl.png"
    },
    {
      "mimeType": "image/png",
      "name": "Rebar_Rust_basecolor",
      "uri": "textures/Rebar_Rust_basecolor.png"
    },
    {
      "mimeType": "image/png",
      "name": "Rebar_Rust_orm",
      "uri": "textures/Rebar_Rust_orm.png"
    }
  ],
  "accessors": [
    {
      "bufferView": 0,
      "componentType": 5126,
      "count": 615,
      "max": [
        1.7344924211502075,
        3.6022226810455322,
        0.949999988079071
      ],
      "min": [
        -1.8036999702453613,
        0.10102316737174988,
        -0.949999988079071
      ],
      "type": "VEC3"
    },
    {
      "bufferView": 1,
      "componentType": 5126,
      "count": 615,
      "type": "VEC3"
    },
    {
      "bufferView": 2,
      "componentType": 5126,
      "count": 615,
      "type": "VEC2"
    },
    {
      "bufferView": 3,
      "componentType": 5126,
      "count": 615,
      "type": "VEC4"
    },
    {
      "bufferView": 4,
      "componentType": 5123,
      "count": 1419,
      "type": "SCALAR"
    },
    {
      "bufferView": 5,
      "componentType": 5126,
      "count": 20385,
      "max": [
        2,
        3.7637338638305664,
        0.949999988079071
      ],
      "min": [
        -2,
        0,
        -0.949999988079071
      ],
      "type": "VEC3"
    },
    {
      "bufferView": 6,
      "componentType": 5126,
      "count": 20385,
      "type": "VEC3"
    },
    {
      "bufferView": 7,
      "componentType": 5126,
      "count": 20385,
      "type": "VEC2"
    },
    {
      "bufferView": 8,
      "componentType": 5126,
      "count": 20385,
      "type": "VEC4"
    },
    {
      "bufferView": 9,
      "componentType": 5123,
      "count": 21081,
      "type": "SCALAR"
    },
    {
      "bufferView": 10,
      "componentType": 5126,
      "count": 1185,
      "max": [
        1.9883497953414917,
        3.3396785259246826,
        0.7512215971946716
      ],
      "min": [
        -1.9780590534210205,
        0.43884506821632385,
        -0.7098458409309387
      ],
      "type": "VEC3"
    },
    {
      "bufferView": 11,
      "componentType": 5126,
      "count": 1185,
      "type": "VEC3"
    },
    {
      "bufferView": 12,
      "componentType": 5126,
      "count": 1185,
      "type": "VEC2"
    },
    {
      "bufferView": 13,
      "componentType": 5126,
      "count": 1185,
      "type": "VEC4"
    },
    {
      "bufferView": 14,
      "componentType": 5123,
      "count": 3600,
      "type": "SCALAR"
    }
  ],
  "bufferViews": [
    {
      "buffer": 0,
      "byteLength": 7380,
      "byteOffset": 0,
      "target": 34962
    },
    {
      "buffer": 0,
      "byteLength": 7380,
      "byteOffset": 7380,
      "target": 34962
    },
    {
      "buffer": 0,
      "byteLength": 4920,
      "byteOffset": 14760,
      "target": 34962
    },
    {
      "buffer": 0,
      "byteLength": 9840,
      "byteOffset": 19680,
      "target": 34962
    },
    {
      "buffer": 0,
      "byteLength": 2838,
      "byteOffset": 29520,
      "target": 34963
    },
    {
      "buffer": 0,
      "byteLength": 244620,
      "byteOffset": 32360,
      "target": 34962
    },
    {
      "buffer": 0,
      "byteLength": 244620,
      "byteOffset": 276980,
      "target": 34962
    },
    {
      "buffer": 0,
      "byteLength": 163080,
      "byteOffset": 521600,
      "target": 34962
    },
    {
      "buffer": 0,
      "byteLength": 326160,
      "byteOffset": 684680,
      "target": 34962
    },
    {
      "buffer": 0,
      "byteLength": 42162,
      "byteOffset": 1010840,
      "target": 34963
    },
    {
      "buffer": 0,
      "byteLength": 14220,
      "byteOffset": 1053004,
      "target": 34962
    },
    {
      "buffer": 0,
      "byteLength": 14220,
      "byteOffset": 1067224,
      "target": 34962
    },
    {
      "buffer": 0,
      "byteLength": 9480,
      "byteOffset": 1081444,
      "target": 34962
    },
    {
      "buffer": 0,
      "byteLength": 18960,
      "byteOffset": 1090924,
      "target": 34962
    },
    {
      "buffer": 0,
      "byteLength": 7200,
      "byteOffset": 1109884,
      "target": 34963
    }
  ],
  "samplers": [
    {
      "magFilter": 9729,
      "minFilter": 9987
    }
  ],
  "buffers": [
    {
      "byteLength": 1117084,
      "uri": "Collapse_B_Broken_Beams.bin"
    }
  ]
}
