{
  "asset": {
    "generator": "Khronos glTF Blender I/O v5.2.39",
    "version": "2.0"
  },
  "scene": 0,
  "scenes": [
    {
      "name": "DEBRIS KIT",
      "nodes": [
        0
      ]
    }
  ],
  "nodes": [
    {
      "mesh": 0,
      "name": "Slab_Rebar_Export"
    }
  ],
  "materials": [
    {
      "doubleSided": true,
      "name": "Debris_Concrete_Formed.011",
      "normalTexture": {
        "index": 0
      },
      "pbrMetallicRoughness": {
        "baseColorTexture": {
          "index": 1
        },
        "metallicRoughnessTexture": {
          "index": 2
        },
        "baseColorFactor": [
          0.63,
          0.61,
          0.58,
          1
        ]
      }
    },
    {
      "doubleSided": true,
      "name": "Debris_Concrete_Fracture.016",
      "normalTexture": {
        "index": 3
      },
      "pbrMetallicRoughness": {
        "baseColorTexture": {
          "index": 4
        },
        "metallicRoughnessTexture": {
          "index": 5
        },
        "baseColorFactor": [
          0.63,
          0.61,
          0.58,
          1
        ]
      }
    },
    {
      "doubleSided": true,
      "name": "Debris_Rebar_Rust.008",
      "normalTexture": {
        "index": 6
      },
      "pbrMetallicRoughness": {
        "baseColorTexture": {
          "index": 7
        },
        "metallicRoughnessTexture": {
          "index": 8
        }
      }
    }
  ],
  "meshes": [
    {
      "name": "Broken_Slab.004",
      "primitives": [
        {
          "attributes": {
            "POSITION": 0,
            "NORMAL": 1,
            "TEXCOORD_0": 2,
            "TANGENT": 3
          },
          "indices": 4,
          "material": 0
        },
        {
          "attributes": {
            "POSITION": 5,
            "NORMAL": 6,
            "TEXCOORD_0": 7,
            "TANGENT": 8
          },
          "indices": 9,
          "material": 1
        },
        {
          "attributes": {
            "POSITION": 10,
            "NORMAL": 11,
            "TEXCOORD_0": 12,
            "TANGENT": 13
          },
          "indices": 14,
          "material": 2
        }
      ]
    }
  ],
  "textures": [
    {
      "sampler": 0,
      "source": 0
    },
    {
      "sampler": 0,
      "source": 1
    },
    {
      "sampler": 0,
      "source": 2
    },
    {
      "sampler": 0,
      "source": 3
    },
    {
      "sampler": 0,
      "source": 4
    },
    {
      "sampler": 0,
      "source": 5
    },
    {
      "sampler": 0,
      "source": 6
    },
    {
      "sampler": 0,
      "source": 7
    },
    {
      "sampler": 0,
      "source": 8
    }
  ],
  "images": [
    {
      "mimeType": "image/png",
      "name": "Concrete_Formed_normal_opengl",
      "uri": "textures/Concrete_Formed_normal_opengl.png"
    },
    {
      "mimeType": "image/png",
      "name": "Concrete_Formed_basecolor",
      "uri": "textures/Concrete_Formed_basecolor.png"
    },
    {
      "mimeType": "image/png",
      "name": "Concrete_Formed_orm",
      "uri": "textures/Concrete_Formed_orm.png"
    },
    {
      "mimeType": "image/png",
      "name": "Concrete_Fracture_normal_opengl",
      "uri": "textures/Concrete_Fracture_normal_opengl.png"
    },
    {
      "mimeType": "image/png",
      "name": "Concrete_Fracture_basecolor",
      "uri": "textures/Concrete_Fracture_basecolor.png"
    },
    {
      "mimeType": "image/png",
      "name": "Concrete_Fracture_orm",
      "uri": "textures/Concrete_Fracture_orm.png"
    },
    {
      "mimeType": "image/png",
      "name": "Rebar_Rust_normal_opengl",
      "uri": "textures/Rebar_Rust_normal_opengl.png"
    },
    {
      "mimeType": "image/png",
      "name": "Rebar_Rust_basecolor",
      "uri": "textures/Rebar_Rust_basecolor.png"
    },
    {
      "mimeType": "image/png",
      "name": "Rebar_Rust_orm",
      "uri": "textures/Rebar_Rust_orm.png"
    }
  ],
  "accessors": [
    {
      "bufferView": 0,
      "componentType": 5126,
      "count": 20,
      "max": [
        0.18766885995864868,
        0.21184375882148743,
        0.20975562930107117
      ],
      "min": [
        -0.3964812159538269,
        0,
        -0.15810145437717438
      ],
      "type": "VEC3"
    },
    {
      "bufferView": 1,
      "componentType": 5126,
      "count": 20,
      "type": "VEC3"
    },
    {
      "bufferView": 2,
      "componentType": 5126,
      "count": 20,
      "type": "VEC2"
    },
    {
      "bufferView": 3,
      "componentType": 5126,
      "count": 20,
      "type": "VEC4"
    },
    {
      "bufferView": 4,
      "componentType": 5123,
      "count": 48,
      "type": "SCALAR"
    },
    {
      "bufferView": 5,
      "componentType": 5126,
      "count": 170,
      "max": [
        0.23367848992347717,
        0.21184375882148743,
        0.26654356718063354
      ],
      "min": [
        -0.44968894124031067,
        0,
        -0.1958303153514862
      ],
      "type": "VEC3"
    },
    {
      "bufferView": 6,
      "componentType": 5126,
      "count": 170,
      "type": "VEC3"
    },
    {
      "bufferView": 7,
      "componentType": 5126,
      "count": 170,
      "type": "VEC2"
    },
    {
      "bufferView": 8,
      "componentType": 5126,
      "count": 170,
      "type": "VEC4"
    },
    {
      "bufferView": 9,
      "componentType": 5123,
      "count": 192,
      "type": "SCALAR"
    },
    {
      "bufferView": 10,
      "componentType": 5126,
      "count": 156,
      "max": [
        0.6872948408126831,
        0.22242555022239685,
        0.18442325294017792
      ],
      "min": [
        -0.6872948408126831,
        0.008844316005706787,
        -0.26654356718063354
      ],
      "type": "VEC3"
    },
    {
      "bufferView": 11,
      "componentType": 5126,
      "count": 156,
      "type": "VEC3"
    },
    {
      "bufferView": 12,
      "componentType": 5126,
      "count": 156,
      "type": "VEC2"
    },
    {
      "bufferView": 13,
      "componentType": 5126,
      "count": 156,
      "type": "VEC4"
    },
    {
      "bufferView": 14,
      "componentType": 5123,
      "count": 540,
      "type": "SCALAR"
    }
  ],
  "bufferViews": [
    {
      "buffer": 0,
      "byteLength": 240,
      "byteOffset": 0,
      "target": 34962
    },
    {
      "buffer": 0,
      "byteLength": 240,
      "byteOffset": 240,
      "target": 34962
    },
    {
      "buffer": 0,
      "byteLength": 160,
      "byteOffset": 480,
      "target": 34962
    },
    {
      "buffer": 0,
      "byteLength": 320,
      "byteOffset": 640,
      "target": 34962
    },
    {
      "buffer": 0,
      "byteLength": 96,
      "byteOffset": 960,
      "target": 34963
    },
    {
      "buffer": 0,
      "byteLength": 2040,
      "byteOffset": 1056,
      "target": 34962
    },
    {
      "buffer": 0,
      "byteLength": 2040,
      "byteOffset": 3096,
      "target": 34962
    },
    {
      "buffer": 0,
      "byteLength": 1360,
      "byteOffset": 5136,
      "target": 34962
    },
    {
      "buffer": 0,
      "byteLength": 2720,
      "byteOffset": 6496,
      "target": 34962
    },
    {
      "buffer": 0,
      "byteLength": 384,
      "byteOffset": 9216,
      "target": 34963
    },
    {
      "buffer": 0,
      "byteLength": 1872,
      "byteOffset": 9600,
      "target": 34962
    },
    {
      "buffer": 0,
      "byteLength": 1872,
      "byteOffset": 11472,
      "target": 34962
    },
    {
      "buffer": 0,
      "byteLength": 1248,
      "byteOffset": 13344,
      "target": 34962
    },
    {
      "buffer": 0,
      "byteLength": 2496,
      "byteOffset": 14592,
      "target": 34962
    },
    {
      "buffer": 0,
      "byteLength": 1080,
      "byteOffset": 17088,
      "target": 34963
    }
  ],
  "samplers": [
    {
      "magFilter": 9729,
      "minFilter": 9987
    }
  ],
  "buffers": [
    {
      "byteLength": 18168,
      "uri": "Slab_Rebar.bin"
    }
  ]
}
