{
	"asset":{
		"generator":"Khronos glTF Blender I/O v5.2.39",
		"version":"2.0"
	},
	"scene":0,
	"scenes":[
		{
			"name":"STORAGE \u2022 Reference scene",
			"nodes":[
				0
			]
		}
	],
	"nodes":[
		{
			"extras":{
				"asset_id":"Bench_Vise",
				"units":"meters",
				"front_axis_blender":"-Y",
				"pivot":"bottom center"
			},
			"mesh":0,
			"name":"Bench_Vise_Export"
		}
	],
	"materials":[
		{
			"name":"STORE \u2022 PaintBlue",
			"normalTexture":{
				"index":0
			},
			"occlusionTexture":{
				"index":1
			},
			"pbrMetallicRoughness":{
				"baseColorTexture":{
					"index":2
				},
				"metallicRoughnessTexture":{
					"index":1
				}
			}
		},
		{
			"name":"STORE \u2022 Steel",
			"normalTexture":{
				"index":3
			},
			"occlusionTexture":{
				"index":4
			},
			"pbrMetallicRoughness":{
				"baseColorTexture":{
					"index":5
				},
				"metallicRoughnessTexture":{
					"index":4
				}
			}
		}
	],
	"meshes":[
		{
			"name":"Bench_Vise_Mesh.001",
			"primitives":[
				{
					"attributes":{
						"POSITION":0,
						"NORMAL":1,
						"TEXCOORD_0":2,
						"TANGENT":3
					},
					"indices":4,
					"material":0
				},
				{
					"attributes":{
						"POSITION":5,
						"NORMAL":6,
						"TEXCOORD_0":7,
						"TANGENT":8
					},
					"indices":9,
					"material":1
				}
			]
		}
	],
	"textures":[
		{
			"sampler":0,
			"source":0
		},
		{
			"sampler":0,
			"source":1
		},
		{
			"sampler":0,
			"source":2
		},
		{
			"sampler":0,
			"source":3
		},
		{
			"sampler":0,
			"source":4
		},
		{
			"sampler":0,
			"source":5
		}
	],
	"images":[
		{
			"mimeType":"image/png",
			"name":"storage_paint_gray_normal_opengl",
			"uri":"textures/storage_paint_gray_normal_opengl.png"
		},
		{
			"mimeType":"image/png",
			"name":"storage_paint_gray_orm",
			"uri":"textures/storage_paint_gray_orm.png"
		},
		{
			"mimeType":"image/png",
			"name":"storage_paint_blue_basecolor",
			"uri":"textures/storage_paint_blue_basecolor.png"
		},
		{
			"mimeType":"image/png",
			"name":"storage_steel_used_normal_opengl",
			"uri":"textures/storage_steel_used_normal_opengl.png"
		},
		{
			"mimeType":"image/png",
			"name":"storage_steel_used_orm",
			"uri":"textures/storage_steel_used_orm.png"
		},
		{
			"mimeType":"image/png",
			"name":"storage_steel_used_basecolor",
			"uri":"textures/storage_steel_used_basecolor.png"
		}
	],
	"accessors":[
		{
			"bufferView":0,
			"componentType":5126,
			"count":632,
			"max":[
				0.11500000208616257,
				0.19999998807907104,
				0.20250000059604645
			],
			"min":[
				-0.11500000208616257,
				0,
				-0.1525000035762787
			],
			"type":"VEC3"
		},
		{
			"bufferView":1,
			"componentType":5126,
			"count":632,
			"type":"VEC3"
		},
		{
			"bufferView":2,
			"componentType":5126,
			"count":632,
			"type":"VEC2"
		},
		{
			"bufferView":3,
			"componentType":5126,
			"count":632,
			"type":"VEC4"
		},
		{
			"bufferView":4,
			"componentType":5123,
			"count":2292,
			"type":"SCALAR"
		},
		{
			"bufferView":5,
			"componentType":5126,
			"count":992,
			"max":[
				0.10139229893684387,
				0.2355000078678131,
				0.3230000138282776
			],
			"min":[
				-0.10139229893684387,
				0.010499998927116394,
				-0.1614999920129776
			],
			"type":"VEC3"
		},
		{
			"bufferView":6,
			"componentType":5126,
			"count":992,
			"type":"VEC3"
		},
		{
			"bufferView":7,
			"componentType":5126,
			"count":992,
			"type":"VEC2"
		},
		{
			"bufferView":8,
			"componentType":5126,
			"count":992,
			"type":"VEC4"
		},
		{
			"bufferView":9,
			"componentType":5123,
			"count":3108,
			"type":"SCALAR"
		}
	],
	"bufferViews":[
		{
			"buffer":0,
			"byteLength":7584,
			"byteOffset":0,
			"target":34962
		},
		{
			"buffer":0,
			"byteLength":7584,
			"byteOffset":7584,
			"target":34962
		},
		{
			"buffer":0,
			"byteLength":5056,
			"byteOffset":15168,
			"target":34962
		},
		{
			"buffer":0,
			"byteLength":10112,
			"byteOffset":20224,
			"target":34962
		},
		{
			"buffer":0,
			"byteLength":4584,
			"byteOffset":30336,
			"target":34963
		},
		{
			"buffer":0,
			"byteLength":11904,
			"byteOffset":34920,
			"target":34962
		},
		{
			"buffer":0,
			"byteLength":11904,
			"byteOffset":46824,
			"target":34962
		},
		{
			"buffer":0,
			"byteLength":7936,
			"byteOffset":58728,
			"target":34962
		},
		{
			"buffer":0,
			"byteLength":15872,
			"byteOffset":66664,
			"target":34962
		},
		{
			"buffer":0,
			"byteLength":6216,
			"byteOffset":82536,
			"target":34963
		}
	],
	"samplers":[
		{
			"magFilter":9729,
			"minFilter":9987
		}
	],
	"buffers":[
		{
			"byteLength":88752,
			"uri":"Bench_Vise.bin"
		}
	]
}
