{
	"asset":{
		"generator":"Khronos glTF Blender I/O v5.2.39",
		"version":"2.0"
	},
	"scene":0,
	"scenes":[
		{
			"name":"STORAGE \u2022 Reference scene",
			"nodes":[
				0
			]
		}
	],
	"nodes":[
		{
			"extras":{
				"asset_id":"Box_Cardboard_Open",
				"units":"meters",
				"front_axis_blender":"-Y",
				"pivot":"bottom center"
			},
			"mesh":0,
			"name":"Box_Cardboard_Open_Export"
		}
	],
	"materials":[
		{
			"name":"STORE \u2022 Cardboard",
			"normalTexture":{
				"index":0
			},
			"occlusionTexture":{
				"index":1
			},
			"pbrMetallicRoughness":{
				"baseColorTexture":{
					"index":2
				},
				"metallicRoughnessTexture":{
					"index":1
				}
			}
		},
		{
			"name":"STORE \u2022 Printed labels",
			"pbrMetallicRoughness":{
				"baseColorTexture":{
					"index":3
				},
				"metallicFactor":0,
				"roughnessFactor":0.8700000047683716
			}
		}
	],
	"meshes":[
		{
			"name":"Box_Cardboard_Open_Mesh.001",
			"primitives":[
				{
					"attributes":{
						"POSITION":0,
						"NORMAL":1,
						"TEXCOORD_0":2,
						"TANGENT":3
					},
					"indices":4,
					"material":0
				},
				{
					"attributes":{
						"POSITION":5,
						"NORMAL":6,
						"TEXCOORD_0":7,
						"TANGENT":8
					},
					"indices":9,
					"material":1
				}
			]
		}
	],
	"textures":[
		{
			"sampler":0,
			"source":0
		},
		{
			"sampler":0,
			"source":1
		},
		{
			"sampler":0,
			"source":2
		},
		{
			"sampler":0,
			"source":3
		}
	],
	"images":[
		{
			"mimeType":"image/png",
			"name":"storage_cardboard_normal_opengl",
			"uri":"textures/storage_cardboard_normal_opengl.png"
		},
		{
			"mimeType":"image/png",
			"name":"storage_cardboard_orm",
			"uri":"textures/storage_cardboard_orm.png"
		},
		{
			"mimeType":"image/png",
			"name":"storage_cardboard_basecolor",
			"uri":"textures/storage_cardboard_basecolor.png"
		},
		{
			"mimeType":"image/png",
			"name":"storage_prints_basecolor",
			"uri":"textures/storage_prints_basecolor.png"
		}
	],
	"accessors":[
		{
			"bufferView":0,
			"componentType":5126,
			"count":432,
			"max":[
				0.24277262389659882,
				0.4011634290218353,
				0.35047394037246704
			],
			"min":[
				-0.24277262389659882,
				6.05359673500061e-09,
				-0.35047394037246704
			],
			"type":"VEC3"
		},
		{
			"bufferView":1,
			"componentType":5126,
			"count":432,
			"type":"VEC3"
		},
		{
			"bufferView":2,
			"componentType":5126,
			"count":432,
			"type":"VEC2"
		},
		{
			"bufferView":3,
			"componentType":5126,
			"count":432,
			"type":"VEC4"
		},
		{
			"bufferView":4,
			"componentType":5123,
			"count":1188,
			"type":"SCALAR"
		},
		{
			"bufferView":5,
			"componentType":5126,
			"count":12,
			"max":[
				0.14826543629169464,
				0.2836049795150757,
				0.18079999089241028
			],
			"min":[
				-0.03173457458615303,
				0.1336049735546112,
				0.17980000376701355
			],
			"type":"VEC3"
		},
		{
			"bufferView":6,
			"componentType":5126,
			"count":12,
			"type":"VEC3"
		},
		{
			"bufferView":7,
			"componentType":5126,
			"count":12,
			"type":"VEC2"
		},
		{
			"bufferView":8,
			"componentType":5126,
			"count":12,
			"type":"VEC4"
		},
		{
			"bufferView":9,
			"componentType":5123,
			"count":36,
			"type":"SCALAR"
		}
	],
	"bufferViews":[
		{
			"buffer":0,
			"byteLength":5184,
			"byteOffset":0,
			"target":34962
		},
		{
			"buffer":0,
			"byteLength":5184,
			"byteOffset":5184,
			"target":34962
		},
		{
			"buffer":0,
			"byteLength":3456,
			"byteOffset":10368,
			"target":34962
		},
		{
			"buffer":0,
			"byteLength":6912,
			"byteOffset":13824,
			"target":34962
		},
		{
			"buffer":0,
			"byteLength":2376,
			"byteOffset":20736,
			"target":34963
		},
		{
			"buffer":0,
			"byteLength":144,
			"byteOffset":23112,
			"target":34962
		},
		{
			"buffer":0,
			"byteLength":144,
			"byteOffset":23256,
			"target":34962
		},
		{
			"buffer":0,
			"byteLength":96,
			"byteOffset":23400,
			"target":34962
		},
		{
			"buffer":0,
			"byteLength":192,
			"byteOffset":23496,
			"target":34962
		},
		{
			"buffer":0,
			"byteLength":72,
			"byteOffset":23688,
			"target":34963
		}
	],
	"samplers":[
		{
			"magFilter":9729,
			"minFilter":9987
		}
	],
	"buffers":[
		{
			"byteLength":23760,
			"uri":"Box_Cardboard_Open.bin"
		}
	]
}
