{
	"asset":{
		"generator":"Khronos glTF Blender I/O v5.2.39",
		"version":"2.0"
	},
	"scene":0,
	"scenes":[
		{
			"name":"STORAGE \u2022 Reference scene",
			"nodes":[
				0
			]
		}
	],
	"nodes":[
		{
			"extras":{
				"asset_id":"Box_Cardboard_Small",
				"units":"meters",
				"front_axis_blender":"-Y",
				"pivot":"bottom center"
			},
			"mesh":0,
			"name":"Box_Cardboard_Small_Export"
		}
	],
	"materials":[
		{
			"name":"STORE \u2022 Cardboard",
			"normalTexture":{
				"index":0
			},
			"occlusionTexture":{
				"index":1
			},
			"pbrMetallicRoughness":{
				"baseColorTexture":{
					"index":2
				},
				"metallicRoughnessTexture":{
					"index":1
				}
			}
		},
		{
			"name":"STORE \u2022 Paper",
			"pbrMetallicRoughness":{
				"baseColorFactor":[
					0.6200000047683716,
					0.5899999737739563,
					0.49000000953674316,
					1
				],
				"metallicFactor":0,
				"roughnessFactor":0.8700000047683716
			}
		},
		{
			"name":"STORE \u2022 Printed labels",
			"pbrMetallicRoughness":{
				"baseColorTexture":{
					"index":3
				},
				"metallicFactor":0,
				"roughnessFactor":0.8700000047683716
			}
		}
	],
	"meshes":[
		{
			"name":"Box_Cardboard_Small_Mesh.001",
			"primitives":[
				{
					"attributes":{
						"POSITION":0,
						"NORMAL":1,
						"TEXCOORD_0":2,
						"TANGENT":3
					},
					"indices":4,
					"material":0
				},
				{
					"attributes":{
						"POSITION":5,
						"NORMAL":6,
						"TEXCOORD_0":7,
						"TANGENT":8
					},
					"indices":9,
					"material":1
				},
				{
					"attributes":{
						"POSITION":10,
						"NORMAL":11,
						"TEXCOORD_0":12,
						"TANGENT":13
					},
					"indices":14,
					"material":2
				}
			]
		}
	],
	"textures":[
		{
			"sampler":0,
			"source":0
		},
		{
			"sampler":0,
			"source":1
		},
		{
			"sampler":0,
			"source":2
		},
		{
			"sampler":0,
			"source":3
		}
	],
	"images":[
		{
			"mimeType":"image/png",
			"name":"storage_cardboard_normal_opengl",
			"uri":"textures/storage_cardboard_normal_opengl.png"
		},
		{
			"mimeType":"image/png",
			"name":"storage_cardboard_orm",
			"uri":"textures/storage_cardboard_orm.png"
		},
		{
			"mimeType":"image/png",
			"name":"storage_cardboard_basecolor",
			"uri":"textures/storage_cardboard_basecolor.png"
		},
		{
			"mimeType":"image/png",
			"name":"storage_prints_basecolor",
			"uri":"textures/storage_prints_basecolor.png"
		}
	],
	"accessors":[
		{
			"bufferView":0,
			"componentType":5126,
			"count":96,
			"max":[
				0.15000000596046448,
				0.2199999988079071,
				0.11999999731779099
			],
			"min":[
				-0.15000000596046448,
				0,
				-0.11999999731779099
			],
			"type":"VEC3"
		},
		{
			"bufferView":1,
			"componentType":5126,
			"count":96,
			"type":"VEC3"
		},
		{
			"bufferView":2,
			"componentType":5126,
			"count":96,
			"type":"VEC2"
		},
		{
			"bufferView":3,
			"componentType":5126,
			"count":96,
			"type":"VEC4"
		},
		{
			"bufferView":4,
			"componentType":5123,
			"count":324,
			"type":"SCALAR"
		},
		{
			"bufferView":5,
			"componentType":5126,
			"count":72,
			"max":[
				0.027000000700354576,
				0.2206999957561493,
				0.12070000171661377
			],
			"min":[
				-0.027000000700354576,
				0.10950000584125519,
				-0.12070000171661377
			],
			"type":"VEC3"
		},
		{
			"bufferView":6,
			"componentType":5126,
			"count":72,
			"type":"VEC3"
		},
		{
			"bufferView":7,
			"componentType":5126,
			"count":72,
			"type":"VEC2"
		},
		{
			"bufferView":8,
			"componentType":5126,
			"count":72,
			"type":"VEC4"
		},
		{
			"bufferView":9,
			"componentType":5123,
			"count":108,
			"type":"SCALAR"
		},
		{
			"bufferView":10,
			"componentType":5126,
			"count":12,
			"max":[
				0.13699999451637268,
				0.1853879988193512,
				0.12080000340938568
			],
			"min":[
				0.03700000047683716,
				0.04413999617099762,
				0.11980000138282776
			],
			"type":"VEC3"
		},
		{
			"bufferView":11,
			"componentType":5126,
			"count":12,
			"type":"VEC3"
		},
		{
			"bufferView":12,
			"componentType":5126,
			"count":12,
			"type":"VEC2"
		},
		{
			"bufferView":13,
			"componentType":5126,
			"count":12,
			"type":"VEC4"
		},
		{
			"bufferView":14,
			"componentType":5123,
			"count":36,
			"type":"SCALAR"
		}
	],
	"bufferViews":[
		{
			"buffer":0,
			"byteLength":1152,
			"byteOffset":0,
			"target":34962
		},
		{
			"buffer":0,
			"byteLength":1152,
			"byteOffset":1152,
			"target":34962
		},
		{
			"buffer":0,
			"byteLength":768,
			"byteOffset":2304,
			"target":34962
		},
		{
			"buffer":0,
			"byteLength":1536,
			"byteOffset":3072,
			"target":34962
		},
		{
			"buffer":0,
			"byteLength":648,
			"byteOffset":4608,
			"target":34963
		},
		{
			"buffer":0,
			"byteLength":864,
			"byteOffset":5256,
			"target":34962
		},
		{
			"buffer":0,
			"byteLength":864,
			"byteOffset":6120,
			"target":34962
		},
		{
			"buffer":0,
			"byteLength":576,
			"byteOffset":6984,
			"target":34962
		},
		{
			"buffer":0,
			"byteLength":1152,
			"byteOffset":7560,
			"target":34962
		},
		{
			"buffer":0,
			"byteLength":216,
			"byteOffset":8712,
			"target":34963
		},
		{
			"buffer":0,
			"byteLength":144,
			"byteOffset":8928,
			"target":34962
		},
		{
			"buffer":0,
			"byteLength":144,
			"byteOffset":9072,
			"target":34962
		},
		{
			"buffer":0,
			"byteLength":96,
			"byteOffset":9216,
			"target":34962
		},
		{
			"buffer":0,
			"byteLength":192,
			"byteOffset":9312,
			"target":34962
		},
		{
			"buffer":0,
			"byteLength":72,
			"byteOffset":9504,
			"target":34963
		}
	],
	"samplers":[
		{
			"magFilter":9729,
			"minFilter":9987
		}
	],
	"buffers":[
		{
			"byteLength":9576,
			"uri":"Box_Cardboard_Small.bin"
		}
	]
}
