{
	"asset":{
		"generator":"Khronos glTF Blender I/O v5.2.39",
		"version":"2.0"
	},
	"scene":0,
	"scenes":[
		{
			"name":"STORAGE \u2022 Reference scene",
			"nodes":[
				0
			]
		}
	],
	"nodes":[
		{
			"extras":{
				"asset_id":"Crate_Wood_Open_600",
				"units":"meters",
				"front_axis_blender":"-Y",
				"pivot":"bottom center"
			},
			"mesh":0,
			"name":"Crate_Wood_Open_600_Export"
		}
	],
	"materials":[
		{
			"name":"STORE \u2022 Wood",
			"normalTexture":{
				"index":0
			},
			"occlusionTexture":{
				"index":1
			},
			"pbrMetallicRoughness":{
				"baseColorTexture":{
					"index":2
				},
				"metallicRoughnessTexture":{
					"index":1
				}
			}
		},
		{
			"name":"STORE \u2022 Steel",
			"normalTexture":{
				"index":3
			},
			"occlusionTexture":{
				"index":4
			},
			"pbrMetallicRoughness":{
				"baseColorTexture":{
					"index":5
				},
				"metallicRoughnessTexture":{
					"index":4
				}
			}
		}
	],
	"meshes":[
		{
			"name":"Crate_Wood_Open_600_Mesh.001",
			"primitives":[
				{
					"attributes":{
						"POSITION":0,
						"NORMAL":1,
						"TEXCOORD_0":2,
						"TANGENT":3
					},
					"indices":4,
					"material":0
				},
				{
					"attributes":{
						"POSITION":5,
						"NORMAL":6,
						"TEXCOORD_0":7,
						"TANGENT":8
					},
					"indices":9,
					"material":1
				}
			]
		}
	],
	"textures":[
		{
			"sampler":0,
			"source":0
		},
		{
			"sampler":0,
			"source":1
		},
		{
			"sampler":0,
			"source":2
		},
		{
			"sampler":0,
			"source":3
		},
		{
			"sampler":0,
			"source":4
		},
		{
			"sampler":0,
			"source":5
		}
	],
	"images":[
		{
			"mimeType":"image/png",
			"name":"storage_wood_worn_normal_opengl",
			"uri":"textures/storage_wood_worn_normal_opengl.png"
		},
		{
			"mimeType":"image/png",
			"name":"storage_wood_worn_orm",
			"uri":"textures/storage_wood_worn_orm.png"
		},
		{
			"mimeType":"image/png",
			"name":"storage_wood_worn_basecolor",
			"uri":"textures/storage_wood_worn_basecolor.png"
		},
		{
			"mimeType":"image/png",
			"name":"storage_steel_used_normal_opengl",
			"uri":"textures/storage_steel_used_normal_opengl.png"
		},
		{
			"mimeType":"image/png",
			"name":"storage_steel_used_orm",
			"uri":"textures/storage_steel_used_orm.png"
		},
		{
			"mimeType":"image/png",
			"name":"storage_steel_used_basecolor",
			"uri":"textures/storage_steel_used_basecolor.png"
		}
	],
	"accessors":[
		{
			"bufferView":0,
			"componentType":5126,
			"count":1392,
			"max":[
				0.30000001192092896,
				0.3610000014305115,
				0.23350000381469727
			],
			"min":[
				-0.30000001192092896,
				0,
				-0.23350000381469727
			],
			"type":"VEC3"
		},
		{
			"bufferView":1,
			"componentType":5126,
			"count":1392,
			"type":"VEC3"
		},
		{
			"bufferView":2,
			"componentType":5126,
			"count":1392,
			"type":"VEC2"
		},
		{
			"bufferView":3,
			"componentType":5126,
			"count":1392,
			"type":"VEC4"
		},
		{
			"bufferView":4,
			"componentType":5123,
			"count":3828,
			"type":"SCALAR"
		},
		{
			"bufferView":5,
			"componentType":5126,
			"count":576,
			"max":[
				0.20259808003902435,
				0.2737500071525574,
				0.23649999499320984
			],
			"min":[
				-0.20259808003902435,
				0.11424999684095383,
				-0.23649999499320984
			],
			"type":"VEC3"
		},
		{
			"bufferView":6,
			"componentType":5126,
			"count":576,
			"type":"VEC3"
		},
		{
			"bufferView":7,
			"componentType":5126,
			"count":576,
			"type":"VEC2"
		},
		{
			"bufferView":8,
			"componentType":5126,
			"count":576,
			"type":"VEC4"
		},
		{
			"bufferView":9,
			"componentType":5123,
			"count":1632,
			"type":"SCALAR"
		}
	],
	"bufferViews":[
		{
			"buffer":0,
			"byteLength":16704,
			"byteOffset":0,
			"target":34962
		},
		{
			"buffer":0,
			"byteLength":16704,
			"byteOffset":16704,
			"target":34962
		},
		{
			"buffer":0,
			"byteLength":11136,
			"byteOffset":33408,
			"target":34962
		},
		{
			"buffer":0,
			"byteLength":22272,
			"byteOffset":44544,
			"target":34962
		},
		{
			"buffer":0,
			"byteLength":7656,
			"byteOffset":66816,
			"target":34963
		},
		{
			"buffer":0,
			"byteLength":6912,
			"byteOffset":74472,
			"target":34962
		},
		{
			"buffer":0,
			"byteLength":6912,
			"byteOffset":81384,
			"target":34962
		},
		{
			"buffer":0,
			"byteLength":4608,
			"byteOffset":88296,
			"target":34962
		},
		{
			"buffer":0,
			"byteLength":9216,
			"byteOffset":92904,
			"target":34962
		},
		{
			"buffer":0,
			"byteLength":3264,
			"byteOffset":102120,
			"target":34963
		}
	],
	"samplers":[
		{
			"magFilter":9729,
			"minFilter":9987
		}
	],
	"buffers":[
		{
			"byteLength":105384,
			"uri":"Crate_Wood_Open_600.bin"
		}
	]
}
