{
	"asset":{
		"generator":"Khronos glTF Blender I/O v5.2.39",
		"version":"2.0"
	},
	"scene":0,
	"scenes":[
		{
			"name":"STORAGE \u2022 Reference scene",
			"nodes":[
				0
			]
		}
	],
	"nodes":[
		{
			"extras":{
				"asset_id":"Crate_Wood_600",
				"units":"meters",
				"front_axis_blender":"-Y",
				"pivot":"bottom center"
			},
			"mesh":0,
			"name":"Crate_Wood_600_Export"
		}
	],
	"materials":[
		{
			"name":"STORE \u2022 Wood",
			"normalTexture":{
				"index":0
			},
			"occlusionTexture":{
				"index":1
			},
			"pbrMetallicRoughness":{
				"baseColorTexture":{
					"index":2
				},
				"metallicRoughnessTexture":{
					"index":1
				}
			}
		},
		{
			"name":"STORE \u2022 Steel",
			"normalTexture":{
				"index":3
			},
			"occlusionTexture":{
				"index":4
			},
			"pbrMetallicRoughness":{
				"baseColorTexture":{
					"index":5
				},
				"metallicRoughnessTexture":{
					"index":4
				}
			}
		},
		{
			"name":"STORE \u2022 Printed labels",
			"pbrMetallicRoughness":{
				"baseColorTexture":{
					"index":6
				},
				"metallicFactor":0,
				"roughnessFactor":0.8700000047683716
			}
		}
	],
	"meshes":[
		{
			"name":"Crate_Wood_600_Mesh.001",
			"primitives":[
				{
					"attributes":{
						"POSITION":0,
						"NORMAL":1,
						"TEXCOORD_0":2,
						"TANGENT":3
					},
					"indices":4,
					"material":0
				},
				{
					"attributes":{
						"POSITION":5,
						"NORMAL":6,
						"TEXCOORD_0":7,
						"TANGENT":8
					},
					"indices":9,
					"material":1
				},
				{
					"attributes":{
						"POSITION":10,
						"NORMAL":11,
						"TEXCOORD_0":12,
						"TANGENT":13
					},
					"indices":14,
					"material":2
				}
			]
		}
	],
	"textures":[
		{
			"sampler":0,
			"source":0
		},
		{
			"sampler":0,
			"source":1
		},
		{
			"sampler":0,
			"source":2
		},
		{
			"sampler":0,
			"source":3
		},
		{
			"sampler":0,
			"source":4
		},
		{
			"sampler":0,
			"source":5
		},
		{
			"sampler":0,
			"source":6
		}
	],
	"images":[
		{
			"mimeType":"image/png",
			"name":"storage_wood_worn_normal_opengl",
			"uri":"textures/storage_wood_worn_normal_opengl.png"
		},
		{
			"mimeType":"image/png",
			"name":"storage_wood_worn_orm",
			"uri":"textures/storage_wood_worn_orm.png"
		},
		{
			"mimeType":"image/png",
			"name":"storage_wood_worn_basecolor",
			"uri":"textures/storage_wood_worn_basecolor.png"
		},
		{
			"mimeType":"image/png",
			"name":"storage_steel_used_normal_opengl",
			"uri":"textures/storage_steel_used_normal_opengl.png"
		},
		{
			"mimeType":"image/png",
			"name":"storage_steel_used_orm",
			"uri":"textures/storage_steel_used_orm.png"
		},
		{
			"mimeType":"image/png",
			"name":"storage_steel_used_basecolor",
			"uri":"textures/storage_steel_used_basecolor.png"
		},
		{
			"mimeType":"image/png",
			"name":"storage_prints_basecolor",
			"uri":"textures/storage_prints_basecolor.png"
		}
	],
	"accessors":[
		{
			"bufferView":0,
			"componentType":5126,
			"count":1632,
			"max":[
				0.30000001192092896,
				0.4710000157356262,
				0.2485000044107437
			],
			"min":[
				-0.30000001192092896,
				0,
				-0.2485000044107437
			],
			"type":"VEC3"
		},
		{
			"bufferView":1,
			"componentType":5126,
			"count":1632,
			"type":"VEC3"
		},
		{
			"bufferView":2,
			"componentType":5126,
			"count":1632,
			"type":"VEC2"
		},
		{
			"bufferView":3,
			"componentType":5126,
			"count":1632,
			"type":"VEC4"
		},
		{
			"bufferView":4,
			"componentType":5123,
			"count":4488,
			"type":"SCALAR"
		},
		{
			"bufferView":5,
			"componentType":5126,
			"count":576,
			"max":[
				0.20259808003902435,
				0.3837500214576721,
				0.2515000104904175
			],
			"min":[
				-0.20259808003902435,
				0.11425000429153442,
				-0.2515000104904175
			],
			"type":"VEC3"
		},
		{
			"bufferView":6,
			"componentType":5126,
			"count":576,
			"type":"VEC3"
		},
		{
			"bufferView":7,
			"componentType":5126,
			"count":576,
			"type":"VEC2"
		},
		{
			"bufferView":8,
			"componentType":5126,
			"count":576,
			"type":"VEC4"
		},
		{
			"bufferView":9,
			"componentType":5123,
			"count":1632,
			"type":"SCALAR"
		},
		{
			"bufferView":10,
			"componentType":5126,
			"count":12,
			"max":[
				0.08500000089406967,
				0.3534700274467468,
				0.22579999268054962
			],
			"min":[
				-0.08500000089406967,
				0.1834700107574463,
				0.2248000055551529
			],
			"type":"VEC3"
		},
		{
			"bufferView":11,
			"componentType":5126,
			"count":12,
			"type":"VEC3"
		},
		{
			"bufferView":12,
			"componentType":5126,
			"count":12,
			"type":"VEC2"
		},
		{
			"bufferView":13,
			"componentType":5126,
			"count":12,
			"type":"VEC4"
		},
		{
			"bufferView":14,
			"componentType":5123,
			"count":36,
			"type":"SCALAR"
		}
	],
	"bufferViews":[
		{
			"buffer":0,
			"byteLength":19584,
			"byteOffset":0,
			"target":34962
		},
		{
			"buffer":0,
			"byteLength":19584,
			"byteOffset":19584,
			"target":34962
		},
		{
			"buffer":0,
			"byteLength":13056,
			"byteOffset":39168,
			"target":34962
		},
		{
			"buffer":0,
			"byteLength":26112,
			"byteOffset":52224,
			"target":34962
		},
		{
			"buffer":0,
			"byteLength":8976,
			"byteOffset":78336,
			"target":34963
		},
		{
			"buffer":0,
			"byteLength":6912,
			"byteOffset":87312,
			"target":34962
		},
		{
			"buffer":0,
			"byteLength":6912,
			"byteOffset":94224,
			"target":34962
		},
		{
			"buffer":0,
			"byteLength":4608,
			"byteOffset":101136,
			"target":34962
		},
		{
			"buffer":0,
			"byteLength":9216,
			"byteOffset":105744,
			"target":34962
		},
		{
			"buffer":0,
			"byteLength":3264,
			"byteOffset":114960,
			"target":34963
		},
		{
			"buffer":0,
			"byteLength":144,
			"byteOffset":118224,
			"target":34962
		},
		{
			"buffer":0,
			"byteLength":144,
			"byteOffset":118368,
			"target":34962
		},
		{
			"buffer":0,
			"byteLength":96,
			"byteOffset":118512,
			"target":34962
		},
		{
			"buffer":0,
			"byteLength":192,
			"byteOffset":118608,
			"target":34962
		},
		{
			"buffer":0,
			"byteLength":72,
			"byteOffset":118800,
			"target":34963
		}
	],
	"samplers":[
		{
			"magFilter":9729,
			"minFilter":9987
		}
	],
	"buffers":[
		{
			"byteLength":118872,
			"uri":"Crate_Wood_600.bin"
		}
	]
}
