{
	"asset":{
		"generator":"Khronos glTF Blender I/O v5.2.39",
		"version":"2.0"
	},
	"scene":0,
	"scenes":[
		{
			"name":"STORAGE \u2022 Reference scene",
			"nodes":[
				0
			]
		}
	],
	"nodes":[
		{
			"extras":{
				"asset_id":"Crate_Wood_900",
				"units":"meters",
				"front_axis_blender":"-Y",
				"pivot":"bottom center"
			},
			"mesh":0,
			"name":"Crate_Wood_900_Export"
		}
	],
	"materials":[
		{
			"name":"STORE \u2022 Wood",
			"normalTexture":{
				"index":0
			},
			"occlusionTexture":{
				"index":1
			},
			"pbrMetallicRoughness":{
				"baseColorTexture":{
					"index":2
				},
				"metallicRoughnessTexture":{
					"index":1
				}
			}
		},
		{
			"name":"STORE \u2022 Steel",
			"normalTexture":{
				"index":3
			},
			"occlusionTexture":{
				"index":4
			},
			"pbrMetallicRoughness":{
				"baseColorTexture":{
					"index":5
				},
				"metallicRoughnessTexture":{
					"index":4
				}
			}
		},
		{
			"name":"STORE \u2022 Printed labels",
			"pbrMetallicRoughness":{
				"baseColorTexture":{
					"index":6
				},
				"metallicFactor":0,
				"roughnessFactor":0.8700000047683716
			}
		}
	],
	"meshes":[
		{
			"name":"Crate_Wood_900_Mesh.001",
			"primitives":[
				{
					"attributes":{
						"POSITION":0,
						"NORMAL":1,
						"TEXCOORD_0":2,
						"TANGENT":3
					},
					"indices":4,
					"material":0
				},
				{
					"attributes":{
						"POSITION":5,
						"NORMAL":6,
						"TEXCOORD_0":7,
						"TANGENT":8
					},
					"indices":9,
					"material":1
				},
				{
					"attributes":{
						"POSITION":10,
						"NORMAL":11,
						"TEXCOORD_0":12,
						"TANGENT":13
					},
					"indices":14,
					"material":2
				}
			]
		}
	],
	"textures":[
		{
			"sampler":0,
			"source":0
		},
		{
			"sampler":0,
			"source":1
		},
		{
			"sampler":0,
			"source":2
		},
		{
			"sampler":0,
			"source":3
		},
		{
			"sampler":0,
			"source":4
		},
		{
			"sampler":0,
			"source":5
		},
		{
			"sampler":0,
			"source":6
		}
	],
	"images":[
		{
			"mimeType":"image/png",
			"name":"storage_wood_worn_normal_opengl",
			"uri":"textures/storage_wood_worn_normal_opengl.png"
		},
		{
			"mimeType":"image/png",
			"name":"storage_wood_worn_orm",
			"uri":"textures/storage_wood_worn_orm.png"
		},
		{
			"mimeType":"image/png",
			"name":"storage_wood_worn_basecolor",
			"uri":"textures/storage_wood_worn_basecolor.png"
		},
		{
			"mimeType":"image/png",
			"name":"storage_steel_used_normal_opengl",
			"uri":"textures/storage_steel_used_normal_opengl.png"
		},
		{
			"mimeType":"image/png",
			"name":"storage_steel_used_orm",
			"uri":"textures/storage_steel_used_orm.png"
		},
		{
			"mimeType":"image/png",
			"name":"storage_steel_used_basecolor",
			"uri":"textures/storage_steel_used_basecolor.png"
		},
		{
			"mimeType":"image/png",
			"name":"storage_prints_basecolor",
			"uri":"textures/storage_prints_basecolor.png"
		}
	],
	"accessors":[
		{
			"bufferView":0,
			"componentType":5126,
			"count":2016,
			"max":[
				0.45000001788139343,
				0.6909999847412109,
				0.343500018119812
			],
			"min":[
				-0.45000001788139343,
				0,
				-0.3434999883174896
			],
			"type":"VEC3"
		},
		{
			"bufferView":1,
			"componentType":5126,
			"count":2016,
			"type":"VEC3"
		},
		{
			"bufferView":2,
			"componentType":5126,
			"count":2016,
			"type":"VEC2"
		},
		{
			"bufferView":3,
			"componentType":5126,
			"count":2016,
			"type":"VEC4"
		},
		{
			"bufferView":4,
			"componentType":5123,
			"count":5544,
			"type":"SCALAR"
		},
		{
			"bufferView":5,
			"componentType":5126,
			"count":576,
			"max":[
				0.35259807109832764,
				0.6037499904632568,
				0.3465000092983246
			],
			"min":[
				-0.35259807109832764,
				0.11424999684095383,
				-0.3465000092983246
			],
			"type":"VEC3"
		},
		{
			"bufferView":6,
			"componentType":5126,
			"count":576,
			"type":"VEC3"
		},
		{
			"bufferView":7,
			"componentType":5126,
			"count":576,
			"type":"VEC2"
		},
		{
			"bufferView":8,
			"componentType":5126,
			"count":576,
			"type":"VEC4"
		},
		{
			"bufferView":9,
			"componentType":5123,
			"count":1632,
			"type":"SCALAR"
		},
		{
			"bufferView":10,
			"componentType":5126,
			"count":12,
			"max":[
				0.08500000089406967,
				0.4788700044155121,
				0.3208000063896179
			],
			"min":[
				-0.08500000089406967,
				0.30886998772621155,
				0.3198000192642212
			],
			"type":"VEC3"
		},
		{
			"bufferView":11,
			"componentType":5126,
			"count":12,
			"type":"VEC3"
		},
		{
			"bufferView":12,
			"componentType":5126,
			"count":12,
			"type":"VEC2"
		},
		{
			"bufferView":13,
			"componentType":5126,
			"count":12,
			"type":"VEC4"
		},
		{
			"bufferView":14,
			"componentType":5123,
			"count":36,
			"type":"SCALAR"
		}
	],
	"bufferViews":[
		{
			"buffer":0,
			"byteLength":24192,
			"byteOffset":0,
			"target":34962
		},
		{
			"buffer":0,
			"byteLength":24192,
			"byteOffset":24192,
			"target":34962
		},
		{
			"buffer":0,
			"byteLength":16128,
			"byteOffset":48384,
			"target":34962
		},
		{
			"buffer":0,
			"byteLength":32256,
			"byteOffset":64512,
			"target":34962
		},
		{
			"buffer":0,
			"byteLength":11088,
			"byteOffset":96768,
			"target":34963
		},
		{
			"buffer":0,
			"byteLength":6912,
			"byteOffset":107856,
			"target":34962
		},
		{
			"buffer":0,
			"byteLength":6912,
			"byteOffset":114768,
			"target":34962
		},
		{
			"buffer":0,
			"byteLength":4608,
			"byteOffset":121680,
			"target":34962
		},
		{
			"buffer":0,
			"byteLength":9216,
			"byteOffset":126288,
			"target":34962
		},
		{
			"buffer":0,
			"byteLength":3264,
			"byteOffset":135504,
			"target":34963
		},
		{
			"buffer":0,
			"byteLength":144,
			"byteOffset":138768,
			"target":34962
		},
		{
			"buffer":0,
			"byteLength":144,
			"byteOffset":138912,
			"target":34962
		},
		{
			"buffer":0,
			"byteLength":96,
			"byteOffset":139056,
			"target":34962
		},
		{
			"buffer":0,
			"byteLength":192,
			"byteOffset":139152,
			"target":34962
		},
		{
			"buffer":0,
			"byteLength":72,
			"byteOffset":139344,
			"target":34963
		}
	],
	"samplers":[
		{
			"magFilter":9729,
			"minFilter":9987
		}
	],
	"buffers":[
		{
			"byteLength":139416,
			"uri":"Crate_Wood_900.bin"
		}
	]
}
