{
	"asset":{
		"generator":"Khronos glTF Blender I/O v5.2.39",
		"version":"2.0"
	},
	"scene":0,
	"scenes":[
		{
			"name":"STORAGE \u2022 Reference scene",
			"nodes":[
				0
			]
		}
	],
	"nodes":[
		{
			"extras":{
				"asset_id":"Drum_Steel_Open_200L",
				"units":"meters",
				"front_axis_blender":"-Y",
				"pivot":"bottom center"
			},
			"mesh":0,
			"name":"Drum_Steel_Open_200L_Export"
		}
	],
	"materials":[
		{
			"name":"STORE \u2022 PaintGray",
			"normalTexture":{
				"index":0
			},
			"occlusionTexture":{
				"index":1
			},
			"pbrMetallicRoughness":{
				"baseColorTexture":{
					"index":2
				},
				"metallicRoughnessTexture":{
					"index":1
				}
			}
		}
	],
	"meshes":[
		{
			"name":"Drum_Steel_Open_200L_Mesh.001",
			"primitives":[
				{
					"attributes":{
						"POSITION":0,
						"NORMAL":1,
						"TEXCOORD_0":2,
						"TANGENT":3
					},
					"indices":4,
					"material":0
				}
			]
		}
	],
	"textures":[
		{
			"sampler":0,
			"source":0
		},
		{
			"sampler":0,
			"source":1
		},
		{
			"sampler":0,
			"source":2
		}
	],
	"images":[
		{
			"mimeType":"image/png",
			"name":"storage_paint_gray_normal_opengl",
			"uri":"textures/storage_paint_gray_normal_opengl.png"
		},
		{
			"mimeType":"image/png",
			"name":"storage_paint_gray_orm",
			"uri":"textures/storage_paint_gray_orm.png"
		},
		{
			"mimeType":"image/png",
			"name":"storage_paint_gray_basecolor",
			"uri":"textures/storage_paint_gray_basecolor.png"
		}
	],
	"accessors":[
		{
			"bufferView":0,
			"componentType":5126,
			"count":1102,
			"max":[
				0.29600000381469727,
				0.8729999661445618,
				0.29600000381469727
			],
			"min":[
				-0.29600000381469727,
				0,
				-0.29600000381469727
			],
			"type":"VEC3"
		},
		{
			"bufferView":1,
			"componentType":5126,
			"count":1102,
			"type":"VEC3"
		},
		{
			"bufferView":2,
			"componentType":5126,
			"count":1102,
			"type":"VEC2"
		},
		{
			"bufferView":3,
			"componentType":5126,
			"count":1102,
			"type":"VEC4"
		},
		{
			"bufferView":4,
			"componentType":5123,
			"count":5508,
			"type":"SCALAR"
		}
	],
	"bufferViews":[
		{
			"buffer":0,
			"byteLength":13224,
			"byteOffset":0,
			"target":34962
		},
		{
			"buffer":0,
			"byteLength":13224,
			"byteOffset":13224,
			"target":34962
		},
		{
			"buffer":0,
			"byteLength":8816,
			"byteOffset":26448,
			"target":34962
		},
		{
			"buffer":0,
			"byteLength":17632,
			"byteOffset":35264,
			"target":34962
		},
		{
			"buffer":0,
			"byteLength":11016,
			"byteOffset":52896,
			"target":34963
		}
	],
	"samplers":[
		{
			"magFilter":9729,
			"minFilter":9987
		}
	],
	"buffers":[
		{
			"byteLength":63912,
			"uri":"Drum_Steel_Open_200L.bin"
		}
	]
}
