{
	"asset":{
		"generator":"Khronos glTF Blender I/O v5.2.39",
		"version":"2.0"
	},
	"scene":0,
	"scenes":[
		{
			"name":"STORAGE \u2022 Reference scene",
			"nodes":[
				0
			]
		}
	],
	"nodes":[
		{
			"extras":{
				"asset_id":"Drum_Steel_Small_60L",
				"units":"meters",
				"front_axis_blender":"-Y",
				"pivot":"bottom center"
			},
			"mesh":0,
			"name":"Drum_Steel_Small_60L_Export"
		}
	],
	"materials":[
		{
			"name":"STORE \u2022 PaintBlue",
			"normalTexture":{
				"index":0
			},
			"occlusionTexture":{
				"index":1
			},
			"pbrMetallicRoughness":{
				"baseColorTexture":{
					"index":2
				},
				"metallicRoughnessTexture":{
					"index":1
				}
			}
		},
		{
			"name":"STORE \u2022 Steel",
			"normalTexture":{
				"index":3
			},
			"occlusionTexture":{
				"index":4
			},
			"pbrMetallicRoughness":{
				"baseColorTexture":{
					"index":5
				},
				"metallicRoughnessTexture":{
					"index":4
				}
			}
		}
	],
	"meshes":[
		{
			"name":"Drum_Steel_Small_60L_Mesh.001",
			"primitives":[
				{
					"attributes":{
						"POSITION":0,
						"NORMAL":1,
						"TEXCOORD_0":2,
						"TANGENT":3
					},
					"indices":4,
					"material":0
				},
				{
					"attributes":{
						"POSITION":5,
						"NORMAL":6,
						"TEXCOORD_0":7,
						"TANGENT":8
					},
					"indices":9,
					"material":1
				}
			]
		}
	],
	"textures":[
		{
			"sampler":0,
			"source":0
		},
		{
			"sampler":0,
			"source":1
		},
		{
			"sampler":0,
			"source":2
		},
		{
			"sampler":0,
			"source":3
		},
		{
			"sampler":0,
			"source":4
		},
		{
			"sampler":0,
			"source":5
		}
	],
	"images":[
		{
			"mimeType":"image/png",
			"name":"storage_paint_gray_normal_opengl",
			"uri":"textures/storage_paint_gray_normal_opengl.png"
		},
		{
			"mimeType":"image/png",
			"name":"storage_paint_gray_orm",
			"uri":"textures/storage_paint_gray_orm.png"
		},
		{
			"mimeType":"image/png",
			"name":"storage_paint_blue_basecolor",
			"uri":"textures/storage_paint_blue_basecolor.png"
		},
		{
			"mimeType":"image/png",
			"name":"storage_steel_used_normal_opengl",
			"uri":"textures/storage_steel_used_normal_opengl.png"
		},
		{
			"mimeType":"image/png",
			"name":"storage_steel_used_orm",
			"uri":"textures/storage_steel_used_orm.png"
		},
		{
			"mimeType":"image/png",
			"name":"storage_steel_used_basecolor",
			"uri":"textures/storage_steel_used_basecolor.png"
		}
	],
	"accessors":[
		{
			"bufferView":0,
			"componentType":5126,
			"count":1277,
			"max":[
				0.20100000500679016,
				0.5680000185966492,
				0.20100000500679016
			],
			"min":[
				-0.20100000500679016,
				0,
				-0.20100000500679016
			],
			"type":"VEC3"
		},
		{
			"bufferView":1,
			"componentType":5126,
			"count":1277,
			"type":"VEC3"
		},
		{
			"bufferView":2,
			"componentType":5126,
			"count":1277,
			"type":"VEC2"
		},
		{
			"bufferView":3,
			"componentType":5126,
			"count":1277,
			"type":"VEC4"
		},
		{
			"bufferView":4,
			"componentType":5123,
			"count":5964,
			"type":"SCALAR"
		},
		{
			"bufferView":5,
			"componentType":5126,
			"count":144,
			"max":[
				0.10160641372203827,
				0.5724999904632568,
				0.02850000001490116
			],
			"min":[
				-0.11286474019289017,
				0.5575000047683716,
				-0.02850000001490116
			],
			"type":"VEC3"
		},
		{
			"bufferView":6,
			"componentType":5126,
			"count":144,
			"type":"VEC3"
		},
		{
			"bufferView":7,
			"componentType":5126,
			"count":144,
			"type":"VEC2"
		},
		{
			"bufferView":8,
			"componentType":5126,
			"count":144,
			"type":"VEC4"
		},
		{
			"bufferView":9,
			"componentType":5123,
			"count":408,
			"type":"SCALAR"
		}
	],
	"bufferViews":[
		{
			"buffer":0,
			"byteLength":15324,
			"byteOffset":0,
			"target":34962
		},
		{
			"buffer":0,
			"byteLength":15324,
			"byteOffset":15324,
			"target":34962
		},
		{
			"buffer":0,
			"byteLength":10216,
			"byteOffset":30648,
			"target":34962
		},
		{
			"buffer":0,
			"byteLength":20432,
			"byteOffset":40864,
			"target":34962
		},
		{
			"buffer":0,
			"byteLength":11928,
			"byteOffset":61296,
			"target":34963
		},
		{
			"buffer":0,
			"byteLength":1728,
			"byteOffset":73224,
			"target":34962
		},
		{
			"buffer":0,
			"byteLength":1728,
			"byteOffset":74952,
			"target":34962
		},
		{
			"buffer":0,
			"byteLength":1152,
			"byteOffset":76680,
			"target":34962
		},
		{
			"buffer":0,
			"byteLength":2304,
			"byteOffset":77832,
			"target":34962
		},
		{
			"buffer":0,
			"byteLength":816,
			"byteOffset":80136,
			"target":34963
		}
	],
	"samplers":[
		{
			"magFilter":9729,
			"minFilter":9987
		}
	],
	"buffers":[
		{
			"byteLength":80952,
			"uri":"Drum_Steel_Small_60L.bin"
		}
	]
}
