{
	"asset":{
		"generator":"Khronos glTF Blender I/O v5.2.39",
		"version":"2.0"
	},
	"scene":0,
	"scenes":[
		{
			"name":"STORAGE \u2022 Reference scene",
			"nodes":[
				0
			]
		}
	],
	"nodes":[
		{
			"extras":{
				"asset_id":"Hand_Tool_Hammer",
				"units":"meters",
				"front_axis_blender":"-Y",
				"pivot":"bottom center"
			},
			"mesh":0,
			"name":"Hand_Tool_Hammer_Export"
		}
	],
	"materials":[
		{
			"name":"STORE \u2022 Wood",
			"normalTexture":{
				"index":0
			},
			"occlusionTexture":{
				"index":1
			},
			"pbrMetallicRoughness":{
				"baseColorTexture":{
					"index":2
				},
				"metallicRoughnessTexture":{
					"index":1
				}
			}
		},
		{
			"name":"STORE \u2022 Steel",
			"normalTexture":{
				"index":3
			},
			"occlusionTexture":{
				"index":4
			},
			"pbrMetallicRoughness":{
				"baseColorTexture":{
					"index":5
				},
				"metallicRoughnessTexture":{
					"index":4
				}
			}
		}
	],
	"meshes":[
		{
			"name":"Hand_Tool_Hammer_Mesh.001",
			"primitives":[
				{
					"attributes":{
						"POSITION":0,
						"NORMAL":1,
						"TEXCOORD_0":2,
						"TANGENT":3
					},
					"indices":4,
					"material":0
				},
				{
					"attributes":{
						"POSITION":5,
						"NORMAL":6,
						"TEXCOORD_0":7,
						"TANGENT":8
					},
					"indices":9,
					"material":1
				}
			]
		}
	],
	"textures":[
		{
			"sampler":0,
			"source":0
		},
		{
			"sampler":0,
			"source":1
		},
		{
			"sampler":0,
			"source":2
		},
		{
			"sampler":0,
			"source":3
		},
		{
			"sampler":0,
			"source":4
		},
		{
			"sampler":0,
			"source":5
		}
	],
	"images":[
		{
			"mimeType":"image/png",
			"name":"storage_wood_worn_normal_opengl",
			"uri":"textures/storage_wood_worn_normal_opengl.png"
		},
		{
			"mimeType":"image/png",
			"name":"storage_wood_worn_orm",
			"uri":"textures/storage_wood_worn_orm.png"
		},
		{
			"mimeType":"image/png",
			"name":"storage_wood_worn_basecolor",
			"uri":"textures/storage_wood_worn_basecolor.png"
		},
		{
			"mimeType":"image/png",
			"name":"storage_steel_used_normal_opengl",
			"uri":"textures/storage_steel_used_normal_opengl.png"
		},
		{
			"mimeType":"image/png",
			"name":"storage_steel_used_orm",
			"uri":"textures/storage_steel_used_orm.png"
		},
		{
			"mimeType":"image/png",
			"name":"storage_steel_used_basecolor",
			"uri":"textures/storage_steel_used_basecolor.png"
		}
	],
	"accessors":[
		{
			"bufferView":0,
			"componentType":5126,
			"count":48,
			"max":[
				0.12449999898672104,
				0.032999999821186066,
				0.013000000268220901
			],
			"min":[
				-0.16049998998641968,
				0,
				-0.013000000268220901
			],
			"type":"VEC3"
		},
		{
			"bufferView":1,
			"componentType":5126,
			"count":48,
			"type":"VEC3"
		},
		{
			"bufferView":2,
			"componentType":5126,
			"count":48,
			"type":"VEC2"
		},
		{
			"bufferView":3,
			"componentType":5126,
			"count":48,
			"type":"VEC4"
		},
		{
			"bufferView":4,
			"componentType":5123,
			"count":132,
			"type":"SCALAR"
		},
		{
			"bufferView":5,
			"componentType":5126,
			"count":472,
			"max":[
				0.14899998903274536,
				0.058500006794929504,
				0.07699999958276749
			],
			"min":[
				0.09099999815225601,
				0.0005000028759241104,
				-0.09023147076368332
			],
			"type":"VEC3"
		},
		{
			"bufferView":6,
			"componentType":5126,
			"count":472,
			"type":"VEC3"
		},
		{
			"bufferView":7,
			"componentType":5126,
			"count":472,
			"type":"VEC2"
		},
		{
			"bufferView":8,
			"componentType":5126,
			"count":472,
			"type":"VEC4"
		},
		{
			"bufferView":9,
			"componentType":5123,
			"count":1680,
			"type":"SCALAR"
		}
	],
	"bufferViews":[
		{
			"buffer":0,
			"byteLength":576,
			"byteOffset":0,
			"target":34962
		},
		{
			"buffer":0,
			"byteLength":576,
			"byteOffset":576,
			"target":34962
		},
		{
			"buffer":0,
			"byteLength":384,
			"byteOffset":1152,
			"target":34962
		},
		{
			"buffer":0,
			"byteLength":768,
			"byteOffset":1536,
			"target":34962
		},
		{
			"buffer":0,
			"byteLength":264,
			"byteOffset":2304,
			"target":34963
		},
		{
			"buffer":0,
			"byteLength":5664,
			"byteOffset":2568,
			"target":34962
		},
		{
			"buffer":0,
			"byteLength":5664,
			"byteOffset":8232,
			"target":34962
		},
		{
			"buffer":0,
			"byteLength":3776,
			"byteOffset":13896,
			"target":34962
		},
		{
			"buffer":0,
			"byteLength":7552,
			"byteOffset":17672,
			"target":34962
		},
		{
			"buffer":0,
			"byteLength":3360,
			"byteOffset":25224,
			"target":34963
		}
	],
	"samplers":[
		{
			"magFilter":9729,
			"minFilter":9987
		}
	],
	"buffers":[
		{
			"byteLength":28584,
			"uri":"Hand_Tool_Hammer.bin"
		}
	]
}
