{
	"asset":{
		"generator":"Khronos glTF Blender I/O v5.2.39",
		"version":"2.0"
	},
	"scene":0,
	"scenes":[
		{
			"name":"STORAGE \u2022 Reference scene",
			"nodes":[
				0
			]
		}
	],
	"nodes":[
		{
			"extras":{
				"asset_id":"Hand_Tool_Wrench",
				"units":"meters",
				"front_axis_blender":"-Y",
				"pivot":"bottom center"
			},
			"mesh":0,
			"name":"Hand_Tool_Wrench_Export"
		}
	],
	"materials":[
		{
			"name":"STORE \u2022 Steel",
			"normalTexture":{
				"index":0
			},
			"occlusionTexture":{
				"index":1
			},
			"pbrMetallicRoughness":{
				"baseColorTexture":{
					"index":2
				},
				"metallicRoughnessTexture":{
					"index":1
				}
			}
		}
	],
	"meshes":[
		{
			"name":"Spanner boolean component.004",
			"primitives":[
				{
					"attributes":{
						"POSITION":0,
						"NORMAL":1,
						"TEXCOORD_0":2,
						"TANGENT":3
					},
					"indices":4,
					"material":0
				}
			]
		}
	],
	"textures":[
		{
			"sampler":0,
			"source":0
		},
		{
			"sampler":0,
			"source":1
		},
		{
			"sampler":0,
			"source":2
		}
	],
	"images":[
		{
			"mimeType":"image/png",
			"name":"storage_steel_used_normal_opengl",
			"uri":"textures/storage_steel_used_normal_opengl.png"
		},
		{
			"mimeType":"image/png",
			"name":"storage_steel_used_orm",
			"uri":"textures/storage_steel_used_orm.png"
		},
		{
			"mimeType":"image/png",
			"name":"storage_steel_used_basecolor",
			"uri":"textures/storage_steel_used_basecolor.png"
		}
	],
	"accessors":[
		{
			"bufferView":0,
			"componentType":5126,
			"count":1153,
			"max":[
				0.10554885864257812,
				0.014000000432133675,
				0.026976317167282104
			],
			"min":[
				-0.10819410532712936,
				0,
				-0.026976317167282104
			],
			"type":"VEC3"
		},
		{
			"bufferView":1,
			"componentType":5126,
			"count":1153,
			"type":"VEC3"
		},
		{
			"bufferView":2,
			"componentType":5126,
			"count":1153,
			"type":"VEC2"
		},
		{
			"bufferView":3,
			"componentType":5126,
			"count":1153,
			"type":"VEC4"
		},
		{
			"bufferView":4,
			"componentType":5123,
			"count":3222,
			"type":"SCALAR"
		}
	],
	"bufferViews":[
		{
			"buffer":0,
			"byteLength":13836,
			"byteOffset":0,
			"target":34962
		},
		{
			"buffer":0,
			"byteLength":13836,
			"byteOffset":13836,
			"target":34962
		},
		{
			"buffer":0,
			"byteLength":9224,
			"byteOffset":27672,
			"target":34962
		},
		{
			"buffer":0,
			"byteLength":18448,
			"byteOffset":36896,
			"target":34962
		},
		{
			"buffer":0,
			"byteLength":6444,
			"byteOffset":55344,
			"target":34963
		}
	],
	"samplers":[
		{
			"magFilter":9729,
			"minFilter":9987
		}
	],
	"buffers":[
		{
			"byteLength":61788,
			"uri":"Hand_Tool_Wrench.bin"
		}
	]
}
