{
	"asset":{
		"generator":"Khronos glTF Blender I/O v5.2.39",
		"version":"2.0"
	},
	"scene":0,
	"scenes":[
		{
			"name":"STORAGE \u2022 Reference scene",
			"nodes":[
				0
			]
		}
	],
	"nodes":[
		{
			"extras":{
				"asset_id":"Hand_Tool_Screwdriver",
				"units":"meters",
				"front_axis_blender":"-Y",
				"pivot":"bottom center"
			},
			"mesh":0,
			"name":"Hand_Tool_Screwdriver_Export"
		}
	],
	"materials":[
		{
			"name":"STORE \u2022 PaintRed",
			"normalTexture":{
				"index":0
			},
			"occlusionTexture":{
				"index":1
			},
			"pbrMetallicRoughness":{
				"baseColorTexture":{
					"index":2
				},
				"metallicRoughnessTexture":{
					"index":1
				}
			}
		},
		{
			"name":"STORE \u2022 Plastic",
			"normalTexture":{
				"index":3
			},
			"occlusionTexture":{
				"index":4
			},
			"pbrMetallicRoughness":{
				"baseColorTexture":{
					"index":5
				},
				"metallicRoughnessTexture":{
					"index":4
				}
			}
		},
		{
			"name":"STORE \u2022 Steel",
			"normalTexture":{
				"index":6
			},
			"occlusionTexture":{
				"index":7
			},
			"pbrMetallicRoughness":{
				"baseColorTexture":{
					"index":8
				},
				"metallicRoughnessTexture":{
					"index":7
				}
			}
		}
	],
	"meshes":[
		{
			"name":"Hand_Tool_Screwdriver_Mesh.001",
			"primitives":[
				{
					"attributes":{
						"POSITION":0,
						"NORMAL":1,
						"TEXCOORD_0":2,
						"TANGENT":3
					},
					"indices":4,
					"material":0
				},
				{
					"attributes":{
						"POSITION":5,
						"NORMAL":6,
						"TEXCOORD_0":7,
						"TANGENT":8
					},
					"indices":9,
					"material":1
				},
				{
					"attributes":{
						"POSITION":10,
						"NORMAL":11,
						"TEXCOORD_0":12,
						"TANGENT":13
					},
					"indices":14,
					"material":2
				}
			]
		}
	],
	"textures":[
		{
			"sampler":0,
			"source":0
		},
		{
			"sampler":0,
			"source":1
		},
		{
			"sampler":0,
			"source":2
		},
		{
			"sampler":0,
			"source":3
		},
		{
			"sampler":0,
			"source":4
		},
		{
			"sampler":0,
			"source":5
		},
		{
			"sampler":0,
			"source":6
		},
		{
			"sampler":0,
			"source":7
		},
		{
			"sampler":0,
			"source":8
		}
	],
	"images":[
		{
			"mimeType":"image/png",
			"name":"storage_paint_gray_normal_opengl",
			"uri":"textures/storage_paint_gray_normal_opengl.png"
		},
		{
			"mimeType":"image/png",
			"name":"storage_paint_gray_orm",
			"uri":"textures/storage_paint_gray_orm.png"
		},
		{
			"mimeType":"image/png",
			"name":"storage_paint_red_basecolor",
			"uri":"textures/storage_paint_red_basecolor.png"
		},
		{
			"mimeType":"image/png",
			"name":"storage_plastic_scuffed_normal_opengl",
			"uri":"textures/storage_plastic_scuffed_normal_opengl.png"
		},
		{
			"mimeType":"image/png",
			"name":"storage_plastic_scuffed_orm",
			"uri":"textures/storage_plastic_scuffed_orm.png"
		},
		{
			"mimeType":"image/png",
			"name":"storage_plastic_scuffed_basecolor",
			"uri":"textures/storage_plastic_scuffed_basecolor.png"
		},
		{
			"mimeType":"image/png",
			"name":"storage_steel_used_normal_opengl",
			"uri":"textures/storage_steel_used_normal_opengl.png"
		},
		{
			"mimeType":"image/png",
			"name":"storage_steel_used_orm",
			"uri":"textures/storage_steel_used_orm.png"
		},
		{
			"mimeType":"image/png",
			"name":"storage_steel_used_basecolor",
			"uri":"textures/storage_steel_used_basecolor.png"
		}
	],
	"accessors":[
		{
			"bufferView":0,
			"componentType":5126,
			"count":80,
			"max":[
				-0.016499998047947884,
				0.036000002175569534,
				0.017999999225139618
			],
			"min":[
				-0.12150000035762787,
				0,
				-0.017999999225139618
			],
			"type":"VEC3"
		},
		{
			"bufferView":1,
			"componentType":5126,
			"count":80,
			"type":"VEC3"
		},
		{
			"bufferView":2,
			"componentType":5126,
			"count":80,
			"type":"VEC2"
		},
		{
			"bufferView":3,
			"componentType":5126,
			"count":80,
			"type":"VEC4"
		},
		{
			"bufferView":4,
			"componentType":5123,
			"count":276,
			"type":"SCALAR"
		},
		{
			"bufferView":5,
			"componentType":5126,
			"count":104,
			"max":[
				-0.008999998681247234,
				0.03100000135600567,
				0.013000000268220901
			],
			"min":[
				-0.018999997526407242,
				0.005000001285225153,
				-0.013000000268220901
			],
			"type":"VEC3"
		},
		{
			"bufferView":6,
			"componentType":5126,
			"count":104,
			"type":"VEC3"
		},
		{
			"bufferView":7,
			"componentType":5126,
			"count":104,
			"type":"VEC2"
		},
		{
			"bufferView":8,
			"componentType":5126,
			"count":104,
			"type":"VEC4"
		},
		{
			"bufferView":9,
			"componentType":5123,
			"count":372,
			"type":"SCALAR"
		},
		{
			"bufferView":10,
			"componentType":5126,
			"count":104,
			"max":[
				0.1184999868273735,
				0.021000003442168236,
				0.004000000189989805
			],
			"min":[
				-0.010000000707805157,
				0.014999999664723873,
				-0.004000000189989805
			],
			"type":"VEC3"
		},
		{
			"bufferView":11,
			"componentType":5126,
			"count":104,
			"type":"VEC3"
		},
		{
			"bufferView":12,
			"componentType":5126,
			"count":104,
			"type":"VEC2"
		},
		{
			"bufferView":13,
			"componentType":5126,
			"count":104,
			"type":"VEC4"
		},
		{
			"bufferView":14,
			"componentType":5123,
			"count":264,
			"type":"SCALAR"
		}
	],
	"bufferViews":[
		{
			"buffer":0,
			"byteLength":960,
			"byteOffset":0,
			"target":34962
		},
		{
			"buffer":0,
			"byteLength":960,
			"byteOffset":960,
			"target":34962
		},
		{
			"buffer":0,
			"byteLength":640,
			"byteOffset":1920,
			"target":34962
		},
		{
			"buffer":0,
			"byteLength":1280,
			"byteOffset":2560,
			"target":34962
		},
		{
			"buffer":0,
			"byteLength":552,
			"byteOffset":3840,
			"target":34963
		},
		{
			"buffer":0,
			"byteLength":1248,
			"byteOffset":4392,
			"target":34962
		},
		{
			"buffer":0,
			"byteLength":1248,
			"byteOffset":5640,
			"target":34962
		},
		{
			"buffer":0,
			"byteLength":832,
			"byteOffset":6888,
			"target":34962
		},
		{
			"buffer":0,
			"byteLength":1664,
			"byteOffset":7720,
			"target":34962
		},
		{
			"buffer":0,
			"byteLength":744,
			"byteOffset":9384,
			"target":34963
		},
		{
			"buffer":0,
			"byteLength":1248,
			"byteOffset":10128,
			"target":34962
		},
		{
			"buffer":0,
			"byteLength":1248,
			"byteOffset":11376,
			"target":34962
		},
		{
			"buffer":0,
			"byteLength":832,
			"byteOffset":12624,
			"target":34962
		},
		{
			"buffer":0,
			"byteLength":1664,
			"byteOffset":13456,
			"target":34962
		},
		{
			"buffer":0,
			"byteLength":528,
			"byteOffset":15120,
			"target":34963
		}
	],
	"samplers":[
		{
			"magFilter":9729,
			"minFilter":9987
		}
	],
	"buffers":[
		{
			"byteLength":15648,
			"uri":"Hand_Tool_Screwdriver.bin"
		}
	]
}
