{
	"asset":{
		"generator":"Khronos glTF Blender I/O v5.2.39",
		"version":"2.0"
	},
	"scene":0,
	"scenes":[
		{
			"name":"STORAGE \u2022 Reference scene",
			"nodes":[
				0
			]
		}
	],
	"nodes":[
		{
			"extras":{
				"asset_id":"Pallet_Euro_1200x800",
				"units":"meters",
				"front_axis_blender":"-Y",
				"pivot":"bottom center"
			},
			"mesh":0,
			"name":"Pallet_Euro_1200x800_Export"
		}
	],
	"materials":[
		{
			"name":"STORE \u2022 Wood",
			"normalTexture":{
				"index":0
			},
			"occlusionTexture":{
				"index":1
			},
			"pbrMetallicRoughness":{
				"baseColorTexture":{
					"index":2
				},
				"metallicRoughnessTexture":{
					"index":1
				}
			}
		},
		{
			"name":"STORE \u2022 Steel",
			"normalTexture":{
				"index":3
			},
			"occlusionTexture":{
				"index":4
			},
			"pbrMetallicRoughness":{
				"baseColorTexture":{
					"index":5
				},
				"metallicRoughnessTexture":{
					"index":4
				}
			}
		}
	],
	"meshes":[
		{
			"name":"Pallet_Euro_1200x800_Mesh.001",
			"primitives":[
				{
					"attributes":{
						"POSITION":0,
						"NORMAL":1,
						"TEXCOORD_0":2,
						"TANGENT":3
					},
					"indices":4,
					"material":0
				},
				{
					"attributes":{
						"POSITION":5,
						"NORMAL":6,
						"TEXCOORD_0":7,
						"TANGENT":8
					},
					"indices":9,
					"material":1
				}
			]
		}
	],
	"textures":[
		{
			"sampler":0,
			"source":0
		},
		{
			"sampler":0,
			"source":1
		},
		{
			"sampler":0,
			"source":2
		},
		{
			"sampler":0,
			"source":3
		},
		{
			"sampler":0,
			"source":4
		},
		{
			"sampler":0,
			"source":5
		}
	],
	"images":[
		{
			"mimeType":"image/png",
			"name":"storage_wood_worn_normal_opengl",
			"uri":"textures/storage_wood_worn_normal_opengl.png"
		},
		{
			"mimeType":"image/png",
			"name":"storage_wood_worn_orm",
			"uri":"textures/storage_wood_worn_orm.png"
		},
		{
			"mimeType":"image/png",
			"name":"storage_wood_worn_basecolor",
			"uri":"textures/storage_wood_worn_basecolor.png"
		},
		{
			"mimeType":"image/png",
			"name":"storage_steel_used_normal_opengl",
			"uri":"textures/storage_steel_used_normal_opengl.png"
		},
		{
			"mimeType":"image/png",
			"name":"storage_steel_used_orm",
			"uri":"textures/storage_steel_used_orm.png"
		},
		{
			"mimeType":"image/png",
			"name":"storage_steel_used_basecolor",
			"uri":"textures/storage_steel_used_basecolor.png"
		}
	],
	"accessors":[
		{
			"bufferView":0,
			"componentType":5126,
			"count":1056,
			"max":[
				0.6000000238418579,
				0.1525000035762787,
				0.4000000059604645
			],
			"min":[
				-0.6000000238418579,
				0,
				-0.4000000059604645
			],
			"type":"VEC3"
		},
		{
			"bufferView":1,
			"componentType":5126,
			"count":1056,
			"type":"VEC3"
		},
		{
			"bufferView":2,
			"componentType":5126,
			"count":1056,
			"type":"VEC2"
		},
		{
			"bufferView":3,
			"componentType":5126,
			"count":1056,
			"type":"VEC4"
		},
		{
			"bufferView":4,
			"componentType":5123,
			"count":2904,
			"type":"SCALAR"
		},
		{
			"bufferView":5,
			"componentType":5126,
			"count":560,
			"max":[
				0.5027999877929688,
				0.15275001525878906,
				0.34279999136924744
			],
			"min":[
				-0.5667999982833862,
				0.15125000476837158,
				-0.34279999136924744
			],
			"type":"VEC3"
		},
		{
			"bufferView":6,
			"componentType":5126,
			"count":560,
			"type":"VEC3"
		},
		{
			"bufferView":7,
			"componentType":5126,
			"count":560,
			"type":"VEC2"
		},
		{
			"bufferView":8,
			"componentType":5126,
			"count":560,
			"type":"VEC4"
		},
		{
			"bufferView":9,
			"componentType":5123,
			"count":1176,
			"type":"SCALAR"
		}
	],
	"bufferViews":[
		{
			"buffer":0,
			"byteLength":12672,
			"byteOffset":0,
			"target":34962
		},
		{
			"buffer":0,
			"byteLength":12672,
			"byteOffset":12672,
			"target":34962
		},
		{
			"buffer":0,
			"byteLength":8448,
			"byteOffset":25344,
			"target":34962
		},
		{
			"buffer":0,
			"byteLength":16896,
			"byteOffset":33792,
			"target":34962
		},
		{
			"buffer":0,
			"byteLength":5808,
			"byteOffset":50688,
			"target":34963
		},
		{
			"buffer":0,
			"byteLength":6720,
			"byteOffset":56496,
			"target":34962
		},
		{
			"buffer":0,
			"byteLength":6720,
			"byteOffset":63216,
			"target":34962
		},
		{
			"buffer":0,
			"byteLength":4480,
			"byteOffset":69936,
			"target":34962
		},
		{
			"buffer":0,
			"byteLength":8960,
			"byteOffset":74416,
			"target":34962
		},
		{
			"buffer":0,
			"byteLength":2352,
			"byteOffset":83376,
			"target":34963
		}
	],
	"samplers":[
		{
			"magFilter":9729,
			"minFilter":9987
		}
	],
	"buffers":[
		{
			"byteLength":85728,
			"uri":"Pallet_Euro_1200x800.bin"
		}
	]
}
