{
	"asset":{
		"generator":"Khronos glTF Blender I/O v5.2.39",
		"version":"2.0"
	},
	"scene":0,
	"scenes":[
		{
			"name":"STORAGE \u2022 Reference scene",
			"nodes":[
				0
			]
		}
	],
	"nodes":[
		{
			"extras":{
				"asset_id":"Pallet_Square_1000",
				"units":"meters",
				"front_axis_blender":"-Y",
				"pivot":"bottom center"
			},
			"mesh":0,
			"name":"Pallet_Square_1000_Export"
		}
	],
	"materials":[
		{
			"name":"STORE \u2022 Wood",
			"normalTexture":{
				"index":0
			},
			"occlusionTexture":{
				"index":1
			},
			"pbrMetallicRoughness":{
				"baseColorTexture":{
					"index":2
				},
				"metallicRoughnessTexture":{
					"index":1
				}
			}
		},
		{
			"name":"STORE \u2022 Steel",
			"normalTexture":{
				"index":3
			},
			"occlusionTexture":{
				"index":4
			},
			"pbrMetallicRoughness":{
				"baseColorTexture":{
					"index":5
				},
				"metallicRoughnessTexture":{
					"index":4
				}
			}
		}
	],
	"meshes":[
		{
			"name":"Pallet_Square_1000_Mesh.001",
			"primitives":[
				{
					"attributes":{
						"POSITION":0,
						"NORMAL":1,
						"TEXCOORD_0":2,
						"TANGENT":3
					},
					"indices":4,
					"material":0
				},
				{
					"attributes":{
						"POSITION":5,
						"NORMAL":6,
						"TEXCOORD_0":7,
						"TANGENT":8
					},
					"indices":9,
					"material":1
				}
			]
		}
	],
	"textures":[
		{
			"sampler":0,
			"source":0
		},
		{
			"sampler":0,
			"source":1
		},
		{
			"sampler":0,
			"source":2
		},
		{
			"sampler":0,
			"source":3
		},
		{
			"sampler":0,
			"source":4
		},
		{
			"sampler":0,
			"source":5
		}
	],
	"images":[
		{
			"mimeType":"image/png",
			"name":"storage_wood_worn_normal_opengl",
			"uri":"textures/storage_wood_worn_normal_opengl.png"
		},
		{
			"mimeType":"image/png",
			"name":"storage_wood_worn_orm",
			"uri":"textures/storage_wood_worn_orm.png"
		},
		{
			"mimeType":"image/png",
			"name":"storage_wood_worn_basecolor",
			"uri":"textures/storage_wood_worn_basecolor.png"
		},
		{
			"mimeType":"image/png",
			"name":"storage_steel_used_normal_opengl",
			"uri":"textures/storage_steel_used_normal_opengl.png"
		},
		{
			"mimeType":"image/png",
			"name":"storage_steel_used_orm",
			"uri":"textures/storage_steel_used_orm.png"
		},
		{
			"mimeType":"image/png",
			"name":"storage_steel_used_basecolor",
			"uri":"textures/storage_steel_used_basecolor.png"
		}
	],
	"accessors":[
		{
			"bufferView":0,
			"componentType":5126,
			"count":960,
			"max":[
				0.5,
				0.1525000035762787,
				0.5
			],
			"min":[
				-0.5,
				0,
				-0.5
			],
			"type":"VEC3"
		},
		{
			"bufferView":1,
			"componentType":5126,
			"count":960,
			"type":"VEC3"
		},
		{
			"bufferView":2,
			"componentType":5126,
			"count":960,
			"type":"VEC2"
		},
		{
			"bufferView":3,
			"componentType":5126,
			"count":960,
			"type":"VEC4"
		},
		{
			"bufferView":4,
			"componentType":5123,
			"count":2640,
			"type":"SCALAR"
		},
		{
			"bufferView":5,
			"componentType":5126,
			"count":400,
			"max":[
				0.4027999937534332,
				0.15275001525878906,
				0.44279998540878296
			],
			"min":[
				-0.4667999744415283,
				0.15125000476837158,
				-0.44279998540878296
			],
			"type":"VEC3"
		},
		{
			"bufferView":6,
			"componentType":5126,
			"count":400,
			"type":"VEC3"
		},
		{
			"bufferView":7,
			"componentType":5126,
			"count":400,
			"type":"VEC2"
		},
		{
			"bufferView":8,
			"componentType":5126,
			"count":400,
			"type":"VEC4"
		},
		{
			"bufferView":9,
			"componentType":5123,
			"count":840,
			"type":"SCALAR"
		}
	],
	"bufferViews":[
		{
			"buffer":0,
			"byteLength":11520,
			"byteOffset":0,
			"target":34962
		},
		{
			"buffer":0,
			"byteLength":11520,
			"byteOffset":11520,
			"target":34962
		},
		{
			"buffer":0,
			"byteLength":7680,
			"byteOffset":23040,
			"target":34962
		},
		{
			"buffer":0,
			"byteLength":15360,
			"byteOffset":30720,
			"target":34962
		},
		{
			"buffer":0,
			"byteLength":5280,
			"byteOffset":46080,
			"target":34963
		},
		{
			"buffer":0,
			"byteLength":4800,
			"byteOffset":51360,
			"target":34962
		},
		{
			"buffer":0,
			"byteLength":4800,
			"byteOffset":56160,
			"target":34962
		},
		{
			"buffer":0,
			"byteLength":3200,
			"byteOffset":60960,
			"target":34962
		},
		{
			"buffer":0,
			"byteLength":6400,
			"byteOffset":64160,
			"target":34962
		},
		{
			"buffer":0,
			"byteLength":1680,
			"byteOffset":70560,
			"target":34963
		}
	],
	"samplers":[
		{
			"magFilter":9729,
			"minFilter":9987
		}
	],
	"buffers":[
		{
			"byteLength":72240,
			"uri":"Pallet_Square_1000.bin"
		}
	]
}
