{
	"asset":{
		"generator":"Khronos glTF Blender I/O v5.2.39",
		"version":"2.0"
	},
	"scene":0,
	"scenes":[
		{
			"name":"STORAGE \u2022 Reference scene",
			"nodes":[
				0
			]
		}
	],
	"nodes":[
		{
			"extras":{
				"asset_id":"Pallet_Jack_Manual",
				"units":"meters",
				"front_axis_blender":"-Y",
				"pivot":"bottom center"
			},
			"mesh":0,
			"name":"Pallet_Jack_Manual_Export"
		}
	],
	"materials":[
		{
			"name":"STORE \u2022 PaintYellow",
			"normalTexture":{
				"index":0
			},
			"occlusionTexture":{
				"index":1
			},
			"pbrMetallicRoughness":{
				"baseColorTexture":{
					"index":2
				},
				"metallicRoughnessTexture":{
					"index":1
				}
			}
		},
		{
			"name":"STORE \u2022 Rubber",
			"pbrMetallicRoughness":{
				"baseColorFactor":[
					0.03500000014901161,
					0.03799999877810478,
					0.03500000014901161,
					1
				],
				"metallicFactor":0,
				"roughnessFactor":0.8600000143051147
			}
		},
		{
			"name":"STORE \u2022 Steel",
			"normalTexture":{
				"index":3
			},
			"occlusionTexture":{
				"index":4
			},
			"pbrMetallicRoughness":{
				"baseColorTexture":{
					"index":5
				},
				"metallicRoughnessTexture":{
					"index":4
				}
			}
		},
		{
			"name":"STORE \u2022 PaintGray",
			"normalTexture":{
				"index":6
			},
			"occlusionTexture":{
				"index":7
			},
			"pbrMetallicRoughness":{
				"baseColorTexture":{
					"index":8
				},
				"metallicRoughnessTexture":{
					"index":7
				}
			}
		},
		{
			"name":"STORE \u2022 Plastic",
			"normalTexture":{
				"index":9
			},
			"occlusionTexture":{
				"index":10
			},
			"pbrMetallicRoughness":{
				"baseColorTexture":{
					"index":11
				},
				"metallicRoughnessTexture":{
					"index":10
				}
			}
		}
	],
	"meshes":[
		{
			"name":"Pallet_Jack_Manual_Mesh.001",
			"primitives":[
				{
					"attributes":{
						"POSITION":0,
						"NORMAL":1,
						"TEXCOORD_0":2,
						"TANGENT":3
					},
					"indices":4,
					"material":0
				},
				{
					"attributes":{
						"POSITION":5,
						"NORMAL":6,
						"TEXCOORD_0":7,
						"TANGENT":8
					},
					"indices":9,
					"material":1
				},
				{
					"attributes":{
						"POSITION":10,
						"NORMAL":11,
						"TEXCOORD_0":12,
						"TANGENT":13
					},
					"indices":14,
					"material":2
				},
				{
					"attributes":{
						"POSITION":15,
						"NORMAL":16,
						"TEXCOORD_0":17,
						"TANGENT":18
					},
					"indices":19,
					"material":3
				},
				{
					"attributes":{
						"POSITION":20,
						"NORMAL":21,
						"TEXCOORD_0":22,
						"TANGENT":23
					},
					"indices":24,
					"material":4
				}
			]
		}
	],
	"textures":[
		{
			"sampler":0,
			"source":0
		},
		{
			"sampler":0,
			"source":1
		},
		{
			"sampler":0,
			"source":2
		},
		{
			"sampler":0,
			"source":3
		},
		{
			"sampler":0,
			"source":4
		},
		{
			"sampler":0,
			"source":5
		},
		{
			"sampler":0,
			"source":0
		},
		{
			"sampler":0,
			"source":1
		},
		{
			"sampler":0,
			"source":6
		},
		{
			"sampler":0,
			"source":7
		},
		{
			"sampler":0,
			"source":8
		},
		{
			"sampler":0,
			"source":9
		}
	],
	"images":[
		{
			"mimeType":"image/png",
			"name":"storage_paint_gray_normal_opengl",
			"uri":"textures/storage_paint_gray_normal_opengl.png"
		},
		{
			"mimeType":"image/png",
			"name":"storage_paint_gray_orm",
			"uri":"textures/storage_paint_gray_orm.png"
		},
		{
			"mimeType":"image/png",
			"name":"storage_paint_yellow_basecolor",
			"uri":"textures/storage_paint_yellow_basecolor.png"
		},
		{
			"mimeType":"image/png",
			"name":"storage_steel_used_normal_opengl",
			"uri":"textures/storage_steel_used_normal_opengl.png"
		},
		{
			"mimeType":"image/png",
			"name":"storage_steel_used_orm",
			"uri":"textures/storage_steel_used_orm.png"
		},
		{
			"mimeType":"image/png",
			"name":"storage_steel_used_basecolor",
			"uri":"textures/storage_steel_used_basecolor.png"
		},
		{
			"mimeType":"image/png",
			"name":"storage_paint_gray_basecolor",
			"uri":"textures/storage_paint_gray_basecolor.png"
		},
		{
			"mimeType":"image/png",
			"name":"storage_plastic_scuffed_normal_opengl",
			"uri":"textures/storage_plastic_scuffed_normal_opengl.png"
		},
		{
			"mimeType":"image/png",
			"name":"storage_plastic_scuffed_orm",
			"uri":"textures/storage_plastic_scuffed_orm.png"
		},
		{
			"mimeType":"image/png",
			"name":"storage_plastic_scuffed_basecolor",
			"uri":"textures/storage_plastic_scuffed_basecolor.png"
		}
	],
	"accessors":[
		{
			"bufferView":0,
			"componentType":5126,
			"count":880,
			"max":[
				0.2849999964237213,
				0.4255000054836273,
				1.1449999809265137
			],
			"min":[
				-0.2849999964237213,
				0.039007727056741714,
				-0.36500000953674316
			],
			"type":"VEC3"
		},
		{
			"bufferView":1,
			"componentType":5126,
			"count":880,
			"type":"VEC3"
		},
		{
			"bufferView":2,
			"componentType":5126,
			"count":880,
			"type":"VEC2"
		},
		{
			"bufferView":3,
			"componentType":5126,
			"count":880,
			"type":"VEC4"
		},
		{
			"bufferView":4,
			"componentType":5123,
			"count":3012,
			"type":"SCALAR"
		},
		{
			"bufferView":5,
			"componentType":5126,
			"count":864,
			"max":[
				0.2580000162124634,
				0.17000000178813934,
				1
			],
			"min":[
				-0.2580000162124634,
				0,
				-0.4050000011920929
			],
			"type":"VEC3"
		},
		{
			"bufferView":6,
			"componentType":5126,
			"count":864,
			"type":"VEC3"
		},
		{
			"bufferView":7,
			"componentType":5126,
			"count":864,
			"type":"VEC2"
		},
		{
			"bufferView":8,
			"componentType":5126,
			"count":864,
			"type":"VEC4"
		},
		{
			"bufferView":9,
			"componentType":5123,
			"count":3192,
			"type":"SCALAR"
		},
		{
			"bufferView":10,
			"componentType":5126,
			"count":1880,
			"max":[
				0.28949999809265137,
				1.2021982669830322,
				0.98499995470047
			],
			"min":[
				-0.28949999809265137,
				0.015000004321336746,
				-0.4746458828449249
			],
			"type":"VEC3"
		},
		{
			"bufferView":11,
			"componentType":5126,
			"count":1880,
			"type":"VEC3"
		},
		{
			"bufferView":12,
			"componentType":5126,
			"count":1880,
			"type":"VEC2"
		},
		{
			"bufferView":13,
			"componentType":5126,
			"count":1880,
			"type":"VEC4"
		},
		{
			"bufferView":14,
			"componentType":5123,
			"count":6516,
			"type":"SCALAR"
		},
		{
			"bufferView":15,
			"componentType":5126,
			"count":264,
			"max":[
				0.05299999937415123,
				1.0441880226135254,
				-0.12700000405311584
			],
			"min":[
				-0.05299999937415123,
				0.13850000500679016,
				-0.5126155018806458
			],
			"type":"VEC3"
		},
		{
			"bufferView":16,
			"componentType":5126,
			"count":264,
			"type":"VEC3"
		},
		{
			"bufferView":17,
			"componentType":5126,
			"count":264,
			"type":"VEC2"
		},
		{
			"bufferView":18,
			"componentType":5126,
			"count":264,
			"type":"VEC4"
		},
		{
			"bufferView":19,
			"componentType":5123,
			"count":936,
			"type":"SCALAR"
		},
		{
			"bufferView":20,
			"componentType":5126,
			"count":368,
			"max":[
				0.1654622107744217,
				1.3507143259048462,
				-0.4634999930858612
			],
			"min":[
				-0.1654622107744217,
				0.9989368319511414,
				-0.5145000219345093
			],
			"type":"VEC3"
		},
		{
			"bufferView":21,
			"componentType":5126,
			"count":368,
			"type":"VEC3"
		},
		{
			"bufferView":22,
			"componentType":5126,
			"count":368,
			"type":"VEC2"
		},
		{
			"bufferView":23,
			"componentType":5126,
			"count":368,
			"type":"VEC4"
		},
		{
			"bufferView":24,
			"componentType":5123,
			"count":1272,
			"type":"SCALAR"
		}
	],
	"bufferViews":[
		{
			"buffer":0,
			"byteLength":10560,
			"byteOffset":0,
			"target":34962
		},
		{
			"buffer":0,
			"byteLength":10560,
			"byteOffset":10560,
			"target":34962
		},
		{
			"buffer":0,
			"byteLength":7040,
			"byteOffset":21120,
			"target":34962
		},
		{
			"buffer":0,
			"byteLength":14080,
			"byteOffset":28160,
			"target":34962
		},
		{
			"buffer":0,
			"byteLength":6024,
			"byteOffset":42240,
			"target":34963
		},
		{
			"buffer":0,
			"byteLength":10368,
			"byteOffset":48264,
			"target":34962
		},
		{
			"buffer":0,
			"byteLength":10368,
			"byteOffset":58632,
			"target":34962
		},
		{
			"buffer":0,
			"byteLength":6912,
			"byteOffset":69000,
			"target":34962
		},
		{
			"buffer":0,
			"byteLength":13824,
			"byteOffset":75912,
			"target":34962
		},
		{
			"buffer":0,
			"byteLength":6384,
			"byteOffset":89736,
			"target":34963
		},
		{
			"buffer":0,
			"byteLength":22560,
			"byteOffset":96120,
			"target":34962
		},
		{
			"buffer":0,
			"byteLength":22560,
			"byteOffset":118680,
			"target":34962
		},
		{
			"buffer":0,
			"byteLength":15040,
			"byteOffset":141240,
			"target":34962
		},
		{
			"buffer":0,
			"byteLength":30080,
			"byteOffset":156280,
			"target":34962
		},
		{
			"buffer":0,
			"byteLength":13032,
			"byteOffset":186360,
			"target":34963
		},
		{
			"buffer":0,
			"byteLength":3168,
			"byteOffset":199392,
			"target":34962
		},
		{
			"buffer":0,
			"byteLength":3168,
			"byteOffset":202560,
			"target":34962
		},
		{
			"buffer":0,
			"byteLength":2112,
			"byteOffset":205728,
			"target":34962
		},
		{
			"buffer":0,
			"byteLength":4224,
			"byteOffset":207840,
			"target":34962
		},
		{
			"buffer":0,
			"byteLength":1872,
			"byteOffset":212064,
			"target":34963
		},
		{
			"buffer":0,
			"byteLength":4416,
			"byteOffset":213936,
			"target":34962
		},
		{
			"buffer":0,
			"byteLength":4416,
			"byteOffset":218352,
			"target":34962
		},
		{
			"buffer":0,
			"byteLength":2944,
			"byteOffset":222768,
			"target":34962
		},
		{
			"buffer":0,
			"byteLength":5888,
			"byteOffset":225712,
			"target":34962
		},
		{
			"buffer":0,
			"byteLength":2544,
			"byteOffset":231600,
			"target":34963
		}
	],
	"samplers":[
		{
			"magFilter":9729,
			"minFilter":9987
		}
	],
	"buffers":[
		{
			"byteLength":234144,
			"uri":"Pallet_Jack_Manual.bin"
		}
	]
}
