{
	"asset":{
		"generator":"Khronos glTF Blender I/O v5.2.39",
		"version":"2.0"
	},
	"scene":0,
	"scenes":[
		{
			"name":"STORAGE \u2022 Reference scene",
			"nodes":[
				0
			]
		}
	],
	"nodes":[
		{
			"extras":{
				"asset_id":"Shelving_Tall_1200",
				"units":"meters",
				"front_axis_blender":"-Y",
				"pivot":"bottom center"
			},
			"mesh":0,
			"name":"Shelving_Tall_1200_Export"
		}
	],
	"materials":[
		{
			"name":"STORE \u2022 PaintGray",
			"normalTexture":{
				"index":0
			},
			"occlusionTexture":{
				"index":1
			},
			"pbrMetallicRoughness":{
				"baseColorTexture":{
					"index":2
				},
				"metallicRoughnessTexture":{
					"index":1
				}
			}
		},
		{
			"name":"STORE \u2022 Plastic",
			"normalTexture":{
				"index":3
			},
			"occlusionTexture":{
				"index":4
			},
			"pbrMetallicRoughness":{
				"baseColorTexture":{
					"index":5
				},
				"metallicRoughnessTexture":{
					"index":4
				}
			}
		},
		{
			"name":"STORE \u2022 Steel",
			"normalTexture":{
				"index":6
			},
			"occlusionTexture":{
				"index":7
			},
			"pbrMetallicRoughness":{
				"baseColorTexture":{
					"index":8
				},
				"metallicRoughnessTexture":{
					"index":7
				}
			}
		}
	],
	"meshes":[
		{
			"name":"Shelving_Tall_1200_Mesh.002",
			"primitives":[
				{
					"attributes":{
						"POSITION":0,
						"NORMAL":1,
						"TEXCOORD_0":2,
						"TANGENT":3
					},
					"indices":4,
					"material":0
				},
				{
					"attributes":{
						"POSITION":5,
						"NORMAL":6,
						"TEXCOORD_0":7,
						"TANGENT":8
					},
					"indices":9,
					"material":1
				},
				{
					"attributes":{
						"POSITION":10,
						"NORMAL":11,
						"TEXCOORD_0":12,
						"TANGENT":13
					},
					"indices":14,
					"material":2
				}
			]
		}
	],
	"textures":[
		{
			"sampler":0,
			"source":0
		},
		{
			"sampler":0,
			"source":1
		},
		{
			"sampler":0,
			"source":2
		},
		{
			"sampler":0,
			"source":3
		},
		{
			"sampler":0,
			"source":4
		},
		{
			"sampler":0,
			"source":5
		},
		{
			"sampler":0,
			"source":6
		},
		{
			"sampler":0,
			"source":7
		},
		{
			"sampler":0,
			"source":8
		}
	],
	"images":[
		{
			"mimeType":"image/png",
			"name":"storage_paint_gray_normal_opengl",
			"uri":"textures/storage_paint_gray_normal_opengl.png"
		},
		{
			"mimeType":"image/png",
			"name":"storage_paint_gray_orm",
			"uri":"textures/storage_paint_gray_orm.png"
		},
		{
			"mimeType":"image/png",
			"name":"storage_paint_gray_basecolor",
			"uri":"textures/storage_paint_gray_basecolor.png"
		},
		{
			"mimeType":"image/png",
			"name":"storage_plastic_scuffed_normal_opengl",
			"uri":"textures/storage_plastic_scuffed_normal_opengl.png"
		},
		{
			"mimeType":"image/png",
			"name":"storage_plastic_scuffed_orm",
			"uri":"textures/storage_plastic_scuffed_orm.png"
		},
		{
			"mimeType":"image/png",
			"name":"storage_plastic_scuffed_basecolor",
			"uri":"textures/storage_plastic_scuffed_basecolor.png"
		},
		{
			"mimeType":"image/png",
			"name":"storage_steel_used_normal_opengl",
			"uri":"textures/storage_steel_used_normal_opengl.png"
		},
		{
			"mimeType":"image/png",
			"name":"storage_steel_used_orm",
			"uri":"textures/storage_steel_used_orm.png"
		},
		{
			"mimeType":"image/png",
			"name":"storage_steel_used_basecolor",
			"uri":"textures/storage_steel_used_basecolor.png"
		}
	],
	"accessors":[
		{
			"bufferView":0,
			"componentType":5126,
			"count":1680,
			"max":[
				0.5945000648498535,
				2.0999999046325684,
				0.23800000548362732
			],
			"min":[
				-0.5945000052452087,
				0.031999945640563965,
				-0.2710001468658447
			],
			"type":"VEC3"
		},
		{
			"bufferView":1,
			"componentType":5126,
			"count":1680,
			"type":"VEC3"
		},
		{
			"bufferView":2,
			"componentType":5126,
			"count":1680,
			"type":"VEC2"
		},
		{
			"bufferView":3,
			"componentType":5126,
			"count":1680,
			"type":"VEC4"
		},
		{
			"bufferView":4,
			"componentType":5123,
			"count":4620,
			"type":"SCALAR"
		},
		{
			"bufferView":5,
			"componentType":5126,
			"count":192,
			"max":[
				0.6035000085830688,
				0.04999995231628418,
				0.25049999356269836
			],
			"min":[
				-0.6035000085830688,
				0,
				-0.2705000042915344
			],
			"type":"VEC3"
		},
		{
			"bufferView":6,
			"componentType":5126,
			"count":192,
			"type":"VEC3"
		},
		{
			"bufferView":7,
			"componentType":5126,
			"count":192,
			"type":"VEC2"
		},
		{
			"bufferView":8,
			"componentType":5126,
			"count":192,
			"type":"VEC4"
		},
		{
			"bufferView":9,
			"componentType":5123,
			"count":528,
			"type":"SCALAR"
		},
		{
			"bufferView":10,
			"componentType":5126,
			"count":1440,
			"max":[
				0.5766291618347168,
				2.018249988555908,
				0.24249999225139618
			],
			"min":[
				-0.5766291618347168,
				0.17574995756149292,
				-0.1925000101327896
			],
			"type":"VEC3"
		},
		{
			"bufferView":11,
			"componentType":5126,
			"count":1440,
			"type":"VEC3"
		},
		{
			"bufferView":12,
			"componentType":5126,
			"count":1440,
			"type":"VEC2"
		},
		{
			"bufferView":13,
			"componentType":5126,
			"count":1440,
			"type":"VEC4"
		},
		{
			"bufferView":14,
			"componentType":5123,
			"count":4080,
			"type":"SCALAR"
		}
	],
	"bufferViews":[
		{
			"buffer":0,
			"byteLength":20160,
			"byteOffset":0,
			"target":34962
		},
		{
			"buffer":0,
			"byteLength":20160,
			"byteOffset":20160,
			"target":34962
		},
		{
			"buffer":0,
			"byteLength":13440,
			"byteOffset":40320,
			"target":34962
		},
		{
			"buffer":0,
			"byteLength":26880,
			"byteOffset":53760,
			"target":34962
		},
		{
			"buffer":0,
			"byteLength":9240,
			"byteOffset":80640,
			"target":34963
		},
		{
			"buffer":0,
			"byteLength":2304,
			"byteOffset":89880,
			"target":34962
		},
		{
			"buffer":0,
			"byteLength":2304,
			"byteOffset":92184,
			"target":34962
		},
		{
			"buffer":0,
			"byteLength":1536,
			"byteOffset":94488,
			"target":34962
		},
		{
			"buffer":0,
			"byteLength":3072,
			"byteOffset":96024,
			"target":34962
		},
		{
			"buffer":0,
			"byteLength":1056,
			"byteOffset":99096,
			"target":34963
		},
		{
			"buffer":0,
			"byteLength":17280,
			"byteOffset":100152,
			"target":34962
		},
		{
			"buffer":0,
			"byteLength":17280,
			"byteOffset":117432,
			"target":34962
		},
		{
			"buffer":0,
			"byteLength":11520,
			"byteOffset":134712,
			"target":34962
		},
		{
			"buffer":0,
			"byteLength":23040,
			"byteOffset":146232,
			"target":34962
		},
		{
			"buffer":0,
			"byteLength":8160,
			"byteOffset":169272,
			"target":34963
		}
	],
	"samplers":[
		{
			"magFilter":9729,
			"minFilter":9987
		}
	],
	"buffers":[
		{
			"byteLength":177432,
			"uri":"Shelving_Tall_1200.bin"
		}
	]
}
