{
	"asset":{
		"generator":"Khronos glTF Blender I/O v5.2.39",
		"version":"2.0"
	},
	"scene":0,
	"scenes":[
		{
			"name":"STORAGE \u2022 Reference scene",
			"nodes":[
				0
			]
		}
	],
	"nodes":[
		{
			"extras":{
				"asset_id":"Shelving_Wide_1600",
				"units":"meters",
				"front_axis_blender":"-Y",
				"pivot":"bottom center"
			},
			"mesh":0,
			"name":"Shelving_Wide_1600_Export"
		}
	],
	"materials":[
		{
			"name":"STORE \u2022 PaintGray",
			"normalTexture":{
				"index":0
			},
			"occlusionTexture":{
				"index":1
			},
			"pbrMetallicRoughness":{
				"baseColorTexture":{
					"index":2
				},
				"metallicRoughnessTexture":{
					"index":1
				}
			}
		},
		{
			"name":"STORE \u2022 Plastic",
			"normalTexture":{
				"index":3
			},
			"occlusionTexture":{
				"index":4
			},
			"pbrMetallicRoughness":{
				"baseColorTexture":{
					"index":5
				},
				"metallicRoughnessTexture":{
					"index":4
				}
			}
		},
		{
			"name":"STORE \u2022 Steel",
			"normalTexture":{
				"index":6
			},
			"occlusionTexture":{
				"index":7
			},
			"pbrMetallicRoughness":{
				"baseColorTexture":{
					"index":8
				},
				"metallicRoughnessTexture":{
					"index":7
				}
			}
		}
	],
	"meshes":[
		{
			"name":"Shelving_Wide_1600_Mesh.001",
			"primitives":[
				{
					"attributes":{
						"POSITION":0,
						"NORMAL":1,
						"TEXCOORD_0":2,
						"TANGENT":3
					},
					"indices":4,
					"material":0
				},
				{
					"attributes":{
						"POSITION":5,
						"NORMAL":6,
						"TEXCOORD_0":7,
						"TANGENT":8
					},
					"indices":9,
					"material":1
				},
				{
					"attributes":{
						"POSITION":10,
						"NORMAL":11,
						"TEXCOORD_0":12,
						"TANGENT":13
					},
					"indices":14,
					"material":2
				}
			]
		}
	],
	"textures":[
		{
			"sampler":0,
			"source":0
		},
		{
			"sampler":0,
			"source":1
		},
		{
			"sampler":0,
			"source":2
		},
		{
			"sampler":0,
			"source":3
		},
		{
			"sampler":0,
			"source":4
		},
		{
			"sampler":0,
			"source":5
		},
		{
			"sampler":0,
			"source":6
		},
		{
			"sampler":0,
			"source":7
		},
		{
			"sampler":0,
			"source":8
		}
	],
	"images":[
		{
			"mimeType":"image/png",
			"name":"storage_paint_gray_normal_opengl",
			"uri":"textures/storage_paint_gray_normal_opengl.png"
		},
		{
			"mimeType":"image/png",
			"name":"storage_paint_gray_orm",
			"uri":"textures/storage_paint_gray_orm.png"
		},
		{
			"mimeType":"image/png",
			"name":"storage_paint_gray_basecolor",
			"uri":"textures/storage_paint_gray_basecolor.png"
		},
		{
			"mimeType":"image/png",
			"name":"storage_plastic_scuffed_normal_opengl",
			"uri":"textures/storage_plastic_scuffed_normal_opengl.png"
		},
		{
			"mimeType":"image/png",
			"name":"storage_plastic_scuffed_orm",
			"uri":"textures/storage_plastic_scuffed_orm.png"
		},
		{
			"mimeType":"image/png",
			"name":"storage_plastic_scuffed_basecolor",
			"uri":"textures/storage_plastic_scuffed_basecolor.png"
		},
		{
			"mimeType":"image/png",
			"name":"storage_steel_used_normal_opengl",
			"uri":"textures/storage_steel_used_normal_opengl.png"
		},
		{
			"mimeType":"image/png",
			"name":"storage_steel_used_orm",
			"uri":"textures/storage_steel_used_orm.png"
		},
		{
			"mimeType":"image/png",
			"name":"storage_steel_used_basecolor",
			"uri":"textures/storage_steel_used_basecolor.png"
		}
	],
	"accessors":[
		{
			"bufferView":0,
			"componentType":5126,
			"count":1440,
			"max":[
				0.7944999933242798,
				1.6500000953674316,
				0.2980000078678131
			],
			"min":[
				-0.7944999933242798,
				0.03200000524520874,
				-0.33100011944770813
			],
			"type":"VEC3"
		},
		{
			"bufferView":1,
			"componentType":5126,
			"count":1440,
			"type":"VEC3"
		},
		{
			"bufferView":2,
			"componentType":5126,
			"count":1440,
			"type":"VEC2"
		},
		{
			"bufferView":3,
			"componentType":5126,
			"count":1440,
			"type":"VEC4"
		},
		{
			"bufferView":4,
			"componentType":5123,
			"count":3960,
			"type":"SCALAR"
		},
		{
			"bufferView":5,
			"componentType":5126,
			"count":192,
			"max":[
				0.8035000562667847,
				0.04999995231628418,
				0.31049999594688416
			],
			"min":[
				-0.8035000562667847,
				0,
				-0.3305000364780426
			],
			"type":"VEC3"
		},
		{
			"bufferView":6,
			"componentType":5126,
			"count":192,
			"type":"VEC3"
		},
		{
			"bufferView":7,
			"componentType":5126,
			"count":192,
			"type":"VEC2"
		},
		{
			"bufferView":8,
			"componentType":5126,
			"count":192,
			"type":"VEC4"
		},
		{
			"bufferView":9,
			"componentType":5123,
			"count":528,
			"type":"SCALAR"
		},
		{
			"bufferView":10,
			"componentType":5126,
			"count":1152,
			"max":[
				0.7766292095184326,
				1.568250060081482,
				0.30250000953674316
			],
			"min":[
				-0.7766292095184326,
				0.17574995756149292,
				-0.2525000274181366
			],
			"type":"VEC3"
		},
		{
			"bufferView":11,
			"componentType":5126,
			"count":1152,
			"type":"VEC3"
		},
		{
			"bufferView":12,
			"componentType":5126,
			"count":1152,
			"type":"VEC2"
		},
		{
			"bufferView":13,
			"componentType":5126,
			"count":1152,
			"type":"VEC4"
		},
		{
			"bufferView":14,
			"componentType":5123,
			"count":3264,
			"type":"SCALAR"
		}
	],
	"bufferViews":[
		{
			"buffer":0,
			"byteLength":17280,
			"byteOffset":0,
			"target":34962
		},
		{
			"buffer":0,
			"byteLength":17280,
			"byteOffset":17280,
			"target":34962
		},
		{
			"buffer":0,
			"byteLength":11520,
			"byteOffset":34560,
			"target":34962
		},
		{
			"buffer":0,
			"byteLength":23040,
			"byteOffset":46080,
			"target":34962
		},
		{
			"buffer":0,
			"byteLength":7920,
			"byteOffset":69120,
			"target":34963
		},
		{
			"buffer":0,
			"byteLength":2304,
			"byteOffset":77040,
			"target":34962
		},
		{
			"buffer":0,
			"byteLength":2304,
			"byteOffset":79344,
			"target":34962
		},
		{
			"buffer":0,
			"byteLength":1536,
			"byteOffset":81648,
			"target":34962
		},
		{
			"buffer":0,
			"byteLength":3072,
			"byteOffset":83184,
			"target":34962
		},
		{
			"buffer":0,
			"byteLength":1056,
			"byteOffset":86256,
			"target":34963
		},
		{
			"buffer":0,
			"byteLength":13824,
			"byteOffset":87312,
			"target":34962
		},
		{
			"buffer":0,
			"byteLength":13824,
			"byteOffset":101136,
			"target":34962
		},
		{
			"buffer":0,
			"byteLength":9216,
			"byteOffset":114960,
			"target":34962
		},
		{
			"buffer":0,
			"byteLength":18432,
			"byteOffset":124176,
			"target":34962
		},
		{
			"buffer":0,
			"byteLength":6528,
			"byteOffset":142608,
			"target":34963
		}
	],
	"samplers":[
		{
			"magFilter":9729,
			"minFilter":9987
		}
	],
	"buffers":[
		{
			"byteLength":149136,
			"uri":"Shelving_Wide_1600.bin"
		}
	]
}
