{
	"asset":{
		"generator":"Khronos glTF Blender I/O v5.2.39",
		"version":"2.0"
	},
	"scene":0,
	"scenes":[
		{
			"name":"STORAGE \u2022 Reference scene",
			"nodes":[
				0
			]
		}
	],
	"nodes":[
		{
			"extras":{
				"asset_id":"Toolboard_900x600",
				"units":"meters",
				"front_axis_blender":"-Y",
				"pivot":"bottom center"
			},
			"mesh":0,
			"name":"Toolboard_900x600_Export"
		}
	],
	"materials":[
		{
			"name":"STORE \u2022 PaintGray",
			"normalTexture":{
				"index":0
			},
			"occlusionTexture":{
				"index":1
			},
			"pbrMetallicRoughness":{
				"baseColorTexture":{
					"index":2
				},
				"metallicRoughnessTexture":{
					"index":1
				}
			}
		},
		{
			"name":"STORE \u2022 Steel",
			"normalTexture":{
				"index":3
			},
			"occlusionTexture":{
				"index":4
			},
			"pbrMetallicRoughness":{
				"baseColorTexture":{
					"index":5
				},
				"metallicRoughnessTexture":{
					"index":4
				}
			}
		},
		{
			"name":"STORE \u2022 Printed labels",
			"pbrMetallicRoughness":{
				"baseColorTexture":{
					"index":6
				},
				"metallicFactor":0,
				"roughnessFactor":0.8700000047683716
			}
		}
	],
	"meshes":[
		{
			"name":"Toolboard_900x600_Mesh.001",
			"primitives":[
				{
					"attributes":{
						"POSITION":0,
						"NORMAL":1,
						"TEXCOORD_0":2,
						"TANGENT":3
					},
					"indices":4,
					"material":0
				},
				{
					"attributes":{
						"POSITION":5,
						"NORMAL":6,
						"TEXCOORD_0":7,
						"TANGENT":8
					},
					"indices":9,
					"material":1
				},
				{
					"attributes":{
						"POSITION":10,
						"NORMAL":11,
						"TEXCOORD_0":12,
						"TANGENT":13
					},
					"indices":14,
					"material":2
				}
			]
		}
	],
	"textures":[
		{
			"sampler":0,
			"source":0
		},
		{
			"sampler":0,
			"source":1
		},
		{
			"sampler":0,
			"source":2
		},
		{
			"sampler":0,
			"source":3
		},
		{
			"sampler":0,
			"source":4
		},
		{
			"sampler":0,
			"source":5
		},
		{
			"sampler":0,
			"source":6
		}
	],
	"images":[
		{
			"mimeType":"image/png",
			"name":"storage_paint_gray_normal_opengl",
			"uri":"textures/storage_paint_gray_normal_opengl.png"
		},
		{
			"mimeType":"image/png",
			"name":"storage_paint_gray_orm",
			"uri":"textures/storage_paint_gray_orm.png"
		},
		{
			"mimeType":"image/png",
			"name":"storage_paint_gray_basecolor",
			"uri":"textures/storage_paint_gray_basecolor.png"
		},
		{
			"mimeType":"image/png",
			"name":"storage_steel_used_normal_opengl",
			"uri":"textures/storage_steel_used_normal_opengl.png"
		},
		{
			"mimeType":"image/png",
			"name":"storage_steel_used_orm",
			"uri":"textures/storage_steel_used_orm.png"
		},
		{
			"mimeType":"image/png",
			"name":"storage_steel_used_basecolor",
			"uri":"textures/storage_steel_used_basecolor.png"
		},
		{
			"mimeType":"image/png",
			"name":"storage_prints_basecolor",
			"uri":"textures/storage_prints_basecolor.png"
		}
	],
	"accessors":[
		{
			"bufferView":0,
			"componentType":5126,
			"count":192,
			"max":[
				0.44999998807907104,
				0.6039999723434448,
				0.014000000432133675
			],
			"min":[
				-0.44999998807907104,
				0,
				-0.02800000086426735
			],
			"type":"VEC3"
		},
		{
			"bufferView":1,
			"componentType":5126,
			"count":192,
			"type":"VEC3"
		},
		{
			"bufferView":2,
			"componentType":5126,
			"count":192,
			"type":"VEC2"
		},
		{
			"bufferView":3,
			"componentType":5126,
			"count":192,
			"type":"VEC4"
		},
		{
			"bufferView":4,
			"componentType":5123,
			"count":582,
			"type":"SCALAR"
		},
		{
			"bufferView":5,
			"componentType":5126,
			"count":698,
			"max":[
				0.40606218576431274,
				0.5587499737739563,
				0.07662881910800934
			],
			"min":[
				-0.40606218576431274,
				0.05024999380111694,
				-0.00800000037997961
			],
			"type":"VEC3"
		},
		{
			"bufferView":6,
			"componentType":5126,
			"count":698,
			"type":"VEC3"
		},
		{
			"bufferView":7,
			"componentType":5126,
			"count":698,
			"type":"VEC2"
		},
		{
			"bufferView":8,
			"componentType":5126,
			"count":698,
			"type":"VEC4"
		},
		{
			"bufferView":9,
			"componentType":5123,
			"count":1956,
			"type":"SCALAR"
		},
		{
			"bufferView":10,
			"componentType":5126,
			"count":4,
			"max":[
				0.44599997997283936,
				0.5979999899864197,
				0.014000000432133675
			],
			"min":[
				-0.44599997997283936,
				0.0059999823570251465,
				0.014000000432133675
			],
			"type":"VEC3"
		},
		{
			"bufferView":11,
			"componentType":5126,
			"count":4,
			"type":"VEC3"
		},
		{
			"bufferView":12,
			"componentType":5126,
			"count":4,
			"type":"VEC2"
		},
		{
			"bufferView":13,
			"componentType":5126,
			"count":4,
			"type":"VEC4"
		},
		{
			"bufferView":14,
			"componentType":5123,
			"count":6,
			"type":"SCALAR"
		}
	],
	"bufferViews":[
		{
			"buffer":0,
			"byteLength":2304,
			"byteOffset":0,
			"target":34962
		},
		{
			"buffer":0,
			"byteLength":2304,
			"byteOffset":2304,
			"target":34962
		},
		{
			"buffer":0,
			"byteLength":1536,
			"byteOffset":4608,
			"target":34962
		},
		{
			"buffer":0,
			"byteLength":3072,
			"byteOffset":6144,
			"target":34962
		},
		{
			"buffer":0,
			"byteLength":1164,
			"byteOffset":9216,
			"target":34963
		},
		{
			"buffer":0,
			"byteLength":8376,
			"byteOffset":10380,
			"target":34962
		},
		{
			"buffer":0,
			"byteLength":8376,
			"byteOffset":18756,
			"target":34962
		},
		{
			"buffer":0,
			"byteLength":5584,
			"byteOffset":27132,
			"target":34962
		},
		{
			"buffer":0,
			"byteLength":11168,
			"byteOffset":32716,
			"target":34962
		},
		{
			"buffer":0,
			"byteLength":3912,
			"byteOffset":43884,
			"target":34963
		},
		{
			"buffer":0,
			"byteLength":48,
			"byteOffset":47796,
			"target":34962
		},
		{
			"buffer":0,
			"byteLength":48,
			"byteOffset":47844,
			"target":34962
		},
		{
			"buffer":0,
			"byteLength":32,
			"byteOffset":47892,
			"target":34962
		},
		{
			"buffer":0,
			"byteLength":64,
			"byteOffset":47924,
			"target":34962
		},
		{
			"buffer":0,
			"byteLength":12,
			"byteOffset":47988,
			"target":34963
		}
	],
	"samplers":[
		{
			"magFilter":9729,
			"minFilter":9987
		}
	],
	"buffers":[
		{
			"byteLength":48000,
			"uri":"Toolboard_900x600.bin"
		}
	]
}
