{
	"asset":{
		"generator":"Khronos glTF Blender I/O v5.2.39",
		"version":"2.0"
	},
	"scene":0,
	"scenes":[
		{
			"name":"STORAGE \u2022 Reference scene",
			"nodes":[
				0
			]
		}
	],
	"nodes":[
		{
			"extras":{
				"asset_id":"Toolbox_Portable",
				"units":"meters",
				"front_axis_blender":"-Y",
				"pivot":"bottom center"
			},
			"mesh":0,
			"name":"Toolbox_Portable_Export"
		}
	],
	"materials":[
		{
			"name":"STORE \u2022 Plastic",
			"normalTexture":{
				"index":0
			},
			"occlusionTexture":{
				"index":1
			},
			"pbrMetallicRoughness":{
				"baseColorTexture":{
					"index":2
				},
				"metallicRoughnessTexture":{
					"index":1
				}
			}
		},
		{
			"name":"STORE \u2022 Rubber",
			"pbrMetallicRoughness":{
				"baseColorFactor":[
					0.03500000014901161,
					0.03799999877810478,
					0.03500000014901161,
					1
				],
				"metallicFactor":0,
				"roughnessFactor":0.8600000143051147
			}
		},
		{
			"name":"STORE \u2022 Steel",
			"normalTexture":{
				"index":3
			},
			"occlusionTexture":{
				"index":4
			},
			"pbrMetallicRoughness":{
				"baseColorTexture":{
					"index":5
				},
				"metallicRoughnessTexture":{
					"index":4
				}
			}
		}
	],
	"meshes":[
		{
			"name":"Toolbox_Portable_Mesh.001",
			"primitives":[
				{
					"attributes":{
						"POSITION":0,
						"NORMAL":1,
						"TEXCOORD_0":2,
						"TANGENT":3
					},
					"indices":4,
					"material":0
				},
				{
					"attributes":{
						"POSITION":5,
						"NORMAL":6,
						"TEXCOORD_0":7,
						"TANGENT":8
					},
					"indices":9,
					"material":1
				},
				{
					"attributes":{
						"POSITION":10,
						"NORMAL":11,
						"TEXCOORD_0":12,
						"TANGENT":13
					},
					"indices":14,
					"material":2
				}
			]
		}
	],
	"textures":[
		{
			"sampler":0,
			"source":0
		},
		{
			"sampler":0,
			"source":1
		},
		{
			"sampler":0,
			"source":2
		},
		{
			"sampler":0,
			"source":3
		},
		{
			"sampler":0,
			"source":4
		},
		{
			"sampler":0,
			"source":5
		}
	],
	"images":[
		{
			"mimeType":"image/png",
			"name":"storage_plastic_scuffed_normal_opengl",
			"uri":"textures/storage_plastic_scuffed_normal_opengl.png"
		},
		{
			"mimeType":"image/png",
			"name":"storage_plastic_scuffed_orm",
			"uri":"textures/storage_plastic_scuffed_orm.png"
		},
		{
			"mimeType":"image/png",
			"name":"storage_plastic_scuffed_basecolor",
			"uri":"textures/storage_plastic_scuffed_basecolor.png"
		},
		{
			"mimeType":"image/png",
			"name":"storage_steel_used_normal_opengl",
			"uri":"textures/storage_steel_used_normal_opengl.png"
		},
		{
			"mimeType":"image/png",
			"name":"storage_steel_used_orm",
			"uri":"textures/storage_steel_used_orm.png"
		},
		{
			"mimeType":"image/png",
			"name":"storage_steel_used_basecolor",
			"uri":"textures/storage_steel_used_basecolor.png"
		}
	],
	"accessors":[
		{
			"bufferView":0,
			"componentType":5126,
			"count":766,
			"max":[
				0.24799999594688416,
				0.21210001409053802,
				0.1918732225894928
			],
			"min":[
				-0.24799999594688416,
				0,
				-0.12200000137090683
			],
			"type":"VEC3"
		},
		{
			"bufferView":1,
			"componentType":5126,
			"count":766,
			"type":"VEC3"
		},
		{
			"bufferView":2,
			"componentType":5126,
			"count":766,
			"type":"VEC2"
		},
		{
			"bufferView":3,
			"componentType":5126,
			"count":766,
			"type":"VEC4"
		},
		{
			"bufferView":4,
			"componentType":5123,
			"count":2604,
			"type":"SCALAR"
		},
		{
			"bufferView":5,
			"componentType":5126,
			"count":48,
			"max":[
				0.23800000548362732,
				0.18828000128269196,
				0.11349999904632568
			],
			"min":[
				-0.23800000548362732,
				0.17628000676631927,
				-0.11349999904632568
			],
			"type":"VEC3"
		},
		{
			"bufferView":6,
			"componentType":5126,
			"count":48,
			"type":"VEC3"
		},
		{
			"bufferView":7,
			"componentType":5126,
			"count":48,
			"type":"VEC2"
		},
		{
			"bufferView":8,
			"componentType":5126,
			"count":48,
			"type":"VEC4"
		},
		{
			"bufferView":9,
			"componentType":5123,
			"count":132,
			"type":"SCALAR"
		},
		{
			"bufferView":10,
			"componentType":5126,
			"count":640,
			"max":[
				0.18399998545646667,
				0.19150002300739288,
				0.14100000262260437
			],
			"min":[
				-0.18399998545646667,
				0.07990000396966934,
				-0.12800000607967377
			],
			"type":"VEC3"
		},
		{
			"bufferView":11,
			"componentType":5126,
			"count":640,
			"type":"VEC3"
		},
		{
			"bufferView":12,
			"componentType":5126,
			"count":640,
			"type":"VEC2"
		},
		{
			"bufferView":13,
			"componentType":5126,
			"count":640,
			"type":"VEC4"
		},
		{
			"bufferView":14,
			"componentType":5123,
			"count":2112,
			"type":"SCALAR"
		}
	],
	"bufferViews":[
		{
			"buffer":0,
			"byteLength":9192,
			"byteOffset":0,
			"target":34962
		},
		{
			"buffer":0,
			"byteLength":9192,
			"byteOffset":9192,
			"target":34962
		},
		{
			"buffer":0,
			"byteLength":6128,
			"byteOffset":18384,
			"target":34962
		},
		{
			"buffer":0,
			"byteLength":12256,
			"byteOffset":24512,
			"target":34962
		},
		{
			"buffer":0,
			"byteLength":5208,
			"byteOffset":36768,
			"target":34963
		},
		{
			"buffer":0,
			"byteLength":576,
			"byteOffset":41976,
			"target":34962
		},
		{
			"buffer":0,
			"byteLength":576,
			"byteOffset":42552,
			"target":34962
		},
		{
			"buffer":0,
			"byteLength":384,
			"byteOffset":43128,
			"target":34962
		},
		{
			"buffer":0,
			"byteLength":768,
			"byteOffset":43512,
			"target":34962
		},
		{
			"buffer":0,
			"byteLength":264,
			"byteOffset":44280,
			"target":34963
		},
		{
			"buffer":0,
			"byteLength":7680,
			"byteOffset":44544,
			"target":34962
		},
		{
			"buffer":0,
			"byteLength":7680,
			"byteOffset":52224,
			"target":34962
		},
		{
			"buffer":0,
			"byteLength":5120,
			"byteOffset":59904,
			"target":34962
		},
		{
			"buffer":0,
			"byteLength":10240,
			"byteOffset":65024,
			"target":34962
		},
		{
			"buffer":0,
			"byteLength":4224,
			"byteOffset":75264,
			"target":34963
		}
	],
	"samplers":[
		{
			"magFilter":9729,
			"minFilter":9987
		}
	],
	"buffers":[
		{
			"byteLength":79488,
			"uri":"Toolbox_Portable.bin"
		}
	]
}
