{
	"asset":{
		"generator":"Khronos glTF Blender I/O v5.2.39",
		"version":"2.0"
	},
	"scene":0,
	"scenes":[
		{
			"name":"STORAGE \u2022 Reference scene",
			"nodes":[
				0
			]
		}
	],
	"nodes":[
		{
			"extras":{
				"asset_id":"Utility_Case_Large",
				"units":"meters",
				"front_axis_blender":"-Y",
				"pivot":"bottom center"
			},
			"mesh":0,
			"name":"Utility_Case_Large_Export"
		}
	],
	"materials":[
		{
			"name":"STORE \u2022 PaintGreen",
			"normalTexture":{
				"index":0
			},
			"occlusionTexture":{
				"index":1
			},
			"pbrMetallicRoughness":{
				"baseColorTexture":{
					"index":2
				},
				"metallicRoughnessTexture":{
					"index":1
				}
			}
		},
		{
			"name":"STORE \u2022 Rubber",
			"pbrMetallicRoughness":{
				"baseColorFactor":[
					0.03500000014901161,
					0.03799999877810478,
					0.03500000014901161,
					1
				],
				"metallicFactor":0,
				"roughnessFactor":0.8600000143051147
			}
		},
		{
			"name":"STORE \u2022 Steel",
			"normalTexture":{
				"index":3
			},
			"occlusionTexture":{
				"index":4
			},
			"pbrMetallicRoughness":{
				"baseColorTexture":{
					"index":5
				},
				"metallicRoughnessTexture":{
					"index":4
				}
			}
		},
		{
			"name":"STORE \u2022 Plastic",
			"normalTexture":{
				"index":6
			},
			"occlusionTexture":{
				"index":7
			},
			"pbrMetallicRoughness":{
				"baseColorTexture":{
					"index":8
				},
				"metallicRoughnessTexture":{
					"index":7
				}
			}
		}
	],
	"meshes":[
		{
			"name":"Utility_Case_Large_Mesh.001",
			"primitives":[
				{
					"attributes":{
						"POSITION":0,
						"NORMAL":1,
						"TEXCOORD_0":2,
						"TANGENT":3
					},
					"indices":4,
					"material":0
				},
				{
					"attributes":{
						"POSITION":5,
						"NORMAL":6,
						"TEXCOORD_0":7,
						"TANGENT":8
					},
					"indices":9,
					"material":1
				},
				{
					"attributes":{
						"POSITION":10,
						"NORMAL":11,
						"TEXCOORD_0":12,
						"TANGENT":13
					},
					"indices":14,
					"material":2
				},
				{
					"attributes":{
						"POSITION":15,
						"NORMAL":16,
						"TEXCOORD_0":17,
						"TANGENT":18
					},
					"indices":19,
					"material":3
				}
			]
		}
	],
	"textures":[
		{
			"sampler":0,
			"source":0
		},
		{
			"sampler":0,
			"source":1
		},
		{
			"sampler":0,
			"source":2
		},
		{
			"sampler":0,
			"source":3
		},
		{
			"sampler":0,
			"source":4
		},
		{
			"sampler":0,
			"source":5
		},
		{
			"sampler":0,
			"source":6
		},
		{
			"sampler":0,
			"source":7
		},
		{
			"sampler":0,
			"source":8
		}
	],
	"images":[
		{
			"mimeType":"image/png",
			"name":"storage_paint_gray_normal_opengl",
			"uri":"textures/storage_paint_gray_normal_opengl.png"
		},
		{
			"mimeType":"image/png",
			"name":"storage_paint_gray_orm",
			"uri":"textures/storage_paint_gray_orm.png"
		},
		{
			"mimeType":"image/png",
			"name":"storage_paint_green_basecolor",
			"uri":"textures/storage_paint_green_basecolor.png"
		},
		{
			"mimeType":"image/png",
			"name":"storage_steel_used_normal_opengl",
			"uri":"textures/storage_steel_used_normal_opengl.png"
		},
		{
			"mimeType":"image/png",
			"name":"storage_steel_used_orm",
			"uri":"textures/storage_steel_used_orm.png"
		},
		{
			"mimeType":"image/png",
			"name":"storage_steel_used_basecolor",
			"uri":"textures/storage_steel_used_basecolor.png"
		},
		{
			"mimeType":"image/png",
			"name":"storage_plastic_scuffed_normal_opengl",
			"uri":"textures/storage_plastic_scuffed_normal_opengl.png"
		},
		{
			"mimeType":"image/png",
			"name":"storage_plastic_scuffed_orm",
			"uri":"textures/storage_plastic_scuffed_orm.png"
		},
		{
			"mimeType":"image/png",
			"name":"storage_plastic_scuffed_basecolor",
			"uri":"textures/storage_plastic_scuffed_basecolor.png"
		}
	],
	"accessors":[
		{
			"bufferView":0,
			"componentType":5126,
			"count":624,
			"max":[
				0.36800000071525574,
				0.3636000156402588,
				0.22200000286102295
			],
			"min":[
				-0.36800000071525574,
				0,
				-0.22200000286102295
			],
			"type":"VEC3"
		},
		{
			"bufferView":1,
			"componentType":5126,
			"count":624,
			"type":"VEC3"
		},
		{
			"bufferView":2,
			"componentType":5126,
			"count":624,
			"type":"VEC2"
		},
		{
			"bufferView":3,
			"componentType":5126,
			"count":624,
			"type":"VEC4"
		},
		{
			"bufferView":4,
			"componentType":5123,
			"count":2184,
			"type":"SCALAR"
		},
		{
			"bufferView":5,
			"componentType":5126,
			"count":48,
			"max":[
				0.3580000102519989,
				0.3184800148010254,
				0.2134999930858612
			],
			"min":[
				-0.3580000102519989,
				0.3064799904823303,
				-0.2134999930858612
			],
			"type":"VEC3"
		},
		{
			"bufferView":6,
			"componentType":5126,
			"count":48,
			"type":"VEC3"
		},
		{
			"bufferView":7,
			"componentType":5126,
			"count":48,
			"type":"VEC2"
		},
		{
			"bufferView":8,
			"componentType":5126,
			"count":48,
			"type":"VEC4"
		},
		{
			"bufferView":9,
			"componentType":5123,
			"count":132,
			"type":"SCALAR"
		},
		{
			"bufferView":10,
			"componentType":5126,
			"count":640,
			"max":[
				0.25600001215934753,
				0.3190000057220459,
				0.2409999966621399
			],
			"min":[
				-0.25600001215934753,
				0.1534000039100647,
				-0.2280000001192093
			],
			"type":"VEC3"
		},
		{
			"bufferView":11,
			"componentType":5126,
			"count":640,
			"type":"VEC3"
		},
		{
			"bufferView":12,
			"componentType":5126,
			"count":640,
			"type":"VEC2"
		},
		{
			"bufferView":13,
			"componentType":5126,
			"count":640,
			"type":"VEC4"
		},
		{
			"bufferView":14,
			"componentType":5123,
			"count":2112,
			"type":"SCALAR"
		},
		{
			"bufferView":15,
			"componentType":5126,
			"count":140,
			"max":[
				0.10979987680912018,
				0.18531909584999084,
				0.2918536365032196
			],
			"min":[
				-0.10979999601840973,
				0.15850615501403809,
				0.22479592263698578
			],
			"type":"VEC3"
		},
		{
			"bufferView":16,
			"componentType":5126,
			"count":140,
			"type":"VEC3"
		},
		{
			"bufferView":17,
			"componentType":5126,
			"count":140,
			"type":"VEC2"
		},
		{
			"bufferView":18,
			"componentType":5126,
			"count":140,
			"type":"VEC4"
		},
		{
			"bufferView":19,
			"componentType":5123,
			"count":420,
			"type":"SCALAR"
		}
	],
	"bufferViews":[
		{
			"buffer":0,
			"byteLength":7488,
			"byteOffset":0,
			"target":34962
		},
		{
			"buffer":0,
			"byteLength":7488,
			"byteOffset":7488,
			"target":34962
		},
		{
			"buffer":0,
			"byteLength":4992,
			"byteOffset":14976,
			"target":34962
		},
		{
			"buffer":0,
			"byteLength":9984,
			"byteOffset":19968,
			"target":34962
		},
		{
			"buffer":0,
			"byteLength":4368,
			"byteOffset":29952,
			"target":34963
		},
		{
			"buffer":0,
			"byteLength":576,
			"byteOffset":34320,
			"target":34962
		},
		{
			"buffer":0,
			"byteLength":576,
			"byteOffset":34896,
			"target":34962
		},
		{
			"buffer":0,
			"byteLength":384,
			"byteOffset":35472,
			"target":34962
		},
		{
			"buffer":0,
			"byteLength":768,
			"byteOffset":35856,
			"target":34962
		},
		{
			"buffer":0,
			"byteLength":264,
			"byteOffset":36624,
			"target":34963
		},
		{
			"buffer":0,
			"byteLength":7680,
			"byteOffset":36888,
			"target":34962
		},
		{
			"buffer":0,
			"byteLength":7680,
			"byteOffset":44568,
			"target":34962
		},
		{
			"buffer":0,
			"byteLength":5120,
			"byteOffset":52248,
			"target":34962
		},
		{
			"buffer":0,
			"byteLength":10240,
			"byteOffset":57368,
			"target":34962
		},
		{
			"buffer":0,
			"byteLength":4224,
			"byteOffset":67608,
			"target":34963
		},
		{
			"buffer":0,
			"byteLength":1680,
			"byteOffset":71832,
			"target":34962
		},
		{
			"buffer":0,
			"byteLength":1680,
			"byteOffset":73512,
			"target":34962
		},
		{
			"buffer":0,
			"byteLength":1120,
			"byteOffset":75192,
			"target":34962
		},
		{
			"buffer":0,
			"byteLength":2240,
			"byteOffset":76312,
			"target":34962
		},
		{
			"buffer":0,
			"byteLength":840,
			"byteOffset":78552,
			"target":34963
		}
	],
	"samplers":[
		{
			"magFilter":9729,
			"minFilter":9987
		}
	],
	"buffers":[
		{
			"byteLength":79392,
			"uri":"Utility_Case_Large.bin"
		}
	]
}
