{
	"asset":{
		"generator":"Khronos glTF Blender I/O v5.2.39",
		"version":"2.0"
	},
	"scene":0,
	"scenes":[
		{
			"name":"STORAGE \u2022 Reference scene",
			"nodes":[
				0
			]
		}
	],
	"nodes":[
		{
			"extras":{
				"asset_id":"Utility_Case_Small",
				"units":"meters",
				"front_axis_blender":"-Y",
				"pivot":"bottom center"
			},
			"mesh":0,
			"name":"Utility_Case_Small_Export"
		}
	],
	"materials":[
		{
			"name":"STORE \u2022 Plastic",
			"normalTexture":{
				"index":0
			},
			"occlusionTexture":{
				"index":1
			},
			"pbrMetallicRoughness":{
				"baseColorTexture":{
					"index":2
				},
				"metallicRoughnessTexture":{
					"index":1
				}
			}
		},
		{
			"name":"STORE \u2022 Rubber",
			"pbrMetallicRoughness":{
				"baseColorFactor":[
					0.03500000014901161,
					0.03799999877810478,
					0.03500000014901161,
					1
				],
				"metallicFactor":0,
				"roughnessFactor":0.8600000143051147
			}
		},
		{
			"name":"STORE \u2022 Steel",
			"normalTexture":{
				"index":3
			},
			"occlusionTexture":{
				"index":4
			},
			"pbrMetallicRoughness":{
				"baseColorTexture":{
					"index":5
				},
				"metallicRoughnessTexture":{
					"index":4
				}
			}
		}
	],
	"meshes":[
		{
			"name":"Utility_Case_Small_Mesh.001",
			"primitives":[
				{
					"attributes":{
						"POSITION":0,
						"NORMAL":1,
						"TEXCOORD_0":2,
						"TANGENT":3
					},
					"indices":4,
					"material":0
				},
				{
					"attributes":{
						"POSITION":5,
						"NORMAL":6,
						"TEXCOORD_0":7,
						"TANGENT":8
					},
					"indices":9,
					"material":1
				},
				{
					"attributes":{
						"POSITION":10,
						"NORMAL":11,
						"TEXCOORD_0":12,
						"TANGENT":13
					},
					"indices":14,
					"material":2
				}
			]
		}
	],
	"textures":[
		{
			"sampler":0,
			"source":0
		},
		{
			"sampler":0,
			"source":1
		},
		{
			"sampler":0,
			"source":2
		},
		{
			"sampler":0,
			"source":3
		},
		{
			"sampler":0,
			"source":4
		},
		{
			"sampler":0,
			"source":5
		}
	],
	"images":[
		{
			"mimeType":"image/png",
			"name":"storage_plastic_scuffed_normal_opengl",
			"uri":"textures/storage_plastic_scuffed_normal_opengl.png"
		},
		{
			"mimeType":"image/png",
			"name":"storage_plastic_scuffed_orm",
			"uri":"textures/storage_plastic_scuffed_orm.png"
		},
		{
			"mimeType":"image/png",
			"name":"storage_plastic_scuffed_basecolor",
			"uri":"textures/storage_plastic_scuffed_basecolor.png"
		},
		{
			"mimeType":"image/png",
			"name":"storage_steel_used_normal_opengl",
			"uri":"textures/storage_steel_used_normal_opengl.png"
		},
		{
			"mimeType":"image/png",
			"name":"storage_steel_used_orm",
			"uri":"textures/storage_steel_used_orm.png"
		},
		{
			"mimeType":"image/png",
			"name":"storage_steel_used_basecolor",
			"uri":"textures/storage_steel_used_basecolor.png"
		}
	],
	"accessors":[
		{
			"bufferView":0,
			"componentType":5126,
			"count":764,
			"max":[
				0.22299998998641968,
				0.24239999055862427,
				0.22183983027935028
			],
			"min":[
				-0.22299998998641968,
				0,
				-0.15200001001358032
			],
			"type":"VEC3"
		},
		{
			"bufferView":1,
			"componentType":5126,
			"count":764,
			"type":"VEC3"
		},
		{
			"bufferView":2,
			"componentType":5126,
			"count":764,
			"type":"VEC2"
		},
		{
			"bufferView":3,
			"componentType":5126,
			"count":764,
			"type":"VEC4"
		},
		{
			"bufferView":4,
			"componentType":5123,
			"count":2604,
			"type":"SCALAR"
		},
		{
			"bufferView":5,
			"componentType":5126,
			"count":48,
			"max":[
				0.21299999952316284,
				0.21431998908519745,
				0.14350000023841858
			],
			"min":[
				-0.21299999952316284,
				0.20231999456882477,
				-0.14350000023841858
			],
			"type":"VEC3"
		},
		{
			"bufferView":6,
			"componentType":5126,
			"count":48,
			"type":"VEC3"
		},
		{
			"bufferView":7,
			"componentType":5126,
			"count":48,
			"type":"VEC2"
		},
		{
			"bufferView":8,
			"componentType":5126,
			"count":48,
			"type":"VEC4"
		},
		{
			"bufferView":9,
			"componentType":5123,
			"count":132,
			"type":"SCALAR"
		},
		{
			"bufferView":10,
			"componentType":5126,
			"count":640,
			"max":[
				0.16899999976158142,
				0.21699999272823334,
				0.17100000381469727
			],
			"min":[
				-0.16899999976158142,
				0.09459999203681946,
				-0.15799999237060547
			],
			"type":"VEC3"
		},
		{
			"bufferView":11,
			"componentType":5126,
			"count":640,
			"type":"VEC3"
		},
		{
			"bufferView":12,
			"componentType":5126,
			"count":640,
			"type":"VEC2"
		},
		{
			"bufferView":13,
			"componentType":5126,
			"count":640,
			"type":"VEC4"
		},
		{
			"bufferView":14,
			"componentType":5123,
			"count":2112,
			"type":"SCALAR"
		}
	],
	"bufferViews":[
		{
			"buffer":0,
			"byteLength":9168,
			"byteOffset":0,
			"target":34962
		},
		{
			"buffer":0,
			"byteLength":9168,
			"byteOffset":9168,
			"target":34962
		},
		{
			"buffer":0,
			"byteLength":6112,
			"byteOffset":18336,
			"target":34962
		},
		{
			"buffer":0,
			"byteLength":12224,
			"byteOffset":24448,
			"target":34962
		},
		{
			"buffer":0,
			"byteLength":5208,
			"byteOffset":36672,
			"target":34963
		},
		{
			"buffer":0,
			"byteLength":576,
			"byteOffset":41880,
			"target":34962
		},
		{
			"buffer":0,
			"byteLength":576,
			"byteOffset":42456,
			"target":34962
		},
		{
			"buffer":0,
			"byteLength":384,
			"byteOffset":43032,
			"target":34962
		},
		{
			"buffer":0,
			"byteLength":768,
			"byteOffset":43416,
			"target":34962
		},
		{
			"buffer":0,
			"byteLength":264,
			"byteOffset":44184,
			"target":34963
		},
		{
			"buffer":0,
			"byteLength":7680,
			"byteOffset":44448,
			"target":34962
		},
		{
			"buffer":0,
			"byteLength":7680,
			"byteOffset":52128,
			"target":34962
		},
		{
			"buffer":0,
			"byteLength":5120,
			"byteOffset":59808,
			"target":34962
		},
		{
			"buffer":0,
			"byteLength":10240,
			"byteOffset":64928,
			"target":34962
		},
		{
			"buffer":0,
			"byteLength":4224,
			"byteOffset":75168,
			"target":34963
		}
	],
	"samplers":[
		{
			"magFilter":9729,
			"minFilter":9987
		}
	],
	"buffers":[
		{
			"byteLength":79392,
			"uri":"Utility_Case_Small.bin"
		}
	]
}
