{
	"asset":{
		"generator":"Khronos glTF Blender I/O v5.2.39",
		"version":"2.0"
	},
	"scene":0,
	"scenes":[
		{
			"name":"STORAGE \u2022 Reference scene",
			"nodes":[
				0
			]
		}
	],
	"nodes":[
		{
			"extras":{
				"asset_id":"Workshop_Stool",
				"units":"meters",
				"front_axis_blender":"-Y",
				"pivot":"bottom center"
			},
			"mesh":0,
			"name":"Workshop_Stool_Export"
		}
	],
	"materials":[
		{
			"name":"STORE \u2022 Wood",
			"normalTexture":{
				"index":0
			},
			"occlusionTexture":{
				"index":1
			},
			"pbrMetallicRoughness":{
				"baseColorTexture":{
					"index":2
				},
				"metallicRoughnessTexture":{
					"index":1
				}
			}
		},
		{
			"name":"STORE \u2022 PaintGreen",
			"normalTexture":{
				"index":3
			},
			"occlusionTexture":{
				"index":4
			},
			"pbrMetallicRoughness":{
				"baseColorTexture":{
					"index":5
				},
				"metallicRoughnessTexture":{
					"index":4
				}
			}
		},
		{
			"name":"STORE \u2022 Rubber",
			"pbrMetallicRoughness":{
				"baseColorFactor":[
					0.03500000014901161,
					0.03799999877810478,
					0.03500000014901161,
					1
				],
				"metallicFactor":0,
				"roughnessFactor":0.8600000143051147
			}
		}
	],
	"meshes":[
		{
			"name":"Workshop_Stool_Mesh.001",
			"primitives":[
				{
					"attributes":{
						"POSITION":0,
						"NORMAL":1,
						"TEXCOORD_0":2,
						"TANGENT":3
					},
					"indices":4,
					"material":0
				},
				{
					"attributes":{
						"POSITION":5,
						"NORMAL":6,
						"TEXCOORD_0":7,
						"TANGENT":8
					},
					"indices":9,
					"material":1
				},
				{
					"attributes":{
						"POSITION":10,
						"NORMAL":11,
						"TEXCOORD_0":12,
						"TANGENT":13
					},
					"indices":14,
					"material":2
				}
			]
		}
	],
	"textures":[
		{
			"sampler":0,
			"source":0
		},
		{
			"sampler":0,
			"source":1
		},
		{
			"sampler":0,
			"source":2
		},
		{
			"sampler":0,
			"source":3
		},
		{
			"sampler":0,
			"source":4
		},
		{
			"sampler":0,
			"source":5
		}
	],
	"images":[
		{
			"mimeType":"image/png",
			"name":"storage_wood_worn_normal_opengl",
			"uri":"textures/storage_wood_worn_normal_opengl.png"
		},
		{
			"mimeType":"image/png",
			"name":"storage_wood_worn_orm",
			"uri":"textures/storage_wood_worn_orm.png"
		},
		{
			"mimeType":"image/png",
			"name":"storage_wood_worn_basecolor",
			"uri":"textures/storage_wood_worn_basecolor.png"
		},
		{
			"mimeType":"image/png",
			"name":"storage_paint_gray_normal_opengl",
			"uri":"textures/storage_paint_gray_normal_opengl.png"
		},
		{
			"mimeType":"image/png",
			"name":"storage_paint_gray_orm",
			"uri":"textures/storage_paint_gray_orm.png"
		},
		{
			"mimeType":"image/png",
			"name":"storage_paint_green_basecolor",
			"uri":"textures/storage_paint_green_basecolor.png"
		}
	],
	"accessors":[
		{
			"bufferView":0,
			"componentType":5126,
			"count":248,
			"max":[
				0.164000004529953,
				0.625,
				0.164000004529953
			],
			"min":[
				-0.164000004529953,
				0.5789999961853027,
				-0.164000004529953
			],
			"type":"VEC3"
		},
		{
			"bufferView":1,
			"componentType":5126,
			"count":248,
			"type":"VEC3"
		},
		{
			"bufferView":2,
			"componentType":5126,
			"count":248,
			"type":"VEC2"
		},
		{
			"bufferView":3,
			"componentType":5126,
			"count":248,
			"type":"VEC4"
		},
		{
			"bufferView":4,
			"componentType":5123,
			"count":948,
			"type":"SCALAR"
		},
		{
			"bufferView":5,
			"componentType":5126,
			"count":1088,
			"max":[
				0.15894703567028046,
				0.5839999914169312,
				0.15900000929832458
			],
			"min":[
				-0.15900000929832458,
				0.020432591438293457,
				-0.15900000929832458
			],
			"type":"VEC3"
		},
		{
			"bufferView":6,
			"componentType":5126,
			"count":1088,
			"type":"VEC3"
		},
		{
			"bufferView":7,
			"componentType":5126,
			"count":1088,
			"type":"VEC2"
		},
		{
			"bufferView":8,
			"componentType":5126,
			"count":1088,
			"type":"VEC4"
		},
		{
			"bufferView":9,
			"componentType":5123,
			"count":3840,
			"type":"SCALAR"
		},
		{
			"bufferView":10,
			"componentType":5126,
			"count":416,
			"max":[
				0.14120815694332123,
				0.02799999713897705,
				0.14120815694332123
			],
			"min":[
				-0.14120815694332123,
				0,
				-0.14120815694332123
			],
			"type":"VEC3"
		},
		{
			"bufferView":11,
			"componentType":5126,
			"count":416,
			"type":"VEC3"
		},
		{
			"bufferView":12,
			"componentType":5126,
			"count":416,
			"type":"VEC2"
		},
		{
			"bufferView":13,
			"componentType":5126,
			"count":416,
			"type":"VEC4"
		},
		{
			"bufferView":14,
			"componentType":5123,
			"count":1488,
			"type":"SCALAR"
		}
	],
	"bufferViews":[
		{
			"buffer":0,
			"byteLength":2976,
			"byteOffset":0,
			"target":34962
		},
		{
			"buffer":0,
			"byteLength":2976,
			"byteOffset":2976,
			"target":34962
		},
		{
			"buffer":0,
			"byteLength":1984,
			"byteOffset":5952,
			"target":34962
		},
		{
			"buffer":0,
			"byteLength":3968,
			"byteOffset":7936,
			"target":34962
		},
		{
			"buffer":0,
			"byteLength":1896,
			"byteOffset":11904,
			"target":34963
		},
		{
			"buffer":0,
			"byteLength":13056,
			"byteOffset":13800,
			"target":34962
		},
		{
			"buffer":0,
			"byteLength":13056,
			"byteOffset":26856,
			"target":34962
		},
		{
			"buffer":0,
			"byteLength":8704,
			"byteOffset":39912,
			"target":34962
		},
		{
			"buffer":0,
			"byteLength":17408,
			"byteOffset":48616,
			"target":34962
		},
		{
			"buffer":0,
			"byteLength":7680,
			"byteOffset":66024,
			"target":34963
		},
		{
			"buffer":0,
			"byteLength":4992,
			"byteOffset":73704,
			"target":34962
		},
		{
			"buffer":0,
			"byteLength":4992,
			"byteOffset":78696,
			"target":34962
		},
		{
			"buffer":0,
			"byteLength":3328,
			"byteOffset":83688,
			"target":34962
		},
		{
			"buffer":0,
			"byteLength":6656,
			"byteOffset":87016,
			"target":34962
		},
		{
			"buffer":0,
			"byteLength":2976,
			"byteOffset":93672,
			"target":34963
		}
	],
	"samplers":[
		{
			"magFilter":9729,
			"minFilter":9987
		}
	],
	"buffers":[
		{
			"byteLength":96648,
			"uri":"Workshop_Stool.bin"
		}
	]
}
