{
	"asset":{
		"generator":"Khronos glTF Blender I/O v5.2.39",
		"version":"2.0"
	},
	"scene":0,
	"scenes":[
		{
			"name":"STORAGE \u2022 Reference scene",
			"nodes":[
				0
			]
		}
	],
	"nodes":[
		{
			"extras":{
				"asset_id":"Workbench_1800",
				"units":"meters",
				"front_axis_blender":"-Y",
				"pivot":"bottom center"
			},
			"mesh":0,
			"name":"Workbench_1800_Export"
		}
	],
	"materials":[
		{
			"name":"STORE \u2022 Wood",
			"normalTexture":{
				"index":0
			},
			"occlusionTexture":{
				"index":1
			},
			"pbrMetallicRoughness":{
				"baseColorTexture":{
					"index":2
				},
				"metallicRoughnessTexture":{
					"index":1
				}
			}
		},
		{
			"name":"STORE \u2022 PaintGreen",
			"normalTexture":{
				"index":3
			},
			"occlusionTexture":{
				"index":4
			},
			"pbrMetallicRoughness":{
				"baseColorTexture":{
					"index":5
				},
				"metallicRoughnessTexture":{
					"index":4
				}
			}
		},
		{
			"name":"STORE \u2022 Plastic",
			"normalTexture":{
				"index":6
			},
			"occlusionTexture":{
				"index":7
			},
			"pbrMetallicRoughness":{
				"baseColorTexture":{
					"index":8
				},
				"metallicRoughnessTexture":{
					"index":7
				}
			}
		},
		{
			"name":"STORE \u2022 Steel",
			"normalTexture":{
				"index":9
			},
			"occlusionTexture":{
				"index":10
			},
			"pbrMetallicRoughness":{
				"baseColorTexture":{
					"index":11
				},
				"metallicRoughnessTexture":{
					"index":10
				}
			}
		}
	],
	"meshes":[
		{
			"name":"Workbench_1800_Mesh.001",
			"primitives":[
				{
					"attributes":{
						"POSITION":0,
						"NORMAL":1,
						"TEXCOORD_0":2,
						"TANGENT":3
					},
					"indices":4,
					"material":0
				},
				{
					"attributes":{
						"POSITION":5,
						"NORMAL":6,
						"TEXCOORD_0":7,
						"TANGENT":8
					},
					"indices":9,
					"material":1
				},
				{
					"attributes":{
						"POSITION":10,
						"NORMAL":11,
						"TEXCOORD_0":12,
						"TANGENT":13
					},
					"indices":14,
					"material":2
				},
				{
					"attributes":{
						"POSITION":15,
						"NORMAL":16,
						"TEXCOORD_0":17,
						"TANGENT":18
					},
					"indices":19,
					"material":3
				}
			]
		}
	],
	"textures":[
		{
			"sampler":0,
			"source":0
		},
		{
			"sampler":0,
			"source":1
		},
		{
			"sampler":0,
			"source":2
		},
		{
			"sampler":0,
			"source":3
		},
		{
			"sampler":0,
			"source":4
		},
		{
			"sampler":0,
			"source":5
		},
		{
			"sampler":0,
			"source":6
		},
		{
			"sampler":0,
			"source":7
		},
		{
			"sampler":0,
			"source":8
		},
		{
			"sampler":0,
			"source":9
		},
		{
			"sampler":0,
			"source":10
		},
		{
			"sampler":0,
			"source":11
		}
	],
	"images":[
		{
			"mimeType":"image/png",
			"name":"storage_wood_worn_normal_opengl",
			"uri":"textures/storage_wood_worn_normal_opengl.png"
		},
		{
			"mimeType":"image/png",
			"name":"storage_wood_worn_orm",
			"uri":"textures/storage_wood_worn_orm.png"
		},
		{
			"mimeType":"image/png",
			"name":"storage_wood_worn_basecolor",
			"uri":"textures/storage_wood_worn_basecolor.png"
		},
		{
			"mimeType":"image/png",
			"name":"storage_paint_gray_normal_opengl",
			"uri":"textures/storage_paint_gray_normal_opengl.png"
		},
		{
			"mimeType":"image/png",
			"name":"storage_paint_gray_orm",
			"uri":"textures/storage_paint_gray_orm.png"
		},
		{
			"mimeType":"image/png",
			"name":"storage_paint_green_basecolor",
			"uri":"textures/storage_paint_green_basecolor.png"
		},
		{
			"mimeType":"image/png",
			"name":"storage_plastic_scuffed_normal_opengl",
			"uri":"textures/storage_plastic_scuffed_normal_opengl.png"
		},
		{
			"mimeType":"image/png",
			"name":"storage_plastic_scuffed_orm",
			"uri":"textures/storage_plastic_scuffed_orm.png"
		},
		{
			"mimeType":"image/png",
			"name":"storage_plastic_scuffed_basecolor",
			"uri":"textures/storage_plastic_scuffed_basecolor.png"
		},
		{
			"mimeType":"image/png",
			"name":"storage_steel_used_normal_opengl",
			"uri":"textures/storage_steel_used_normal_opengl.png"
		},
		{
			"mimeType":"image/png",
			"name":"storage_steel_used_orm",
			"uri":"textures/storage_steel_used_orm.png"
		},
		{
			"mimeType":"image/png",
			"name":"storage_steel_used_basecolor",
			"uri":"textures/storage_steel_used_basecolor.png"
		}
	],
	"accessors":[
		{
			"bufferView":0,
			"componentType":5126,
			"count":336,
			"max":[
				0.8999999761581421,
				0.9860000014305115,
				0.29899999499320984
			],
			"min":[
				-0.8999999761581421,
				0.8274999856948853,
				-0.4190000295639038
			],
			"type":"VEC3"
		},
		{
			"bufferView":1,
			"componentType":5126,
			"count":336,
			"type":"VEC3"
		},
		{
			"bufferView":2,
			"componentType":5126,
			"count":336,
			"type":"VEC2"
		},
		{
			"bufferView":3,
			"componentType":5126,
			"count":336,
			"type":"VEC4"
		},
		{
			"bufferView":4,
			"componentType":5123,
			"count":924,
			"type":"SCALAR"
		},
		{
			"bufferView":5,
			"componentType":5126,
			"count":720,
			"max":[
				0.8399999737739563,
				0.840499997138977,
				0.27799999713897705
			],
			"min":[
				-0.8450000286102295,
				0.015500009059906006,
				-0.3074999451637268
			],
			"type":"VEC3"
		},
		{
			"bufferView":6,
			"componentType":5126,
			"count":720,
			"type":"VEC3"
		},
		{
			"bufferView":7,
			"componentType":5126,
			"count":720,
			"type":"VEC2"
		},
		{
			"bufferView":8,
			"componentType":5126,
			"count":720,
			"type":"VEC4"
		},
		{
			"bufferView":9,
			"componentType":5123,
			"count":2040,
			"type":"SCALAR"
		},
		{
			"bufferView":10,
			"componentType":5126,
			"count":192,
			"max":[
				0.8460000157356262,
				0.046000003814697266,
				0.26600000262260437
			],
			"min":[
				-0.8460000157356262,
				0,
				-0.3059999942779541
			],
			"type":"VEC3"
		},
		{
			"bufferView":11,
			"componentType":5126,
			"count":192,
			"type":"VEC3"
		},
		{
			"bufferView":12,
			"componentType":5126,
			"count":192,
			"type":"VEC2"
		},
		{
			"bufferView":13,
			"componentType":5126,
			"count":192,
			"type":"VEC4"
		},
		{
			"bufferView":14,
			"componentType":5123,
			"count":528,
			"type":"SCALAR"
		},
		{
			"bufferView":15,
			"componentType":5126,
			"count":736,
			"max":[
				0.6980000138282776,
				0.7540000081062317,
				0.3179999887943268
			],
			"min":[
				0.4220000207424164,
				0.2709999680519104,
				0.2750000059604645
			],
			"type":"VEC3"
		},
		{
			"bufferView":16,
			"componentType":5126,
			"count":736,
			"type":"VEC3"
		},
		{
			"bufferView":17,
			"componentType":5126,
			"count":736,
			"type":"VEC2"
		},
		{
			"bufferView":18,
			"componentType":5126,
			"count":736,
			"type":"VEC4"
		},
		{
			"bufferView":19,
			"componentType":5123,
			"count":1776,
			"type":"SCALAR"
		}
	],
	"bufferViews":[
		{
			"buffer":0,
			"byteLength":4032,
			"byteOffset":0,
			"target":34962
		},
		{
			"buffer":0,
			"byteLength":4032,
			"byteOffset":4032,
			"target":34962
		},
		{
			"buffer":0,
			"byteLength":2688,
			"byteOffset":8064,
			"target":34962
		},
		{
			"buffer":0,
			"byteLength":5376,
			"byteOffset":10752,
			"target":34962
		},
		{
			"buffer":0,
			"byteLength":1848,
			"byteOffset":16128,
			"target":34963
		},
		{
			"buffer":0,
			"byteLength":8640,
			"byteOffset":17976,
			"target":34962
		},
		{
			"buffer":0,
			"byteLength":8640,
			"byteOffset":26616,
			"target":34962
		},
		{
			"buffer":0,
			"byteLength":5760,
			"byteOffset":35256,
			"target":34962
		},
		{
			"buffer":0,
			"byteLength":11520,
			"byteOffset":41016,
			"target":34962
		},
		{
			"buffer":0,
			"byteLength":4080,
			"byteOffset":52536,
			"target":34963
		},
		{
			"buffer":0,
			"byteLength":2304,
			"byteOffset":56616,
			"target":34962
		},
		{
			"buffer":0,
			"byteLength":2304,
			"byteOffset":58920,
			"target":34962
		},
		{
			"buffer":0,
			"byteLength":1536,
			"byteOffset":61224,
			"target":34962
		},
		{
			"buffer":0,
			"byteLength":3072,
			"byteOffset":62760,
			"target":34962
		},
		{
			"buffer":0,
			"byteLength":1056,
			"byteOffset":65832,
			"target":34963
		},
		{
			"buffer":0,
			"byteLength":8832,
			"byteOffset":66888,
			"target":34962
		},
		{
			"buffer":0,
			"byteLength":8832,
			"byteOffset":75720,
			"target":34962
		},
		{
			"buffer":0,
			"byteLength":5888,
			"byteOffset":84552,
			"target":34962
		},
		{
			"buffer":0,
			"byteLength":11776,
			"byteOffset":90440,
			"target":34962
		},
		{
			"buffer":0,
			"byteLength":3552,
			"byteOffset":102216,
			"target":34963
		}
	],
	"samplers":[
		{
			"magFilter":9729,
			"minFilter":9987
		}
	],
	"buffers":[
		{
			"byteLength":105768,
			"uri":"Workbench_1800.bin"
		}
	]
}
