{
	"asset":{
		"generator":"Khronos glTF Blender I/O v5.2.39",
		"version":"2.0"
	},
	"scene":0,
	"scenes":[
		{
			"name":"KEY KIT \u2022 Assets",
			"nodes":[
				0
			]
		}
	],
	"nodes":[
		{
			"extras":{
				"asset_id":"Key_Locker_Green_50",
				"units":"meters",
				"pivot":"bottom center",
				"length_mm":50.0,
				"bow_hole_center_local":[
					-0.019100000000000002,
					0.0,
					0.002099999925121665
				]
			},
			"mesh":0,
			"name":"Key_Locker_Green_50_Export"
		}
	],
	"materials":[
		{
			"name":"KEYS \u2022 Shared key atlas",
			"normalTexture":{
				"index":0
			},
			"pbrMetallicRoughness":{
				"baseColorTexture":{
					"index":1
				},
				"metallicRoughnessTexture":{
					"index":2
				}
			}
		}
	],
	"meshes":[
		{
			"name":"Key_Locker_Green_50_Mesh.001",
			"primitives":[
				{
					"attributes":{
						"POSITION":0,
						"NORMAL":1,
						"TEXCOORD_0":2,
						"TANGENT":3
					},
					"indices":4,
					"material":0
				}
			]
		}
	],
	"textures":[
		{
			"sampler":0,
			"source":0
		},
		{
			"sampler":0,
			"source":1
		},
		{
			"sampler":0,
			"source":2
		}
	],
	"images":[
		{
			"mimeType":"image/png",
			"name":"keys_normal_opengl",
			"uri":"textures/keys_normal_opengl.png"
		},
		{
			"mimeType":"image/png",
			"name":"keys_atlas_basecolor",
			"uri":"textures/keys_atlas_basecolor.png"
		},
		{
			"mimeType":"image/png",
			"name":"keys_atlas_orm",
			"uri":"textures/keys_atlas_orm.png"
		}
	],
	"accessors":[
		{
			"bufferView":0,
			"componentType":5126,
			"count":1752,
			"max":[
				0.02500000037252903,
				0.00419999985024333,
				0.010000000707805157
			],
			"min":[
				-0.02500000037252903,
				0,
				-0.010000000707805157
			],
			"type":"VEC3"
		},
		{
			"bufferView":1,
			"componentType":5126,
			"count":1752,
			"type":"VEC3"
		},
		{
			"bufferView":2,
			"componentType":5126,
			"count":1752,
			"type":"VEC2"
		},
		{
			"bufferView":3,
			"componentType":5126,
			"count":1752,
			"type":"VEC4"
		},
		{
			"bufferView":4,
			"componentType":5123,
			"count":7044,
			"type":"SCALAR"
		}
	],
	"bufferViews":[
		{
			"buffer":0,
			"byteLength":21024,
			"byteOffset":0,
			"target":34962
		},
		{
			"buffer":0,
			"byteLength":21024,
			"byteOffset":21024,
			"target":34962
		},
		{
			"buffer":0,
			"byteLength":14016,
			"byteOffset":42048,
			"target":34962
		},
		{
			"buffer":0,
			"byteLength":28032,
			"byteOffset":56064,
			"target":34962
		},
		{
			"buffer":0,
			"byteLength":14088,
			"byteOffset":84096,
			"target":34963
		}
	],
	"samplers":[
		{
			"magFilter":9729,
			"minFilter":9987
		}
	],
	"buffers":[
		{
			"byteLength":98184,
			"uri":"Key_Locker_Green_50.bin"
		}
	]
}
