{
	"asset":{
		"generator":"Khronos glTF Blender I/O v5.2.39",
		"version":"2.0"
	},
	"scene":0,
	"scenes":[
		{
			"name":"KEY KIT \u2022 Assets",
			"nodes":[
				0
			]
		}
	],
	"nodes":[
		{
			"extras":{
				"asset_id":"Key_Warded_Blue_100",
				"units":"meters",
				"pivot":"bottom center",
				"length_mm":100.0,
				"bow_hole_center_local":[
					-0.0414,
					0.0,
					0.003000000026077032
				]
			},
			"mesh":0,
			"name":"Key_Warded_Blue_100_Export"
		}
	],
	"materials":[
		{
			"name":"KEYS \u2022 Shared key atlas",
			"normalTexture":{
				"index":0
			},
			"pbrMetallicRoughness":{
				"baseColorTexture":{
					"index":1
				},
				"metallicRoughnessTexture":{
					"index":2
				}
			}
		}
	],
	"meshes":[
		{
			"name":"Key_Warded_Blue_100_Mesh.001",
			"primitives":[
				{
					"attributes":{
						"POSITION":0,
						"NORMAL":1,
						"TEXCOORD_0":2,
						"TANGENT":3
					},
					"indices":4,
					"material":0
				}
			]
		}
	],
	"textures":[
		{
			"sampler":0,
			"source":0
		},
		{
			"sampler":0,
			"source":1
		},
		{
			"sampler":0,
			"source":2
		}
	],
	"images":[
		{
			"mimeType":"image/png",
			"name":"keys_normal_opengl",
			"uri":"textures/keys_normal_opengl.png"
		},
		{
			"mimeType":"image/png",
			"name":"keys_atlas_basecolor",
			"uri":"textures/keys_atlas_basecolor.png"
		},
		{
			"mimeType":"image/png",
			"name":"keys_atlas_orm",
			"uri":"textures/keys_atlas_orm.png"
		}
	],
	"accessors":[
		{
			"bufferView":0,
			"componentType":5126,
			"count":2044,
			"max":[
				0.05000000074505806,
				0.006000000052154064,
				0.012500000186264515
			],
			"min":[
				-0.05000000074505806,
				0,
				-0.012500000186264515
			],
			"type":"VEC3"
		},
		{
			"bufferView":1,
			"componentType":5126,
			"count":2044,
			"type":"VEC3"
		},
		{
			"bufferView":2,
			"componentType":5126,
			"count":2044,
			"type":"VEC2"
		},
		{
			"bufferView":3,
			"componentType":5126,
			"count":2044,
			"type":"VEC4"
		},
		{
			"bufferView":4,
			"componentType":5123,
			"count":6840,
			"type":"SCALAR"
		}
	],
	"bufferViews":[
		{
			"buffer":0,
			"byteLength":24528,
			"byteOffset":0,
			"target":34962
		},
		{
			"buffer":0,
			"byteLength":24528,
			"byteOffset":24528,
			"target":34962
		},
		{
			"buffer":0,
			"byteLength":16352,
			"byteOffset":49056,
			"target":34962
		},
		{
			"buffer":0,
			"byteLength":32704,
			"byteOffset":65408,
			"target":34962
		},
		{
			"buffer":0,
			"byteLength":13680,
			"byteOffset":98112,
			"target":34963
		}
	],
	"samplers":[
		{
			"magFilter":9729,
			"minFilter":9987
		}
	],
	"buffers":[
		{
			"byteLength":111792,
			"uri":"Key_Warded_Blue_100.bin"
		}
	]
}
