{
	"asset":{
		"generator":"Khronos glTF Blender I/O v5.2.39",
		"version":"2.0"
	},
	"scene":0,
	"scenes":[
		{
			"name":"KEY KIT \u2022 Assets",
			"nodes":[
				0
			]
		}
	],
	"nodes":[
		{
			"extras":{
				"asset_id":"Keycard_Red_Access01",
				"units":"meters",
				"pivot":"bottom center",
				"card_label":"ACCESS 01",
				"dimensions_mm":[
					85.6,
					54.0,
					0.8
				]
			},
			"mesh":0,
			"name":"Keycard_Red_Access01_Export"
		}
	],
	"materials":[
		{
			"name":"KEYS \u2022 Shared card atlas",
			"normalTexture":{
				"index":0
			},
			"pbrMetallicRoughness":{
				"baseColorTexture":{
					"index":1
				},
				"metallicRoughnessTexture":{
					"index":2
				}
			}
		}
	],
	"meshes":[
		{
			"name":"Keycard_Red_Access01.001",
			"primitives":[
				{
					"attributes":{
						"POSITION":0,
						"NORMAL":1,
						"TEXCOORD_0":2,
						"TANGENT":3
					},
					"indices":4,
					"material":0
				}
			]
		}
	],
	"textures":[
		{
			"sampler":0,
			"source":0
		},
		{
			"sampler":0,
			"source":1
		},
		{
			"sampler":0,
			"source":2
		}
	],
	"images":[
		{
			"mimeType":"image/png",
			"name":"cards_normal_opengl",
			"uri":"textures/cards_normal_opengl.png"
		},
		{
			"mimeType":"image/png",
			"name":"cards_atlas_basecolor",
			"uri":"textures/cards_atlas_basecolor.png"
		},
		{
			"mimeType":"image/png",
			"name":"cards_atlas_orm",
			"uri":"textures/cards_atlas_orm.png"
		}
	],
	"accessors":[
		{
			"bufferView":0,
			"componentType":5126,
			"count":532,
			"max":[
				0.04280000180006027,
				0.000800000037997961,
				0.027000000700354576
			],
			"min":[
				-0.04280000180006027,
				0,
				-0.027000000700354576
			],
			"type":"VEC3"
		},
		{
			"bufferView":1,
			"componentType":5126,
			"count":532,
			"type":"VEC3"
		},
		{
			"bufferView":2,
			"componentType":5126,
			"count":532,
			"type":"VEC2"
		},
		{
			"bufferView":3,
			"componentType":5126,
			"count":532,
			"type":"VEC4"
		},
		{
			"bufferView":4,
			"componentType":5123,
			"count":852,
			"type":"SCALAR"
		}
	],
	"bufferViews":[
		{
			"buffer":0,
			"byteLength":6384,
			"byteOffset":0,
			"target":34962
		},
		{
			"buffer":0,
			"byteLength":6384,
			"byteOffset":6384,
			"target":34962
		},
		{
			"buffer":0,
			"byteLength":4256,
			"byteOffset":12768,
			"target":34962
		},
		{
			"buffer":0,
			"byteLength":8512,
			"byteOffset":17024,
			"target":34962
		},
		{
			"buffer":0,
			"byteLength":1704,
			"byteOffset":25536,
			"target":34963
		}
	],
	"samplers":[
		{
			"magFilter":9729,
			"minFilter":9987
		}
	],
	"buffers":[
		{
			"byteLength":27240,
			"uri":"Keycard_Red_Access01.bin"
		}
	]
}
