{
  "asset": {
    "generator": "Khronos glTF Blender I/O v5.2.39",
    "version": "2.0"
  },
  "extensionsUsed": [
    "KHR_materials_emissive_strength"
  ],
  "scene": 0,
  "scenes": [
    {
      "name": "Scene",
      "nodes": [
        0
      ]
    }
  ],
  "nodes": [
    {
      "extras": {
        "asset_id": "Convection_Oven_Stand",
        "units": "meters",
        "front_axis": "-Y",
        "pivot": "bottom-center; mounting assembly bottom for wall assets",
        "texture_resolution": 1024,
        "kit": "Cafeteria industrial kitchen / v1"
      },
      "mesh": 0,
      "name": "Convection_Oven_Stand_Export"
    }
  ],
  "materials": [
    {
      "doubleSided": true,
      "name": "Satin stainless",
      "normalTexture": {
        "index": 0,
        "scale": 0.30000001192092896
      },
      "pbrMetallicRoughness": {
        "baseColorTexture": {
          "index": 1
        },
        "metallicRoughnessTexture": {
          "index": 2
        }
      }
    },
    {
      "doubleSided": true,
      "name": "Black polymer",
      "pbrMetallicRoughness": {
        "baseColorFactor": [
          0.017999999225139618,
          0.020999999716877937,
          0.024000000208616257,
          1
        ],
        "metallicFactor": 0,
        "roughnessFactor": 0.41999998688697815
      }
    },
    {
      "doubleSided": true,
      "name": "Gasket",
      "pbrMetallicRoughness": {
        "baseColorFactor": [
          0.008999999612569809,
          0.010999999940395355,
          0.012000000104308128,
          1
        ],
        "metallicFactor": 0,
        "roughnessFactor": 0.7799999713897705
      }
    },
    {
      "doubleSided": true,
      "name": "Oven glass",
      "pbrMetallicRoughness": {
        "baseColorFactor": [
          0.02500000037252903,
          0.03400000184774399,
          0.03799999877810478,
          1
        ],
        "metallicFactor": 0.3499999940395355,
        "roughnessFactor": 0.1899999976158142
      }
    },
    {
      "doubleSided": true,
      "name": "Dark steel",
      "normalTexture": {
        "index": 3,
        "scale": 0.30000001192092896
      },
      "pbrMetallicRoughness": {
        "baseColorFactor": [
          0.2199999988079071,
          0.23999999463558197,
          0.25,
          1
        ],
        "roughnessFactor": 0.41999998688697815
      }
    },
    {
      "doubleSided": true,
      "name": "Polished stainless",
      "normalTexture": {
        "index": 4,
        "scale": 0.30000001192092896
      },
      "pbrMetallicRoughness": {
        "baseColorTexture": {
          "index": 5
        },
        "roughnessFactor": 0.23999999463558197
      }
    },
    {
      "doubleSided": true,
      "emissiveFactor": [
        1,
        1,
        1
      ],
      "emissiveTexture": {
        "index": 6
      },
      "extensions": {
        "KHR_materials_emissive_strength": {
          "emissiveStrength": 3
        }
      },
      "extras": {
        "emission_strength": 3,
        "emission_texture": "emission_amber.png"
      },
      "name": "Amber indicator",
      "pbrMetallicRoughness": {
        "baseColorFactor": [
          0.6499999761581421,
          0.2199999988079071,
          0.02500000037252903,
          1
        ],
        "metallicFactor": 0.10000000149011612,
        "roughnessFactor": 0.27000001072883606
      }
    },
    {
      "doubleSided": true,
      "name": "Control ink",
      "pbrMetallicRoughness": {
        "baseColorFactor": [
          0.6499999761581421,
          0.6600000262260437,
          0.6000000238418579,
          1
        ],
        "metallicFactor": 0.10000000149011612,
        "roughnessFactor": 0.550000011920929
      }
    },
    {
      "doubleSided": true,
      "emissiveFactor": [
        1,
        1,
        1
      ],
      "emissiveTexture": {
        "index": 7
      },
      "extensions": {
        "KHR_materials_emissive_strength": {
          "emissiveStrength": 3
        }
      },
      "extras": {
        "emission_strength": 3,
        "emission_texture": "emission_green.png"
      },
      "name": "Green indicator",
      "pbrMetallicRoughness": {
        "baseColorFactor": [
          0.15000000596046448,
          0.4399999976158142,
          0.20999999344348907,
          1
        ],
        "metallicFactor": 0.10000000149011612,
        "roughnessFactor": 0.30000001192092896
      }
    }
  ],
  "meshes": [
    {
      "name": "Convection_Oven_Stand_Mesh.001",
      "primitives": [
        {
          "attributes": {
            "POSITION": 0,
            "NORMAL": 1,
            "TEXCOORD_0": 2,
            "TANGENT": 3
          },
          "indices": 4,
          "material": 0
        },
        {
          "attributes": {
            "POSITION": 5,
            "NORMAL": 6,
            "TEXCOORD_0": 7,
            "TANGENT": 8
          },
          "indices": 9,
          "material": 1
        },
        {
          "attributes": {
            "POSITION": 10,
            "NORMAL": 11,
            "TEXCOORD_0": 12,
            "TANGENT": 13
          },
          "indices": 14,
          "material": 2
        },
        {
          "attributes": {
            "POSITION": 15,
            "NORMAL": 16,
            "TEXCOORD_0": 17,
            "TANGENT": 18
          },
          "indices": 19,
          "material": 3
        },
        {
          "attributes": {
            "POSITION": 20,
            "NORMAL": 21,
            "TEXCOORD_0": 22,
            "TANGENT": 23
          },
          "indices": 24,
          "material": 4
        },
        {
          "attributes": {
            "POSITION": 25,
            "NORMAL": 26,
            "TEXCOORD_0": 27,
            "TANGENT": 28
          },
          "indices": 29,
          "material": 5
        },
        {
          "attributes": {
            "POSITION": 30,
            "NORMAL": 31,
            "TEXCOORD_0": 32,
            "TANGENT": 33
          },
          "indices": 34,
          "material": 6
        },
        {
          "attributes": {
            "POSITION": 35,
            "NORMAL": 36,
            "TEXCOORD_0": 37,
            "TANGENT": 38
          },
          "indices": 39,
          "material": 7
        },
        {
          "attributes": {
            "POSITION": 40,
            "NORMAL": 41,
            "TEXCOORD_0": 42,
            "TANGENT": 43
          },
          "indices": 44,
          "material": 8
        }
      ]
    }
  ],
  "textures": [
    {
      "sampler": 0,
      "source": 0
    },
    {
      "sampler": 0,
      "source": 1
    },
    {
      "sampler": 0,
      "source": 2
    },
    {
      "sampler": 0,
      "source": 0
    },
    {
      "sampler": 0,
      "source": 0
    },
    {
      "sampler": 0,
      "source": 1
    },
    {
      "sampler": 0,
      "source": 3
    },
    {
      "sampler": 0,
      "source": 4
    }
  ],
  "images": [
    {
      "mimeType": "image/png",
      "name": "steel_normal",
      "uri": "textures/steel_normal.png"
    },
    {
      "mimeType": "image/png",
      "name": "steel_basecolor",
      "uri": "textures/steel_basecolor.png"
    },
    {
      "mimeType": "image/png",
      "name": "steel_roughness",
      "uri": "textures/steel_metallic_roughness.png"
    },
    {
      "mimeType": "image/png",
      "name": "emission_amber",
      "uri": "textures/emission_amber.png"
    },
    {
      "mimeType": "image/png",
      "name": "emission_green",
      "uri": "textures/emission_green.png"
    }
  ],
  "accessors": [
    {
      "bufferView": 0,
      "componentType": 5126,
      "count": 796,
      "max": [
        0.4375000298023224,
        1.468000054359436,
        0.4465000033378601
      ],
      "min": [
        -0.4375,
        0.008000001311302185,
        -0.4100000262260437
      ],
      "type": "VEC3"
    },
    {
      "bufferView": 1,
      "componentType": 5126,
      "count": 796,
      "type": "VEC3"
    },
    {
      "bufferView": 2,
      "componentType": 5126,
      "count": 796,
      "type": "VEC2"
    },
    {
      "bufferView": 3,
      "componentType": 5126,
      "count": 796,
      "type": "VEC4"
    },
    {
      "bufferView": 4,
      "componentType": 5123,
      "count": 2424,
      "type": "SCALAR"
    },
    {
      "bufferView": 5,
      "componentType": 5126,
      "count": 776,
      "max": [
        0.4020000100135803,
        1.4199999570846558,
        0.4570000171661377
      ],
      "min": [
        -0.4020000100135803,
        0,
        -0.36399999260902405
      ],
      "type": "VEC3"
    },
    {
      "bufferView": 6,
      "componentType": 5126,
      "count": 776,
      "type": "VEC3"
    },
    {
      "bufferView": 7,
      "componentType": 5126,
      "count": 776,
      "type": "VEC2"
    },
    {
      "bufferView": 8,
      "componentType": 5126,
      "count": 776,
      "type": "VEC4"
    },
    {
      "bufferView": 9,
      "componentType": 5123,
      "count": 2676,
      "type": "SCALAR"
    },
    {
      "bufferView": 10,
      "componentType": 5126,
      "count": 432,
      "max": [
        0.4245000183582306,
        1.412500023841858,
        0.40700000524520874
      ],
      "min": [
        -0.3919999897480011,
        0.8235000371932983,
        -0.26500004529953003
      ],
      "type": "VEC3"
    },
    {
      "bufferView": 11,
      "componentType": 5126,
      "count": 432,
      "type": "VEC3"
    },
    {
      "bufferView": 12,
      "componentType": 5126,
      "count": 432,
      "type": "VEC2"
    },
    {
      "bufferView": 13,
      "componentType": 5126,
      "count": 432,
      "type": "VEC4"
    },
    {
      "bufferView": 14,
      "componentType": 5123,
      "count": 1188,
      "type": "SCALAR"
    },
    {
      "bufferView": 15,
      "componentType": 5126,
      "count": 96,
      "max": [
        0.3699999749660492,
        1.3165000677108765,
        0.4555000066757202
      ],
      "min": [
        -0.2875000238418579,
        0.9375000596046448,
        0.41499999165534973
      ],
      "type": "VEC3"
    },
    {
      "bufferView": 16,
      "componentType": 5126,
      "count": 96,
      "type": "VEC3"
    },
    {
      "bufferView": 17,
      "componentType": 5126,
      "count": 96,
      "type": "VEC2"
    },
    {
      "bufferView": 18,
      "componentType": 5126,
      "count": 96,
      "type": "VEC4"
    },
    {
      "bufferView": 19,
      "componentType": 5123,
      "count": 264,
      "type": "SCALAR"
    },
    {
      "bufferView": 20,
      "componentType": 5126,
      "count": 192,
      "max": [
        0.10899999737739563,
        1.2254999876022339,
        0.4580000042915344
      ],
      "min": [
        -0.2669999897480011,
        0.9884999990463257,
        0.4559999704360962
      ],
      "type": "VEC3"
    },
    {
      "bufferView": 21,
      "componentType": 5126,
      "count": 192,
      "type": "VEC3"
    },
    {
      "bufferView": 22,
      "componentType": 5126,
      "count": 192,
      "type": "VEC2"
    },
    {
      "bufferView": 23,
      "componentType": 5126,
      "count": 192,
      "type": "VEC4"
    },
    {
      "bufferView": 24,
      "componentType": 5123,
      "count": 528,
      "type": "SCALAR"
    },
    {
      "bufferView": 25,
      "componentType": 5126,
      "count": 488,
      "max": [
        0.36215999722480774,
        1.3070000410079956,
        0.5110000371932983
      ],
      "min": [
        -0.3149999976158142,
        0.9490000009536743,
        0.41599997878074646
      ],
      "type": "VEC3"
    },
    {
      "bufferView": 26,
      "componentType": 5126,
      "count": 488,
      "type": "VEC3"
    },
    {
      "bufferView": 27,
      "componentType": 5126,
      "count": 488,
      "type": "VEC2"
    },
    {
      "bufferView": 28,
      "componentType": 5126,
      "count": 488,
      "type": "VEC4"
    },
    {
      "bufferView": 29,
      "componentType": 5123,
      "count": 1572,
      "type": "SCALAR"
    },
    {
      "bufferView": 30,
      "componentType": 5126,
      "count": 52,
      "max": [
        0.34672001004219055,
        1.3029659986495972,
        0.42500001192092896
      ],
      "min": [
        0.3137519657611847,
        1.2847659587860107,
        0.42500001192092896
      ],
      "type": "VEC3"
    },
    {
      "bufferView": 31,
      "componentType": 5126,
      "count": 52,
      "type": "VEC3"
    },
    {
      "bufferView": 32,
      "componentType": 5126,
      "count": 52,
      "type": "VEC2"
    },
    {
      "bufferView": 33,
      "componentType": 5126,
      "count": 52,
      "type": "VEC4"
    },
    {
      "bufferView": 34,
      "componentType": 5123,
      "count": 156,
      "type": "SCALAR"
    },
    {
      "bufferView": 35,
      "componentType": 5126,
      "count": 586,
      "max": [
        0.3641386926174164,
        1.2214000225067139,
        0.45899999141693115
      ],
      "min": [
        -0.11115901172161102,
        0.8748829960823059,
        0.429500013589859
      ],
      "type": "VEC3"
    },
    {
      "bufferView": 36,
      "componentType": 5126,
      "count": 586,
      "type": "VEC3"
    },
    {
      "bufferView": 37,
      "componentType": 5126,
      "count": 586,
      "type": "VEC2"
    },
    {
      "bufferView": 38,
      "componentType": 5126,
      "count": 586,
      "type": "VEC4"
    },
    {
      "bufferView": 39,
      "componentType": 5123,
      "count": 1365,
      "type": "SCALAR"
    },
    {
      "bufferView": 40,
      "componentType": 5126,
      "count": 56,
      "max": [
        0.33399996161460876,
        0.9539999961853027,
        0.4424999952316284
      ],
      "min": [
        0.32199999690055847,
        0.9420000314712524,
        0.4334999918937683
      ],
      "type": "VEC3"
    },
    {
      "bufferView": 41,
      "componentType": 5126,
      "count": 56,
      "type": "VEC3"
    },
    {
      "bufferView": 42,
      "componentType": 5126,
      "count": 56,
      "type": "VEC2"
    },
    {
      "bufferView": 43,
      "componentType": 5126,
      "count": 56,
      "type": "VEC4"
    },
    {
      "bufferView": 44,
      "componentType": 5123,
      "count": 132,
      "type": "SCALAR"
    }
  ],
  "bufferViews": [
    {
      "buffer": 0,
      "byteLength": 9552,
      "byteOffset": 0,
      "target": 34962
    },
    {
      "buffer": 0,
      "byteLength": 9552,
      "byteOffset": 9552,
      "target": 34962
    },
    {
      "buffer": 0,
      "byteLength": 6368,
      "byteOffset": 19104,
      "target": 34962
    },
    {
      "buffer": 0,
      "byteLength": 12736,
      "byteOffset": 25472,
      "target": 34962
    },
    {
      "buffer": 0,
      "byteLength": 4848,
      "byteOffset": 38208,
      "target": 34963
    },
    {
      "buffer": 0,
      "byteLength": 9312,
      "byteOffset": 43056,
      "target": 34962
    },
    {
      "buffer": 0,
      "byteLength": 9312,
      "byteOffset": 52368,
      "target": 34962
    },
    {
      "buffer": 0,
      "byteLength": 6208,
      "byteOffset": 61680,
      "target": 34962
    },
    {
      "buffer": 0,
      "byteLength": 12416,
      "byteOffset": 67888,
      "target": 34962
    },
    {
      "buffer": 0,
      "byteLength": 5352,
      "byteOffset": 80304,
      "target": 34963
    },
    {
      "buffer": 0,
      "byteLength": 5184,
      "byteOffset": 85656,
      "target": 34962
    },
    {
      "buffer": 0,
      "byteLength": 5184,
      "byteOffset": 90840,
      "target": 34962
    },
    {
      "buffer": 0,
      "byteLength": 3456,
      "byteOffset": 96024,
      "target": 34962
    },
    {
      "buffer": 0,
      "byteLength": 6912,
      "byteOffset": 99480,
      "target": 34962
    },
    {
      "buffer": 0,
      "byteLength": 2376,
      "byteOffset": 106392,
      "target": 34963
    },
    {
      "buffer": 0,
      "byteLength": 1152,
      "byteOffset": 108768,
      "target": 34962
    },
    {
      "buffer": 0,
      "byteLength": 1152,
      "byteOffset": 109920,
      "target": 34962
    },
    {
      "buffer": 0,
      "byteLength": 768,
      "byteOffset": 111072,
      "target": 34962
    },
    {
      "buffer": 0,
      "byteLength": 1536,
      "byteOffset": 111840,
      "target": 34962
    },
    {
      "buffer": 0,
      "byteLength": 528,
      "byteOffset": 113376,
      "target": 34963
    },
    {
      "buffer": 0,
      "byteLength": 2304,
      "byteOffset": 113904,
      "target": 34962
    },
    {
      "buffer": 0,
      "byteLength": 2304,
      "byteOffset": 116208,
      "target": 34962
    },
    {
      "buffer": 0,
      "byteLength": 1536,
      "byteOffset": 118512,
      "target": 34962
    },
    {
      "buffer": 0,
      "byteLength": 3072,
      "byteOffset": 120048,
      "target": 34962
    },
    {
      "buffer": 0,
      "byteLength": 1056,
      "byteOffset": 123120,
      "target": 34963
    },
    {
      "buffer": 0,
      "byteLength": 5856,
      "byteOffset": 124176,
      "target": 34962
    },
    {
      "buffer": 0,
      "byteLength": 5856,
      "byteOffset": 130032,
      "target": 34962
    },
    {
      "buffer": 0,
      "byteLength": 3904,
      "byteOffset": 135888,
      "target": 34962
    },
    {
      "buffer": 0,
      "byteLength": 7808,
      "byteOffset": 139792,
      "target": 34962
    },
    {
      "buffer": 0,
      "byteLength": 3144,
      "byteOffset": 147600,
      "target": 34963
    },
    {
      "buffer": 0,
      "byteLength": 624,
      "byteOffset": 150744,
      "target": 34962
    },
    {
      "buffer": 0,
      "byteLength": 624,
      "byteOffset": 151368,
      "target": 34962
    },
    {
      "buffer": 0,
      "byteLength": 416,
      "byteOffset": 151992,
      "target": 34962
    },
    {
      "buffer": 0,
      "byteLength": 832,
      "byteOffset": 152408,
      "target": 34962
    },
    {
      "buffer": 0,
      "byteLength": 312,
      "byteOffset": 153240,
      "target": 34963
    },
    {
      "buffer": 0,
      "byteLength": 7032,
      "byteOffset": 153552,
      "target": 34962
    },
    {
      "buffer": 0,
      "byteLength": 7032,
      "byteOffset": 160584,
      "target": 34962
    },
    {
      "buffer": 0,
      "byteLength": 4688,
      "byteOffset": 167616,
      "target": 34962
    },
    {
      "buffer": 0,
      "byteLength": 9376,
      "byteOffset": 172304,
      "target": 34962
    },
    {
      "buffer": 0,
      "byteLength": 2730,
      "byteOffset": 181680,
      "target": 34963
    },
    {
      "buffer": 0,
      "byteLength": 672,
      "byteOffset": 184412,
      "target": 34962
    },
    {
      "buffer": 0,
      "byteLength": 672,
      "byteOffset": 185084,
      "target": 34962
    },
    {
      "buffer": 0,
      "byteLength": 448,
      "byteOffset": 185756,
      "target": 34962
    },
    {
      "buffer": 0,
      "byteLength": 896,
      "byteOffset": 186204,
      "target": 34962
    },
    {
      "buffer": 0,
      "byteLength": 264,
      "byteOffset": 187100,
      "target": 34963
    }
  ],
  "samplers": [
    {
      "magFilter": 9729,
      "minFilter": 9987
    }
  ],
  "buffers": [
    {
      "byteLength": 187364,
      "uri": "Convection_Oven_Stand.bin"
    }
  ]
}
