{
  "asset": {
    "generator": "Khronos glTF Blender I/O v5.2.39",
    "version": "2.0"
  },
  "scene": 0,
  "scenes": [
    {
      "name": "Scene",
      "nodes": [
        0
      ]
    }
  ],
  "nodes": [
    {
      "extras": {
        "asset_id": "Cutting_Board",
        "units": "meters",
        "front_axis": "-Y",
        "pivot": "bottom-center; mounting assembly bottom for wall assets",
        "texture_resolution": 1024,
        "kit": "Cafeteria industrial kitchen / v1"
      },
      "mesh": 0,
      "name": "Cutting_Board_Export"
    }
  ],
  "materials": [
    {
      "doubleSided": true,
      "name": "Maple workboard",
      "pbrMetallicRoughness": {
        "baseColorTexture": {
          "index": 0
        },
        "metallicFactor": 0,
        "roughnessFactor": 0.5799999833106995
      }
    },
    {
      "doubleSided": true,
      "name": "Black polymer",
      "pbrMetallicRoughness": {
        "baseColorFactor": [
          0.017999999225139618,
          0.020999999716877937,
          0.024000000208616257,
          1
        ],
        "metallicFactor": 0,
        "roughnessFactor": 0.41999998688697815
      }
    }
  ],
  "meshes": [
    {
      "name": "Cutting_Board_Mesh.001",
      "primitives": [
        {
          "attributes": {
            "POSITION": 0,
            "NORMAL": 1,
            "TEXCOORD_0": 2,
            "TANGENT": 3
          },
          "indices": 4,
          "material": 0
        },
        {
          "attributes": {
            "POSITION": 5,
            "NORMAL": 6,
            "TEXCOORD_0": 7,
            "TANGENT": 8
          },
          "indices": 9,
          "material": 1
        }
      ]
    }
  ],
  "textures": [
    {
      "sampler": 0,
      "source": 0
    }
  ],
  "images": [
    {
      "mimeType": "image/png",
      "name": "wood_basecolor",
      "uri": "textures/wood_basecolor.png"
    }
  ],
  "accessors": [
    {
      "bufferView": 0,
      "componentType": 5126,
      "count": 52,
      "max": [
        0.2750000059604645,
        0.041999999433755875,
        0.18000000715255737
      ],
      "min": [
        -0.2750000059604645,
        0,
        -0.18000000715255737
      ],
      "type": "VEC3"
    },
    {
      "bufferView": 1,
      "componentType": 5126,
      "count": 52,
      "type": "VEC3"
    },
    {
      "bufferView": 2,
      "componentType": 5126,
      "count": 52,
      "type": "VEC2"
    },
    {
      "bufferView": 3,
      "componentType": 5126,
      "count": 52,
      "type": "VEC4"
    },
    {
      "bufferView": 4,
      "componentType": 5123,
      "count": 132,
      "type": "SCALAR"
    },
    {
      "bufferView": 5,
      "componentType": 5126,
      "count": 224,
      "max": [
        0.23099999129772186,
        0.0040000006556510925,
        0.14100000262260437
      ],
      "min": [
        -0.23099999129772186,
        0,
        -0.14100000262260437
      ],
      "type": "VEC3"
    },
    {
      "bufferView": 6,
      "componentType": 5126,
      "count": 224,
      "type": "VEC3"
    },
    {
      "bufferView": 7,
      "componentType": 5126,
      "count": 224,
      "type": "VEC2"
    },
    {
      "bufferView": 8,
      "componentType": 5126,
      "count": 224,
      "type": "VEC4"
    },
    {
      "bufferView": 9,
      "componentType": 5123,
      "count": 528,
      "type": "SCALAR"
    }
  ],
  "bufferViews": [
    {
      "buffer": 0,
      "byteLength": 624,
      "byteOffset": 0,
      "target": 34962
    },
    {
      "buffer": 0,
      "byteLength": 624,
      "byteOffset": 624,
      "target": 34962
    },
    {
      "buffer": 0,
      "byteLength": 416,
      "byteOffset": 1248,
      "target": 34962
    },
    {
      "buffer": 0,
      "byteLength": 832,
      "byteOffset": 1664,
      "target": 34962
    },
    {
      "buffer": 0,
      "byteLength": 264,
      "byteOffset": 2496,
      "target": 34963
    },
    {
      "buffer": 0,
      "byteLength": 2688,
      "byteOffset": 2760,
      "target": 34962
    },
    {
      "buffer": 0,
      "byteLength": 2688,
      "byteOffset": 5448,
      "target": 34962
    },
    {
      "buffer": 0,
      "byteLength": 1792,
      "byteOffset": 8136,
      "target": 34962
    },
    {
      "buffer": 0,
      "byteLength": 3584,
      "byteOffset": 9928,
      "target": 34962
    },
    {
      "buffer": 0,
      "byteLength": 1056,
      "byteOffset": 13512,
      "target": 34963
    }
  ],
  "samplers": [
    {
      "magFilter": 9729,
      "minFilter": 9987
    }
  ],
  "buffers": [
    {
      "byteLength": 14568,
      "uri": "Cutting_Board.bin"
    }
  ]
}
