{
  "asset": {
    "generator": "Khronos glTF Blender I/O v5.2.39",
    "version": "2.0"
  },
  "scene": 0,
  "scenes": [
    {
      "name": "Scene",
      "nodes": [
        0
      ]
    }
  ],
  "nodes": [
    {
      "extras": {
        "asset_id": "Extractor_Hood_2800",
        "units": "meters",
        "front_axis": "-Y",
        "pivot": "bottom-center; mounting assembly bottom for wall assets",
        "texture_resolution": 1024,
        "kit": "Cafeteria industrial kitchen / v1"
      },
      "mesh": 0,
      "name": "Extractor_Hood_2800_Export"
    }
  ],
  "materials": [
    {
      "doubleSided": true,
      "name": "Satin stainless",
      "normalTexture": {
        "index": 0,
        "scale": 0.30000001192092896
      },
      "pbrMetallicRoughness": {
        "baseColorTexture": {
          "index": 1
        },
        "metallicRoughnessTexture": {
          "index": 2
        }
      }
    },
    {
      "doubleSided": true,
      "name": "Gasket",
      "pbrMetallicRoughness": {
        "baseColorFactor": [
          0.008999999612569809,
          0.010999999940395355,
          0.012000000104308128,
          1
        ],
        "metallicFactor": 0,
        "roughnessFactor": 0.7799999713897705
      }
    },
    {
      "doubleSided": true,
      "name": "Polished stainless",
      "normalTexture": {
        "index": 3,
        "scale": 0.30000001192092896
      },
      "pbrMetallicRoughness": {
        "baseColorTexture": {
          "index": 4
        },
        "roughnessFactor": 0.23999999463558197
      }
    },
    {
      "doubleSided": true,
      "name": "Dark steel",
      "normalTexture": {
        "index": 5,
        "scale": 0.30000001192092896
      },
      "pbrMetallicRoughness": {
        "baseColorFactor": [
          0.2199999988079071,
          0.23999999463558197,
          0.25,
          1
        ],
        "roughnessFactor": 0.41999998688697815
      }
    }
  ],
  "meshes": [
    {
      "name": "Extractor_Hood_2800_Mesh.002",
      "primitives": [
        {
          "attributes": {
            "POSITION": 0,
            "NORMAL": 1,
            "TEXCOORD_0": 2,
            "TANGENT": 3
          },
          "indices": 4,
          "material": 0
        },
        {
          "attributes": {
            "POSITION": 5,
            "NORMAL": 6,
            "TEXCOORD_0": 7,
            "TANGENT": 8
          },
          "indices": 9,
          "material": 1
        },
        {
          "attributes": {
            "POSITION": 10,
            "NORMAL": 11,
            "TEXCOORD_0": 12,
            "TANGENT": 13
          },
          "indices": 14,
          "material": 2
        },
        {
          "attributes": {
            "POSITION": 15,
            "NORMAL": 16,
            "TEXCOORD_0": 17,
            "TANGENT": 18
          },
          "indices": 19,
          "material": 3
        }
      ]
    }
  ],
  "textures": [
    {
      "sampler": 0,
      "source": 0
    },
    {
      "sampler": 0,
      "source": 1
    },
    {
      "sampler": 0,
      "source": 2
    },
    {
      "sampler": 0,
      "source": 0
    },
    {
      "sampler": 0,
      "source": 1
    },
    {
      "sampler": 0,
      "source": 0
    }
  ],
  "images": [
    {
      "mimeType": "image/png",
      "name": "steel_normal",
      "uri": "textures/steel_normal.png"
    },
    {
      "mimeType": "image/png",
      "name": "steel_basecolor",
      "uri": "textures/steel_basecolor.png"
    },
    {
      "mimeType": "image/png",
      "name": "steel_roughness",
      "uri": "textures/steel_metallic_roughness.png"
    }
  ],
  "accessors": [
    {
      "bufferView": 0,
      "componentType": 5126,
      "count": 633,
      "max": [
        1.4225000143051147,
        0.921999990940094,
        0.5460000038146973
      ],
      "min": [
        -1.4225000143051147,
        0,
        -0.5249999761581421
      ],
      "type": "VEC3"
    },
    {
      "bufferView": 1,
      "componentType": 5126,
      "count": 633,
      "type": "VEC3"
    },
    {
      "bufferView": 2,
      "componentType": 5126,
      "count": 633,
      "type": "VEC2"
    },
    {
      "bufferView": 3,
      "componentType": 5126,
      "count": 633,
      "type": "VEC4"
    },
    {
      "bufferView": 4,
      "componentType": 5123,
      "count": 744,
      "type": "SCALAR"
    },
    {
      "bufferView": 5,
      "componentType": 5126,
      "count": 106,
      "max": [
        1.3550000190734863,
        0.12850001454353333,
        0.33500000834465027
      ],
      "min": [
        -1.3550000190734863,
        0.10350000113248825,
        -0.41499999165534973
      ],
      "type": "VEC3"
    },
    {
      "bufferView": 6,
      "componentType": 5126,
      "count": 106,
      "type": "VEC3"
    },
    {
      "bufferView": 7,
      "componentType": 5126,
      "count": 106,
      "type": "VEC2"
    },
    {
      "bufferView": 8,
      "componentType": 5126,
      "count": 106,
      "type": "VEC4"
    },
    {
      "bufferView": 9,
      "componentType": 5123,
      "count": 132,
      "type": "SCALAR"
    },
    {
      "bufferView": 10,
      "componentType": 5126,
      "count": 2213,
      "max": [
        1.3550000190734863,
        0.191155806183815,
        0.37299999594688416
      ],
      "min": [
        -1.3550000190734863,
        0.04284419119358063,
        -0.43149998784065247
      ],
      "type": "VEC3"
    },
    {
      "bufferView": 11,
      "componentType": 5126,
      "count": 2213,
      "type": "VEC3"
    },
    {
      "bufferView": 12,
      "componentType": 5126,
      "count": 2213,
      "type": "VEC2"
    },
    {
      "bufferView": 13,
      "componentType": 5126,
      "count": 2213,
      "type": "VEC4"
    },
    {
      "bufferView": 14,
      "componentType": 5123,
      "count": 2916,
      "type": "SCALAR"
    },
    {
      "bufferView": 15,
      "componentType": 5126,
      "count": 5054,
      "max": [
        1.3227052688598633,
        0.11806740611791611,
        0.3310000002384186
      ],
      "min": [
        -1.3227052688598633,
        0.08793259412050247,
        -0.4009999930858612
      ],
      "type": "VEC3"
    },
    {
      "bufferView": 16,
      "componentType": 5126,
      "count": 5054,
      "type": "VEC3"
    },
    {
      "bufferView": 17,
      "componentType": 5126,
      "count": 5054,
      "type": "VEC2"
    },
    {
      "bufferView": 18,
      "componentType": 5126,
      "count": 5054,
      "type": "VEC4"
    },
    {
      "bufferView": 19,
      "componentType": 5123,
      "count": 5940,
      "type": "SCALAR"
    }
  ],
  "bufferViews": [
    {
      "buffer": 0,
      "byteLength": 7596,
      "byteOffset": 0,
      "target": 34962
    },
    {
      "buffer": 0,
      "byteLength": 7596,
      "byteOffset": 7596,
      "target": 34962
    },
    {
      "buffer": 0,
      "byteLength": 5064,
      "byteOffset": 15192,
      "target": 34962
    },
    {
      "buffer": 0,
      "byteLength": 10128,
      "byteOffset": 20256,
      "target": 34962
    },
    {
      "buffer": 0,
      "byteLength": 1488,
      "byteOffset": 30384,
      "target": 34963
    },
    {
      "buffer": 0,
      "byteLength": 1272,
      "byteOffset": 31872,
      "target": 34962
    },
    {
      "buffer": 0,
      "byteLength": 1272,
      "byteOffset": 33144,
      "target": 34962
    },
    {
      "buffer": 0,
      "byteLength": 848,
      "byteOffset": 34416,
      "target": 34962
    },
    {
      "buffer": 0,
      "byteLength": 1696,
      "byteOffset": 35264,
      "target": 34962
    },
    {
      "buffer": 0,
      "byteLength": 264,
      "byteOffset": 36960,
      "target": 34963
    },
    {
      "buffer": 0,
      "byteLength": 26556,
      "byteOffset": 37224,
      "target": 34962
    },
    {
      "buffer": 0,
      "byteLength": 26556,
      "byteOffset": 63780,
      "target": 34962
    },
    {
      "buffer": 0,
      "byteLength": 17704,
      "byteOffset": 90336,
      "target": 34962
    },
    {
      "buffer": 0,
      "byteLength": 35408,
      "byteOffset": 108040,
      "target": 34962
    },
    {
      "buffer": 0,
      "byteLength": 5832,
      "byteOffset": 143448,
      "target": 34963
    },
    {
      "buffer": 0,
      "byteLength": 60648,
      "byteOffset": 149280,
      "target": 34962
    },
    {
      "buffer": 0,
      "byteLength": 60648,
      "byteOffset": 209928,
      "target": 34962
    },
    {
      "buffer": 0,
      "byteLength": 40432,
      "byteOffset": 270576,
      "target": 34962
    },
    {
      "buffer": 0,
      "byteLength": 80864,
      "byteOffset": 311008,
      "target": 34962
    },
    {
      "buffer": 0,
      "byteLength": 11880,
      "byteOffset": 391872,
      "target": 34963
    }
  ],
  "samplers": [
    {
      "magFilter": 9729,
      "minFilter": 9987
    }
  ],
  "buffers": [
    {
      "byteLength": 403752,
      "uri": "Extractor_Hood_2800.bin"
    }
  ]
}
