{
  "asset": {
    "generator": "Khronos glTF Blender I/O v5.2.39",
    "version": "2.0"
  },
  "extensionsUsed": [
    "KHR_materials_emissive_strength"
  ],
  "scene": 0,
  "scenes": [
    {
      "name": "Scene",
      "nodes": [
        0
      ]
    }
  ],
  "nodes": [
    {
      "extras": {
        "asset_id": "Griddle_800",
        "units": "meters",
        "front_axis": "-Y",
        "pivot": "bottom-center; mounting assembly bottom for wall assets",
        "texture_resolution": 1024,
        "kit": "Cafeteria industrial kitchen / v1"
      },
      "mesh": 0,
      "name": "Griddle_800_Export"
    }
  ],
  "materials": [
    {
      "doubleSided": true,
      "name": "Satin stainless",
      "normalTexture": {
        "index": 0,
        "scale": 0.30000001192092896
      },
      "pbrMetallicRoughness": {
        "baseColorTexture": {
          "index": 1
        },
        "metallicRoughnessTexture": {
          "index": 2
        }
      }
    },
    {
      "doubleSided": true,
      "name": "Black polymer",
      "pbrMetallicRoughness": {
        "baseColorFactor": [
          0.017999999225139618,
          0.020999999716877937,
          0.024000000208616257,
          1
        ],
        "metallicFactor": 0,
        "roughnessFactor": 0.41999998688697815
      }
    },
    {
      "doubleSided": true,
      "name": "Gasket",
      "pbrMetallicRoughness": {
        "baseColorFactor": [
          0.008999999612569809,
          0.010999999940395355,
          0.012000000104308128,
          1
        ],
        "metallicFactor": 0,
        "roughnessFactor": 0.7799999713897705
      }
    },
    {
      "doubleSided": true,
      "name": "Polished stainless",
      "normalTexture": {
        "index": 3,
        "scale": 0.30000001192092896
      },
      "pbrMetallicRoughness": {
        "baseColorTexture": {
          "index": 4
        },
        "roughnessFactor": 0.23999999463558197
      }
    },
    {
      "doubleSided": true,
      "name": "Dark steel",
      "normalTexture": {
        "index": 5,
        "scale": 0.30000001192092896
      },
      "pbrMetallicRoughness": {
        "baseColorFactor": [
          0.2199999988079071,
          0.23999999463558197,
          0.25,
          1
        ],
        "roughnessFactor": 0.41999998688697815
      }
    },
    {
      "doubleSided": true,
      "name": "Control ink",
      "pbrMetallicRoughness": {
        "baseColorFactor": [
          0.6499999761581421,
          0.6600000262260437,
          0.6000000238418579,
          1
        ],
        "metallicFactor": 0.10000000149011612,
        "roughnessFactor": 0.550000011920929
      }
    },
    {
      "doubleSided": true,
      "emissiveFactor": [
        1,
        1,
        1
      ],
      "emissiveTexture": {
        "index": 6
      },
      "extensions": {
        "KHR_materials_emissive_strength": {
          "emissiveStrength": 3
        }
      },
      "extras": {
        "emission_strength": 3,
        "emission_texture": "emission_amber.png"
      },
      "name": "Amber indicator",
      "pbrMetallicRoughness": {
        "baseColorFactor": [
          0.6499999761581421,
          0.2199999988079071,
          0.02500000037252903,
          1
        ],
        "metallicFactor": 0.10000000149011612,
        "roughnessFactor": 0.27000001072883606
      }
    }
  ],
  "meshes": [
    {
      "name": "Griddle_800_Mesh.001",
      "primitives": [
        {
          "attributes": {
            "POSITION": 0,
            "NORMAL": 1,
            "TEXCOORD_0": 2,
            "TANGENT": 3
          },
          "indices": 4,
          "material": 0
        },
        {
          "attributes": {
            "POSITION": 5,
            "NORMAL": 6,
            "TEXCOORD_0": 7,
            "TANGENT": 8
          },
          "indices": 9,
          "material": 1
        },
        {
          "attributes": {
            "POSITION": 10,
            "NORMAL": 11,
            "TEXCOORD_0": 12,
            "TANGENT": 13
          },
          "indices": 14,
          "material": 2
        },
        {
          "attributes": {
            "POSITION": 15,
            "NORMAL": 16,
            "TEXCOORD_0": 17,
            "TANGENT": 18
          },
          "indices": 19,
          "material": 3
        },
        {
          "attributes": {
            "POSITION": 20,
            "NORMAL": 21,
            "TEXCOORD_0": 22,
            "TANGENT": 23
          },
          "indices": 24,
          "material": 4
        },
        {
          "attributes": {
            "POSITION": 25,
            "NORMAL": 26,
            "TEXCOORD_0": 27,
            "TANGENT": 28
          },
          "indices": 29,
          "material": 5
        },
        {
          "attributes": {
            "POSITION": 30,
            "NORMAL": 31,
            "TEXCOORD_0": 32,
            "TANGENT": 33
          },
          "indices": 34,
          "material": 6
        }
      ]
    }
  ],
  "textures": [
    {
      "sampler": 0,
      "source": 0
    },
    {
      "sampler": 0,
      "source": 1
    },
    {
      "sampler": 0,
      "source": 2
    },
    {
      "sampler": 0,
      "source": 0
    },
    {
      "sampler": 0,
      "source": 1
    },
    {
      "sampler": 0,
      "source": 0
    },
    {
      "sampler": 0,
      "source": 3
    }
  ],
  "images": [
    {
      "mimeType": "image/png",
      "name": "steel_normal",
      "uri": "textures/steel_normal.png"
    },
    {
      "mimeType": "image/png",
      "name": "steel_basecolor",
      "uri": "textures/steel_basecolor.png"
    },
    {
      "mimeType": "image/png",
      "name": "steel_roughness",
      "uri": "textures/steel_metallic_roughness.png"
    },
    {
      "mimeType": "image/png",
      "name": "emission_amber",
      "uri": "textures/emission_amber.png"
    }
  ],
  "accessors": [
    {
      "bufferView": 0,
      "componentType": 5126,
      "count": 800,
      "max": [
        0.4150000214576721,
        1.0555000305175781,
        0.45100000500679016
      ],
      "min": [
        -0.41499999165534973,
        0.008000001311302185,
        -0.4399999678134918
      ],
      "type": "VEC3"
    },
    {
      "bufferView": 1,
      "componentType": 5126,
      "count": 800,
      "type": "VEC3"
    },
    {
      "bufferView": 2,
      "componentType": 5126,
      "count": 800,
      "type": "VEC2"
    },
    {
      "bufferView": 3,
      "componentType": 5126,
      "count": 800,
      "type": "VEC4"
    },
    {
      "bufferView": 4,
      "componentType": 5123,
      "count": 2352,
      "type": "SCALAR"
    },
    {
      "bufferView": 5,
      "componentType": 5126,
      "count": 624,
      "max": [
        0.3569999933242798,
        0.7849999666213989,
        0.4750000238418579
      ],
      "min": [
        -0.3569999933242798,
        0,
        -0.3869999945163727
      ],
      "type": "VEC3"
    },
    {
      "bufferView": 6,
      "componentType": 5126,
      "count": 624,
      "type": "VEC3"
    },
    {
      "bufferView": 7,
      "componentType": 5126,
      "count": 624,
      "type": "VEC2"
    },
    {
      "bufferView": 8,
      "componentType": 5126,
      "count": 624,
      "type": "VEC4"
    },
    {
      "bufferView": 9,
      "componentType": 5123,
      "count": 2172,
      "type": "SCALAR"
    },
    {
      "bufferView": 10,
      "componentType": 5126,
      "count": 48,
      "max": [
        0.359000027179718,
        0.6650000810623169,
        0.4255000054836273
      ],
      "min": [
        -0.35899999737739563,
        0.24100002646446228,
        0.4124999940395355
      ],
      "type": "VEC3"
    },
    {
      "bufferView": 11,
      "componentType": 5126,
      "count": 48,
      "type": "VEC3"
    },
    {
      "bufferView": 12,
      "componentType": 5126,
      "count": 48,
      "type": "VEC2"
    },
    {
      "bufferView": 13,
      "componentType": 5126,
      "count": 48,
      "type": "VEC4"
    },
    {
      "bufferView": 14,
      "componentType": 5123,
      "count": 132,
      "type": "SCALAR"
    },
    {
      "bufferView": 15,
      "componentType": 5126,
      "count": 488,
      "max": [
        0.22999995946884155,
        0.7913800477981567,
        0.5019999742507935
      ],
      "min": [
        -0.2753799855709076,
        0.6050000190734863,
        0.41999998688697815
      ],
      "type": "VEC3"
    },
    {
      "bufferView": 16,
      "componentType": 5126,
      "count": 488,
      "type": "VEC3"
    },
    {
      "bufferView": 17,
      "componentType": 5126,
      "count": 488,
      "type": "VEC2"
    },
    {
      "bufferView": 18,
      "componentType": 5126,
      "count": 488,
      "type": "VEC4"
    },
    {
      "bufferView": 19,
      "componentType": 5123,
      "count": 1572,
      "type": "SCALAR"
    },
    {
      "bufferView": 20,
      "componentType": 5126,
      "count": 96,
      "max": [
        0.3734999895095825,
        0.8804999589920044,
        0.4244999885559082
      ],
      "min": [
        -0.3734999895095825,
        0.849000096321106,
        -0.3555000126361847
      ],
      "type": "VEC3"
    },
    {
      "bufferView": 21,
      "componentType": 5126,
      "count": 96,
      "type": "VEC3"
    },
    {
      "bufferView": 22,
      "componentType": 5126,
      "count": 96,
      "type": "VEC2"
    },
    {
      "bufferView": 23,
      "componentType": 5126,
      "count": 96,
      "type": "VEC4"
    },
    {
      "bufferView": 24,
      "componentType": 5123,
      "count": 264,
      "type": "SCALAR"
    },
    {
      "bufferView": 25,
      "componentType": 5126,
      "count": 542,
      "max": [
        0.07730314135551453,
        0.8049499988555908,
        0.46299999952316284
      ],
      "min": [
        -0.27730315923690796,
        0.6688829660415649,
        0.4334999918937683
      ],
      "type": "VEC3"
    },
    {
      "bufferView": 26,
      "componentType": 5126,
      "count": 542,
      "type": "VEC3"
    },
    {
      "bufferView": 27,
      "componentType": 5126,
      "count": 542,
      "type": "VEC2"
    },
    {
      "bufferView": 28,
      "componentType": 5126,
      "count": 542,
      "type": "VEC4"
    },
    {
      "bufferView": 29,
      "componentType": 5123,
      "count": 1320,
      "type": "SCALAR"
    },
    {
      "bufferView": 30,
      "componentType": 5126,
      "count": 56,
      "max": [
        0.28800004720687866,
        0.7680001258850098,
        0.4350000023841858
      ],
      "min": [
        0.2720000147819519,
        0.752000093460083,
        0.42900002002716064
      ],
      "type": "VEC3"
    },
    {
      "bufferView": 31,
      "componentType": 5126,
      "count": 56,
      "type": "VEC3"
    },
    {
      "bufferView": 32,
      "componentType": 5126,
      "count": 56,
      "type": "VEC2"
    },
    {
      "bufferView": 33,
      "componentType": 5126,
      "count": 56,
      "type": "VEC4"
    },
    {
      "bufferView": 34,
      "componentType": 5123,
      "count": 132,
      "type": "SCALAR"
    }
  ],
  "bufferViews": [
    {
      "buffer": 0,
      "byteLength": 9600,
      "byteOffset": 0,
      "target": 34962
    },
    {
      "buffer": 0,
      "byteLength": 9600,
      "byteOffset": 9600,
      "target": 34962
    },
    {
      "buffer": 0,
      "byteLength": 6400,
      "byteOffset": 19200,
      "target": 34962
    },
    {
      "buffer": 0,
      "byteLength": 12800,
      "byteOffset": 25600,
      "target": 34962
    },
    {
      "buffer": 0,
      "byteLength": 4704,
      "byteOffset": 38400,
      "target": 34963
    },
    {
      "buffer": 0,
      "byteLength": 7488,
      "byteOffset": 43104,
      "target": 34962
    },
    {
      "buffer": 0,
      "byteLength": 7488,
      "byteOffset": 50592,
      "target": 34962
    },
    {
      "buffer": 0,
      "byteLength": 4992,
      "byteOffset": 58080,
      "target": 34962
    },
    {
      "buffer": 0,
      "byteLength": 9984,
      "byteOffset": 63072,
      "target": 34962
    },
    {
      "buffer": 0,
      "byteLength": 4344,
      "byteOffset": 73056,
      "target": 34963
    },
    {
      "buffer": 0,
      "byteLength": 576,
      "byteOffset": 77400,
      "target": 34962
    },
    {
      "buffer": 0,
      "byteLength": 576,
      "byteOffset": 77976,
      "target": 34962
    },
    {
      "buffer": 0,
      "byteLength": 384,
      "byteOffset": 78552,
      "target": 34962
    },
    {
      "buffer": 0,
      "byteLength": 768,
      "byteOffset": 78936,
      "target": 34962
    },
    {
      "buffer": 0,
      "byteLength": 264,
      "byteOffset": 79704,
      "target": 34963
    },
    {
      "buffer": 0,
      "byteLength": 5856,
      "byteOffset": 79968,
      "target": 34962
    },
    {
      "buffer": 0,
      "byteLength": 5856,
      "byteOffset": 85824,
      "target": 34962
    },
    {
      "buffer": 0,
      "byteLength": 3904,
      "byteOffset": 91680,
      "target": 34962
    },
    {
      "buffer": 0,
      "byteLength": 7808,
      "byteOffset": 95584,
      "target": 34962
    },
    {
      "buffer": 0,
      "byteLength": 3144,
      "byteOffset": 103392,
      "target": 34963
    },
    {
      "buffer": 0,
      "byteLength": 1152,
      "byteOffset": 106536,
      "target": 34962
    },
    {
      "buffer": 0,
      "byteLength": 1152,
      "byteOffset": 107688,
      "target": 34962
    },
    {
      "buffer": 0,
      "byteLength": 768,
      "byteOffset": 108840,
      "target": 34962
    },
    {
      "buffer": 0,
      "byteLength": 1536,
      "byteOffset": 109608,
      "target": 34962
    },
    {
      "buffer": 0,
      "byteLength": 528,
      "byteOffset": 111144,
      "target": 34963
    },
    {
      "buffer": 0,
      "byteLength": 6504,
      "byteOffset": 111672,
      "target": 34962
    },
    {
      "buffer": 0,
      "byteLength": 6504,
      "byteOffset": 118176,
      "target": 34962
    },
    {
      "buffer": 0,
      "byteLength": 4336,
      "byteOffset": 124680,
      "target": 34962
    },
    {
      "buffer": 0,
      "byteLength": 8672,
      "byteOffset": 129016,
      "target": 34962
    },
    {
      "buffer": 0,
      "byteLength": 2640,
      "byteOffset": 137688,
      "target": 34963
    },
    {
      "buffer": 0,
      "byteLength": 672,
      "byteOffset": 140328,
      "target": 34962
    },
    {
      "buffer": 0,
      "byteLength": 672,
      "byteOffset": 141000,
      "target": 34962
    },
    {
      "buffer": 0,
      "byteLength": 448,
      "byteOffset": 141672,
      "target": 34962
    },
    {
      "buffer": 0,
      "byteLength": 896,
      "byteOffset": 142120,
      "target": 34962
    },
    {
      "buffer": 0,
      "byteLength": 264,
      "byteOffset": 143016,
      "target": 34963
    }
  ],
  "samplers": [
    {
      "magFilter": 9729,
      "minFilter": 9987
    }
  ],
  "buffers": [
    {
      "byteLength": 143280,
      "uri": "Griddle_800.bin"
    }
  ]
}
