{
  "asset": {
    "generator": "Khronos glTF Blender I/O v5.2.39",
    "version": "2.0"
  },
  "extensionsUsed": [
    "KHR_materials_emissive_strength"
  ],
  "scene": 0,
  "scenes": [
    {
      "name": "Scene",
      "nodes": [
        0
      ]
    }
  ],
  "nodes": [
    {
      "extras": {
        "asset_id": "Refrigerator_DoubleDoor",
        "units": "meters",
        "front_axis": "-Y",
        "pivot": "bottom-center; mounting assembly bottom for wall assets",
        "texture_resolution": 1024,
        "kit": "Cafeteria industrial kitchen / v1"
      },
      "mesh": 0,
      "name": "Refrigerator_DoubleDoor_Export"
    }
  ],
  "materials": [
    {
      "doubleSided": true,
      "name": "Satin stainless",
      "normalTexture": {
        "index": 0,
        "scale": 0.30000001192092896
      },
      "pbrMetallicRoughness": {
        "baseColorTexture": {
          "index": 1
        },
        "metallicRoughnessTexture": {
          "index": 2
        }
      }
    },
    {
      "doubleSided": true,
      "name": "Black polymer",
      "pbrMetallicRoughness": {
        "baseColorFactor": [
          0.017999999225139618,
          0.020999999716877937,
          0.024000000208616257,
          1
        ],
        "metallicFactor": 0,
        "roughnessFactor": 0.41999998688697815
      }
    },
    {
      "doubleSided": true,
      "name": "Gasket",
      "pbrMetallicRoughness": {
        "baseColorFactor": [
          0.008999999612569809,
          0.010999999940395355,
          0.012000000104308128,
          1
        ],
        "metallicFactor": 0,
        "roughnessFactor": 0.7799999713897705
      }
    },
    {
      "doubleSided": true,
      "name": "Polished stainless",
      "normalTexture": {
        "index": 3,
        "scale": 0.30000001192092896
      },
      "pbrMetallicRoughness": {
        "baseColorTexture": {
          "index": 4
        },
        "roughnessFactor": 0.23999999463558197
      }
    },
    {
      "doubleSided": true,
      "name": "Oven glass",
      "pbrMetallicRoughness": {
        "baseColorFactor": [
          0.02500000037252903,
          0.03400000184774399,
          0.03799999877810478,
          1
        ],
        "metallicFactor": 0.3499999940395355,
        "roughnessFactor": 0.1899999976158142
      }
    },
    {
      "doubleSided": true,
      "emissiveFactor": [
        1,
        1,
        1
      ],
      "emissiveTexture": {
        "index": 5
      },
      "extensions": {
        "KHR_materials_emissive_strength": {
          "emissiveStrength": 3
        }
      },
      "extras": {
        "emission_strength": 3,
        "emission_texture": "emission_green.png"
      },
      "name": "Green indicator",
      "pbrMetallicRoughness": {
        "baseColorFactor": [
          0.15000000596046448,
          0.4399999976158142,
          0.20999999344348907,
          1
        ],
        "metallicFactor": 0.10000000149011612,
        "roughnessFactor": 0.30000001192092896
      }
    },
    {
      "doubleSided": true,
      "name": "Control ink",
      "pbrMetallicRoughness": {
        "baseColorFactor": [
          0.6499999761581421,
          0.6600000262260437,
          0.6000000238418579,
          1
        ],
        "metallicFactor": 0.10000000149011612,
        "roughnessFactor": 0.550000011920929
      }
    }
  ],
  "meshes": [
    {
      "name": "Refrigerator_DoubleDoor_Mesh.001",
      "primitives": [
        {
          "attributes": {
            "POSITION": 0,
            "NORMAL": 1,
            "TEXCOORD_0": 2,
            "TANGENT": 3
          },
          "indices": 4,
          "material": 0
        },
        {
          "attributes": {
            "POSITION": 5,
            "NORMAL": 6,
            "TEXCOORD_0": 7,
            "TANGENT": 8
          },
          "indices": 9,
          "material": 1
        },
        {
          "attributes": {
            "POSITION": 10,
            "NORMAL": 11,
            "TEXCOORD_0": 12,
            "TANGENT": 13
          },
          "indices": 14,
          "material": 2
        },
        {
          "attributes": {
            "POSITION": 15,
            "NORMAL": 16,
            "TEXCOORD_0": 17,
            "TANGENT": 18
          },
          "indices": 19,
          "material": 3
        },
        {
          "attributes": {
            "POSITION": 20,
            "NORMAL": 21,
            "TEXCOORD_0": 22,
            "TANGENT": 23
          },
          "indices": 24,
          "material": 4
        },
        {
          "attributes": {
            "POSITION": 25,
            "NORMAL": 26,
            "TEXCOORD_0": 27,
            "TANGENT": 28
          },
          "indices": 29,
          "material": 5
        },
        {
          "attributes": {
            "POSITION": 30,
            "NORMAL": 31,
            "TEXCOORD_0": 32,
            "TANGENT": 33
          },
          "indices": 34,
          "material": 6
        }
      ]
    }
  ],
  "textures": [
    {
      "sampler": 0,
      "source": 0
    },
    {
      "sampler": 0,
      "source": 1
    },
    {
      "sampler": 0,
      "source": 2
    },
    {
      "sampler": 0,
      "source": 0
    },
    {
      "sampler": 0,
      "source": 1
    },
    {
      "sampler": 0,
      "source": 3
    }
  ],
  "images": [
    {
      "mimeType": "image/png",
      "name": "steel_normal",
      "uri": "textures/steel_normal.png"
    },
    {
      "mimeType": "image/png",
      "name": "steel_basecolor",
      "uri": "textures/steel_basecolor.png"
    },
    {
      "mimeType": "image/png",
      "name": "steel_roughness",
      "uri": "textures/steel_metallic_roughness.png"
    },
    {
      "mimeType": "image/png",
      "name": "emission_green",
      "uri": "textures/emission_green.png"
    }
  ],
  "accessors": [
    {
      "bufferView": 0,
      "componentType": 5126,
      "count": 1184,
      "max": [
        0.6600000262260437,
        2.107999801635742,
        0.49900001287460327
      ],
      "min": [
        -0.6600000262260437,
        0.008000001311302185,
        -0.42500001192092896
      ],
      "type": "VEC3"
    },
    {
      "bufferView": 1,
      "componentType": 5126,
      "count": 1184,
      "type": "VEC3"
    },
    {
      "bufferView": 2,
      "componentType": 5126,
      "count": 1184,
      "type": "VEC2"
    },
    {
      "bufferView": 3,
      "componentType": 5126,
      "count": 1184,
      "type": "VEC4"
    },
    {
      "bufferView": 4,
      "componentType": 5123,
      "count": 3480,
      "type": "SCALAR"
    },
    {
      "bufferView": 5,
      "componentType": 5126,
      "count": 736,
      "max": [
        0.6169999241828918,
        2.005999803543091,
        0.550000011920929
      ],
      "min": [
        -0.6169999837875366,
        0,
        -0.3970000147819519
      ],
      "type": "VEC3"
    },
    {
      "bufferView": 6,
      "componentType": 5126,
      "count": 736,
      "type": "VEC3"
    },
    {
      "bufferView": 7,
      "componentType": 5126,
      "count": 736,
      "type": "VEC2"
    },
    {
      "bufferView": 8,
      "componentType": 5126,
      "count": 736,
      "type": "VEC4"
    },
    {
      "bufferView": 9,
      "componentType": 5123,
      "count": 2124,
      "type": "SCALAR"
    },
    {
      "bufferView": 10,
      "componentType": 5126,
      "count": 192,
      "max": [
        0.6424999833106995,
        2.0399997234344482,
        0.4854999780654907
      ],
      "min": [
        -0.6425000429153442,
        0.16499999165534973,
        0.42500001192092896
      ],
      "type": "VEC3"
    },
    {
      "bufferView": 11,
      "componentType": 5126,
      "count": 192,
      "type": "VEC3"
    },
    {
      "bufferView": 12,
      "componentType": 5126,
      "count": 192,
      "type": "VEC2"
    },
    {
      "bufferView": 13,
      "componentType": 5126,
      "count": 192,
      "type": "VEC4"
    },
    {
      "bufferView": 14,
      "componentType": 5123,
      "count": 528,
      "type": "SCALAR"
    },
    {
      "bufferView": 15,
      "componentType": 5126,
      "count": 96,
      "max": [
        0.6175000071525574,
        0.5740000605583191,
        0.48750001192092896
      ],
      "min": [
        -0.6175000071525574,
        0.37400004267692566,
        0.47850000858306885
      ],
      "type": "VEC3"
    },
    {
      "bufferView": 16,
      "componentType": 5126,
      "count": 96,
      "type": "VEC3"
    },
    {
      "bufferView": 17,
      "componentType": 5126,
      "count": 96,
      "type": "VEC2"
    },
    {
      "bufferView": 18,
      "componentType": 5126,
      "count": 96,
      "type": "VEC4"
    },
    {
      "bufferView": 19,
      "componentType": 5123,
      "count": 264,
      "type": "SCALAR"
    },
    {
      "bufferView": 20,
      "componentType": 5126,
      "count": 48,
      "max": [
        0.5584999918937683,
        1.9930000305175781,
        0.49799996614456177
      ],
      "min": [
        0.47749990224838257,
        1.9590001106262207,
        0.4899999797344208
      ],
      "type": "VEC3"
    },
    {
      "bufferView": 21,
      "componentType": 5126,
      "count": 48,
      "type": "VEC3"
    },
    {
      "bufferView": 22,
      "componentType": 5126,
      "count": 48,
      "type": "VEC2"
    },
    {
      "bufferView": 23,
      "componentType": 5126,
      "count": 48,
      "type": "VEC4"
    },
    {
      "bufferView": 24,
      "componentType": 5123,
      "count": 132,
      "type": "SCALAR"
    },
    {
      "bufferView": 25,
      "componentType": 5126,
      "count": 60,
      "max": [
        0.5380479693412781,
        1.98334801197052,
        0.5
      ],
      "min": [
        0.4973919987678528,
        1.9637479782104492,
        0.5
      ],
      "type": "VEC3"
    },
    {
      "bufferView": 26,
      "componentType": 5126,
      "count": 60,
      "type": "VEC3"
    },
    {
      "bufferView": 27,
      "componentType": 5126,
      "count": 60,
      "type": "VEC2"
    },
    {
      "bufferView": 28,
      "componentType": 5126,
      "count": 60,
      "type": "VEC4"
    },
    {
      "bufferView": 29,
      "componentType": 5123,
      "count": 153,
      "type": "SCALAR"
    },
    {
      "bufferView": 30,
      "componentType": 5126,
      "count": 205,
      "max": [
        -0.46567797660827637,
        2.016291856765747,
        0.4830000102519989
      ],
      "min": [
        -0.5540939569473267,
        2.007891893386841,
        0.4830000102519989
      ],
      "type": "VEC3"
    },
    {
      "bufferView": 31,
      "componentType": 5126,
      "count": 205,
      "type": "VEC3"
    },
    {
      "bufferView": 32,
      "componentType": 5126,
      "count": 205,
      "type": "VEC2"
    },
    {
      "bufferView": 33,
      "componentType": 5126,
      "count": 205,
      "type": "VEC4"
    },
    {
      "bufferView": 34,
      "componentType": 5123,
      "count": 471,
      "type": "SCALAR"
    }
  ],
  "bufferViews": [
    {
      "buffer": 0,
      "byteLength": 14208,
      "byteOffset": 0,
      "target": 34962
    },
    {
      "buffer": 0,
      "byteLength": 14208,
      "byteOffset": 14208,
      "target": 34962
    },
    {
      "buffer": 0,
      "byteLength": 9472,
      "byteOffset": 28416,
      "target": 34962
    },
    {
      "buffer": 0,
      "byteLength": 18944,
      "byteOffset": 37888,
      "target": 34962
    },
    {
      "buffer": 0,
      "byteLength": 6960,
      "byteOffset": 56832,
      "target": 34963
    },
    {
      "buffer": 0,
      "byteLength": 8832,
      "byteOffset": 63792,
      "target": 34962
    },
    {
      "buffer": 0,
      "byteLength": 8832,
      "byteOffset": 72624,
      "target": 34962
    },
    {
      "buffer": 0,
      "byteLength": 5888,
      "byteOffset": 81456,
      "target": 34962
    },
    {
      "buffer": 0,
      "byteLength": 11776,
      "byteOffset": 87344,
      "target": 34962
    },
    {
      "buffer": 0,
      "byteLength": 4248,
      "byteOffset": 99120,
      "target": 34963
    },
    {
      "buffer": 0,
      "byteLength": 2304,
      "byteOffset": 103368,
      "target": 34962
    },
    {
      "buffer": 0,
      "byteLength": 2304,
      "byteOffset": 105672,
      "target": 34962
    },
    {
      "buffer": 0,
      "byteLength": 1536,
      "byteOffset": 107976,
      "target": 34962
    },
    {
      "buffer": 0,
      "byteLength": 3072,
      "byteOffset": 109512,
      "target": 34962
    },
    {
      "buffer": 0,
      "byteLength": 1056,
      "byteOffset": 112584,
      "target": 34963
    },
    {
      "buffer": 0,
      "byteLength": 1152,
      "byteOffset": 113640,
      "target": 34962
    },
    {
      "buffer": 0,
      "byteLength": 1152,
      "byteOffset": 114792,
      "target": 34962
    },
    {
      "buffer": 0,
      "byteLength": 768,
      "byteOffset": 115944,
      "target": 34962
    },
    {
      "buffer": 0,
      "byteLength": 1536,
      "byteOffset": 116712,
      "target": 34962
    },
    {
      "buffer": 0,
      "byteLength": 528,
      "byteOffset": 118248,
      "target": 34963
    },
    {
      "buffer": 0,
      "byteLength": 576,
      "byteOffset": 118776,
      "target": 34962
    },
    {
      "buffer": 0,
      "byteLength": 576,
      "byteOffset": 119352,
      "target": 34962
    },
    {
      "buffer": 0,
      "byteLength": 384,
      "byteOffset": 119928,
      "target": 34962
    },
    {
      "buffer": 0,
      "byteLength": 768,
      "byteOffset": 120312,
      "target": 34962
    },
    {
      "buffer": 0,
      "byteLength": 264,
      "byteOffset": 121080,
      "target": 34963
    },
    {
      "buffer": 0,
      "byteLength": 720,
      "byteOffset": 121344,
      "target": 34962
    },
    {
      "buffer": 0,
      "byteLength": 720,
      "byteOffset": 122064,
      "target": 34962
    },
    {
      "buffer": 0,
      "byteLength": 480,
      "byteOffset": 122784,
      "target": 34962
    },
    {
      "buffer": 0,
      "byteLength": 960,
      "byteOffset": 123264,
      "target": 34962
    },
    {
      "buffer": 0,
      "byteLength": 306,
      "byteOffset": 124224,
      "target": 34963
    },
    {
      "buffer": 0,
      "byteLength": 2460,
      "byteOffset": 124532,
      "target": 34962
    },
    {
      "buffer": 0,
      "byteLength": 2460,
      "byteOffset": 126992,
      "target": 34962
    },
    {
      "buffer": 0,
      "byteLength": 1640,
      "byteOffset": 129452,
      "target": 34962
    },
    {
      "buffer": 0,
      "byteLength": 3280,
      "byteOffset": 131092,
      "target": 34962
    },
    {
      "buffer": 0,
      "byteLength": 942,
      "byteOffset": 134372,
      "target": 34963
    }
  ],
  "samplers": [
    {
      "magFilter": 9729,
      "minFilter": 9987
    }
  ],
  "buffers": [
    {
      "byteLength": 135316,
      "uri": "Refrigerator_DoubleDoor.bin"
    }
  ]
}
