{
  "asset": {
    "generator": "Khronos glTF Blender I/O v5.2.39",
    "version": "2.0"
  },
  "scene": 1,
  "scenes": [
    {
      "name": "Scene"
    },
    {
      "name": "Serving hatch export staging",
      "nodes": [
        0
      ]
    }
  ],
  "nodes": [
    {
      "extras": {
        "asset_id": "Serving_Hatch_3000",
        "units": "meters",
        "front_axis": "-Y",
        "pivot": "Bottom center of counter; place at counter underside height",
        "overall_width_m": 3.0
      },
      "mesh": 0,
      "name": "Serving_Hatch_3000"
    }
  ],
  "materials": [
    {
      "doubleSided": true,
      "name": "ROOM \u2022 dark wood trim",
      "pbrMetallicRoughness": {
        "baseColorFactor": [
          0.07000000029802322,
          0.03500000014901161,
          0.013000000268220901,
          1
        ],
        "metallicFactor": 0,
        "roughnessFactor": 0.5799999833106995
      }
    },
    {
      "doubleSided": true,
      "name": "Satin stainless",
      "normalTexture": {
        "index": 0,
        "scale": 0.30000001192092896
      },
      "pbrMetallicRoughness": {
        "baseColorTexture": {
          "index": 1
        },
        "metallicRoughnessTexture": {
          "index": 2
        }
      }
    }
  ],
  "meshes": [
    {
      "name": "Serving_Hatch_3000_Mesh",
      "primitives": [
        {
          "attributes": {
            "POSITION": 0,
            "NORMAL": 1,
            "TEXCOORD_0": 2,
            "TANGENT": 3
          },
          "indices": 4,
          "material": 0
        },
        {
          "attributes": {
            "POSITION": 5,
            "NORMAL": 6,
            "TEXCOORD_0": 7,
            "TANGENT": 8
          },
          "indices": 9,
          "material": 1
        }
      ]
    }
  ],
  "textures": [
    {
      "sampler": 0,
      "source": 0
    },
    {
      "sampler": 0,
      "source": 1
    },
    {
      "sampler": 0,
      "source": 2
    }
  ],
  "images": [
    {
      "mimeType": "image/png",
      "name": "steel_normal",
      "uri": "textures/steel_normal.png"
    },
    {
      "mimeType": "image/png",
      "name": "steel_basecolor",
      "uri": "textures/steel_basecolor.png"
    },
    {
      "mimeType": "image/png",
      "name": "steel_roughness",
      "uri": "textures/steel_metallic_roughness.png"
    }
  ],
  "accessors": [
    {
      "bufferView": 0,
      "componentType": 5126,
      "count": 151,
      "max": [
        1.4690001010894775,
        1.1054999828338623,
        0.024999920278787613
      ],
      "min": [
        -1.4689998626708984,
        0.004999995231628418,
        -0.2300000786781311
      ],
      "type": "VEC3"
    },
    {
      "bufferView": 1,
      "componentType": 5126,
      "count": 151,
      "type": "VEC3"
    },
    {
      "bufferView": 2,
      "componentType": 5126,
      "count": 151,
      "type": "VEC2"
    },
    {
      "bufferView": 3,
      "componentType": 5126,
      "count": 151,
      "type": "VEC4"
    },
    {
      "bufferView": 4,
      "componentType": 5123,
      "count": 396,
      "type": "SCALAR"
    },
    {
      "bufferView": 5,
      "componentType": 5126,
      "count": 48,
      "max": [
        1.5,
        0.04799997806549072,
        0.2649999260902405
      ],
      "min": [
        -1.5,
        0,
        -0.2649999260902405
      ],
      "type": "VEC3"
    },
    {
      "bufferView": 6,
      "componentType": 5126,
      "count": 48,
      "type": "VEC3"
    },
    {
      "bufferView": 7,
      "componentType": 5126,
      "count": 48,
      "type": "VEC2"
    },
    {
      "bufferView": 8,
      "componentType": 5126,
      "count": 48,
      "type": "VEC4"
    },
    {
      "bufferView": 9,
      "componentType": 5123,
      "count": 132,
      "type": "SCALAR"
    }
  ],
  "bufferViews": [
    {
      "buffer": 0,
      "byteLength": 1812,
      "byteOffset": 0,
      "target": 34962
    },
    {
      "buffer": 0,
      "byteLength": 1812,
      "byteOffset": 1812,
      "target": 34962
    },
    {
      "buffer": 0,
      "byteLength": 1208,
      "byteOffset": 3624,
      "target": 34962
    },
    {
      "buffer": 0,
      "byteLength": 2416,
      "byteOffset": 4832,
      "target": 34962
    },
    {
      "buffer": 0,
      "byteLength": 792,
      "byteOffset": 7248,
      "target": 34963
    },
    {
      "buffer": 0,
      "byteLength": 576,
      "byteOffset": 8040,
      "target": 34962
    },
    {
      "buffer": 0,
      "byteLength": 576,
      "byteOffset": 8616,
      "target": 34962
    },
    {
      "buffer": 0,
      "byteLength": 384,
      "byteOffset": 9192,
      "target": 34962
    },
    {
      "buffer": 0,
      "byteLength": 768,
      "byteOffset": 9576,
      "target": 34962
    },
    {
      "buffer": 0,
      "byteLength": 264,
      "byteOffset": 10344,
      "target": 34963
    }
  ],
  "samplers": [
    {
      "magFilter": 9729,
      "minFilter": 9987
    }
  ],
  "buffers": [
    {
      "byteLength": 10608,
      "uri": "Serving_Hatch_3000.bin"
    }
  ]
}
