{
  "asset": {
    "generator": "Khronos glTF Blender I/O v5.2.39",
    "version": "2.0"
  },
  "scene": 0,
  "scenes": [
    {
      "name": "Scene",
      "nodes": [
        0
      ]
    }
  ],
  "nodes": [
    {
      "extras": {
        "asset_id": "Utility_Bin",
        "units": "meters",
        "front_axis": "-Y",
        "pivot": "bottom-center; mounting assembly bottom for wall assets",
        "texture_resolution": 1024,
        "kit": "Cafeteria industrial kitchen / v1"
      },
      "mesh": 0,
      "name": "Utility_Bin_Export"
    }
  ],
  "materials": [
    {
      "doubleSided": true,
      "name": "Dark enamel",
      "pbrMetallicRoughness": {
        "baseColorFactor": [
          0.054999999701976776,
          0.06599999964237213,
          0.06400000303983688,
          1
        ],
        "metallicFactor": 0.10000000149011612,
        "roughnessFactor": 0.4300000071525574
      }
    },
    {
      "doubleSided": true,
      "name": "Black polymer",
      "pbrMetallicRoughness": {
        "baseColorFactor": [
          0.017999999225139618,
          0.020999999716877937,
          0.024000000208616257,
          1
        ],
        "metallicFactor": 0,
        "roughnessFactor": 0.41999998688697815
      }
    }
  ],
  "meshes": [
    {
      "name": "Utility_Bin_Mesh.001",
      "primitives": [
        {
          "attributes": {
            "POSITION": 0,
            "NORMAL": 1,
            "TEXCOORD_0": 2,
            "TANGENT": 3
          },
          "indices": 4,
          "material": 0
        },
        {
          "attributes": {
            "POSITION": 5,
            "NORMAL": 6,
            "TEXCOORD_0": 7,
            "TANGENT": 8
          },
          "indices": 9,
          "material": 1
        }
      ]
    }
  ],
  "accessors": [
    {
      "bufferView": 0,
      "componentType": 5126,
      "count": 360,
      "max": [
        0.2759999930858612,
        0.6794999837875366,
        0.2759999930858612
      ],
      "min": [
        -0.2759999930858612,
        0.004999995231628418,
        -0.2759999930858612
      ],
      "type": "VEC3"
    },
    {
      "bufferView": 1,
      "componentType": 5126,
      "count": 360,
      "type": "VEC3"
    },
    {
      "bufferView": 2,
      "componentType": 5126,
      "count": 360,
      "type": "VEC2"
    },
    {
      "bufferView": 3,
      "componentType": 5126,
      "count": 360,
      "type": "VEC4"
    },
    {
      "bufferView": 4,
      "componentType": 5123,
      "count": 1416,
      "type": "SCALAR"
    },
    {
      "bufferView": 5,
      "componentType": 5126,
      "count": 500,
      "max": [
        0.2939999997615814,
        0.7230000495910645,
        0.3100000023841858
      ],
      "min": [
        -0.2939999997615814,
        0,
        -0.2750000059604645
      ],
      "type": "VEC3"
    },
    {
      "bufferView": 6,
      "componentType": 5126,
      "count": 500,
      "type": "VEC3"
    },
    {
      "bufferView": 7,
      "componentType": 5126,
      "count": 500,
      "type": "VEC2"
    },
    {
      "bufferView": 8,
      "componentType": 5126,
      "count": 500,
      "type": "VEC4"
    },
    {
      "bufferView": 9,
      "componentType": 5123,
      "count": 1656,
      "type": "SCALAR"
    }
  ],
  "bufferViews": [
    {
      "buffer": 0,
      "byteLength": 4320,
      "byteOffset": 0,
      "target": 34962
    },
    {
      "buffer": 0,
      "byteLength": 4320,
      "byteOffset": 4320,
      "target": 34962
    },
    {
      "buffer": 0,
      "byteLength": 2880,
      "byteOffset": 8640,
      "target": 34962
    },
    {
      "buffer": 0,
      "byteLength": 5760,
      "byteOffset": 11520,
      "target": 34962
    },
    {
      "buffer": 0,
      "byteLength": 2832,
      "byteOffset": 17280,
      "target": 34963
    },
    {
      "buffer": 0,
      "byteLength": 6000,
      "byteOffset": 20112,
      "target": 34962
    },
    {
      "buffer": 0,
      "byteLength": 6000,
      "byteOffset": 26112,
      "target": 34962
    },
    {
      "buffer": 0,
      "byteLength": 4000,
      "byteOffset": 32112,
      "target": 34962
    },
    {
      "buffer": 0,
      "byteLength": 8000,
      "byteOffset": 36112,
      "target": 34962
    },
    {
      "buffer": 0,
      "byteLength": 3312,
      "byteOffset": 44112,
      "target": 34963
    }
  ],
  "buffers": [
    {
      "byteLength": 47424,
      "uri": "Utility_Bin.bin"
    }
  ]
}
