{
  "asset": {
    "generator": "Khronos glTF Blender I/O v5.2.39",
    "version": "2.0"
  },
  "scene": 0,
  "scenes": [
    {
      "extras": {
        "README": "Seven authored opaque swing doors. Separate canonical glTF leaves and frames. See README.md and tools/door_assets/authoring.py."
      },
      "name": "Scene",
      "nodes": [
        3
      ]
    }
  ],
  "nodes": [
    {
      "mesh": 0,
      "name": "DoorLeaf_industrial_charcoal_Door_charcoal"
    },
    {
      "mesh": 1,
      "name": "DoorLeaf_industrial_charcoal_Door_dark"
    },
    {
      "mesh": 2,
      "name": "DoorLeaf_industrial_charcoal_Door_steel"
    },
    {
      "children": [
        0,
        1,
        2
      ],
      "extras": {
        "catalog_id": "industrial_charcoal",
        "part": "leaf"
      },
      "name": "DoorLeaf_industrial_charcoal"
    }
  ],
  "materials": [
    {
      "name": "Door_charcoal",
      "normalTexture": {
        "index": 0
      },
      "pbrMetallicRoughness": {
        "baseColorTexture": {
          "index": 1
        },
        "metallicRoughnessTexture": {
          "index": 2
        },
        "baseColorFactor": [
          0.063,
          0.073,
          0.078,
          1.0
        ],
        "metallicFactor": 1.0,
        "roughnessFactor": 1.0
      },
      "occlusionTexture": {
        "index": 2
      },
      "alphaMode": "OPAQUE",
      "doubleSided": false
    },
    {
      "name": "Door_dark",
      "normalTexture": {
        "index": 3
      },
      "pbrMetallicRoughness": {
        "baseColorTexture": {
          "index": 4
        },
        "metallicRoughnessTexture": {
          "index": 5
        },
        "baseColorFactor": [
          0.018,
          0.02,
          0.018,
          1.0
        ],
        "metallicFactor": 1.0,
        "roughnessFactor": 1.0
      },
      "occlusionTexture": {
        "index": 5
      },
      "alphaMode": "OPAQUE",
      "doubleSided": false
    },
    {
      "name": "Door_steel",
      "normalTexture": {
        "index": 6
      },
      "pbrMetallicRoughness": {
        "baseColorTexture": {
          "index": 7
        },
        "metallicRoughnessTexture": {
          "index": 8
        },
        "baseColorFactor": [
          1,
          1,
          1,
          1
        ],
        "metallicFactor": 1.0,
        "roughnessFactor": 1.0
      },
      "occlusionTexture": {
        "index": 8
      },
      "alphaMode": "OPAQUE",
      "doubleSided": false
    }
  ],
  "meshes": [
    {
      "name": "Cube.771",
      "primitives": [
        {
          "attributes": {
            "POSITION": 0,
            "NORMAL": 1,
            "TEXCOORD_0": 2,
            "TANGENT": 3
          },
          "indices": 4,
          "material": 0
        }
      ]
    },
    {
      "name": "Cube.788",
      "primitives": [
        {
          "attributes": {
            "POSITION": 5,
            "NORMAL": 6,
            "TEXCOORD_0": 7,
            "TANGENT": 8
          },
          "indices": 9,
          "material": 1
        }
      ]
    },
    {
      "name": "Cube.772",
      "primitives": [
        {
          "attributes": {
            "POSITION": 10,
            "NORMAL": 11,
            "TEXCOORD_0": 12,
            "TANGENT": 13
          },
          "indices": 14,
          "material": 2
        }
      ]
    }
  ],
  "textures": [
    {
      "sampler": 0,
      "source": 0
    },
    {
      "sampler": 0,
      "source": 1
    },
    {
      "sampler": 0,
      "source": 2
    },
    {
      "sampler": 0,
      "source": 0
    },
    {
      "sampler": 0,
      "source": 1
    },
    {
      "sampler": 0,
      "source": 2
    },
    {
      "sampler": 0,
      "source": 3
    },
    {
      "sampler": 0,
      "source": 4
    },
    {
      "sampler": 0,
      "source": 5
    }
  ],
  "images": [
    {
      "mimeType": "image/png",
      "name": "enamel_normal_opengl",
      "uri": "textures/enamel_normal_opengl.png"
    },
    {
      "mimeType": "image/png",
      "name": "enamel_basecolor.png",
      "uri": "textures/enamel_basecolor.png"
    },
    {
      "mimeType": "image/png",
      "name": "enamel_orm",
      "uri": "textures/enamel_orm.png"
    },
    {
      "mimeType": "image/png",
      "name": "nickel_used_normal_opengl.png",
      "uri": "textures/nickel_used_normal_opengl.png"
    },
    {
      "mimeType": "image/png",
      "name": "nickel_used_basecolor.png",
      "uri": "textures/nickel_used_basecolor.png"
    },
    {
      "mimeType": "image/png",
      "name": "nickel_used_orm.png",
      "uri": "textures/nickel_used_orm.png"
    }
  ],
  "accessors": [
    {
      "bufferView": 0,
      "componentType": 5126,
      "count": 386,
      "max": [
        0.8999999761581421,
        2.049999952316284,
        0.027499999850988388
      ],
      "min": [
        0,
        0,
        -0.027499999850988388
      ],
      "type": "VEC3"
    },
    {
      "bufferView": 1,
      "componentType": 5126,
      "count": 386,
      "type": "VEC3"
    },
    {
      "bufferView": 2,
      "componentType": 5126,
      "count": 386,
      "type": "VEC2"
    },
    {
      "bufferView": 3,
      "componentType": 5126,
      "count": 386,
      "type": "VEC4"
    },
    {
      "bufferView": 4,
      "componentType": 5123,
      "count": 1050,
      "type": "SCALAR"
    },
    {
      "bufferView": 5,
      "componentType": 5126,
      "count": 96,
      "max": [
        0.7960000038146973,
        0.9605000019073486,
        0.035349998623132706
      ],
      "min": [
        0.7940000295639038,
        0.9494999647140503,
        -0.035349998623132706
      ],
      "type": "VEC3"
    },
    {
      "bufferView": 6,
      "componentType": 5126,
      "count": 96,
      "type": "VEC3"
    },
    {
      "bufferView": 7,
      "componentType": 5126,
      "count": 96,
      "type": "VEC2"
    },
    {
      "bufferView": 8,
      "componentType": 5126,
      "count": 96,
      "type": "VEC4"
    },
    {
      "bufferView": 9,
      "componentType": 5123,
      "count": 264,
      "type": "SCALAR"
    },
    {
      "bufferView": 10,
      "componentType": 5126,
      "count": 2296,
      "max": [
        0.8999999761581421,
        1.8949999809265137,
        0.08509530127048492
      ],
      "min": [
        0.0003000199794769287,
        0.03999999165534973,
        -0.08509530127048492
      ],
      "type": "VEC3"
    },
    {
      "bufferView": 11,
      "componentType": 5126,
      "count": 2296,
      "type": "VEC3"
    },
    {
      "bufferView": 12,
      "componentType": 5126,
      "count": 2296,
      "type": "VEC2"
    },
    {
      "bufferView": 13,
      "componentType": 5126,
      "count": 2296,
      "type": "VEC4"
    },
    {
      "bufferView": 14,
      "componentType": 5123,
      "count": 7320,
      "type": "SCALAR"
    }
  ],
  "bufferViews": [
    {
      "buffer": 0,
      "byteLength": 4632,
      "byteOffset": 0,
      "target": 34962
    },
    {
      "buffer": 0,
      "byteLength": 4632,
      "byteOffset": 4632,
      "target": 34962
    },
    {
      "buffer": 0,
      "byteLength": 3088,
      "byteOffset": 9264,
      "target": 34962
    },
    {
      "buffer": 0,
      "byteLength": 6176,
      "byteOffset": 12352,
      "target": 34962
    },
    {
      "buffer": 0,
      "byteLength": 2100,
      "byteOffset": 18528,
      "target": 34963
    },
    {
      "buffer": 0,
      "byteLength": 1152,
      "byteOffset": 20628,
      "target": 34962
    },
    {
      "buffer": 0,
      "byteLength": 1152,
      "byteOffset": 21780,
      "target": 34962
    },
    {
      "buffer": 0,
      "byteLength": 768,
      "byteOffset": 22932,
      "target": 34962
    },
    {
      "buffer": 0,
      "byteLength": 1536,
      "byteOffset": 23700,
      "target": 34962
    },
    {
      "buffer": 0,
      "byteLength": 528,
      "byteOffset": 25236,
      "target": 34963
    },
    {
      "buffer": 0,
      "byteLength": 27552,
      "byteOffset": 25764,
      "target": 34962
    },
    {
      "buffer": 0,
      "byteLength": 27552,
      "byteOffset": 53316,
      "target": 34962
    },
    {
      "buffer": 0,
      "byteLength": 18368,
      "byteOffset": 80868,
      "target": 34962
    },
    {
      "buffer": 0,
      "byteLength": 36736,
      "byteOffset": 99236,
      "target": 34962
    },
    {
      "buffer": 0,
      "byteLength": 14640,
      "byteOffset": 135972,
      "target": 34963
    }
  ],
  "samplers": [
    {
      "magFilter": 9729,
      "minFilter": 9987
    }
  ],
  "buffers": [
    {
      "byteLength": 150612,
      "uri": "industrial_charcoal_leaf.bin"
    }
  ]
}
