{
  "accessors": [
    {
      "bufferView": 0,
      "componentType": 5126,
      "count": 310,
      "max": [
        0.9190254211425781,
        1.0452880859375,
        0.1410493403673172
      ],
      "min": [
        0.6948986053466797,
        0.9515501260757446,
        -0.141048401594162
      ],
      "type": "VEC3"
    },
    {
      "bufferView": 1,
      "componentType": 5126,
      "count": 310,
      "type": "VEC3"
    },
    {
      "bufferView": 2,
      "componentType": 5126,
      "count": 310,
      "type": "VEC2"
    },
    {
      "bufferView": 3,
      "componentType": 5126,
      "count": 310,
      "type": "VEC4"
    },
    {
      "bufferView": 4,
      "componentType": 5123,
      "count": 432,
      "type": "SCALAR"
    },
    {
      "bufferView": 5,
      "componentType": 5126,
      "count": 24,
      "max": [
        0.9979323744773865,
        2.0378379821777344,
        0.05597486346960068
      ],
      "min": [
        9.313225746154785e-10,
        1.1920928955078125e-07,
        -0.05597486346960068
      ],
      "type": "VEC3"
    },
    {
      "bufferView": 6,
      "componentType": 5126,
      "count": 24,
      "type": "VEC3"
    },
    {
      "bufferView": 7,
      "componentType": 5126,
      "count": 24,
      "type": "VEC2"
    },
    {
      "bufferView": 8,
      "componentType": 5126,
      "count": 24,
      "type": "VEC4"
    },
    {
      "bufferView": 9,
      "componentType": 5123,
      "count": 36,
      "type": "SCALAR"
    }
  ],
  "asset": {
    "generator": "Khronos glTF Blender I/O v5.2.39",
    "version": "2.0"
  },
  "bufferViews": [
    {
      "buffer": 0,
      "byteLength": 3720,
      "byteOffset": 0,
      "target": 34962
    },
    {
      "buffer": 0,
      "byteLength": 3720,
      "byteOffset": 3720,
      "target": 34962
    },
    {
      "buffer": 0,
      "byteLength": 2480,
      "byteOffset": 7440,
      "target": 34962
    },
    {
      "buffer": 0,
      "byteLength": 4960,
      "byteOffset": 9920,
      "target": 34962
    },
    {
      "buffer": 0,
      "byteLength": 864,
      "byteOffset": 14880,
      "target": 34963
    },
    {
      "buffer": 0,
      "byteLength": 288,
      "byteOffset": 15744,
      "target": 34962
    },
    {
      "buffer": 0,
      "byteLength": 288,
      "byteOffset": 16032,
      "target": 34962
    },
    {
      "buffer": 0,
      "byteLength": 192,
      "byteOffset": 16320,
      "target": 34962
    },
    {
      "buffer": 0,
      "byteLength": 384,
      "byteOffset": 16512,
      "target": 34962
    },
    {
      "buffer": 0,
      "byteLength": 72,
      "byteOffset": 16896,
      "target": 34963
    }
  ],
  "buffers": [
    {
      "byteLength": 16968,
      "uri": "industrial_metal_007_leaf.bin"
    }
  ],
  "images": [
    {
      "name": "Image_0",
      "uri": "doors_metal_base_color.png"
    }
  ],
  "materials": [
    {
      "doubleSided": true,
      "name": "Metal_Doors",
      "pbrMetallicRoughness": {
        "baseColorTexture": {
          "index": 0
        },
        "metallicFactor": 0,
        "roughnessFactor": 0.8040408492088318
      }
    }
  ],
  "meshes": [
    {
      "name": "LeafAttachment01Mesh",
      "primitives": [
        {
          "attributes": {
            "NORMAL": 1,
            "POSITION": 0,
            "TANGENT": 3,
            "TEXCOORD_0": 2
          },
          "indices": 4,
          "material": 0
        }
      ]
    },
    {
      "name": "LeafPanelMesh",
      "primitives": [
        {
          "attributes": {
            "NORMAL": 6,
            "POSITION": 5,
            "TANGENT": 8,
            "TEXCOORD_0": 7
          },
          "indices": 9,
          "material": 0
        }
      ]
    }
  ],
  "nodes": [
    {
      "mesh": 0,
      "name": "LeafAttachment01"
    },
    {
      "mesh": 1,
      "name": "LeafPanel"
    },
    {
      "children": [
        0,
        1
      ],
      "extras": {
        "asset_part": "leaf",
        "catalog_id": "industrial_metal_007",
        "preparation_tool_version": 1,
        "source_author": "vanillao03 (https://sketchfab.com/vanillao03)",
        "source_license": "CC-BY-4.0 (http://creativecommons.org/licenses/by/4.0/)",
        "source_pack": "industrial_metal_doors_pack.glb",
        "source_pack_sha256": "bd6cdbc1783313e6199cbdb7ebbff48cb8674f1fdf752a0917933f9c04213adc",
        "source_title": "Low-Poly PSX Style Industrial Metal Doors Pack",
        "source_url": "https://sketchfab.com/3d-models/low-poly-psx-style-industrial-metal-doors-pack-4f5561bbc441414587e3650ceae5593a"
      },
      "name": "DoorLeaf_industrial_metal_007"
    }
  ],
  "samplers": [
    {
      "magFilter": 9729,
      "minFilter": 9987
    }
  ],
  "scene": 0,
  "scenes": [
    {
      "name": "Scene",
      "nodes": [
        2
      ]
    }
  ],
  "textures": [
    {
      "sampler": 0,
      "source": 0
    }
  ]
}
