{
  "asset": {
    "generator": "Khronos glTF Blender I/O v5.2.39",
    "version": "2.0"
  },
  "scene": 0,
  "scenes": [
    {
      "extras": {
        "README": "Seven authored opaque swing doors. Separate canonical glTF leaves and frames. See README.md and tools/door_assets/authoring.py."
      },
      "name": "Scene",
      "nodes": [
        3
      ]
    }
  ],
  "nodes": [
    {
      "mesh": 0,
      "name": "DoorLeaf_kitchen_service_Door_dark"
    },
    {
      "mesh": 1,
      "name": "DoorLeaf_kitchen_service_Door_ivory"
    },
    {
      "mesh": 2,
      "name": "DoorLeaf_kitchen_service_Door_steel"
    },
    {
      "children": [
        0,
        1,
        2
      ],
      "extras": {
        "catalog_id": "kitchen_service",
        "part": "leaf"
      },
      "name": "DoorLeaf_kitchen_service"
    }
  ],
  "materials": [
    {
      "name": "Door_dark",
      "normalTexture": {
        "index": 0
      },
      "pbrMetallicRoughness": {
        "baseColorTexture": {
          "index": 1
        },
        "metallicRoughnessTexture": {
          "index": 2
        },
        "baseColorFactor": [
          0.018,
          0.02,
          0.018,
          1.0
        ],
        "metallicFactor": 1.0,
        "roughnessFactor": 1.0
      },
      "occlusionTexture": {
        "index": 2
      },
      "alphaMode": "OPAQUE",
      "doubleSided": false
    },
    {
      "name": "Door_ivory",
      "normalTexture": {
        "index": 3
      },
      "pbrMetallicRoughness": {
        "baseColorTexture": {
          "index": 4
        },
        "metallicRoughnessTexture": {
          "index": 5
        },
        "baseColorFactor": [
          0.88,
          0.83,
          0.71,
          1.0
        ],
        "metallicFactor": 1.0,
        "roughnessFactor": 1.0
      },
      "occlusionTexture": {
        "index": 5
      },
      "alphaMode": "OPAQUE",
      "doubleSided": false
    },
    {
      "name": "Door_steel",
      "normalTexture": {
        "index": 6
      },
      "pbrMetallicRoughness": {
        "baseColorTexture": {
          "index": 7
        },
        "metallicRoughnessTexture": {
          "index": 8
        },
        "baseColorFactor": [
          1,
          1,
          1,
          1
        ],
        "metallicFactor": 1.0,
        "roughnessFactor": 1.0
      },
      "occlusionTexture": {
        "index": 8
      },
      "alphaMode": "OPAQUE",
      "doubleSided": false
    }
  ],
  "meshes": [
    {
      "name": "Cube.125",
      "primitives": [
        {
          "attributes": {
            "POSITION": 0,
            "NORMAL": 1,
            "TEXCOORD_0": 2,
            "TANGENT": 3
          },
          "indices": 4,
          "material": 0
        }
      ]
    },
    {
      "name": "Cube.122",
      "primitives": [
        {
          "attributes": {
            "POSITION": 5,
            "NORMAL": 6,
            "TEXCOORD_0": 7,
            "TANGENT": 8
          },
          "indices": 9,
          "material": 1
        }
      ]
    },
    {
      "name": "Cube.123",
      "primitives": [
        {
          "attributes": {
            "POSITION": 10,
            "NORMAL": 11,
            "TEXCOORD_0": 12,
            "TANGENT": 13
          },
          "indices": 14,
          "material": 2
        }
      ]
    }
  ],
  "textures": [
    {
      "sampler": 0,
      "source": 0
    },
    {
      "sampler": 0,
      "source": 1
    },
    {
      "sampler": 0,
      "source": 2
    },
    {
      "sampler": 0,
      "source": 0
    },
    {
      "sampler": 0,
      "source": 1
    },
    {
      "sampler": 0,
      "source": 2
    },
    {
      "sampler": 0,
      "source": 3
    },
    {
      "sampler": 0,
      "source": 4
    },
    {
      "sampler": 0,
      "source": 5
    }
  ],
  "images": [
    {
      "mimeType": "image/png",
      "name": "enamel_normal_opengl",
      "uri": "textures/enamel_normal_opengl.png"
    },
    {
      "mimeType": "image/png",
      "name": "enamel_basecolor.png",
      "uri": "textures/enamel_basecolor.png"
    },
    {
      "mimeType": "image/png",
      "name": "enamel_orm",
      "uri": "textures/enamel_orm.png"
    },
    {
      "mimeType": "image/png",
      "name": "nickel_used_normal_opengl.png",
      "uri": "textures/nickel_used_normal_opengl.png"
    },
    {
      "mimeType": "image/png",
      "name": "nickel_used_basecolor.png",
      "uri": "textures/nickel_used_basecolor.png"
    },
    {
      "mimeType": "image/png",
      "name": "nickel_used_orm.png",
      "uri": "textures/nickel_used_orm.png"
    }
  ],
  "accessors": [
    {
      "bufferView": 0,
      "componentType": 5126,
      "count": 960,
      "max": [
        0.8319500088691711,
        1.8750500679016113,
        0.0328499972820282
      ],
      "min": [
        0.040049999952316284,
        0.07169999927282333,
        -0.0328499972820282
      ],
      "type": "VEC3"
    },
    {
      "bufferView": 1,
      "componentType": 5126,
      "count": 960,
      "type": "VEC3"
    },
    {
      "bufferView": 2,
      "componentType": 5126,
      "count": 960,
      "type": "VEC2"
    },
    {
      "bufferView": 3,
      "componentType": 5126,
      "count": 960,
      "type": "VEC4"
    },
    {
      "bufferView": 4,
      "componentType": 5123,
      "count": 2640,
      "type": "SCALAR"
    },
    {
      "bufferView": 5,
      "componentType": 5126,
      "count": 120,
      "max": [
        0.8999999761581421,
        2.049999952316284,
        0.02250000089406967
      ],
      "min": [
        0,
        0,
        -0.02250000089406967
      ],
      "type": "VEC3"
    },
    {
      "bufferView": 6,
      "componentType": 5126,
      "count": 120,
      "type": "VEC3"
    },
    {
      "bufferView": 7,
      "componentType": 5126,
      "count": 120,
      "type": "VEC2"
    },
    {
      "bufferView": 8,
      "componentType": 5126,
      "count": 120,
      "type": "VEC4"
    },
    {
      "bufferView": 9,
      "componentType": 5123,
      "count": 372,
      "type": "SCALAR"
    },
    {
      "bufferView": 10,
      "componentType": 5126,
      "count": 4864,
      "max": [
        0.8999999761581421,
        1.8899999856948853,
        0.08259530365467072
      ],
      "min": [
        0,
        0.04500000178813934,
        -0.08259530365467072
      ],
      "type": "VEC3"
    },
    {
      "bufferView": 11,
      "componentType": 5126,
      "count": 4864,
      "type": "VEC3"
    },
    {
      "bufferView": 12,
      "componentType": 5126,
      "count": 4864,
      "type": "VEC2"
    },
    {
      "bufferView": 13,
      "componentType": 5126,
      "count": 4864,
      "type": "VEC4"
    },
    {
      "bufferView": 14,
      "componentType": 5123,
      "count": 16596,
      "type": "SCALAR"
    }
  ],
  "bufferViews": [
    {
      "buffer": 0,
      "byteLength": 11520,
      "byteOffset": 0,
      "target": 34962
    },
    {
      "buffer": 0,
      "byteLength": 11520,
      "byteOffset": 11520,
      "target": 34962
    },
    {
      "buffer": 0,
      "byteLength": 7680,
      "byteOffset": 23040,
      "target": 34962
    },
    {
      "buffer": 0,
      "byteLength": 15360,
      "byteOffset": 30720,
      "target": 34962
    },
    {
      "buffer": 0,
      "byteLength": 5280,
      "byteOffset": 46080,
      "target": 34963
    },
    {
      "buffer": 0,
      "byteLength": 1440,
      "byteOffset": 51360,
      "target": 34962
    },
    {
      "buffer": 0,
      "byteLength": 1440,
      "byteOffset": 52800,
      "target": 34962
    },
    {
      "buffer": 0,
      "byteLength": 960,
      "byteOffset": 54240,
      "target": 34962
    },
    {
      "buffer": 0,
      "byteLength": 1920,
      "byteOffset": 55200,
      "target": 34962
    },
    {
      "buffer": 0,
      "byteLength": 744,
      "byteOffset": 57120,
      "target": 34963
    },
    {
      "buffer": 0,
      "byteLength": 58368,
      "byteOffset": 57864,
      "target": 34962
    },
    {
      "buffer": 0,
      "byteLength": 58368,
      "byteOffset": 116232,
      "target": 34962
    },
    {
      "buffer": 0,
      "byteLength": 38912,
      "byteOffset": 174600,
      "target": 34962
    },
    {
      "buffer": 0,
      "byteLength": 77824,
      "byteOffset": 213512,
      "target": 34962
    },
    {
      "buffer": 0,
      "byteLength": 33192,
      "byteOffset": 291336,
      "target": 34963
    }
  ],
  "samplers": [
    {
      "magFilter": 9729,
      "minFilter": 9987
    }
  ],
  "buffers": [
    {
      "byteLength": 324528,
      "uri": "kitchen_service_leaf.bin"
    }
  ]
}
