{
  "asset": {
    "generator": "Khronos glTF Blender I/O v5.2.39",
    "version": "2.0"
  },
  "scene": 0,
  "scenes": [
    {
      "extras": {
        "README": "Seven authored opaque swing doors. Separate canonical glTF leaves and frames. See README.md and tools/door_assets/authoring.py."
      },
      "name": "Scene",
      "nodes": [
        4
      ]
    }
  ],
  "nodes": [
    {
      "mesh": 0,
      "name": "DoorLeaf_painted_sage_panel_Door_dark"
    },
    {
      "mesh": 1,
      "name": "DoorLeaf_painted_sage_panel_Door_nickel"
    },
    {
      "mesh": 2,
      "name": "DoorLeaf_painted_sage_panel_Door_sage"
    },
    {
      "mesh": 3,
      "name": "DoorLeaf_painted_sage_panel_Door_steel"
    },
    {
      "children": [
        0,
        1,
        2,
        3
      ],
      "extras": {
        "catalog_id": "painted_sage_panel",
        "part": "leaf"
      },
      "name": "DoorLeaf_painted_sage_panel"
    }
  ],
  "materials": [
    {
      "name": "Door_dark",
      "normalTexture": {
        "index": 0
      },
      "pbrMetallicRoughness": {
        "baseColorTexture": {
          "index": 1
        },
        "metallicRoughnessTexture": {
          "index": 2
        },
        "baseColorFactor": [
          0.018,
          0.02,
          0.018,
          1.0
        ],
        "metallicFactor": 1.0,
        "roughnessFactor": 1.0
      },
      "occlusionTexture": {
        "index": 2
      },
      "alphaMode": "OPAQUE",
      "doubleSided": false
    },
    {
      "name": "Door_nickel",
      "normalTexture": {
        "index": 3
      },
      "pbrMetallicRoughness": {
        "baseColorTexture": {
          "index": 4
        },
        "metallicRoughnessTexture": {
          "index": 5
        },
        "baseColorFactor": [
          1,
          1,
          1,
          1
        ],
        "metallicFactor": 1.0,
        "roughnessFactor": 1.0
      },
      "occlusionTexture": {
        "index": 5
      },
      "alphaMode": "OPAQUE",
      "doubleSided": false
    },
    {
      "name": "Door_sage",
      "normalTexture": {
        "index": 6
      },
      "pbrMetallicRoughness": {
        "baseColorTexture": {
          "index": 7
        },
        "metallicRoughnessTexture": {
          "index": 8
        },
        "baseColorFactor": [
          0.24,
          0.32,
          0.23,
          1.0
        ],
        "metallicFactor": 1.0,
        "roughnessFactor": 1.0
      },
      "occlusionTexture": {
        "index": 8
      },
      "alphaMode": "OPAQUE",
      "doubleSided": false
    },
    {
      "name": "Door_steel",
      "normalTexture": {
        "index": 9
      },
      "pbrMetallicRoughness": {
        "baseColorTexture": {
          "index": 10
        },
        "metallicRoughnessTexture": {
          "index": 11
        },
        "baseColorFactor": [
          1,
          1,
          1,
          1
        ],
        "metallicFactor": 1.0,
        "roughnessFactor": 1.0
      },
      "occlusionTexture": {
        "index": 11
      },
      "alphaMode": "OPAQUE",
      "doubleSided": false
    }
  ],
  "meshes": [
    {
      "name": "Cube.670",
      "primitives": [
        {
          "attributes": {
            "POSITION": 0,
            "NORMAL": 1,
            "TEXCOORD_0": 2,
            "TANGENT": 3
          },
          "indices": 4,
          "material": 0
        }
      ]
    },
    {
      "name": "Cylinder.328",
      "primitives": [
        {
          "attributes": {
            "POSITION": 5,
            "NORMAL": 6,
            "TEXCOORD_0": 7,
            "TANGENT": 8
          },
          "indices": 9,
          "material": 1
        }
      ]
    },
    {
      "name": "Cube.653",
      "primitives": [
        {
          "attributes": {
            "POSITION": 10,
            "NORMAL": 11,
            "TEXCOORD_0": 12,
            "TANGENT": 13
          },
          "indices": 14,
          "material": 2
        }
      ]
    },
    {
      "name": "Cube.662",
      "primitives": [
        {
          "attributes": {
            "POSITION": 15,
            "NORMAL": 16,
            "TEXCOORD_0": 17,
            "TANGENT": 18
          },
          "indices": 19,
          "material": 3
        }
      ]
    }
  ],
  "textures": [
    {
      "sampler": 0,
      "source": 0
    },
    {
      "sampler": 0,
      "source": 1
    },
    {
      "sampler": 0,
      "source": 2
    },
    {
      "sampler": 0,
      "source": 3
    },
    {
      "sampler": 0,
      "source": 4
    },
    {
      "sampler": 0,
      "source": 5
    },
    {
      "sampler": 0,
      "source": 0
    },
    {
      "sampler": 0,
      "source": 1
    },
    {
      "sampler": 0,
      "source": 2
    },
    {
      "sampler": 0,
      "source": 3
    },
    {
      "sampler": 0,
      "source": 4
    },
    {
      "sampler": 0,
      "source": 5
    }
  ],
  "images": [
    {
      "mimeType": "image/png",
      "name": "enamel_normal_opengl",
      "uri": "textures/enamel_normal_opengl.png"
    },
    {
      "mimeType": "image/png",
      "name": "enamel_basecolor.png",
      "uri": "textures/enamel_basecolor.png"
    },
    {
      "mimeType": "image/png",
      "name": "enamel_orm",
      "uri": "textures/enamel_orm.png"
    },
    {
      "mimeType": "image/png",
      "name": "nickel_used_normal_opengl.png",
      "uri": "textures/nickel_used_normal_opengl.png"
    },
    {
      "mimeType": "image/png",
      "name": "nickel_used_basecolor.png",
      "uri": "textures/nickel_used_basecolor.png"
    },
    {
      "mimeType": "image/png",
      "name": "nickel_used_orm.png",
      "uri": "textures/nickel_used_orm.png"
    }
  ],
  "accessors": [
    {
      "bufferView": 0,
      "componentType": 5126,
      "count": 96,
      "max": [
        0.7960000038146973,
        0.9605000019073486,
        0.0328499972820282
      ],
      "min": [
        0.7940000295639038,
        0.9494999647140503,
        -0.0328499972820282
      ],
      "type": "VEC3"
    },
    {
      "bufferView": 1,
      "componentType": 5126,
      "count": 96,
      "type": "VEC3"
    },
    {
      "bufferView": 2,
      "componentType": 5126,
      "count": 96,
      "type": "VEC2"
    },
    {
      "bufferView": 3,
      "componentType": 5126,
      "count": 96,
      "type": "VEC4"
    },
    {
      "bufferView": 4,
      "componentType": 5123,
      "count": 264,
      "type": "SCALAR"
    },
    {
      "bufferView": 5,
      "componentType": 5126,
      "count": 1128,
      "max": [
        0.8220000267028809,
        1.0719999074935913,
        0.08259530365467072
      ],
      "min": [
        0.6745668649673462,
        0.9359999895095825,
        -0.08259530365467072
      ],
      "type": "VEC3"
    },
    {
      "bufferView": 6,
      "componentType": 5126,
      "count": 1128,
      "type": "VEC3"
    },
    {
      "bufferView": 7,
      "componentType": 5126,
      "count": 1128,
      "type": "VEC2"
    },
    {
      "bufferView": 8,
      "componentType": 5126,
      "count": 1128,
      "type": "VEC4"
    },
    {
      "bufferView": 9,
      "componentType": 5123,
      "count": 4032,
      "type": "SCALAR"
    },
    {
      "bufferView": 10,
      "componentType": 5126,
      "count": 1506,
      "max": [
        0.8999999761581421,
        2.0500001907348633,
        0.028247017413377762
      ],
      "min": [
        0,
        0,
        -0.028247017413377762
      ],
      "type": "VEC3"
    },
    {
      "bufferView": 11,
      "componentType": 5126,
      "count": 1506,
      "type": "VEC3"
    },
    {
      "bufferView": 12,
      "componentType": 5126,
      "count": 1506,
      "type": "VEC2"
    },
    {
      "bufferView": 13,
      "componentType": 5126,
      "count": 1506,
      "type": "VEC4"
    },
    {
      "bufferView": 14,
      "componentType": 5123,
      "count": 4578,
      "type": "SCALAR"
    },
    {
      "bufferView": 15,
      "componentType": 5126,
      "count": 1072,
      "max": [
        0.8999999761581421,
        1.8949999809265137,
        0.03200000151991844
      ],
      "min": [
        0.0002999999560415745,
        0.1550000011920929,
        -0.03200000151991844
      ],
      "type": "VEC3"
    },
    {
      "bufferView": 16,
      "componentType": 5126,
      "count": 1072,
      "type": "VEC3"
    },
    {
      "bufferView": 17,
      "componentType": 5126,
      "count": 1072,
      "type": "VEC2"
    },
    {
      "bufferView": 18,
      "componentType": 5126,
      "count": 1072,
      "type": "VEC4"
    },
    {
      "bufferView": 19,
      "componentType": 5123,
      "count": 3024,
      "type": "SCALAR"
    }
  ],
  "bufferViews": [
    {
      "buffer": 0,
      "byteLength": 1152,
      "byteOffset": 0,
      "target": 34962
    },
    {
      "buffer": 0,
      "byteLength": 1152,
      "byteOffset": 1152,
      "target": 34962
    },
    {
      "buffer": 0,
      "byteLength": 768,
      "byteOffset": 2304,
      "target": 34962
    },
    {
      "buffer": 0,
      "byteLength": 1536,
      "byteOffset": 3072,
      "target": 34962
    },
    {
      "buffer": 0,
      "byteLength": 528,
      "byteOffset": 4608,
      "target": 34963
    },
    {
      "buffer": 0,
      "byteLength": 13536,
      "byteOffset": 5136,
      "target": 34962
    },
    {
      "buffer": 0,
      "byteLength": 13536,
      "byteOffset": 18672,
      "target": 34962
    },
    {
      "buffer": 0,
      "byteLength": 9024,
      "byteOffset": 32208,
      "target": 34962
    },
    {
      "buffer": 0,
      "byteLength": 18048,
      "byteOffset": 41232,
      "target": 34962
    },
    {
      "buffer": 0,
      "byteLength": 8064,
      "byteOffset": 59280,
      "target": 34963
    },
    {
      "buffer": 0,
      "byteLength": 18072,
      "byteOffset": 67344,
      "target": 34962
    },
    {
      "buffer": 0,
      "byteLength": 18072,
      "byteOffset": 85416,
      "target": 34962
    },
    {
      "buffer": 0,
      "byteLength": 12048,
      "byteOffset": 103488,
      "target": 34962
    },
    {
      "buffer": 0,
      "byteLength": 24096,
      "byteOffset": 115536,
      "target": 34962
    },
    {
      "buffer": 0,
      "byteLength": 9156,
      "byteOffset": 139632,
      "target": 34963
    },
    {
      "buffer": 0,
      "byteLength": 12864,
      "byteOffset": 148788,
      "target": 34962
    },
    {
      "buffer": 0,
      "byteLength": 12864,
      "byteOffset": 161652,
      "target": 34962
    },
    {
      "buffer": 0,
      "byteLength": 8576,
      "byteOffset": 174516,
      "target": 34962
    },
    {
      "buffer": 0,
      "byteLength": 17152,
      "byteOffset": 183092,
      "target": 34962
    },
    {
      "buffer": 0,
      "byteLength": 6048,
      "byteOffset": 200244,
      "target": 34963
    }
  ],
  "samplers": [
    {
      "magFilter": 9729,
      "minFilter": 9987
    }
  ],
  "buffers": [
    {
      "byteLength": 206292,
      "uri": "painted_sage_panel_leaf.bin"
    }
  ]
}
