{
  "asset": {
    "generator": "Khronos glTF Blender I/O v5.2.39",
    "version": "2.0"
  },
  "scene": 0,
  "scenes": [
    {
      "extras": {
        "README": "Seven authored opaque swing doors. Separate canonical glTF leaves and frames. See README.md and tools/door_assets/authoring.py."
      },
      "name": "Scene",
      "nodes": [
        3
      ]
    }
  ],
  "nodes": [
    {
      "mesh": 0,
      "name": "DoorLeaf_security_institutional_Door_dark"
    },
    {
      "mesh": 1,
      "name": "DoorLeaf_security_institutional_Door_gray"
    },
    {
      "mesh": 2,
      "name": "DoorLeaf_security_institutional_Door_steel"
    },
    {
      "children": [
        0,
        1,
        2
      ],
      "extras": {
        "catalog_id": "security_institutional",
        "part": "leaf"
      },
      "name": "DoorLeaf_security_institutional"
    }
  ],
  "materials": [
    {
      "name": "Door_dark",
      "normalTexture": {
        "index": 0
      },
      "pbrMetallicRoughness": {
        "baseColorTexture": {
          "index": 1
        },
        "metallicRoughnessTexture": {
          "index": 2
        },
        "baseColorFactor": [
          0.018,
          0.02,
          0.018,
          1.0
        ],
        "metallicFactor": 1.0,
        "roughnessFactor": 1.0
      },
      "occlusionTexture": {
        "index": 2
      },
      "alphaMode": "OPAQUE",
      "doubleSided": false
    },
    {
      "name": "Door_gray",
      "normalTexture": {
        "index": 3
      },
      "pbrMetallicRoughness": {
        "baseColorTexture": {
          "index": 4
        },
        "metallicRoughnessTexture": {
          "index": 5
        },
        "baseColorFactor": [
          0.34,
          0.37,
          0.35,
          1.0
        ],
        "metallicFactor": 1.0,
        "roughnessFactor": 1.0
      },
      "occlusionTexture": {
        "index": 5
      },
      "alphaMode": "OPAQUE",
      "doubleSided": false
    },
    {
      "name": "Door_steel",
      "normalTexture": {
        "index": 6
      },
      "pbrMetallicRoughness": {
        "baseColorTexture": {
          "index": 7
        },
        "metallicRoughnessTexture": {
          "index": 8
        },
        "baseColorFactor": [
          1,
          1,
          1,
          1
        ],
        "metallicFactor": 1.0,
        "roughnessFactor": 1.0
      },
      "occlusionTexture": {
        "index": 8
      },
      "alphaMode": "OPAQUE",
      "doubleSided": false
    }
  ],
  "meshes": [
    {
      "name": "Cube.282",
      "primitives": [
        {
          "attributes": {
            "POSITION": 0,
            "NORMAL": 1,
            "TEXCOORD_0": 2,
            "TANGENT": 3
          },
          "indices": 4,
          "material": 0
        }
      ]
    },
    {
      "name": "Cube.280",
      "primitives": [
        {
          "attributes": {
            "POSITION": 5,
            "NORMAL": 6,
            "TEXCOORD_0": 7,
            "TANGENT": 8
          },
          "indices": 9,
          "material": 1
        }
      ]
    },
    {
      "name": "Cube.281",
      "primitives": [
        {
          "attributes": {
            "POSITION": 10,
            "NORMAL": 11,
            "TEXCOORD_0": 12,
            "TANGENT": 13
          },
          "indices": 14,
          "material": 2
        }
      ]
    }
  ],
  "textures": [
    {
      "sampler": 0,
      "source": 0
    },
    {
      "sampler": 0,
      "source": 1
    },
    {
      "sampler": 0,
      "source": 2
    },
    {
      "sampler": 0,
      "source": 0
    },
    {
      "sampler": 0,
      "source": 1
    },
    {
      "sampler": 0,
      "source": 2
    },
    {
      "sampler": 0,
      "source": 3
    },
    {
      "sampler": 0,
      "source": 4
    },
    {
      "sampler": 0,
      "source": 5
    }
  ],
  "images": [
    {
      "mimeType": "image/png",
      "name": "enamel_normal_opengl",
      "uri": "textures/enamel_normal_opengl.png"
    },
    {
      "mimeType": "image/png",
      "name": "enamel_basecolor.png",
      "uri": "textures/enamel_basecolor.png"
    },
    {
      "mimeType": "image/png",
      "name": "enamel_orm",
      "uri": "textures/enamel_orm.png"
    },
    {
      "mimeType": "image/png",
      "name": "nickel_used_normal_opengl.png",
      "uri": "textures/nickel_used_normal_opengl.png"
    },
    {
      "mimeType": "image/png",
      "name": "nickel_used_basecolor.png",
      "uri": "textures/nickel_used_basecolor.png"
    },
    {
      "mimeType": "image/png",
      "name": "nickel_used_orm.png",
      "uri": "textures/nickel_used_orm.png"
    }
  ],
  "accessors": [
    {
      "bufferView": 0,
      "componentType": 5126,
      "count": 816,
      "max": [
        0.8422749638557434,
        1.8866000175476074,
        0.052000001072883606
      ],
      "min": [
        0.040049970149993896,
        0.16339999437332153,
        -0.047849997878074646
      ],
      "type": "VEC3"
    },
    {
      "bufferView": 1,
      "componentType": 5126,
      "count": 816,
      "type": "VEC3"
    },
    {
      "bufferView": 2,
      "componentType": 5126,
      "count": 816,
      "type": "VEC2"
    },
    {
      "bufferView": 3,
      "componentType": 5126,
      "count": 816,
      "type": "VEC4"
    },
    {
      "bufferView": 4,
      "componentType": 5123,
      "count": 2244,
      "type": "SCALAR"
    },
    {
      "bufferView": 5,
      "componentType": 5126,
      "count": 120,
      "max": [
        0.8999999761581421,
        2.049999952316284,
        0.03750000149011612
      ],
      "min": [
        0,
        0,
        -0.03750000149011612
      ],
      "type": "VEC3"
    },
    {
      "bufferView": 6,
      "componentType": 5126,
      "count": 120,
      "type": "VEC3"
    },
    {
      "bufferView": 7,
      "componentType": 5126,
      "count": 120,
      "type": "VEC2"
    },
    {
      "bufferView": 8,
      "componentType": 5126,
      "count": 120,
      "type": "VEC4"
    },
    {
      "bufferView": 9,
      "componentType": 5123,
      "count": 372,
      "type": "SCALAR"
    },
    {
      "bufferView": 10,
      "componentType": 5126,
      "count": 4720,
      "max": [
        0.8999999761581421,
        1.9075000286102295,
        0.09759530425071716
      ],
      "min": [
        0,
        0.14499998092651367,
        -0.09759529680013657
      ],
      "type": "VEC3"
    },
    {
      "bufferView": 11,
      "componentType": 5126,
      "count": 4720,
      "type": "VEC3"
    },
    {
      "bufferView": 12,
      "componentType": 5126,
      "count": 4720,
      "type": "VEC2"
    },
    {
      "bufferView": 13,
      "componentType": 5126,
      "count": 4720,
      "type": "VEC4"
    },
    {
      "bufferView": 14,
      "componentType": 5123,
      "count": 16368,
      "type": "SCALAR"
    }
  ],
  "bufferViews": [
    {
      "buffer": 0,
      "byteLength": 9792,
      "byteOffset": 0,
      "target": 34962
    },
    {
      "buffer": 0,
      "byteLength": 9792,
      "byteOffset": 9792,
      "target": 34962
    },
    {
      "buffer": 0,
      "byteLength": 6528,
      "byteOffset": 19584,
      "target": 34962
    },
    {
      "buffer": 0,
      "byteLength": 13056,
      "byteOffset": 26112,
      "target": 34962
    },
    {
      "buffer": 0,
      "byteLength": 4488,
      "byteOffset": 39168,
      "target": 34963
    },
    {
      "buffer": 0,
      "byteLength": 1440,
      "byteOffset": 43656,
      "target": 34962
    },
    {
      "buffer": 0,
      "byteLength": 1440,
      "byteOffset": 45096,
      "target": 34962
    },
    {
      "buffer": 0,
      "byteLength": 960,
      "byteOffset": 46536,
      "target": 34962
    },
    {
      "buffer": 0,
      "byteLength": 1920,
      "byteOffset": 47496,
      "target": 34962
    },
    {
      "buffer": 0,
      "byteLength": 744,
      "byteOffset": 49416,
      "target": 34963
    },
    {
      "buffer": 0,
      "byteLength": 56640,
      "byteOffset": 50160,
      "target": 34962
    },
    {
      "buffer": 0,
      "byteLength": 56640,
      "byteOffset": 106800,
      "target": 34962
    },
    {
      "buffer": 0,
      "byteLength": 37760,
      "byteOffset": 163440,
      "target": 34962
    },
    {
      "buffer": 0,
      "byteLength": 75520,
      "byteOffset": 201200,
      "target": 34962
    },
    {
      "buffer": 0,
      "byteLength": 32736,
      "byteOffset": 276720,
      "target": 34963
    }
  ],
  "samplers": [
    {
      "magFilter": 9729,
      "minFilter": 9987
    }
  ],
  "buffers": [
    {
      "byteLength": 309456,
      "uri": "security_institutional_leaf.bin"
    }
  ]
}
