{
  "asset": {
    "generator": "Khronos glTF Blender I/O v5.2.39",
    "version": "2.0"
  },
  "scene": 0,
  "scenes": [
    {
      "name": "Scene",
      "nodes": [
        2
      ]
    }
  ],
  "nodes": [
    {
      "mesh": 0,
      "name": "DoorFrame_wood_walnut_panel_Door_steel"
    },
    {
      "mesh": 1,
      "name": "DoorFrame_wood_walnut_panel_Door_walnut"
    },
    {
      "children": [
        0,
        1
      ],
      "extras": {
        "catalog_id": "wood_walnut_panel",
        "part": "frame"
      },
      "name": "DoorFrame_wood_walnut_panel"
    }
  ],
  "materials": [
    {
      "name": "Door_steel",
      "normalTexture": {
        "index": 0
      },
      "occlusionTexture": {
        "index": 1
      },
      "pbrMetallicRoughness": {
        "baseColorTexture": {
          "index": 2
        },
        "metallicRoughnessTexture": {
          "index": 1
        },
        "baseColorFactor": [
          0.72,
          0.76,
          0.78,
          1.0
        ],
        "metallicFactor": 1.0,
        "roughnessFactor": 1.0
      },
      "alphaMode": "OPAQUE",
      "doubleSided": false
    },
    {
      "name": "Door_walnut",
      "normalTexture": {
        "index": 3
      },
      "pbrMetallicRoughness": {
        "baseColorTexture": {
          "index": 4
        },
        "metallicRoughnessTexture": {
          "index": 5
        },
        "baseColorFactor": [
          0.55,
          0.46,
          0.36,
          1.0
        ],
        "metallicFactor": 1.0,
        "roughnessFactor": 1.0
      },
      "occlusionTexture": {
        "index": 5
      },
      "alphaMode": "OPAQUE",
      "doubleSided": false
    }
  ],
  "meshes": [
    {
      "name": "Cube.429",
      "primitives": [
        {
          "attributes": {
            "POSITION": 0,
            "NORMAL": 1,
            "TEXCOORD_0": 2,
            "TANGENT": 3
          },
          "indices": 4,
          "material": 0
        }
      ]
    },
    {
      "name": "Cube.413",
      "primitives": [
        {
          "attributes": {
            "POSITION": 5,
            "NORMAL": 6,
            "TEXCOORD_0": 7,
            "TANGENT": 8
          },
          "indices": 9,
          "material": 1
        }
      ]
    }
  ],
  "textures": [
    {
      "sampler": 0,
      "source": 0
    },
    {
      "sampler": 0,
      "source": 1
    },
    {
      "sampler": 0,
      "source": 2
    },
    {
      "sampler": 0,
      "source": 3
    },
    {
      "sampler": 0,
      "source": 4
    },
    {
      "sampler": 0,
      "source": 5
    }
  ],
  "images": [
    {
      "mimeType": "image/png",
      "name": "steel_normal_opengl",
      "uri": "textures/steel_normal_opengl.png"
    },
    {
      "mimeType": "image/png",
      "name": "steel_orm",
      "uri": "textures/steel_orm.png"
    },
    {
      "mimeType": "image/png",
      "name": "steel_basecolor.png",
      "uri": "textures/steel_basecolor.png"
    },
    {
      "mimeType": "image/png",
      "name": "walnut_normal_opengl",
      "uri": "textures/walnut_normal_opengl.png"
    },
    {
      "mimeType": "image/png",
      "name": "walnut_basecolor.png",
      "uri": "textures/walnut_basecolor.png"
    },
    {
      "mimeType": "image/png",
      "name": "walnut_orm",
      "uri": "textures/walnut_orm.png"
    }
  ],
  "accessors": [
    {
      "bufferView": 0,
      "componentType": 5126,
      "count": 48,
      "max": [
        0.45399996638298035,
        1.1130000352859497,
        0.017999999225139618
      ],
      "min": [
        0.4519999921321869,
        0.953000009059906,
        -0.017999999225139618
      ],
      "type": "VEC3"
    },
    {
      "bufferView": 1,
      "componentType": 5126,
      "count": 48,
      "type": "VEC3"
    },
    {
      "bufferView": 2,
      "componentType": 5126,
      "count": 48,
      "type": "VEC2"
    },
    {
      "bufferView": 3,
      "componentType": 5126,
      "count": 48,
      "type": "VEC4"
    },
    {
      "bufferView": 4,
      "componentType": 5123,
      "count": 132,
      "type": "SCALAR"
    },
    {
      "bufferView": 5,
      "componentType": 5126,
      "count": 1392,
      "max": [
        0.5339999198913574,
        2.1480000019073486,
        0.09400000423192978
      ],
      "min": [
        -0.534000039100647,
        0,
        -0.09400000423192978
      ],
      "type": "VEC3"
    },
    {
      "bufferView": 6,
      "componentType": 5126,
      "count": 1392,
      "type": "VEC3"
    },
    {
      "bufferView": 7,
      "componentType": 5126,
      "count": 1392,
      "type": "VEC2"
    },
    {
      "bufferView": 8,
      "componentType": 5126,
      "count": 1392,
      "type": "VEC4"
    },
    {
      "bufferView": 9,
      "componentType": 5123,
      "count": 4608,
      "type": "SCALAR"
    }
  ],
  "bufferViews": [
    {
      "buffer": 0,
      "byteLength": 576,
      "byteOffset": 0,
      "target": 34962
    },
    {
      "buffer": 0,
      "byteLength": 576,
      "byteOffset": 576,
      "target": 34962
    },
    {
      "buffer": 0,
      "byteLength": 384,
      "byteOffset": 1152,
      "target": 34962
    },
    {
      "buffer": 0,
      "byteLength": 768,
      "byteOffset": 1536,
      "target": 34962
    },
    {
      "buffer": 0,
      "byteLength": 264,
      "byteOffset": 2304,
      "target": 34963
    },
    {
      "buffer": 0,
      "byteLength": 16704,
      "byteOffset": 2568,
      "target": 34962
    },
    {
      "buffer": 0,
      "byteLength": 16704,
      "byteOffset": 19272,
      "target": 34962
    },
    {
      "buffer": 0,
      "byteLength": 11136,
      "byteOffset": 35976,
      "target": 34962
    },
    {
      "buffer": 0,
      "byteLength": 22272,
      "byteOffset": 47112,
      "target": 34962
    },
    {
      "buffer": 0,
      "byteLength": 9216,
      "byteOffset": 69384,
      "target": 34963
    }
  ],
  "samplers": [
    {
      "magFilter": 9729,
      "minFilter": 9987
    }
  ],
  "buffers": [
    {
      "byteLength": 78600,
      "uri": "wood_walnut_panel_frame.bin"
    }
  ]
}
