{
  "accessors": [
    {
      "bufferView": 0,
      "componentType": 5126,
      "count": 119,
      "max": [
        0.4485025107860565,
        1.9396040439605713,
        0.07379847764968872
      ],
      "min": [
        -0.4485025107860565,
        1.1920928955078125e-07,
        -0.07379838079214096
      ],
      "type": "VEC3"
    },
    {
      "bufferView": 1,
      "componentType": 5126,
      "count": 119,
      "type": "VEC3"
    },
    {
      "bufferView": 2,
      "componentType": 5126,
      "count": 119,
      "type": "VEC2"
    },
    {
      "bufferView": 3,
      "componentType": 5126,
      "count": 119,
      "type": "VEC4"
    },
    {
      "bufferView": 4,
      "componentType": 5123,
      "count": 180,
      "type": "SCALAR"
    }
  ],
  "asset": {
    "generator": "Khronos glTF Blender I/O v5.2.39",
    "version": "2.0"
  },
  "bufferViews": [
    {
      "buffer": 0,
      "byteLength": 1428,
      "byteOffset": 0,
      "target": 34962
    },
    {
      "buffer": 0,
      "byteLength": 1428,
      "byteOffset": 1428,
      "target": 34962
    },
    {
      "buffer": 0,
      "byteLength": 952,
      "byteOffset": 2856,
      "target": 34962
    },
    {
      "buffer": 0,
      "byteLength": 1904,
      "byteOffset": 3808,
      "target": 34962
    },
    {
      "buffer": 0,
      "byteLength": 360,
      "byteOffset": 5712,
      "target": 34963
    }
  ],
  "buffers": [
    {
      "byteLength": 6072,
      "uri": "wooden_interior_004_frame.bin"
    }
  ],
  "images": [
    {
      "name": "Image_0",
      "uri": "doors_wood_base_color.png"
    }
  ],
  "materials": [
    {
      "doubleSided": true,
      "name": "Doors",
      "pbrMetallicRoughness": {
        "baseColorTexture": {
          "index": 0
        },
        "metallicFactor": 0,
        "roughnessFactor": 0.8040408492088318
      }
    }
  ],
  "meshes": [
    {
      "name": "FramePanelMesh",
      "primitives": [
        {
          "attributes": {
            "NORMAL": 1,
            "POSITION": 0,
            "TANGENT": 3,
            "TEXCOORD_0": 2
          },
          "indices": 4,
          "material": 0
        }
      ]
    }
  ],
  "nodes": [
    {
      "mesh": 0,
      "name": "FramePanel"
    },
    {
      "children": [
        0
      ],
      "extras": {
        "asset_part": "frame",
        "catalog_id": "wooden_interior_004",
        "preparation_tool_version": 1,
        "source_author": "vanillao03 (https://sketchfab.com/vanillao03)",
        "source_license": "CC-BY-4.0 (http://creativecommons.org/licenses/by/4.0/)",
        "source_pack": "wooden_interior_doors_pack.glb",
        "source_pack_sha256": "1d679dfadb8b5b8d7162eeec816496db6ce05ebae78f7d38b9ca10e983767633",
        "source_title": "Low-Poly PSX Style Wooden Interior Doors Pack",
        "source_url": "https://sketchfab.com/3d-models/low-poly-psx-style-wooden-interior-doors-pack-02e442c6d4a24df29624808d058f010a"
      },
      "name": "DoorFrame_wooden_interior_004"
    }
  ],
  "samplers": [
    {
      "magFilter": 9729,
      "minFilter": 9987
    }
  ],
  "scene": 0,
  "scenes": [
    {
      "name": "Scene",
      "nodes": [
        1
      ]
    }
  ],
  "textures": [
    {
      "sampler": 0,
      "source": 0
    }
  ]
}
