{
  "accessors": [
    {
      "bufferView": 0,
      "componentType": 5126,
      "count": 306,
      "max": [
        0.7475671172142029,
        0.9029730558395386,
        0.08679915964603424
      ],
      "min": [
        0.5337771773338318,
        0.8135584592819214,
        -0.08679914474487305
      ],
      "type": "VEC3"
    },
    {
      "bufferView": 1,
      "componentType": 5126,
      "count": 306,
      "type": "VEC3"
    },
    {
      "bufferView": 2,
      "componentType": 5126,
      "count": 306,
      "type": "VEC2"
    },
    {
      "bufferView": 3,
      "componentType": 5126,
      "count": 306,
      "type": "VEC4"
    },
    {
      "bufferView": 4,
      "componentType": 5123,
      "count": 432,
      "type": "SCALAR"
    },
    {
      "bufferView": 5,
      "componentType": 5126,
      "count": 272,
      "max": [
        0.7557764649391174,
        1.806016445159912,
        0.04283121973276138
      ],
      "min": [
        1.1827796697616577e-07,
        1.1920928955078125e-07,
        -0.04283116012811661
      ],
      "type": "VEC3"
    },
    {
      "bufferView": 6,
      "componentType": 5126,
      "count": 272,
      "type": "VEC3"
    },
    {
      "bufferView": 7,
      "componentType": 5126,
      "count": 272,
      "type": "VEC2"
    },
    {
      "bufferView": 8,
      "componentType": 5126,
      "count": 272,
      "type": "VEC4"
    },
    {
      "bufferView": 9,
      "componentType": 5123,
      "count": 408,
      "type": "SCALAR"
    }
  ],
  "asset": {
    "generator": "Khronos glTF Blender I/O v5.2.39",
    "version": "2.0"
  },
  "bufferViews": [
    {
      "buffer": 0,
      "byteLength": 3672,
      "byteOffset": 0,
      "target": 34962
    },
    {
      "buffer": 0,
      "byteLength": 3672,
      "byteOffset": 3672,
      "target": 34962
    },
    {
      "buffer": 0,
      "byteLength": 2448,
      "byteOffset": 7344,
      "target": 34962
    },
    {
      "buffer": 0,
      "byteLength": 4896,
      "byteOffset": 9792,
      "target": 34962
    },
    {
      "buffer": 0,
      "byteLength": 864,
      "byteOffset": 14688,
      "target": 34963
    },
    {
      "buffer": 0,
      "byteLength": 3264,
      "byteOffset": 15552,
      "target": 34962
    },
    {
      "buffer": 0,
      "byteLength": 3264,
      "byteOffset": 18816,
      "target": 34962
    },
    {
      "buffer": 0,
      "byteLength": 2176,
      "byteOffset": 22080,
      "target": 34962
    },
    {
      "buffer": 0,
      "byteLength": 4352,
      "byteOffset": 24256,
      "target": 34962
    },
    {
      "buffer": 0,
      "byteLength": 816,
      "byteOffset": 28608,
      "target": 34963
    }
  ],
  "buffers": [
    {
      "byteLength": 29424,
      "uri": "wooden_interior_003_leaf.bin"
    }
  ],
  "images": [
    {
      "name": "Image_0",
      "uri": "doors_wood_base_color.png"
    }
  ],
  "materials": [
    {
      "doubleSided": true,
      "name": "Doors",
      "pbrMetallicRoughness": {
        "baseColorTexture": {
          "index": 0
        },
        "metallicFactor": 0,
        "roughnessFactor": 0.8040408492088318
      }
    }
  ],
  "meshes": [
    {
      "name": "LeafAttachment01Mesh",
      "primitives": [
        {
          "attributes": {
            "NORMAL": 1,
            "POSITION": 0,
            "TANGENT": 3,
            "TEXCOORD_0": 2
          },
          "indices": 4,
          "material": 0
        }
      ]
    },
    {
      "name": "LeafPanelMesh",
      "primitives": [
        {
          "attributes": {
            "NORMAL": 6,
            "POSITION": 5,
            "TANGENT": 8,
            "TEXCOORD_0": 7
          },
          "indices": 9,
          "material": 0
        }
      ]
    }
  ],
  "nodes": [
    {
      "mesh": 0,
      "name": "LeafAttachment01"
    },
    {
      "mesh": 1,
      "name": "LeafPanel"
    },
    {
      "children": [
        0,
        1
      ],
      "extras": {
        "asset_part": "leaf",
        "catalog_id": "wooden_interior_003",
        "preparation_tool_version": 1,
        "source_author": "vanillao03 (https://sketchfab.com/vanillao03)",
        "source_license": "CC-BY-4.0 (http://creativecommons.org/licenses/by/4.0/)",
        "source_pack": "wooden_interior_doors_pack.glb",
        "source_pack_sha256": "1d679dfadb8b5b8d7162eeec816496db6ce05ebae78f7d38b9ca10e983767633",
        "source_title": "Low-Poly PSX Style Wooden Interior Doors Pack",
        "source_url": "https://sketchfab.com/3d-models/low-poly-psx-style-wooden-interior-doors-pack-02e442c6d4a24df29624808d058f010a"
      },
      "name": "DoorLeaf_wooden_interior_003"
    }
  ],
  "samplers": [
    {
      "magFilter": 9729,
      "minFilter": 9987
    }
  ],
  "scene": 0,
  "scenes": [
    {
      "name": "Scene",
      "nodes": [
        2
      ]
    }
  ],
  "textures": [
    {
      "sampler": 0,
      "source": 0
    }
  ]
}
