{
  "accessors": [
    {
      "bufferView": 0,
      "componentType": 5126,
      "count": 310,
      "max": [
        0.7383652329444885,
        0.7953362464904785,
        0.08145986497402191
      ],
      "min": [
        0.5569807291030884,
        0.7194746732711792,
        -0.0814599022269249
      ],
      "type": "VEC3"
    },
    {
      "bufferView": 1,
      "componentType": 5126,
      "count": 310,
      "type": "VEC3"
    },
    {
      "bufferView": 2,
      "componentType": 5126,
      "count": 310,
      "type": "VEC2"
    },
    {
      "bufferView": 3,
      "componentType": 5126,
      "count": 310,
      "type": "VEC4"
    },
    {
      "bufferView": 4,
      "componentType": 5123,
      "count": 432,
      "type": "SCALAR"
    },
    {
      "bufferView": 5,
      "componentType": 5126,
      "count": 484,
      "max": [
        0.7557762265205383,
        1.8060166835784912,
        0.042831163853406906
      ],
      "min": [
        -1.2014061212539673e-07,
        1.1920928955078125e-07,
        -0.04283122345805168
      ],
      "type": "VEC3"
    },
    {
      "bufferView": 6,
      "componentType": 5126,
      "count": 484,
      "type": "VEC3"
    },
    {
      "bufferView": 7,
      "componentType": 5126,
      "count": 484,
      "type": "VEC2"
    },
    {
      "bufferView": 8,
      "componentType": 5126,
      "count": 484,
      "type": "VEC4"
    },
    {
      "bufferView": 9,
      "componentType": 5123,
      "count": 744,
      "type": "SCALAR"
    }
  ],
  "asset": {
    "generator": "Khronos glTF Blender I/O v5.2.39",
    "version": "2.0"
  },
  "bufferViews": [
    {
      "buffer": 0,
      "byteLength": 3720,
      "byteOffset": 0,
      "target": 34962
    },
    {
      "buffer": 0,
      "byteLength": 3720,
      "byteOffset": 3720,
      "target": 34962
    },
    {
      "buffer": 0,
      "byteLength": 2480,
      "byteOffset": 7440,
      "target": 34962
    },
    {
      "buffer": 0,
      "byteLength": 4960,
      "byteOffset": 9920,
      "target": 34962
    },
    {
      "buffer": 0,
      "byteLength": 864,
      "byteOffset": 14880,
      "target": 34963
    },
    {
      "buffer": 0,
      "byteLength": 5808,
      "byteOffset": 15744,
      "target": 34962
    },
    {
      "buffer": 0,
      "byteLength": 5808,
      "byteOffset": 21552,
      "target": 34962
    },
    {
      "buffer": 0,
      "byteLength": 3872,
      "byteOffset": 27360,
      "target": 34962
    },
    {
      "buffer": 0,
      "byteLength": 7744,
      "byteOffset": 31232,
      "target": 34962
    },
    {
      "buffer": 0,
      "byteLength": 1488,
      "byteOffset": 38976,
      "target": 34963
    }
  ],
  "buffers": [
    {
      "byteLength": 40464,
      "uri": "worn_wooden_004_leaf.bin"
    }
  ],
  "images": [
    {
      "name": "Image_0",
      "uri": "doors_wood_base_color.png"
    }
  ],
  "materials": [
    {
      "doubleSided": true,
      "name": "Doors",
      "pbrMetallicRoughness": {
        "baseColorTexture": {
          "index": 0
        },
        "metallicFactor": 0,
        "roughnessFactor": 0.8040408492088318
      }
    }
  ],
  "meshes": [
    {
      "name": "LeafAttachment01Mesh",
      "primitives": [
        {
          "attributes": {
            "NORMAL": 1,
            "POSITION": 0,
            "TANGENT": 3,
            "TEXCOORD_0": 2
          },
          "indices": 4,
          "material": 0
        }
      ]
    },
    {
      "name": "LeafPanelMesh",
      "primitives": [
        {
          "attributes": {
            "NORMAL": 6,
            "POSITION": 5,
            "TANGENT": 8,
            "TEXCOORD_0": 7
          },
          "indices": 9,
          "material": 0
        }
      ]
    }
  ],
  "nodes": [
    {
      "mesh": 0,
      "name": "LeafAttachment01"
    },
    {
      "mesh": 1,
      "name": "LeafPanel"
    },
    {
      "children": [
        0,
        1
      ],
      "extras": {
        "asset_part": "leaf",
        "catalog_id": "worn_wooden_004",
        "preparation_tool_version": 1,
        "source_author": "vanillao03 (https://sketchfab.com/vanillao03)",
        "source_license": "CC-BY-4.0 (http://creativecommons.org/licenses/by/4.0/)",
        "source_pack": "worn_wooden_doors_pack.glb",
        "source_pack_sha256": "0c71d08f201a4121546fa51081b70c150eb7ef448e26e11acf2fe101ff735f59",
        "source_title": "Low-Poly PSX Style Worn Wooden Doors Pack",
        "source_url": "https://sketchfab.com/3d-models/low-poly-psx-style-worn-wooden-doors-pack-16dd7631d2e145ffacfc374961d71cf1"
      },
      "name": "DoorLeaf_worn_wooden_004"
    }
  ],
  "samplers": [
    {
      "magFilter": 9729,
      "minFilter": 9987
    }
  ],
  "scene": 0,
  "scenes": [
    {
      "name": "Scene",
      "nodes": [
        2
      ]
    }
  ],
  "textures": [
    {
      "sampler": 0,
      "source": 0
    }
  ]
}
