{
  "accessors": [
    {
      "bufferView": 0,
      "componentType": 5126,
      "count": 144,
      "max": [
        0.7853580117225647,
        1.8060166835784912,
        0.053926318883895874
      ],
      "min": [
        1.1932570487260818e-07,
        1.1920928955078125e-07,
        -0.053925953805446625
      ],
      "type": "VEC3"
    },
    {
      "bufferView": 1,
      "componentType": 5126,
      "count": 144,
      "type": "VEC3"
    },
    {
      "bufferView": 2,
      "componentType": 5126,
      "count": 144,
      "type": "VEC2"
    },
    {
      "bufferView": 3,
      "componentType": 5126,
      "count": 144,
      "type": "VEC4"
    },
    {
      "bufferView": 4,
      "componentType": 5123,
      "count": 216,
      "type": "SCALAR"
    }
  ],
  "asset": {
    "generator": "Khronos glTF Blender I/O v5.2.39",
    "version": "2.0"
  },
  "bufferViews": [
    {
      "buffer": 0,
      "byteLength": 1728,
      "byteOffset": 0,
      "target": 34962
    },
    {
      "buffer": 0,
      "byteLength": 1728,
      "byteOffset": 1728,
      "target": 34962
    },
    {
      "buffer": 0,
      "byteLength": 1152,
      "byteOffset": 3456,
      "target": 34962
    },
    {
      "buffer": 0,
      "byteLength": 2304,
      "byteOffset": 4608,
      "target": 34962
    },
    {
      "buffer": 0,
      "byteLength": 432,
      "byteOffset": 6912,
      "target": 34963
    }
  ],
  "buffers": [
    {
      "byteLength": 7344,
      "uri": "worn_wooden_001_leaf.bin"
    }
  ],
  "images": [
    {
      "name": "Image_0",
      "uri": "doors_wood_base_color.png"
    }
  ],
  "materials": [
    {
      "doubleSided": true,
      "name": "Doors",
      "pbrMetallicRoughness": {
        "baseColorTexture": {
          "index": 0
        },
        "metallicFactor": 0,
        "roughnessFactor": 0.8040408492088318
      }
    }
  ],
  "meshes": [
    {
      "name": "LeafPanelMesh",
      "primitives": [
        {
          "attributes": {
            "NORMAL": 1,
            "POSITION": 0,
            "TANGENT": 3,
            "TEXCOORD_0": 2
          },
          "indices": 4,
          "material": 0
        }
      ]
    }
  ],
  "nodes": [
    {
      "mesh": 0,
      "name": "LeafPanel"
    },
    {
      "children": [
        0
      ],
      "extras": {
        "asset_part": "leaf",
        "catalog_id": "worn_wooden_001",
        "preparation_tool_version": 1,
        "source_author": "vanillao03 (https://sketchfab.com/vanillao03)",
        "source_license": "CC-BY-4.0 (http://creativecommons.org/licenses/by/4.0/)",
        "source_pack": "worn_wooden_doors_pack.glb",
        "source_pack_sha256": "0c71d08f201a4121546fa51081b70c150eb7ef448e26e11acf2fe101ff735f59",
        "source_title": "Low-Poly PSX Style Worn Wooden Doors Pack",
        "source_url": "https://sketchfab.com/3d-models/low-poly-psx-style-worn-wooden-doors-pack-16dd7631d2e145ffacfc374961d71cf1"
      },
      "name": "DoorLeaf_worn_wooden_001"
    }
  ],
  "samplers": [
    {
      "magFilter": 9729,
      "minFilter": 9987
    }
  ],
  "scene": 0,
  "scenes": [
    {
      "name": "Scene",
      "nodes": [
        1
      ]
    }
  ],
  "textures": [
    {
      "sampler": 0,
      "source": 0
    }
  ]
}
