{
  "accessors": [
    {
      "bufferView": 0,
      "componentType": 5126,
      "count": 310,
      "max": [
        0.7495421171188354,
        0.9052258729934692,
        0.0814598947763443
      ],
      "min": [
        0.5681573152542114,
        0.8293642997741699,
        -0.0814599022269249
      ],
      "type": "VEC3"
    },
    {
      "bufferView": 1,
      "componentType": 5126,
      "count": 310,
      "type": "VEC3"
    },
    {
      "bufferView": 2,
      "componentType": 5126,
      "count": 310,
      "type": "VEC2"
    },
    {
      "bufferView": 3,
      "componentType": 5126,
      "count": 310,
      "type": "VEC4"
    },
    {
      "bufferView": 4,
      "componentType": 5123,
      "count": 432,
      "type": "SCALAR"
    },
    {
      "bufferView": 5,
      "componentType": 5126,
      "count": 280,
      "max": [
        0.7557764649391174,
        1.8060166835784912,
        0.042831189930438995
      ],
      "min": [
        1.1827796697616577e-07,
        1.1920928955078125e-07,
        -0.042831189930438995
      ],
      "type": "VEC3"
    },
    {
      "bufferView": 6,
      "componentType": 5126,
      "count": 280,
      "type": "VEC3"
    },
    {
      "bufferView": 7,
      "componentType": 5126,
      "count": 280,
      "type": "VEC2"
    },
    {
      "bufferView": 8,
      "componentType": 5126,
      "count": 280,
      "type": "VEC4"
    },
    {
      "bufferView": 9,
      "componentType": 5123,
      "count": 408,
      "type": "SCALAR"
    }
  ],
  "asset": {
    "generator": "Khronos glTF Blender I/O v5.2.39",
    "version": "2.0"
  },
  "bufferViews": [
    {
      "buffer": 0,
      "byteLength": 3720,
      "byteOffset": 0,
      "target": 34962
    },
    {
      "buffer": 0,
      "byteLength": 3720,
      "byteOffset": 3720,
      "target": 34962
    },
    {
      "buffer": 0,
      "byteLength": 2480,
      "byteOffset": 7440,
      "target": 34962
    },
    {
      "buffer": 0,
      "byteLength": 4960,
      "byteOffset": 9920,
      "target": 34962
    },
    {
      "buffer": 0,
      "byteLength": 864,
      "byteOffset": 14880,
      "target": 34963
    },
    {
      "buffer": 0,
      "byteLength": 3360,
      "byteOffset": 15744,
      "target": 34962
    },
    {
      "buffer": 0,
      "byteLength": 3360,
      "byteOffset": 19104,
      "target": 34962
    },
    {
      "buffer": 0,
      "byteLength": 2240,
      "byteOffset": 22464,
      "target": 34962
    },
    {
      "buffer": 0,
      "byteLength": 4480,
      "byteOffset": 24704,
      "target": 34962
    },
    {
      "buffer": 0,
      "byteLength": 816,
      "byteOffset": 29184,
      "target": 34963
    }
  ],
  "buffers": [
    {
      "byteLength": 30000,
      "uri": "worn_wooden_005_leaf.bin"
    }
  ],
  "images": [
    {
      "name": "Image_0",
      "uri": "doors_wood_base_color.png"
    }
  ],
  "materials": [
    {
      "doubleSided": true,
      "name": "Doors",
      "pbrMetallicRoughness": {
        "baseColorTexture": {
          "index": 0
        },
        "metallicFactor": 0,
        "roughnessFactor": 0.8040408492088318
      }
    }
  ],
  "meshes": [
    {
      "name": "LeafAttachment01Mesh",
      "primitives": [
        {
          "attributes": {
            "NORMAL": 1,
            "POSITION": 0,
            "TANGENT": 3,
            "TEXCOORD_0": 2
          },
          "indices": 4,
          "material": 0
        }
      ]
    },
    {
      "name": "LeafPanelMesh",
      "primitives": [
        {
          "attributes": {
            "NORMAL": 6,
            "POSITION": 5,
            "TANGENT": 8,
            "TEXCOORD_0": 7
          },
          "indices": 9,
          "material": 0
        }
      ]
    }
  ],
  "nodes": [
    {
      "mesh": 0,
      "name": "LeafAttachment01"
    },
    {
      "mesh": 1,
      "name": "LeafPanel"
    },
    {
      "children": [
        0,
        1
      ],
      "extras": {
        "asset_part": "leaf",
        "catalog_id": "worn_wooden_005",
        "preparation_tool_version": 1,
        "source_author": "vanillao03 (https://sketchfab.com/vanillao03)",
        "source_license": "CC-BY-4.0 (http://creativecommons.org/licenses/by/4.0/)",
        "source_pack": "worn_wooden_doors_pack.glb",
        "source_pack_sha256": "0c71d08f201a4121546fa51081b70c150eb7ef448e26e11acf2fe101ff735f59",
        "source_title": "Low-Poly PSX Style Worn Wooden Doors Pack",
        "source_url": "https://sketchfab.com/3d-models/low-poly-psx-style-worn-wooden-doors-pack-16dd7631d2e145ffacfc374961d71cf1"
      },
      "name": "DoorLeaf_worn_wooden_005"
    }
  ],
  "samplers": [
    {
      "magFilter": 9729,
      "minFilter": 9987
    }
  ],
  "scene": 0,
  "scenes": [
    {
      "name": "Scene",
      "nodes": [
        2
      ]
    }
  ],
  "textures": [
    {
      "sampler": 0,
      "source": 0
    }
  ]
}
