{
  "asset": {
    "generator": "Khronos glTF Blender I/O v5.2.39",
    "version": "2.0"
  },
  "scene": 0,
  "scenes": [
    {
      "name": "Scene",
      "nodes": [
        0
      ]
    }
  ],
  "nodes": [
    {
      "mesh": 0,
      "name": "Heal_Small.001"
    }
  ],
  "materials": [
    {
      "doubleSided": true,
      "name": "MAT_HealPack",
      "normalTexture": {
        "index": 0,
        "scale": 0.32152479887008667
      },
      "occlusionTexture": {
        "index": 1
      },
      "pbrMetallicRoughness": {
        "baseColorTexture": {
          "index": 2
        },
        "metallicRoughnessTexture": {
          "index": 1
        }
      }
    }
  ],
  "meshes": [
    {
      "name": "Heal_Small",
      "primitives": [
        {
          "attributes": {
            "POSITION": 0,
            "NORMAL": 1,
            "TEXCOORD_0": 2
          },
          "indices": 3,
          "material": 0
        }
      ]
    }
  ],
  "textures": [
    {
      "sampler": 0,
      "source": 0
    },
    {
      "sampler": 0,
      "source": 1
    },
    {
      "sampler": 0,
      "source": 2
    }
  ],
  "images": [
    {
      "name": "Image_2",
      "uri": "health_pack_textures/health_pack_normal.png"
    },
    {
      "name": "Image_1",
      "uri": "health_pack_textures/health_pack_orm.png"
    },
    {
      "name": "Image_0",
      "uri": "health_pack_textures/health_pack_base_color.png"
    }
  ],
  "accessors": [
    {
      "bufferView": 0,
      "componentType": 5126,
      "count": 1678,
      "max": [
        0.06415510177612305,
        0.1283102035522461,
        0.1136893704533577
      ],
      "min": [
        -0.06415510177612305,
        0,
        -0.1136893704533577
      ],
      "type": "VEC3"
    },
    {
      "bufferView": 1,
      "componentType": 5126,
      "count": 1678,
      "type": "VEC3"
    },
    {
      "bufferView": 2,
      "componentType": 5126,
      "count": 1678,
      "type": "VEC2"
    },
    {
      "bufferView": 3,
      "componentType": 5123,
      "count": 5076,
      "type": "SCALAR"
    }
  ],
  "bufferViews": [
    {
      "buffer": 0,
      "byteLength": 20136,
      "byteOffset": 0,
      "target": 34962
    },
    {
      "buffer": 0,
      "byteLength": 20136,
      "byteOffset": 20136,
      "target": 34962
    },
    {
      "buffer": 0,
      "byteLength": 13424,
      "byteOffset": 40272,
      "target": 34962
    },
    {
      "buffer": 0,
      "byteLength": 10152,
      "byteOffset": 53696,
      "target": 34963
    }
  ],
  "samplers": [
    {
      "magFilter": 9729,
      "minFilter": 9987
    }
  ],
  "buffers": [
    {
      "byteLength": 63848,
      "uri": "health_pack_small.bin"
    }
  ]
}
