{
  "asset": {
    "generator": "Khronos glTF Blender I/O v5.2.39",
    "version": "2.0"
  },
  "scene": 0,
  "scenes": [
    {
      "name": "Scene",
      "nodes": [
        0
      ]
    }
  ],
  "nodes": [
    {
      "mesh": 0,
      "name": "Heal_BIG.001"
    }
  ],
  "materials": [
    {
      "doubleSided": true,
      "name": "MAT_HealPack",
      "normalTexture": {
        "index": 0,
        "scale": 0.32152479887008667
      },
      "occlusionTexture": {
        "index": 1
      },
      "pbrMetallicRoughness": {
        "baseColorTexture": {
          "index": 2
        },
        "metallicRoughnessTexture": {
          "index": 1
        }
      }
    }
  ],
  "meshes": [
    {
      "name": "Heal_BIG",
      "primitives": [
        {
          "attributes": {
            "POSITION": 0,
            "NORMAL": 1,
            "TEXCOORD_0": 2
          },
          "indices": 3,
          "material": 0
        }
      ]
    }
  ],
  "textures": [
    {
      "sampler": 0,
      "source": 0
    },
    {
      "sampler": 0,
      "source": 1
    },
    {
      "sampler": 0,
      "source": 2
    }
  ],
  "images": [
    {
      "name": "Image_2",
      "uri": "health_pack_textures/health_pack_normal.png"
    },
    {
      "name": "Image_1",
      "uri": "health_pack_textures/health_pack_orm.png"
    },
    {
      "name": "Image_0",
      "uri": "health_pack_textures/health_pack_base_color.png"
    }
  ],
  "accessors": [
    {
      "bufferView": 0,
      "componentType": 5126,
      "count": 908,
      "max": [
        0.26259350776672363,
        0.3569905161857605,
        0.06641512364149094
      ],
      "min": [
        -0.26259350776672363,
        0,
        -0.06641512364149094
      ],
      "type": "VEC3"
    },
    {
      "bufferView": 1,
      "componentType": 5126,
      "count": 908,
      "type": "VEC3"
    },
    {
      "bufferView": 2,
      "componentType": 5126,
      "count": 908,
      "type": "VEC2"
    },
    {
      "bufferView": 3,
      "componentType": 5123,
      "count": 1656,
      "type": "SCALAR"
    }
  ],
  "bufferViews": [
    {
      "buffer": 0,
      "byteLength": 10896,
      "byteOffset": 0,
      "target": 34962
    },
    {
      "buffer": 0,
      "byteLength": 10896,
      "byteOffset": 10896,
      "target": 34962
    },
    {
      "buffer": 0,
      "byteLength": 7264,
      "byteOffset": 21792,
      "target": 34962
    },
    {
      "buffer": 0,
      "byteLength": 3312,
      "byteOffset": 29056,
      "target": 34963
    }
  ],
  "samplers": [
    {
      "magFilter": 9729,
      "minFilter": 9987
    }
  ],
  "buffers": [
    {
      "byteLength": 32368,
      "uri": "health_pack_big.bin"
    }
  ]
}
