{
	"asset":{
		"generator":"Khronos glTF Blender I/O v5.2.39",
		"version":"2.0"
	},
	"scene":0,
	"scenes":[
		{
			"name":"CAFETERIA \u2022 Reference scene",
			"nodes":[
				0
			]
		}
	],
	"nodes":[
		{
			"extras":{
				"asset_id":"Ashtray_Metal",
				"units":"meters",
				"front_axis_blender":"-Y",
				"pivot":"bottom center"
			},
			"mesh":0,
			"name":"Ashtray_Metal_Export"
		}
	],
	"materials":[
		{
			"name":"CAFE \u2022 Steel",
			"normalTexture":{
				"index":0
			},
			"pbrMetallicRoughness":{
				"baseColorTexture":{
					"index":1
				},
				"metallicRoughnessTexture":{
					"index":2
				}
			}
		}
	],
	"meshes":[
		{
			"name":"Ashtray_Metal_Mesh.002",
			"primitives":[
				{
					"attributes":{
						"POSITION":0,
						"NORMAL":1,
						"TEXCOORD_0":2,
						"TANGENT":3
					},
					"indices":4,
					"material":0
				}
			]
		}
	],
	"textures":[
		{
			"sampler":0,
			"source":0
		},
		{
			"sampler":0,
			"source":1
		},
		{
			"sampler":0,
			"source":2
		}
	],
	"images":[
		{
			"mimeType":"image/png",
			"name":"cafeteria_steel_used_normal_opengl",
			"uri":"textures/cafeteria_steel_used_normal_opengl.png"
		},
		{
			"mimeType":"image/png",
			"name":"cafeteria_steel_used_basecolor",
			"uri":"textures/cafeteria_steel_used_basecolor.png"
		},
		{
			"mimeType":"image/png",
			"name":"cafeteria_steel_used_orm",
			"uri":"textures/cafeteria_steel_used_orm.png"
		}
	],
	"accessors":[
		{
			"bufferView":0,
			"componentType":5126,
			"count":1187,
			"max":[
				0.06700000166893005,
				0.029980478808283806,
				0.06700000166893005
			],
			"min":[
				-0.06700000166893005,
				0,
				-0.06700000166893005
			],
			"type":"VEC3"
		},
		{
			"bufferView":1,
			"componentType":5126,
			"count":1187,
			"type":"VEC3"
		},
		{
			"bufferView":2,
			"componentType":5126,
			"count":1187,
			"type":"VEC2"
		},
		{
			"bufferView":3,
			"componentType":5126,
			"count":1187,
			"type":"VEC4"
		},
		{
			"bufferView":4,
			"componentType":5123,
			"count":4956,
			"type":"SCALAR"
		}
	],
	"bufferViews":[
		{
			"buffer":0,
			"byteLength":14244,
			"byteOffset":0,
			"target":34962
		},
		{
			"buffer":0,
			"byteLength":14244,
			"byteOffset":14244,
			"target":34962
		},
		{
			"buffer":0,
			"byteLength":9496,
			"byteOffset":28488,
			"target":34962
		},
		{
			"buffer":0,
			"byteLength":18992,
			"byteOffset":37984,
			"target":34962
		},
		{
			"buffer":0,
			"byteLength":9912,
			"byteOffset":56976,
			"target":34963
		}
	],
	"samplers":[
		{
			"magFilter":9729,
			"minFilter":9987
		}
	],
	"buffers":[
		{
			"byteLength":66888,
			"uri":"Ashtray_Metal.bin"
		}
	]
}
