{
	"asset":{
		"generator":"Khronos glTF Blender I/O v5.2.39",
		"version":"2.0"
	},
	"scene":0,
	"scenes":[
		{
			"name":"CAFETERIA \u2022 Reference scene",
			"nodes":[
				0
			]
		}
	],
	"nodes":[
		{
			"extras":{
				"asset_id":"Cigarette_Butt",
				"units":"meters",
				"front_axis_blender":"-Y",
				"pivot":"bottom center"
			},
			"mesh":0,
			"name":"Cigarette_Butt_Export"
		}
	],
	"materials":[
		{
			"name":"CAFE \u2022 Paper",
			"pbrMetallicRoughness":{
				"baseColorFactor":[
					0.7200000286102295,
					0.6800000071525574,
					0.5699999928474426,
					1
				],
				"metallicFactor":0,
				"roughnessFactor":0.8199999928474426
			}
		},
		{
			"name":"CAFE \u2022 Tobacco",
			"pbrMetallicRoughness":{
				"baseColorFactor":[
					0.17000000178813934,
					0.07000000029802322,
					0.019999999552965164,
					1
				],
				"metallicFactor":0,
				"roughnessFactor":0.8799999952316284
			}
		},
		{
			"name":"CAFE \u2022 Dark recess",
			"pbrMetallicRoughness":{
				"baseColorFactor":[
					0.00800000037997961,
					0.009999999776482582,
					0.008999999612569809,
					1
				],
				"metallicFactor":0,
				"roughnessFactor":0.800000011920929
			}
		}
	],
	"meshes":[
		{
			"name":"Cigarette_Butt_Mesh.001",
			"primitives":[
				{
					"attributes":{
						"POSITION":0,
						"NORMAL":1,
						"TEXCOORD_0":2,
						"TANGENT":3
					},
					"indices":4,
					"material":0
				},
				{
					"attributes":{
						"POSITION":5,
						"NORMAL":6,
						"TEXCOORD_0":7,
						"TANGENT":8
					},
					"indices":9,
					"material":1
				},
				{
					"attributes":{
						"POSITION":10,
						"NORMAL":11,
						"TEXCOORD_0":12,
						"TANGENT":13
					},
					"indices":14,
					"material":2
				}
			]
		}
	],
	"accessors":[
		{
			"bufferView":0,
			"componentType":5126,
			"count":56,
			"max":[
				0.010999999940395355,
				0.008300001733005047,
				0.00400000112131238
			],
			"min":[
				-0.01899999938905239,
				0.00029999963589943945,
				-0.0040000006556510925
			],
			"type":"VEC3"
		},
		{
			"bufferView":1,
			"componentType":5126,
			"count":56,
			"type":"VEC3"
		},
		{
			"bufferView":2,
			"componentType":5126,
			"count":56,
			"type":"VEC2"
		},
		{
			"bufferView":3,
			"componentType":5126,
			"count":56,
			"type":"VEC4"
		},
		{
			"bufferView":4,
			"componentType":5123,
			"count":132,
			"type":"SCALAR"
		},
		{
			"bufferView":5,
			"componentType":5126,
			"count":56,
			"max":[
				0.02199999988079071,
				0.008500001393258572,
				0.004200000315904617
			],
			"min":[
				0.008999998681247234,
				9.999997564591467e-05,
				-0.00419999985024333
			],
			"type":"VEC3"
		},
		{
			"bufferView":6,
			"componentType":5126,
			"count":56,
			"type":"VEC3"
		},
		{
			"bufferView":7,
			"componentType":5126,
			"count":56,
			"type":"VEC2"
		},
		{
			"bufferView":8,
			"componentType":5126,
			"count":56,
			"type":"VEC4"
		},
		{
			"bufferView":9,
			"componentType":5123,
			"count":132,
			"type":"SCALAR"
		},
		{
			"bufferView":10,
			"componentType":5126,
			"count":56,
			"max":[
				-0.017000000923871994,
				0.00860000029206276,
				0.004300000611692667
			],
			"min":[
				-0.019999999552965164,
				0,
				-0.004299999680370092
			],
			"type":"VEC3"
		},
		{
			"bufferView":11,
			"componentType":5126,
			"count":56,
			"type":"VEC3"
		},
		{
			"bufferView":12,
			"componentType":5126,
			"count":56,
			"type":"VEC2"
		},
		{
			"bufferView":13,
			"componentType":5126,
			"count":56,
			"type":"VEC4"
		},
		{
			"bufferView":14,
			"componentType":5123,
			"count":132,
			"type":"SCALAR"
		}
	],
	"bufferViews":[
		{
			"buffer":0,
			"byteLength":672,
			"byteOffset":0,
			"target":34962
		},
		{
			"buffer":0,
			"byteLength":672,
			"byteOffset":672,
			"target":34962
		},
		{
			"buffer":0,
			"byteLength":448,
			"byteOffset":1344,
			"target":34962
		},
		{
			"buffer":0,
			"byteLength":896,
			"byteOffset":1792,
			"target":34962
		},
		{
			"buffer":0,
			"byteLength":264,
			"byteOffset":2688,
			"target":34963
		},
		{
			"buffer":0,
			"byteLength":672,
			"byteOffset":2952,
			"target":34962
		},
		{
			"buffer":0,
			"byteLength":672,
			"byteOffset":3624,
			"target":34962
		},
		{
			"buffer":0,
			"byteLength":448,
			"byteOffset":4296,
			"target":34962
		},
		{
			"buffer":0,
			"byteLength":896,
			"byteOffset":4744,
			"target":34962
		},
		{
			"buffer":0,
			"byteLength":264,
			"byteOffset":5640,
			"target":34963
		},
		{
			"buffer":0,
			"byteLength":672,
			"byteOffset":5904,
			"target":34962
		},
		{
			"buffer":0,
			"byteLength":672,
			"byteOffset":6576,
			"target":34962
		},
		{
			"buffer":0,
			"byteLength":448,
			"byteOffset":7248,
			"target":34962
		},
		{
			"buffer":0,
			"byteLength":896,
			"byteOffset":7696,
			"target":34962
		},
		{
			"buffer":0,
			"byteLength":264,
			"byteOffset":8592,
			"target":34963
		}
	],
	"buffers":[
		{
			"byteLength":8856,
			"uri":"Cigarette_Butt.bin"
		}
	]
}
