{
	"asset":{
		"generator":"Khronos glTF Blender I/O v5.2.39",
		"version":"2.0"
	},
	"scene":0,
	"scenes":[
		{
			"name":"CAFETERIA \u2022 Reference scene",
			"nodes":[
				0
			]
		}
	],
	"nodes":[
		{
			"extras":{
				"asset_id":"Coffee_Mug",
				"units":"meters",
				"front_axis_blender":"-Y",
				"pivot":"bottom center"
			},
			"mesh":0,
			"name":"Coffee_Mug_Export"
		}
	],
	"materials":[
		{
			"name":"CAFE \u2022 Ceramic",
			"normalTexture":{
				"index":0
			},
			"pbrMetallicRoughness":{
				"baseColorTexture":{
					"index":1
				},
				"metallicRoughnessTexture":{
					"index":2
				}
			}
		}
	],
	"meshes":[
		{
			"name":"Coffee_Mug_Mesh.001",
			"primitives":[
				{
					"attributes":{
						"POSITION":0,
						"NORMAL":1,
						"TEXCOORD_0":2,
						"TANGENT":3
					},
					"indices":4,
					"material":0
				}
			]
		}
	],
	"textures":[
		{
			"sampler":0,
			"source":0
		},
		{
			"sampler":0,
			"source":1
		},
		{
			"sampler":0,
			"source":2
		}
	],
	"images":[
		{
			"mimeType":"image/png",
			"name":"cafeteria_ceramic_used_normal_opengl",
			"uri":"textures/cafeteria_ceramic_used_normal_opengl.png"
		},
		{
			"mimeType":"image/png",
			"name":"cafeteria_ceramic_used_basecolor",
			"uri":"textures/cafeteria_ceramic_used_basecolor.png"
		},
		{
			"mimeType":"image/png",
			"name":"cafeteria_ceramic_used_orm",
			"uri":"textures/cafeteria_ceramic_used_orm.png"
		}
	],
	"accessors":[
		{
			"bufferView":0,
			"componentType":5126,
			"count":692,
			"max":[
				0.07450000196695328,
				0.09799999743700027,
				0.03999999910593033
			],
			"min":[
				-0.03999999910593033,
				0,
				-0.03999999910593033
			],
			"type":"VEC3"
		},
		{
			"bufferView":1,
			"componentType":5126,
			"count":692,
			"type":"VEC3"
		},
		{
			"bufferView":2,
			"componentType":5126,
			"count":692,
			"type":"VEC2"
		},
		{
			"bufferView":3,
			"componentType":5126,
			"count":692,
			"type":"VEC4"
		},
		{
			"bufferView":4,
			"componentType":5123,
			"count":2640,
			"type":"SCALAR"
		}
	],
	"bufferViews":[
		{
			"buffer":0,
			"byteLength":8304,
			"byteOffset":0,
			"target":34962
		},
		{
			"buffer":0,
			"byteLength":8304,
			"byteOffset":8304,
			"target":34962
		},
		{
			"buffer":0,
			"byteLength":5536,
			"byteOffset":16608,
			"target":34962
		},
		{
			"buffer":0,
			"byteLength":11072,
			"byteOffset":22144,
			"target":34962
		},
		{
			"buffer":0,
			"byteLength":5280,
			"byteOffset":33216,
			"target":34963
		}
	],
	"samplers":[
		{
			"magFilter":9729,
			"minFilter":9987
		}
	],
	"buffers":[
		{
			"byteLength":38496,
			"uri":"Coffee_Mug.bin"
		}
	]
}
