{
	"asset":{
		"generator":"Khronos glTF Blender I/O v5.2.39",
		"version":"2.0"
	},
	"scene":0,
	"scenes":[
		{
			"name":"CAFETERIA \u2022 Reference scene",
			"nodes":[
				0
			]
		}
	],
	"nodes":[
		{
			"extras":{
				"asset_id":"Dining_Table_1600",
				"units":"meters",
				"front_axis_blender":"-Y",
				"pivot":"bottom center"
			},
			"mesh":0,
			"name":"Dining_Table_1600_Export"
		}
	],
	"materials":[
		{
			"name":"CAFE \u2022 Laminate",
			"normalTexture":{
				"index":0
			},
			"pbrMetallicRoughness":{
				"baseColorTexture":{
					"index":1
				},
				"metallicRoughnessTexture":{
					"index":2
				}
			}
		},
		{
			"name":"CAFE \u2022 Steel",
			"normalTexture":{
				"index":3
			},
			"pbrMetallicRoughness":{
				"baseColorTexture":{
					"index":4
				},
				"metallicRoughnessTexture":{
					"index":5
				}
			}
		},
		{
			"name":"CAFE \u2022 Rubber",
			"pbrMetallicRoughness":{
				"baseColorFactor":[
					0.014999999664723873,
					0.01899999938905239,
					0.01600000075995922,
					1
				],
				"metallicFactor":0,
				"roughnessFactor":0.800000011920929
			}
		}
	],
	"meshes":[
		{
			"name":"Dining_Table_1600_Mesh.001",
			"primitives":[
				{
					"attributes":{
						"POSITION":0,
						"NORMAL":1,
						"TEXCOORD_0":2,
						"TANGENT":3
					},
					"indices":4,
					"material":0
				},
				{
					"attributes":{
						"POSITION":5,
						"NORMAL":6,
						"TEXCOORD_0":7,
						"TANGENT":8
					},
					"indices":9,
					"material":1
				},
				{
					"attributes":{
						"POSITION":10,
						"NORMAL":11,
						"TEXCOORD_0":12,
						"TANGENT":13
					},
					"indices":14,
					"material":2
				}
			]
		}
	],
	"textures":[
		{
			"sampler":0,
			"source":0
		},
		{
			"sampler":0,
			"source":1
		},
		{
			"sampler":0,
			"source":2
		},
		{
			"sampler":0,
			"source":3
		},
		{
			"sampler":0,
			"source":4
		},
		{
			"sampler":0,
			"source":5
		}
	],
	"images":[
		{
			"mimeType":"image/png",
			"name":"cafeteria_laminate_used_normal_opengl",
			"uri":"textures/cafeteria_laminate_used_normal_opengl.png"
		},
		{
			"mimeType":"image/png",
			"name":"cafeteria_laminate_used_basecolor",
			"uri":"textures/cafeteria_laminate_used_basecolor.png"
		},
		{
			"mimeType":"image/png",
			"name":"cafeteria_laminate_used_orm",
			"uri":"textures/cafeteria_laminate_used_orm.png"
		},
		{
			"mimeType":"image/png",
			"name":"cafeteria_steel_used_normal_opengl",
			"uri":"textures/cafeteria_steel_used_normal_opengl.png"
		},
		{
			"mimeType":"image/png",
			"name":"cafeteria_steel_used_basecolor",
			"uri":"textures/cafeteria_steel_used_basecolor.png"
		},
		{
			"mimeType":"image/png",
			"name":"cafeteria_steel_used_orm",
			"uri":"textures/cafeteria_steel_used_orm.png"
		}
	],
	"accessors":[
		{
			"bufferView":0,
			"componentType":5126,
			"count":144,
			"max":[
				0.800000011920929,
				0.7634999752044678,
				0.4000000059604645
			],
			"min":[
				-0.800000011920929,
				0.7304999828338623,
				-0.4000000059604645
			],
			"type":"VEC3"
		},
		{
			"bufferView":1,
			"componentType":5126,
			"count":144,
			"type":"VEC3"
		},
		{
			"bufferView":2,
			"componentType":5126,
			"count":144,
			"type":"VEC2"
		},
		{
			"bufferView":3,
			"componentType":5126,
			"count":144,
			"type":"VEC4"
		},
		{
			"bufferView":4,
			"componentType":5123,
			"count":564,
			"type":"SCALAR"
		},
		{
			"bufferView":5,
			"componentType":5126,
			"count":976,
			"max":[
				0.8019999861717224,
				0.7519999742507935,
				0.4020000100135803
			],
			"min":[
				-0.8019999861717224,
				0.02399998903274536,
				-0.4020000100135803
			],
			"type":"VEC3"
		},
		{
			"bufferView":6,
			"componentType":5126,
			"count":976,
			"type":"VEC3"
		},
		{
			"bufferView":7,
			"componentType":5126,
			"count":976,
			"type":"VEC2"
		},
		{
			"bufferView":8,
			"componentType":5126,
			"count":976,
			"type":"VEC4"
		},
		{
			"bufferView":9,
			"componentType":5123,
			"count":2592,
			"type":"SCALAR"
		},
		{
			"bufferView":10,
			"componentType":5126,
			"count":416,
			"max":[
				0.718999981880188,
				0.04200005531311035,
				0.3189999759197235
			],
			"min":[
				-0.718999981880188,
				0,
				-0.3189999759197235
			],
			"type":"VEC3"
		},
		{
			"bufferView":11,
			"componentType":5126,
			"count":416,
			"type":"VEC3"
		},
		{
			"bufferView":12,
			"componentType":5126,
			"count":416,
			"type":"VEC2"
		},
		{
			"bufferView":13,
			"componentType":5126,
			"count":416,
			"type":"VEC4"
		},
		{
			"bufferView":14,
			"componentType":5123,
			"count":1488,
			"type":"SCALAR"
		}
	],
	"bufferViews":[
		{
			"buffer":0,
			"byteLength":1728,
			"byteOffset":0,
			"target":34962
		},
		{
			"buffer":0,
			"byteLength":1728,
			"byteOffset":1728,
			"target":34962
		},
		{
			"buffer":0,
			"byteLength":1152,
			"byteOffset":3456,
			"target":34962
		},
		{
			"buffer":0,
			"byteLength":2304,
			"byteOffset":4608,
			"target":34962
		},
		{
			"buffer":0,
			"byteLength":1128,
			"byteOffset":6912,
			"target":34963
		},
		{
			"buffer":0,
			"byteLength":11712,
			"byteOffset":8040,
			"target":34962
		},
		{
			"buffer":0,
			"byteLength":11712,
			"byteOffset":19752,
			"target":34962
		},
		{
			"buffer":0,
			"byteLength":7808,
			"byteOffset":31464,
			"target":34962
		},
		{
			"buffer":0,
			"byteLength":15616,
			"byteOffset":39272,
			"target":34962
		},
		{
			"buffer":0,
			"byteLength":5184,
			"byteOffset":54888,
			"target":34963
		},
		{
			"buffer":0,
			"byteLength":4992,
			"byteOffset":60072,
			"target":34962
		},
		{
			"buffer":0,
			"byteLength":4992,
			"byteOffset":65064,
			"target":34962
		},
		{
			"buffer":0,
			"byteLength":3328,
			"byteOffset":70056,
			"target":34962
		},
		{
			"buffer":0,
			"byteLength":6656,
			"byteOffset":73384,
			"target":34962
		},
		{
			"buffer":0,
			"byteLength":2976,
			"byteOffset":80040,
			"target":34963
		}
	],
	"samplers":[
		{
			"magFilter":9729,
			"minFilter":9987
		}
	],
	"buffers":[
		{
			"byteLength":83016,
			"uri":"Dining_Table_1600.bin"
		}
	]
}
