{
	"asset":{
		"generator":"Khronos glTF Blender I/O v5.2.39",
		"version":"2.0"
	},
	"scene":0,
	"scenes":[
		{
			"name":"CAFETERIA \u2022 Reference scene",
			"nodes":[
				0
			]
		}
	],
	"nodes":[
		{
			"extras":{
				"asset_id":"Dining_Chair_Vinyl",
				"units":"meters",
				"front_axis_blender":"-Y",
				"pivot":"bottom center"
			},
			"mesh":0,
			"name":"Dining_Chair_Vinyl_Export"
		}
	],
	"materials":[
		{
			"name":"CAFE \u2022 Steel",
			"normalTexture":{
				"index":0
			},
			"pbrMetallicRoughness":{
				"baseColorTexture":{
					"index":1
				},
				"metallicRoughnessTexture":{
					"index":2
				}
			}
		},
		{
			"name":"CAFE \u2022 Rubber",
			"pbrMetallicRoughness":{
				"baseColorFactor":[
					0.014999999664723873,
					0.01899999938905239,
					0.01600000075995922,
					1
				],
				"metallicFactor":0,
				"roughnessFactor":0.800000011920929
			}
		},
		{
			"name":"CAFE \u2022 Wood",
			"normalTexture":{
				"index":3
			},
			"pbrMetallicRoughness":{
				"baseColorTexture":{
					"index":4
				},
				"metallicRoughnessTexture":{
					"index":5
				}
			}
		},
		{
			"name":"CAFE \u2022 Vinyl",
			"normalTexture":{
				"index":6
			},
			"pbrMetallicRoughness":{
				"baseColorTexture":{
					"index":7
				},
				"metallicRoughnessTexture":{
					"index":8
				}
			}
		}
	],
	"meshes":[
		{
			"name":"Dining_Chair_Vinyl_Mesh.001",
			"primitives":[
				{
					"attributes":{
						"POSITION":0,
						"NORMAL":1,
						"TEXCOORD_0":2,
						"TANGENT":3
					},
					"indices":4,
					"material":0
				},
				{
					"attributes":{
						"POSITION":5,
						"NORMAL":6,
						"TEXCOORD_0":7,
						"TANGENT":8
					},
					"indices":9,
					"material":1
				},
				{
					"attributes":{
						"POSITION":10,
						"NORMAL":11,
						"TEXCOORD_0":12,
						"TANGENT":13
					},
					"indices":14,
					"material":2
				},
				{
					"attributes":{
						"POSITION":15,
						"NORMAL":16,
						"TEXCOORD_0":17,
						"TANGENT":18
					},
					"indices":19,
					"material":3
				}
			]
		}
	],
	"textures":[
		{
			"sampler":0,
			"source":0
		},
		{
			"sampler":0,
			"source":1
		},
		{
			"sampler":0,
			"source":2
		},
		{
			"sampler":0,
			"source":3
		},
		{
			"sampler":0,
			"source":4
		},
		{
			"sampler":0,
			"source":5
		},
		{
			"sampler":0,
			"source":6
		},
		{
			"sampler":0,
			"source":7
		},
		{
			"sampler":0,
			"source":8
		}
	],
	"images":[
		{
			"mimeType":"image/png",
			"name":"cafeteria_steel_used_normal_opengl",
			"uri":"textures/cafeteria_steel_used_normal_opengl.png"
		},
		{
			"mimeType":"image/png",
			"name":"cafeteria_steel_used_basecolor",
			"uri":"textures/cafeteria_steel_used_basecolor.png"
		},
		{
			"mimeType":"image/png",
			"name":"cafeteria_steel_used_orm",
			"uri":"textures/cafeteria_steel_used_orm.png"
		},
		{
			"mimeType":"image/png",
			"name":"cafeteria_walnut_used_normal_opengl",
			"uri":"textures/cafeteria_walnut_used_normal_opengl.png"
		},
		{
			"mimeType":"image/png",
			"name":"cafeteria_walnut_used_basecolor",
			"uri":"textures/cafeteria_walnut_used_basecolor.png"
		},
		{
			"mimeType":"image/png",
			"name":"cafeteria_walnut_used_orm",
			"uri":"textures/cafeteria_walnut_used_orm.png"
		},
		{
			"mimeType":"image/png",
			"name":"cafeteria_olive_vinyl_normal_opengl",
			"uri":"textures/cafeteria_olive_vinyl_normal_opengl.png"
		},
		{
			"mimeType":"image/png",
			"name":"cafeteria_olive_vinyl_basecolor",
			"uri":"textures/cafeteria_olive_vinyl_basecolor.png"
		},
		{
			"mimeType":"image/png",
			"name":"cafeteria_olive_vinyl_orm",
			"uri":"textures/cafeteria_olive_vinyl_orm.png"
		}
	],
	"accessors":[
		{
			"bufferView":0,
			"componentType":5126,
			"count":744,
			"max":[
				0.23064900934696198,
				0.8560000061988831,
				0.2529933452606201
			],
			"min":[
				-0.23064900934696198,
				0.017131179571151733,
				-0.27870285511016846
			],
			"type":"VEC3"
		},
		{
			"bufferView":1,
			"componentType":5126,
			"count":744,
			"type":"VEC3"
		},
		{
			"bufferView":2,
			"componentType":5126,
			"count":744,
			"type":"VEC2"
		},
		{
			"bufferView":3,
			"componentType":5126,
			"count":744,
			"type":"VEC4"
		},
		{
			"bufferView":4,
			"componentType":5123,
			"count":2184,
			"type":"SCALAR"
		},
		{
			"bufferView":5,
			"componentType":5126,
			"count":320,
			"max":[
				0.2329999953508377,
				0.029999999329447746,
				0.2549999952316284
			],
			"min":[
				-0.2329999953508377,
				0,
				-0.2809999883174896
			],
			"type":"VEC3"
		},
		{
			"bufferView":6,
			"componentType":5126,
			"count":320,
			"type":"VEC3"
		},
		{
			"bufferView":7,
			"componentType":5126,
			"count":320,
			"type":"VEC2"
		},
		{
			"bufferView":8,
			"componentType":5126,
			"count":320,
			"type":"VEC4"
		},
		{
			"bufferView":9,
			"componentType":5123,
			"count":1104,
			"type":"SCALAR"
		},
		{
			"bufferView":10,
			"componentType":5126,
			"count":96,
			"max":[
				0.21449999511241913,
				0.44999998807907104,
				0.2214999943971634
			],
			"min":[
				-0.21449999511241913,
				0.43400001525878906,
				-0.2214999943971634
			],
			"type":"VEC3"
		},
		{
			"bufferView":11,
			"componentType":5126,
			"count":96,
			"type":"VEC3"
		},
		{
			"bufferView":12,
			"componentType":5126,
			"count":96,
			"type":"VEC2"
		},
		{
			"bufferView":13,
			"componentType":5126,
			"count":96,
			"type":"VEC4"
		},
		{
			"bufferView":14,
			"componentType":5123,
			"count":324,
			"type":"SCALAR"
		},
		{
			"bufferView":15,
			"componentType":5126,
			"count":298,
			"max":[
				0.22050000727176666,
				0.8392104506492615,
				0.23199999332427979
			],
			"min":[
				-0.22050000727176666,
				0.445499986410141,
				-0.26421043276786804
			],
			"type":"VEC3"
		},
		{
			"bufferView":16,
			"componentType":5126,
			"count":298,
			"type":"VEC3"
		},
		{
			"bufferView":17,
			"componentType":5126,
			"count":298,
			"type":"VEC2"
		},
		{
			"bufferView":18,
			"componentType":5126,
			"count":298,
			"type":"VEC4"
		},
		{
			"bufferView":19,
			"componentType":5123,
			"count":1128,
			"type":"SCALAR"
		}
	],
	"bufferViews":[
		{
			"buffer":0,
			"byteLength":8928,
			"byteOffset":0,
			"target":34962
		},
		{
			"buffer":0,
			"byteLength":8928,
			"byteOffset":8928,
			"target":34962
		},
		{
			"buffer":0,
			"byteLength":5952,
			"byteOffset":17856,
			"target":34962
		},
		{
			"buffer":0,
			"byteLength":11904,
			"byteOffset":23808,
			"target":34962
		},
		{
			"buffer":0,
			"byteLength":4368,
			"byteOffset":35712,
			"target":34963
		},
		{
			"buffer":0,
			"byteLength":3840,
			"byteOffset":40080,
			"target":34962
		},
		{
			"buffer":0,
			"byteLength":3840,
			"byteOffset":43920,
			"target":34962
		},
		{
			"buffer":0,
			"byteLength":2560,
			"byteOffset":47760,
			"target":34962
		},
		{
			"buffer":0,
			"byteLength":5120,
			"byteOffset":50320,
			"target":34962
		},
		{
			"buffer":0,
			"byteLength":2208,
			"byteOffset":55440,
			"target":34963
		},
		{
			"buffer":0,
			"byteLength":1152,
			"byteOffset":57648,
			"target":34962
		},
		{
			"buffer":0,
			"byteLength":1152,
			"byteOffset":58800,
			"target":34962
		},
		{
			"buffer":0,
			"byteLength":768,
			"byteOffset":59952,
			"target":34962
		},
		{
			"buffer":0,
			"byteLength":1536,
			"byteOffset":60720,
			"target":34962
		},
		{
			"buffer":0,
			"byteLength":648,
			"byteOffset":62256,
			"target":34963
		},
		{
			"buffer":0,
			"byteLength":3576,
			"byteOffset":62904,
			"target":34962
		},
		{
			"buffer":0,
			"byteLength":3576,
			"byteOffset":66480,
			"target":34962
		},
		{
			"buffer":0,
			"byteLength":2384,
			"byteOffset":70056,
			"target":34962
		},
		{
			"buffer":0,
			"byteLength":4768,
			"byteOffset":72440,
			"target":34962
		},
		{
			"buffer":0,
			"byteLength":2256,
			"byteOffset":77208,
			"target":34963
		}
	],
	"samplers":[
		{
			"magFilter":9729,
			"minFilter":9987
		}
	],
	"buffers":[
		{
			"byteLength":79464,
			"uri":"Dining_Chair_Vinyl.bin"
		}
	]
}
