{
	"asset":{
		"generator":"Khronos glTF Blender I/O v5.2.39",
		"version":"2.0"
	},
	"scene":0,
	"scenes":[
		{
			"name":"CAFETERIA \u2022 Reference scene",
			"nodes":[
				0
			]
		}
	],
	"nodes":[
		{
			"extras":{
				"asset_id":"Drinking_Fountain",
				"units":"meters",
				"front_axis_blender":"-Y",
				"pivot":"bottom center"
			},
			"mesh":0,
			"name":"Drinking_Fountain_Export"
		}
	],
	"materials":[
		{
			"name":"CAFE \u2022 Steel",
			"normalTexture":{
				"index":0
			},
			"pbrMetallicRoughness":{
				"baseColorTexture":{
					"index":1
				},
				"metallicRoughnessTexture":{
					"index":2
				}
			}
		},
		{
			"name":"CAFE \u2022 Rubber",
			"pbrMetallicRoughness":{
				"baseColorFactor":[
					0.014999999664723873,
					0.01899999938905239,
					0.01600000075995922,
					1
				],
				"metallicFactor":0,
				"roughnessFactor":0.800000011920929
			}
		},
		{
			"name":"CAFE \u2022 Dark recess",
			"pbrMetallicRoughness":{
				"baseColorFactor":[
					0.00800000037997961,
					0.009999999776482582,
					0.008999999612569809,
					1
				],
				"metallicFactor":0,
				"roughnessFactor":0.800000011920929
			}
		}
	],
	"meshes":[
		{
			"name":"Drinking_Fountain_Mesh.001",
			"primitives":[
				{
					"attributes":{
						"POSITION":0,
						"NORMAL":1,
						"TEXCOORD_0":2,
						"TANGENT":3
					},
					"indices":4,
					"material":0
				},
				{
					"attributes":{
						"POSITION":5,
						"NORMAL":6,
						"TEXCOORD_0":7,
						"TANGENT":8
					},
					"indices":9,
					"material":1
				},
				{
					"attributes":{
						"POSITION":10,
						"NORMAL":11,
						"TEXCOORD_0":12,
						"TANGENT":13
					},
					"indices":14,
					"material":2
				}
			]
		}
	],
	"textures":[
		{
			"sampler":0,
			"source":0
		},
		{
			"sampler":0,
			"source":1
		},
		{
			"sampler":0,
			"source":2
		}
	],
	"images":[
		{
			"mimeType":"image/png",
			"name":"cafeteria_steel_used_normal_opengl",
			"uri":"textures/cafeteria_steel_used_normal_opengl.png"
		},
		{
			"mimeType":"image/png",
			"name":"cafeteria_steel_used_basecolor",
			"uri":"textures/cafeteria_steel_used_basecolor.png"
		},
		{
			"mimeType":"image/png",
			"name":"cafeteria_steel_used_orm",
			"uri":"textures/cafeteria_steel_used_orm.png"
		}
	],
	"accessors":[
		{
			"bufferView":0,
			"componentType":5126,
			"count":1414,
			"max":[
				0.20499999821186066,
				1.005981683731079,
				0.1850000023841858
			],
			"min":[
				-0.20499999821186066,
				0.015000015497207642,
				-0.2150000035762787
			],
			"type":"VEC3"
		},
		{
			"bufferView":1,
			"componentType":5126,
			"count":1414,
			"type":"VEC3"
		},
		{
			"bufferView":2,
			"componentType":5126,
			"count":1414,
			"type":"VEC2"
		},
		{
			"bufferView":3,
			"componentType":5126,
			"count":1414,
			"type":"VEC4"
		},
		{
			"bufferView":4,
			"componentType":5123,
			"count":4572,
			"type":"SCALAR"
		},
		{
			"bufferView":5,
			"componentType":5126,
			"count":224,
			"max":[
				0.17499999701976776,
				0.9265000224113464,
				0.1599999964237213
			],
			"min":[
				-0.17499999701976776,
				0,
				-0.1899999976158142
			],
			"type":"VEC3"
		},
		{
			"bufferView":6,
			"componentType":5126,
			"count":224,
			"type":"VEC3"
		},
		{
			"bufferView":7,
			"componentType":5126,
			"count":224,
			"type":"VEC2"
		},
		{
			"bufferView":8,
			"componentType":5126,
			"count":224,
			"type":"VEC4"
		},
		{
			"bufferView":9,
			"componentType":5123,
			"count":792,
			"type":"SCALAR"
		},
		{
			"bufferView":10,
			"componentType":5126,
			"count":304,
			"max":[
				0.13300000131130219,
				0.9819999933242798,
				0.18449999392032623
			],
			"min":[
				-0.13300000131130219,
				0.0835999846458435,
				-0.07899999618530273
			],
			"type":"VEC3"
		},
		{
			"bufferView":11,
			"componentType":5126,
			"count":304,
			"type":"VEC3"
		},
		{
			"bufferView":12,
			"componentType":5126,
			"count":304,
			"type":"VEC2"
		},
		{
			"bufferView":13,
			"componentType":5126,
			"count":304,
			"type":"VEC4"
		},
		{
			"bufferView":14,
			"componentType":5123,
			"count":840,
			"type":"SCALAR"
		}
	],
	"bufferViews":[
		{
			"buffer":0,
			"byteLength":16968,
			"byteOffset":0,
			"target":34962
		},
		{
			"buffer":0,
			"byteLength":16968,
			"byteOffset":16968,
			"target":34962
		},
		{
			"buffer":0,
			"byteLength":11312,
			"byteOffset":33936,
			"target":34962
		},
		{
			"buffer":0,
			"byteLength":22624,
			"byteOffset":45248,
			"target":34962
		},
		{
			"buffer":0,
			"byteLength":9144,
			"byteOffset":67872,
			"target":34963
		},
		{
			"buffer":0,
			"byteLength":2688,
			"byteOffset":77016,
			"target":34962
		},
		{
			"buffer":0,
			"byteLength":2688,
			"byteOffset":79704,
			"target":34962
		},
		{
			"buffer":0,
			"byteLength":1792,
			"byteOffset":82392,
			"target":34962
		},
		{
			"buffer":0,
			"byteLength":3584,
			"byteOffset":84184,
			"target":34962
		},
		{
			"buffer":0,
			"byteLength":1584,
			"byteOffset":87768,
			"target":34963
		},
		{
			"buffer":0,
			"byteLength":3648,
			"byteOffset":89352,
			"target":34962
		},
		{
			"buffer":0,
			"byteLength":3648,
			"byteOffset":93000,
			"target":34962
		},
		{
			"buffer":0,
			"byteLength":2432,
			"byteOffset":96648,
			"target":34962
		},
		{
			"buffer":0,
			"byteLength":4864,
			"byteOffset":99080,
			"target":34962
		},
		{
			"buffer":0,
			"byteLength":1680,
			"byteOffset":103944,
			"target":34963
		}
	],
	"samplers":[
		{
			"magFilter":9729,
			"minFilter":9987
		}
	],
	"buffers":[
		{
			"byteLength":105624,
			"uri":"Drinking_Fountain.bin"
		}
	]
}
