{
	"asset":{
		"generator":"Khronos glTF Blender I/O v5.2.39",
		"version":"2.0"
	},
	"scene":0,
	"scenes":[
		{
			"name":"CAFETERIA \u2022 Reference scene",
			"nodes":[
				0
			]
		}
	],
	"nodes":[
		{
			"extras":{
				"asset_id":"Fire_Extinguisher_Wall",
				"units":"meters",
				"front_axis_blender":"-Y",
				"pivot":"bottom center"
			},
			"mesh":0,
			"name":"Fire_Extinguisher_Wall_Export"
		}
	],
	"materials":[
		{
			"name":"CAFE \u2022 Steel",
			"normalTexture":{
				"index":0
			},
			"pbrMetallicRoughness":{
				"baseColorTexture":{
					"index":1
				},
				"metallicRoughnessTexture":{
					"index":2
				}
			}
		},
		{
			"name":"CAFE \u2022 Red paint",
			"pbrMetallicRoughness":{
				"baseColorFactor":[
					0.3799999952316284,
					0.017999999225139618,
					0.012000000104308128,
					1
				],
				"metallicFactor":0,
				"roughnessFactor":0.47999998927116394
			}
		},
		{
			"name":"CAFE \u2022 Brass",
			"pbrMetallicRoughness":{
				"baseColorFactor":[
					0.4699999988079071,
					0.28999999165534973,
					0.09000000357627869,
					1
				],
				"metallicFactor":0.699999988079071,
				"roughnessFactor":0.3400000035762787
			}
		},
		{
			"name":"CAFE \u2022 Rubber",
			"pbrMetallicRoughness":{
				"baseColorFactor":[
					0.014999999664723873,
					0.01899999938905239,
					0.01600000075995922,
					1
				],
				"metallicFactor":0,
				"roughnessFactor":0.800000011920929
			}
		},
		{
			"name":"CAFE \u2022 Ivory",
			"pbrMetallicRoughness":{
				"baseColorFactor":[
					0.7599999904632568,
					0.7300000190734863,
					0.6299999952316284,
					1
				],
				"metallicFactor":0,
				"roughnessFactor":0.3199999928474426
			}
		},
		{
			"name":"CAFE \u2022 Print",
			"pbrMetallicRoughness":{
				"baseColorFactor":[
					0.06499999761581421,
					0.06199999898672104,
					0.05000000074505806,
					1
				],
				"metallicFactor":0,
				"roughnessFactor":0.8600000143051147
			}
		},
		{
			"name":"CAFE \u2022 Printed details",
			"pbrMetallicRoughness":{
				"baseColorTexture":{
					"index":3
				},
				"metallicFactor":0,
				"roughnessFactor":0.800000011920929
			}
		}
	],
	"meshes":[
		{
			"name":"Fire_Extinguisher_Wall_Mesh.002",
			"primitives":[
				{
					"attributes":{
						"POSITION":0,
						"NORMAL":1,
						"TEXCOORD_0":2,
						"TANGENT":3
					},
					"indices":4,
					"material":0
				},
				{
					"attributes":{
						"POSITION":5,
						"NORMAL":6,
						"TEXCOORD_0":7,
						"TANGENT":8
					},
					"indices":9,
					"material":1
				},
				{
					"attributes":{
						"POSITION":10,
						"NORMAL":11,
						"TEXCOORD_0":12,
						"TANGENT":13
					},
					"indices":14,
					"material":2
				},
				{
					"attributes":{
						"POSITION":15,
						"NORMAL":16,
						"TEXCOORD_0":17,
						"TANGENT":18
					},
					"indices":19,
					"material":3
				},
				{
					"attributes":{
						"POSITION":20,
						"NORMAL":21,
						"TEXCOORD_0":22,
						"TANGENT":23
					},
					"indices":24,
					"material":4
				},
				{
					"attributes":{
						"POSITION":25,
						"NORMAL":26,
						"TEXCOORD_0":27,
						"TANGENT":28
					},
					"indices":29,
					"material":5
				},
				{
					"attributes":{
						"POSITION":30,
						"NORMAL":31,
						"TEXCOORD_0":32,
						"TANGENT":33
					},
					"indices":34,
					"material":6
				}
			]
		}
	],
	"textures":[
		{
			"sampler":0,
			"source":0
		},
		{
			"sampler":0,
			"source":1
		},
		{
			"sampler":0,
			"source":2
		},
		{
			"sampler":0,
			"source":3
		}
	],
	"images":[
		{
			"mimeType":"image/png",
			"name":"cafeteria_steel_used_normal_opengl",
			"uri":"textures/cafeteria_steel_used_normal_opengl.png"
		},
		{
			"mimeType":"image/png",
			"name":"cafeteria_steel_used_basecolor",
			"uri":"textures/cafeteria_steel_used_basecolor.png"
		},
		{
			"mimeType":"image/png",
			"name":"cafeteria_steel_used_orm",
			"uri":"textures/cafeteria_steel_used_orm.png"
		},
		{
			"mimeType":"image/png",
			"name":"printed_details_basecolor",
			"uri":"textures/printed_details_basecolor.png"
		}
	],
	"accessors":[
		{
			"bufferView":0,
			"componentType":5126,
			"count":544,
			"max":[
				0.05000000074505806,
				0.5007064342498779,
				0.08750000596046448
			],
			"min":[
				-0.05000000074505806,
				0,
				-0.10200000554323196
			],
			"type":"VEC3"
		},
		{
			"bufferView":1,
			"componentType":5126,
			"count":544,
			"type":"VEC3"
		},
		{
			"bufferView":2,
			"componentType":5126,
			"count":544,
			"type":"VEC2"
		},
		{
			"bufferView":3,
			"componentType":5126,
			"count":544,
			"type":"VEC4"
		},
		{
			"bufferView":4,
			"componentType":5123,
			"count":1908,
			"type":"SCALAR"
		},
		{
			"bufferView":5,
			"componentType":5126,
			"count":308,
			"max":[
				0.0820000022649765,
				0.4270000159740448,
				0.0820000022649765
			],
			"min":[
				-0.0820000022649765,
				0.007999986410140991,
				-0.0820000022649765
			],
			"type":"VEC3"
		},
		{
			"bufferView":6,
			"componentType":5126,
			"count":308,
			"type":"VEC3"
		},
		{
			"bufferView":7,
			"componentType":5126,
			"count":308,
			"type":"VEC2"
		},
		{
			"bufferView":8,
			"componentType":5126,
			"count":308,
			"type":"VEC4"
		},
		{
			"bufferView":9,
			"componentType":5123,
			"count":1332,
			"type":"SCALAR"
		},
		{
			"bufferView":10,
			"componentType":5126,
			"count":200,
			"max":[
				0.020999999716877937,
				0.45899999141693115,
				0.07528327405452728
			],
			"min":[
				-0.025468379259109497,
				0.4130000174045563,
				-0.020999997854232788
			],
			"type":"VEC3"
		},
		{
			"bufferView":11,
			"componentType":5126,
			"count":200,
			"type":"VEC3"
		},
		{
			"bufferView":12,
			"componentType":5126,
			"count":200,
			"type":"VEC2"
		},
		{
			"bufferView":13,
			"componentType":5126,
			"count":200,
			"type":"VEC4"
		},
		{
			"bufferView":14,
			"componentType":5123,
			"count":648,
			"type":"SCALAR"
		},
		{
			"bufferView":15,
			"componentType":5126,
			"count":498,
			"max":[
				0.11999999731779099,
				0.4779999852180481,
				0.048500001430511475
			],
			"min":[
				-0.023000001907348633,
				0.042295292019844055,
				-0.08300000429153442
			],
			"type":"VEC3"
		},
		{
			"bufferView":16,
			"componentType":5126,
			"count":498,
			"type":"VEC3"
		},
		{
			"bufferView":17,
			"componentType":5126,
			"count":498,
			"type":"VEC2"
		},
		{
			"bufferView":18,
			"componentType":5126,
			"count":498,
			"type":"VEC4"
		},
		{
			"bufferView":19,
			"componentType":5123,
			"count":1572,
			"type":"SCALAR"
		},
		{
			"bufferView":20,
			"componentType":5126,
			"count":104,
			"max":[
				-0.0010000001639127731,
				0.47200000286102295,
				0.08949999511241913
			],
			"min":[
				-0.039000000804662704,
				0.43400001525878906,
				0.08649998903274536
			],
			"type":"VEC3"
		},
		{
			"bufferView":21,
			"componentType":5126,
			"count":104,
			"type":"VEC3"
		},
		{
			"bufferView":22,
			"componentType":5126,
			"count":104,
			"type":"VEC2"
		},
		{
			"bufferView":23,
			"componentType":5126,
			"count":104,
			"type":"VEC4"
		},
		{
			"bufferView":24,
			"componentType":5123,
			"count":276,
			"type":"SCALAR"
		},
		{
			"bufferView":25,
			"componentType":5126,
			"count":40,
			"max":[
				-0.010280000045895576,
				0.46553999185562134,
				0.0909000039100647
			],
			"min":[
				-0.020719999447464943,
				0.45245999097824097,
				0.08910000324249268
			],
			"type":"VEC3"
		},
		{
			"bufferView":26,
			"componentType":5126,
			"count":40,
			"type":"VEC3"
		},
		{
			"bufferView":27,
			"componentType":5126,
			"count":40,
			"type":"VEC2"
		},
		{
			"bufferView":28,
			"componentType":5126,
			"count":40,
			"type":"VEC4"
		},
		{
			"bufferView":29,
			"componentType":5123,
			"count":84,
			"type":"SCALAR"
		},
		{
			"bufferView":30,
			"componentType":5126,
			"count":182,
			"max":[
				0.04100162163376808,
				0.31349998712539673,
				0.08224000036716461
			],
			"min":[
				-0.04100162163376808,
				0.1704999953508377,
				0.07033325731754303
			],
			"type":"VEC3"
		},
		{
			"bufferView":31,
			"componentType":5126,
			"count":182,
			"type":"VEC3"
		},
		{
			"bufferView":32,
			"componentType":5126,
			"count":182,
			"type":"VEC2"
		},
		{
			"bufferView":33,
			"componentType":5126,
			"count":182,
			"type":"VEC4"
		},
		{
			"bufferView":34,
			"componentType":5123,
			"count":300,
			"type":"SCALAR"
		}
	],
	"bufferViews":[
		{
			"buffer":0,
			"byteLength":6528,
			"byteOffset":0,
			"target":34962
		},
		{
			"buffer":0,
			"byteLength":6528,
			"byteOffset":6528,
			"target":34962
		},
		{
			"buffer":0,
			"byteLength":4352,
			"byteOffset":13056,
			"target":34962
		},
		{
			"buffer":0,
			"byteLength":8704,
			"byteOffset":17408,
			"target":34962
		},
		{
			"buffer":0,
			"byteLength":3816,
			"byteOffset":26112,
			"target":34963
		},
		{
			"buffer":0,
			"byteLength":3696,
			"byteOffset":29928,
			"target":34962
		},
		{
			"buffer":0,
			"byteLength":3696,
			"byteOffset":33624,
			"target":34962
		},
		{
			"buffer":0,
			"byteLength":2464,
			"byteOffset":37320,
			"target":34962
		},
		{
			"buffer":0,
			"byteLength":4928,
			"byteOffset":39784,
			"target":34962
		},
		{
			"buffer":0,
			"byteLength":2664,
			"byteOffset":44712,
			"target":34963
		},
		{
			"buffer":0,
			"byteLength":2400,
			"byteOffset":47376,
			"target":34962
		},
		{
			"buffer":0,
			"byteLength":2400,
			"byteOffset":49776,
			"target":34962
		},
		{
			"buffer":0,
			"byteLength":1600,
			"byteOffset":52176,
			"target":34962
		},
		{
			"buffer":0,
			"byteLength":3200,
			"byteOffset":53776,
			"target":34962
		},
		{
			"buffer":0,
			"byteLength":1296,
			"byteOffset":56976,
			"target":34963
		},
		{
			"buffer":0,
			"byteLength":5976,
			"byteOffset":58272,
			"target":34962
		},
		{
			"buffer":0,
			"byteLength":5976,
			"byteOffset":64248,
			"target":34962
		},
		{
			"buffer":0,
			"byteLength":3984,
			"byteOffset":70224,
			"target":34962
		},
		{
			"buffer":0,
			"byteLength":7968,
			"byteOffset":74208,
			"target":34962
		},
		{
			"buffer":0,
			"byteLength":3144,
			"byteOffset":82176,
			"target":34963
		},
		{
			"buffer":0,
			"byteLength":1248,
			"byteOffset":85320,
			"target":34962
		},
		{
			"buffer":0,
			"byteLength":1248,
			"byteOffset":86568,
			"target":34962
		},
		{
			"buffer":0,
			"byteLength":832,
			"byteOffset":87816,
			"target":34962
		},
		{
			"buffer":0,
			"byteLength":1664,
			"byteOffset":88648,
			"target":34962
		},
		{
			"buffer":0,
			"byteLength":552,
			"byteOffset":90312,
			"target":34963
		},
		{
			"buffer":0,
			"byteLength":480,
			"byteOffset":90864,
			"target":34962
		},
		{
			"buffer":0,
			"byteLength":480,
			"byteOffset":91344,
			"target":34962
		},
		{
			"buffer":0,
			"byteLength":320,
			"byteOffset":91824,
			"target":34962
		},
		{
			"buffer":0,
			"byteLength":640,
			"byteOffset":92144,
			"target":34962
		},
		{
			"buffer":0,
			"byteLength":168,
			"byteOffset":92784,
			"target":34963
		},
		{
			"buffer":0,
			"byteLength":2184,
			"byteOffset":92952,
			"target":34962
		},
		{
			"buffer":0,
			"byteLength":2184,
			"byteOffset":95136,
			"target":34962
		},
		{
			"buffer":0,
			"byteLength":1456,
			"byteOffset":97320,
			"target":34962
		},
		{
			"buffer":0,
			"byteLength":2912,
			"byteOffset":98776,
			"target":34962
		},
		{
			"buffer":0,
			"byteLength":600,
			"byteOffset":101688,
			"target":34963
		}
	],
	"samplers":[
		{
			"magFilter":9729,
			"minFilter":9987
		}
	],
	"buffers":[
		{
			"byteLength":102288,
			"uri":"Fire_Extinguisher_Wall.bin"
		}
	]
}
