{
	"asset":{
		"generator":"Khronos glTF Blender I/O v5.2.39",
		"version":"2.0"
	},
	"scene":0,
	"scenes":[
		{
			"name":"CAFETERIA \u2022 Reference scene",
			"nodes":[
				0
			]
		}
	],
	"nodes":[
		{
			"extras":{
				"asset_id":"Fire_Extinguisher_Sign",
				"units":"meters",
				"front_axis_blender":"-Y",
				"pivot":"bottom center"
			},
			"mesh":0,
			"name":"Fire_Extinguisher_Sign_Export"
		}
	],
	"materials":[
		{
			"name":"CAFE \u2022 Red paint",
			"pbrMetallicRoughness":{
				"baseColorFactor":[
					0.3799999952316284,
					0.017999999225139618,
					0.012000000104308128,
					1
				],
				"metallicFactor":0,
				"roughnessFactor":0.47999998927116394
			}
		},
		{
			"name":"CAFE \u2022 Printed details",
			"pbrMetallicRoughness":{
				"baseColorTexture":{
					"index":0
				},
				"metallicFactor":0,
				"roughnessFactor":0.800000011920929
			}
		}
	],
	"meshes":[
		{
			"name":"Fire_Extinguisher_Sign_Mesh.001",
			"primitives":[
				{
					"attributes":{
						"POSITION":0,
						"NORMAL":1,
						"TEXCOORD_0":2,
						"TANGENT":3
					},
					"indices":4,
					"material":0
				},
				{
					"attributes":{
						"POSITION":5,
						"NORMAL":6,
						"TEXCOORD_0":7,
						"TANGENT":8
					},
					"indices":9,
					"material":1
				}
			]
		}
	],
	"textures":[
		{
			"sampler":0,
			"source":0
		}
	],
	"images":[
		{
			"mimeType":"image/png",
			"name":"printed_details_basecolor",
			"uri":"textures/printed_details_basecolor.png"
		}
	],
	"accessors":[
		{
			"bufferView":0,
			"componentType":5126,
			"count":96,
			"max":[
				0.09000000357627869,
				0.23999999463558197,
				0.007000000216066837
			],
			"min":[
				-0.09000000357627869,
				0,
				-0.007000000216066837
			],
			"type":"VEC3"
		},
		{
			"bufferView":1,
			"componentType":5126,
			"count":96,
			"type":"VEC3"
		},
		{
			"bufferView":2,
			"componentType":5126,
			"count":96,
			"type":"VEC2"
		},
		{
			"bufferView":3,
			"componentType":5126,
			"count":96,
			"type":"VEC4"
		},
		{
			"bufferView":4,
			"componentType":5123,
			"count":324,
			"type":"SCALAR"
		},
		{
			"bufferView":5,
			"componentType":5126,
			"count":13,
			"max":[
				0.08399999886751175,
				0.23249998688697815,
				0.008150000125169754
			],
			"min":[
				-0.08399999886751175,
				0.007500000298023224,
				0.006649999879300594
			],
			"type":"VEC3"
		},
		{
			"bufferView":6,
			"componentType":5126,
			"count":13,
			"type":"VEC3"
		},
		{
			"bufferView":7,
			"componentType":5126,
			"count":13,
			"type":"VEC2"
		},
		{
			"bufferView":8,
			"componentType":5126,
			"count":13,
			"type":"VEC4"
		},
		{
			"bufferView":9,
			"componentType":5123,
			"count":36,
			"type":"SCALAR"
		}
	],
	"bufferViews":[
		{
			"buffer":0,
			"byteLength":1152,
			"byteOffset":0,
			"target":34962
		},
		{
			"buffer":0,
			"byteLength":1152,
			"byteOffset":1152,
			"target":34962
		},
		{
			"buffer":0,
			"byteLength":768,
			"byteOffset":2304,
			"target":34962
		},
		{
			"buffer":0,
			"byteLength":1536,
			"byteOffset":3072,
			"target":34962
		},
		{
			"buffer":0,
			"byteLength":648,
			"byteOffset":4608,
			"target":34963
		},
		{
			"buffer":0,
			"byteLength":156,
			"byteOffset":5256,
			"target":34962
		},
		{
			"buffer":0,
			"byteLength":156,
			"byteOffset":5412,
			"target":34962
		},
		{
			"buffer":0,
			"byteLength":104,
			"byteOffset":5568,
			"target":34962
		},
		{
			"buffer":0,
			"byteLength":208,
			"byteOffset":5672,
			"target":34962
		},
		{
			"buffer":0,
			"byteLength":72,
			"byteOffset":5880,
			"target":34963
		}
	],
	"samplers":[
		{
			"magFilter":9729,
			"minFilter":9987
		}
	],
	"buffers":[
		{
			"byteLength":5952,
			"uri":"Fire_Extinguisher_Sign.bin"
		}
	]
}
