{
	"asset":{
		"generator":"Khronos glTF Blender I/O v5.2.39",
		"version":"2.0"
	},
	"scene":0,
	"scenes":[
		{
			"name":"CAFETERIA \u2022 Reference scene",
			"nodes":[
				0
			]
		}
	],
	"nodes":[
		{
			"extras":{
				"asset_id":"Gooseneck_Microphone",
				"units":"meters",
				"front_axis_blender":"-Y",
				"pivot":"bottom center"
			},
			"mesh":0,
			"name":"Gooseneck_Microphone_Export"
		}
	],
	"materials":[
		{
			"name":"CAFE \u2022 Rubber",
			"pbrMetallicRoughness":{
				"baseColorFactor":[
					0.014999999664723873,
					0.01899999938905239,
					0.01600000075995922,
					1
				],
				"metallicFactor":0,
				"roughnessFactor":0.800000011920929
			}
		},
		{
			"name":"CAFE \u2022 Steel",
			"normalTexture":{
				"index":0
			},
			"pbrMetallicRoughness":{
				"baseColorTexture":{
					"index":1
				},
				"metallicRoughnessTexture":{
					"index":2
				}
			}
		}
	],
	"meshes":[
		{
			"name":"Gooseneck_Microphone_Mesh.001",
			"primitives":[
				{
					"attributes":{
						"POSITION":0,
						"NORMAL":1,
						"TEXCOORD_0":2,
						"TANGENT":3
					},
					"indices":4,
					"material":0
				},
				{
					"attributes":{
						"POSITION":5,
						"NORMAL":6,
						"TEXCOORD_0":7,
						"TANGENT":8
					},
					"indices":9,
					"material":1
				}
			]
		}
	],
	"textures":[
		{
			"sampler":0,
			"source":0
		},
		{
			"sampler":0,
			"source":1
		},
		{
			"sampler":0,
			"source":2
		}
	],
	"images":[
		{
			"mimeType":"image/png",
			"name":"cafeteria_steel_used_normal_opengl",
			"uri":"textures/cafeteria_steel_used_normal_opengl.png"
		},
		{
			"mimeType":"image/png",
			"name":"cafeteria_steel_used_basecolor",
			"uri":"textures/cafeteria_steel_used_basecolor.png"
		},
		{
			"mimeType":"image/png",
			"name":"cafeteria_steel_used_orm",
			"uri":"textures/cafeteria_steel_used_orm.png"
		}
	],
	"accessors":[
		{
			"bufferView":0,
			"componentType":5126,
			"count":338,
			"max":[
				0.03799999877810478,
				0.3161948025226593,
				0.1879972219467163
			],
			"min":[
				-0.03799999877810478,
				0,
				-0.03799999877810478
			],
			"type":"VEC3"
		},
		{
			"bufferView":1,
			"componentType":5126,
			"count":338,
			"type":"VEC3"
		},
		{
			"bufferView":2,
			"componentType":5126,
			"count":338,
			"type":"VEC2"
		},
		{
			"bufferView":3,
			"componentType":5126,
			"count":338,
			"type":"VEC4"
		},
		{
			"bufferView":4,
			"componentType":5123,
			"count":1092,
			"type":"SCALAR"
		},
		{
			"bufferView":5,
			"componentType":5126,
			"count":176,
			"max":[
				0.013000000268220901,
				0.31155887246131897,
				0.17870178818702698
			],
			"min":[
				-0.013000000268220901,
				0.017000000923871994,
				-0.013000000268220901
			],
			"type":"VEC3"
		},
		{
			"bufferView":6,
			"componentType":5126,
			"count":176,
			"type":"VEC3"
		},
		{
			"bufferView":7,
			"componentType":5126,
			"count":176,
			"type":"VEC2"
		},
		{
			"bufferView":8,
			"componentType":5126,
			"count":176,
			"type":"VEC4"
		},
		{
			"bufferView":9,
			"componentType":5123,
			"count":552,
			"type":"SCALAR"
		}
	],
	"bufferViews":[
		{
			"buffer":0,
			"byteLength":4056,
			"byteOffset":0,
			"target":34962
		},
		{
			"buffer":0,
			"byteLength":4056,
			"byteOffset":4056,
			"target":34962
		},
		{
			"buffer":0,
			"byteLength":2704,
			"byteOffset":8112,
			"target":34962
		},
		{
			"buffer":0,
			"byteLength":5408,
			"byteOffset":10816,
			"target":34962
		},
		{
			"buffer":0,
			"byteLength":2184,
			"byteOffset":16224,
			"target":34963
		},
		{
			"buffer":0,
			"byteLength":2112,
			"byteOffset":18408,
			"target":34962
		},
		{
			"buffer":0,
			"byteLength":2112,
			"byteOffset":20520,
			"target":34962
		},
		{
			"buffer":0,
			"byteLength":1408,
			"byteOffset":22632,
			"target":34962
		},
		{
			"buffer":0,
			"byteLength":2816,
			"byteOffset":24040,
			"target":34962
		},
		{
			"buffer":0,
			"byteLength":1104,
			"byteOffset":26856,
			"target":34963
		}
	],
	"samplers":[
		{
			"magFilter":9729,
			"minFilter":9987
		}
	],
	"buffers":[
		{
			"byteLength":27960,
			"uri":"Gooseneck_Microphone.bin"
		}
	]
}
