{
	"asset":{
		"generator":"Khronos glTF Blender I/O v5.2.39",
		"version":"2.0"
	},
	"scene":0,
	"scenes":[
		{
			"name":"CAFETERIA \u2022 Reference scene",
			"nodes":[
				0
			]
		}
	],
	"nodes":[
		{
			"extras":{
				"asset_id":"Lectern_Wood",
				"units":"meters",
				"front_axis_blender":"-Y",
				"pivot":"bottom center"
			},
			"mesh":0,
			"name":"Lectern_Wood_Export"
		}
	],
	"materials":[
		{
			"name":"CAFE \u2022 Wood",
			"normalTexture":{
				"index":0
			},
			"pbrMetallicRoughness":{
				"baseColorTexture":{
					"index":1
				},
				"metallicRoughnessTexture":{
					"index":2
				}
			}
		},
		{
			"name":"CAFE \u2022 Rubber",
			"pbrMetallicRoughness":{
				"baseColorFactor":[
					0.014999999664723873,
					0.01899999938905239,
					0.01600000075995922,
					1
				],
				"metallicFactor":0,
				"roughnessFactor":0.800000011920929
			}
		}
	],
	"meshes":[
		{
			"name":"Lectern_Wood_Mesh.001",
			"primitives":[
				{
					"attributes":{
						"POSITION":0,
						"NORMAL":1,
						"TEXCOORD_0":2,
						"TANGENT":3
					},
					"indices":4,
					"material":0
				},
				{
					"attributes":{
						"POSITION":5,
						"NORMAL":6,
						"TEXCOORD_0":7,
						"TANGENT":8
					},
					"indices":9,
					"material":1
				}
			]
		}
	],
	"textures":[
		{
			"sampler":0,
			"source":0
		},
		{
			"sampler":0,
			"source":1
		},
		{
			"sampler":0,
			"source":2
		}
	],
	"images":[
		{
			"mimeType":"image/png",
			"name":"cafeteria_walnut_used_normal_opengl",
			"uri":"textures/cafeteria_walnut_used_normal_opengl.png"
		},
		{
			"mimeType":"image/png",
			"name":"cafeteria_walnut_used_basecolor",
			"uri":"textures/cafeteria_walnut_used_basecolor.png"
		},
		{
			"mimeType":"image/png",
			"name":"cafeteria_walnut_used_orm",
			"uri":"textures/cafeteria_walnut_used_orm.png"
		}
	],
	"accessors":[
		{
			"bufferView":0,
			"componentType":5126,
			"count":776,
			"max":[
				0.3199999928474426,
				1.1686697006225586,
				0.253386527299881
			],
			"min":[
				-0.3199999928474426,
				0.00800000037997961,
				-0.253386527299881
			],
			"type":"VEC3"
		},
		{
			"bufferView":1,
			"componentType":5126,
			"count":776,
			"type":"VEC3"
		},
		{
			"bufferView":2,
			"componentType":5126,
			"count":776,
			"type":"VEC2"
		},
		{
			"bufferView":3,
			"componentType":5126,
			"count":776,
			"type":"VEC4"
		},
		{
			"bufferView":4,
			"componentType":5123,
			"count":2412,
			"type":"SCALAR"
		},
		{
			"bufferView":5,
			"componentType":5126,
			"count":48,
			"max":[
				0.27000001072883606,
				0.013999998569488525,
				0.20000000298023224
			],
			"min":[
				-0.27000001072883606,
				0,
				-0.20000000298023224
			],
			"type":"VEC3"
		},
		{
			"bufferView":6,
			"componentType":5126,
			"count":48,
			"type":"VEC3"
		},
		{
			"bufferView":7,
			"componentType":5126,
			"count":48,
			"type":"VEC2"
		},
		{
			"bufferView":8,
			"componentType":5126,
			"count":48,
			"type":"VEC4"
		},
		{
			"bufferView":9,
			"componentType":5123,
			"count":132,
			"type":"SCALAR"
		}
	],
	"bufferViews":[
		{
			"buffer":0,
			"byteLength":9312,
			"byteOffset":0,
			"target":34962
		},
		{
			"buffer":0,
			"byteLength":9312,
			"byteOffset":9312,
			"target":34962
		},
		{
			"buffer":0,
			"byteLength":6208,
			"byteOffset":18624,
			"target":34962
		},
		{
			"buffer":0,
			"byteLength":12416,
			"byteOffset":24832,
			"target":34962
		},
		{
			"buffer":0,
			"byteLength":4824,
			"byteOffset":37248,
			"target":34963
		},
		{
			"buffer":0,
			"byteLength":576,
			"byteOffset":42072,
			"target":34962
		},
		{
			"buffer":0,
			"byteLength":576,
			"byteOffset":42648,
			"target":34962
		},
		{
			"buffer":0,
			"byteLength":384,
			"byteOffset":43224,
			"target":34962
		},
		{
			"buffer":0,
			"byteLength":768,
			"byteOffset":43608,
			"target":34962
		},
		{
			"buffer":0,
			"byteLength":264,
			"byteOffset":44376,
			"target":34963
		}
	],
	"samplers":[
		{
			"magFilter":9729,
			"minFilter":9987
		}
	],
	"buffers":[
		{
			"byteLength":44640,
			"uri":"Lectern_Wood.bin"
		}
	]
}
