{
	"asset":{
		"generator":"Khronos glTF Blender I/O v5.2.39",
		"version":"2.0"
	},
	"scene":0,
	"scenes":[
		{
			"name":"CAFETERIA \u2022 Reference scene",
			"nodes":[
				0
			]
		}
	],
	"nodes":[
		{
			"extras":{
				"asset_id":"Napkin_Holder",
				"units":"meters",
				"front_axis_blender":"-Y",
				"pivot":"bottom center"
			},
			"mesh":0,
			"name":"Napkin_Holder_Export"
		}
	],
	"materials":[
		{
			"name":"CAFE \u2022 Steel",
			"normalTexture":{
				"index":0
			},
			"pbrMetallicRoughness":{
				"baseColorTexture":{
					"index":1
				},
				"metallicRoughnessTexture":{
					"index":2
				}
			}
		},
		{
			"name":"CAFE \u2022 Paper",
			"pbrMetallicRoughness":{
				"baseColorFactor":[
					0.7200000286102295,
					0.6800000071525574,
					0.5699999928474426,
					1
				],
				"metallicFactor":0,
				"roughnessFactor":0.8199999928474426
			}
		},
		{
			"name":"CAFE \u2022 Ivory",
			"pbrMetallicRoughness":{
				"baseColorFactor":[
					0.7599999904632568,
					0.7300000190734863,
					0.6299999952316284,
					1
				],
				"metallicFactor":0,
				"roughnessFactor":0.3199999928474426
			}
		}
	],
	"meshes":[
		{
			"name":"Napkin_Holder_Mesh.001",
			"primitives":[
				{
					"attributes":{
						"POSITION":0,
						"NORMAL":1,
						"TEXCOORD_0":2,
						"TANGENT":3
					},
					"indices":4,
					"material":0
				},
				{
					"attributes":{
						"POSITION":5,
						"NORMAL":6,
						"TEXCOORD_0":7,
						"TANGENT":8
					},
					"indices":9,
					"material":1
				},
				{
					"attributes":{
						"POSITION":10,
						"NORMAL":11,
						"TEXCOORD_0":12,
						"TANGENT":13
					},
					"indices":14,
					"material":2
				}
			]
		}
	],
	"textures":[
		{
			"sampler":0,
			"source":0
		},
		{
			"sampler":0,
			"source":1
		},
		{
			"sampler":0,
			"source":2
		}
	],
	"images":[
		{
			"mimeType":"image/png",
			"name":"cafeteria_steel_used_normal_opengl",
			"uri":"textures/cafeteria_steel_used_normal_opengl.png"
		},
		{
			"mimeType":"image/png",
			"name":"cafeteria_steel_used_basecolor",
			"uri":"textures/cafeteria_steel_used_basecolor.png"
		},
		{
			"mimeType":"image/png",
			"name":"cafeteria_steel_used_orm",
			"uri":"textures/cafeteria_steel_used_orm.png"
		}
	],
	"accessors":[
		{
			"bufferView":0,
			"componentType":5126,
			"count":288,
			"max":[
				0.057500001043081284,
				0.0925000011920929,
				0.041999999433755875
			],
			"min":[
				-0.057500001043081284,
				0,
				-0.041999999433755875
			],
			"type":"VEC3"
		},
		{
			"bufferView":1,
			"componentType":5126,
			"count":288,
			"type":"VEC3"
		},
		{
			"bufferView":2,
			"componentType":5126,
			"count":288,
			"type":"VEC2"
		},
		{
			"bufferView":3,
			"componentType":5126,
			"count":288,
			"type":"VEC4"
		},
		{
			"bufferView":4,
			"componentType":5123,
			"count":972,
			"type":"SCALAR"
		},
		{
			"bufferView":5,
			"componentType":5126,
			"count":48,
			"max":[
				0.05000000074505806,
				0.10199999809265137,
				0.026000000536441803
			],
			"min":[
				-0.05000000074505806,
				0.006000000052154064,
				-0.026000000536441803
			],
			"type":"VEC3"
		},
		{
			"bufferView":6,
			"componentType":5126,
			"count":48,
			"type":"VEC3"
		},
		{
			"bufferView":7,
			"componentType":5126,
			"count":48,
			"type":"VEC2"
		},
		{
			"bufferView":8,
			"componentType":5126,
			"count":48,
			"type":"VEC4"
		},
		{
			"bufferView":9,
			"componentType":5123,
			"count":132,
			"type":"SCALAR"
		},
		{
			"bufferView":10,
			"componentType":5126,
			"count":240,
			"max":[
				0.048500001430511475,
				0.10450000315904617,
				0.01849999837577343
			],
			"min":[
				-0.048500001430511475,
				0.1014999970793724,
				-0.01849999837577343
			],
			"type":"VEC3"
		},
		{
			"bufferView":11,
			"componentType":5126,
			"count":240,
			"type":"VEC3"
		},
		{
			"bufferView":12,
			"componentType":5126,
			"count":240,
			"type":"VEC2"
		},
		{
			"bufferView":13,
			"componentType":5126,
			"count":240,
			"type":"VEC4"
		},
		{
			"bufferView":14,
			"componentType":5123,
			"count":660,
			"type":"SCALAR"
		}
	],
	"bufferViews":[
		{
			"buffer":0,
			"byteLength":3456,
			"byteOffset":0,
			"target":34962
		},
		{
			"buffer":0,
			"byteLength":3456,
			"byteOffset":3456,
			"target":34962
		},
		{
			"buffer":0,
			"byteLength":2304,
			"byteOffset":6912,
			"target":34962
		},
		{
			"buffer":0,
			"byteLength":4608,
			"byteOffset":9216,
			"target":34962
		},
		{
			"buffer":0,
			"byteLength":1944,
			"byteOffset":13824,
			"target":34963
		},
		{
			"buffer":0,
			"byteLength":576,
			"byteOffset":15768,
			"target":34962
		},
		{
			"buffer":0,
			"byteLength":576,
			"byteOffset":16344,
			"target":34962
		},
		{
			"buffer":0,
			"byteLength":384,
			"byteOffset":16920,
			"target":34962
		},
		{
			"buffer":0,
			"byteLength":768,
			"byteOffset":17304,
			"target":34962
		},
		{
			"buffer":0,
			"byteLength":264,
			"byteOffset":18072,
			"target":34963
		},
		{
			"buffer":0,
			"byteLength":2880,
			"byteOffset":18336,
			"target":34962
		},
		{
			"buffer":0,
			"byteLength":2880,
			"byteOffset":21216,
			"target":34962
		},
		{
			"buffer":0,
			"byteLength":1920,
			"byteOffset":24096,
			"target":34962
		},
		{
			"buffer":0,
			"byteLength":3840,
			"byteOffset":26016,
			"target":34962
		},
		{
			"buffer":0,
			"byteLength":1320,
			"byteOffset":29856,
			"target":34963
		}
	],
	"samplers":[
		{
			"magFilter":9729,
			"minFilter":9987
		}
	],
	"buffers":[
		{
			"byteLength":31176,
			"uri":"Napkin_Holder.bin"
		}
	]
}
