{
	"asset":{
		"generator":"Khronos glTF Blender I/O v5.2.39",
		"version":"2.0"
	},
	"scene":0,
	"scenes":[
		{
			"name":"CAFETERIA \u2022 Reference scene",
			"nodes":[
				0
			]
		}
	],
	"nodes":[
		{
			"extras":{
				"asset_id":"Newspaper_Folded",
				"units":"meters",
				"front_axis_blender":"-Y",
				"pivot":"bottom center"
			},
			"mesh":0,
			"name":"Newspaper_Folded_Export"
		}
	],
	"materials":[
		{
			"name":"CAFE \u2022 Paper",
			"pbrMetallicRoughness":{
				"baseColorFactor":[
					0.7200000286102295,
					0.6800000071525574,
					0.5699999928474426,
					1
				],
				"metallicFactor":0,
				"roughnessFactor":0.8199999928474426
			}
		},
		{
			"name":"CAFE \u2022 Printed details",
			"pbrMetallicRoughness":{
				"baseColorTexture":{
					"index":0
				},
				"metallicFactor":0,
				"roughnessFactor":0.800000011920929
			}
		}
	],
	"meshes":[
		{
			"name":"Newspaper_Folded_Mesh.001",
			"primitives":[
				{
					"attributes":{
						"POSITION":0,
						"NORMAL":1,
						"TEXCOORD_0":2,
						"TANGENT":3
					},
					"indices":4,
					"material":0
				},
				{
					"attributes":{
						"POSITION":5,
						"NORMAL":6,
						"TEXCOORD_0":7,
						"TANGENT":8
					},
					"indices":9,
					"material":1
				}
			]
		}
	],
	"textures":[
		{
			"sampler":0,
			"source":0
		}
	],
	"images":[
		{
			"mimeType":"image/png",
			"name":"printed_details_basecolor",
			"uri":"textures/printed_details_basecolor.png"
		}
	],
	"accessors":[
		{
			"bufferView":0,
			"componentType":5126,
			"count":96,
			"max":[
				0.14249999821186066,
				0.00800000037997961,
				0.10249999910593033
			],
			"min":[
				-0.14249999821186066,
				0,
				-0.10249999910593033
			],
			"type":"VEC3"
		},
		{
			"bufferView":1,
			"componentType":5126,
			"count":96,
			"type":"VEC3"
		},
		{
			"bufferView":2,
			"componentType":5126,
			"count":96,
			"type":"VEC2"
		},
		{
			"bufferView":3,
			"componentType":5126,
			"count":96,
			"type":"VEC4"
		},
		{
			"bufferView":4,
			"componentType":5123,
			"count":324,
			"type":"SCALAR"
		},
		{
			"bufferView":5,
			"componentType":5126,
			"count":13,
			"max":[
				0.14100000262260437,
				0.00860000029206276,
				0.10100000351667404
			],
			"min":[
				-0.14100000262260437,
				0.0074000004678964615,
				-0.10100000351667404
			],
			"type":"VEC3"
		},
		{
			"bufferView":6,
			"componentType":5126,
			"count":13,
			"type":"VEC3"
		},
		{
			"bufferView":7,
			"componentType":5126,
			"count":13,
			"type":"VEC2"
		},
		{
			"bufferView":8,
			"componentType":5126,
			"count":13,
			"type":"VEC4"
		},
		{
			"bufferView":9,
			"componentType":5123,
			"count":36,
			"type":"SCALAR"
		}
	],
	"bufferViews":[
		{
			"buffer":0,
			"byteLength":1152,
			"byteOffset":0,
			"target":34962
		},
		{
			"buffer":0,
			"byteLength":1152,
			"byteOffset":1152,
			"target":34962
		},
		{
			"buffer":0,
			"byteLength":768,
			"byteOffset":2304,
			"target":34962
		},
		{
			"buffer":0,
			"byteLength":1536,
			"byteOffset":3072,
			"target":34962
		},
		{
			"buffer":0,
			"byteLength":648,
			"byteOffset":4608,
			"target":34963
		},
		{
			"buffer":0,
			"byteLength":156,
			"byteOffset":5256,
			"target":34962
		},
		{
			"buffer":0,
			"byteLength":156,
			"byteOffset":5412,
			"target":34962
		},
		{
			"buffer":0,
			"byteLength":104,
			"byteOffset":5568,
			"target":34962
		},
		{
			"buffer":0,
			"byteLength":208,
			"byteOffset":5672,
			"target":34962
		},
		{
			"buffer":0,
			"byteLength":72,
			"byteOffset":5880,
			"target":34963
		}
	],
	"samplers":[
		{
			"magFilter":9729,
			"minFilter":9987
		}
	],
	"buffers":[
		{
			"byteLength":5952,
			"uri":"Newspaper_Folded.bin"
		}
	]
}
