{
	"asset":{
		"generator":"Khronos glTF Blender I/O v5.2.39",
		"version":"2.0"
	},
	"scene":0,
	"scenes":[
		{
			"name":"CAFETERIA \u2022 Reference scene",
			"nodes":[
				0
			]
		}
	],
	"nodes":[
		{
			"extras":{
				"asset_id":"Noticeboard_Wall",
				"units":"meters",
				"front_axis_blender":"-Y",
				"pivot":"bottom center"
			},
			"mesh":0,
			"name":"Noticeboard_Wall_Export"
		}
	],
	"materials":[
		{
			"name":"CAFE \u2022 Wood",
			"normalTexture":{
				"index":0
			},
			"pbrMetallicRoughness":{
				"baseColorTexture":{
					"index":1
				},
				"metallicRoughnessTexture":{
					"index":2
				}
			}
		},
		{
			"name":"CAFE \u2022 Cork",
			"normalTexture":{
				"index":3
			},
			"pbrMetallicRoughness":{
				"baseColorTexture":{
					"index":4
				},
				"metallicRoughnessTexture":{
					"index":5
				}
			}
		},
		{
			"name":"CAFE \u2022 Printed details",
			"pbrMetallicRoughness":{
				"baseColorTexture":{
					"index":6
				},
				"metallicFactor":0,
				"roughnessFactor":0.800000011920929
			}
		},
		{
			"name":"CAFE \u2022 Steel",
			"normalTexture":{
				"index":7
			},
			"pbrMetallicRoughness":{
				"baseColorTexture":{
					"index":8
				},
				"metallicRoughnessTexture":{
					"index":9
				}
			}
		},
		{
			"name":"CAFE \u2022 Red paint",
			"pbrMetallicRoughness":{
				"baseColorFactor":[
					0.3799999952316284,
					0.017999999225139618,
					0.012000000104308128,
					1
				],
				"metallicFactor":0,
				"roughnessFactor":0.47999998927116394
			}
		}
	],
	"meshes":[
		{
			"name":"Noticeboard_Wall_Mesh.001",
			"primitives":[
				{
					"attributes":{
						"POSITION":0,
						"NORMAL":1,
						"TEXCOORD_0":2,
						"TANGENT":3
					},
					"indices":4,
					"material":0
				},
				{
					"attributes":{
						"POSITION":5,
						"NORMAL":6,
						"TEXCOORD_0":7,
						"TANGENT":8
					},
					"indices":9,
					"material":1
				},
				{
					"attributes":{
						"POSITION":10,
						"NORMAL":11,
						"TEXCOORD_0":12,
						"TANGENT":13
					},
					"indices":14,
					"material":2
				},
				{
					"attributes":{
						"POSITION":15,
						"NORMAL":16,
						"TEXCOORD_0":17,
						"TANGENT":18
					},
					"indices":19,
					"material":3
				},
				{
					"attributes":{
						"POSITION":20,
						"NORMAL":21,
						"TEXCOORD_0":22,
						"TANGENT":23
					},
					"indices":24,
					"material":4
				}
			]
		}
	],
	"textures":[
		{
			"sampler":0,
			"source":0
		},
		{
			"sampler":0,
			"source":1
		},
		{
			"sampler":0,
			"source":2
		},
		{
			"sampler":0,
			"source":3
		},
		{
			"sampler":0,
			"source":4
		},
		{
			"sampler":0,
			"source":5
		},
		{
			"sampler":0,
			"source":6
		},
		{
			"sampler":0,
			"source":7
		},
		{
			"sampler":0,
			"source":8
		},
		{
			"sampler":0,
			"source":9
		}
	],
	"images":[
		{
			"mimeType":"image/png",
			"name":"cafeteria_walnut_used_normal_opengl",
			"uri":"textures/cafeteria_walnut_used_normal_opengl.png"
		},
		{
			"mimeType":"image/png",
			"name":"cafeteria_walnut_used_basecolor",
			"uri":"textures/cafeteria_walnut_used_basecolor.png"
		},
		{
			"mimeType":"image/png",
			"name":"cafeteria_walnut_used_orm",
			"uri":"textures/cafeteria_walnut_used_orm.png"
		},
		{
			"mimeType":"image/png",
			"name":"cafeteria_cork_normal_opengl",
			"uri":"textures/cafeteria_cork_normal_opengl.png"
		},
		{
			"mimeType":"image/png",
			"name":"cafeteria_cork_basecolor",
			"uri":"textures/cafeteria_cork_basecolor.png"
		},
		{
			"mimeType":"image/png",
			"name":"cafeteria_cork_orm",
			"uri":"textures/cafeteria_cork_orm.png"
		},
		{
			"mimeType":"image/png",
			"name":"printed_details_basecolor",
			"uri":"textures/printed_details_basecolor.png"
		},
		{
			"mimeType":"image/png",
			"name":"cafeteria_steel_used_normal_opengl",
			"uri":"textures/cafeteria_steel_used_normal_opengl.png"
		},
		{
			"mimeType":"image/png",
			"name":"cafeteria_steel_used_basecolor",
			"uri":"textures/cafeteria_steel_used_basecolor.png"
		},
		{
			"mimeType":"image/png",
			"name":"cafeteria_steel_used_orm",
			"uri":"textures/cafeteria_steel_used_orm.png"
		}
	],
	"accessors":[
		{
			"bufferView":0,
			"componentType":5126,
			"count":48,
			"max":[
				0.46000000834465027,
				0.6899999976158142,
				0.02100001461803913
			],
			"min":[
				-0.46000000834465027,
				0,
				-0.012000015005469322
			],
			"type":"VEC3"
		},
		{
			"bufferView":1,
			"componentType":5126,
			"count":48,
			"type":"VEC3"
		},
		{
			"bufferView":2,
			"componentType":5126,
			"count":48,
			"type":"VEC2"
		},
		{
			"bufferView":3,
			"componentType":5126,
			"count":48,
			"type":"VEC4"
		},
		{
			"bufferView":4,
			"componentType":5123,
			"count":96,
			"type":"SCALAR"
		},
		{
			"bufferView":5,
			"componentType":5126,
			"count":48,
			"max":[
				0.43799999356269836,
				0.6679999828338623,
				0.008999999612569809
			],
			"min":[
				-0.43799999356269836,
				0.021999984979629517,
				-0.013000000268220901
			],
			"type":"VEC3"
		},
		{
			"bufferView":6,
			"componentType":5126,
			"count":48,
			"type":"VEC3"
		},
		{
			"bufferView":7,
			"componentType":5126,
			"count":48,
			"type":"VEC2"
		},
		{
			"bufferView":8,
			"componentType":5126,
			"count":48,
			"type":"VEC4"
		},
		{
			"bufferView":9,
			"componentType":5123,
			"count":132,
			"type":"SCALAR"
		},
		{
			"bufferView":10,
			"componentType":5126,
			"count":76,
			"max":[
				0.3479999899864197,
				0.5885000228881836,
				0.011050000786781311
			],
			"min":[
				-0.3474999964237213,
				0.08700001239776611,
				0.009549999609589577
			],
			"type":"VEC3"
		},
		{
			"bufferView":11,
			"componentType":5126,
			"count":76,
			"type":"VEC3"
		},
		{
			"bufferView":12,
			"componentType":5126,
			"count":76,
			"type":"VEC2"
		},
		{
			"bufferView":13,
			"componentType":5126,
			"count":76,
			"type":"VEC4"
		},
		{
			"bufferView":14,
			"componentType":5123,
			"count":144,
			"type":"SCALAR"
		},
		{
			"bufferView":15,
			"componentType":5126,
			"count":160,
			"max":[
				0.25949999690055847,
				0.5770000219345093,
				0.01900000125169754
			],
			"min":[
				-0.24650000035762787,
				0.1784999966621399,
				0.00800000037997961
			],
			"type":"VEC3"
		},
		{
			"bufferView":16,
			"componentType":5126,
			"count":160,
			"type":"VEC3"
		},
		{
			"bufferView":17,
			"componentType":5126,
			"count":160,
			"type":"VEC2"
		},
		{
			"bufferView":18,
			"componentType":5126,
			"count":160,
			"type":"VEC4"
		},
		{
			"bufferView":19,
			"componentType":5123,
			"count":336,
			"type":"SCALAR"
		},
		{
			"bufferView":20,
			"componentType":5126,
			"count":488,
			"max":[
				0.2618042230606079,
				0.5793454647064209,
				0.02199999988079071
			],
			"min":[
				-0.2488042265176773,
				0.1761544942855835,
				0.01799999736249447
			],
			"type":"VEC3"
		},
		{
			"bufferView":21,
			"componentType":5126,
			"count":488,
			"type":"VEC3"
		},
		{
			"bufferView":22,
			"componentType":5126,
			"count":488,
			"type":"VEC2"
		},
		{
			"bufferView":23,
			"componentType":5126,
			"count":488,
			"type":"VEC4"
		},
		{
			"bufferView":24,
			"componentType":5123,
			"count":1392,
			"type":"SCALAR"
		}
	],
	"bufferViews":[
		{
			"buffer":0,
			"byteLength":576,
			"byteOffset":0,
			"target":34962
		},
		{
			"buffer":0,
			"byteLength":576,
			"byteOffset":576,
			"target":34962
		},
		{
			"buffer":0,
			"byteLength":384,
			"byteOffset":1152,
			"target":34962
		},
		{
			"buffer":0,
			"byteLength":768,
			"byteOffset":1536,
			"target":34962
		},
		{
			"buffer":0,
			"byteLength":192,
			"byteOffset":2304,
			"target":34963
		},
		{
			"buffer":0,
			"byteLength":576,
			"byteOffset":2496,
			"target":34962
		},
		{
			"buffer":0,
			"byteLength":576,
			"byteOffset":3072,
			"target":34962
		},
		{
			"buffer":0,
			"byteLength":384,
			"byteOffset":3648,
			"target":34962
		},
		{
			"buffer":0,
			"byteLength":768,
			"byteOffset":4032,
			"target":34962
		},
		{
			"buffer":0,
			"byteLength":264,
			"byteOffset":4800,
			"target":34963
		},
		{
			"buffer":0,
			"byteLength":912,
			"byteOffset":5064,
			"target":34962
		},
		{
			"buffer":0,
			"byteLength":912,
			"byteOffset":5976,
			"target":34962
		},
		{
			"buffer":0,
			"byteLength":608,
			"byteOffset":6888,
			"target":34962
		},
		{
			"buffer":0,
			"byteLength":1216,
			"byteOffset":7496,
			"target":34962
		},
		{
			"buffer":0,
			"byteLength":288,
			"byteOffset":8712,
			"target":34963
		},
		{
			"buffer":0,
			"byteLength":1920,
			"byteOffset":9000,
			"target":34962
		},
		{
			"buffer":0,
			"byteLength":1920,
			"byteOffset":10920,
			"target":34962
		},
		{
			"buffer":0,
			"byteLength":1280,
			"byteOffset":12840,
			"target":34962
		},
		{
			"buffer":0,
			"byteLength":2560,
			"byteOffset":14120,
			"target":34962
		},
		{
			"buffer":0,
			"byteLength":672,
			"byteOffset":16680,
			"target":34963
		},
		{
			"buffer":0,
			"byteLength":5856,
			"byteOffset":17352,
			"target":34962
		},
		{
			"buffer":0,
			"byteLength":5856,
			"byteOffset":23208,
			"target":34962
		},
		{
			"buffer":0,
			"byteLength":3904,
			"byteOffset":29064,
			"target":34962
		},
		{
			"buffer":0,
			"byteLength":7808,
			"byteOffset":32968,
			"target":34962
		},
		{
			"buffer":0,
			"byteLength":2784,
			"byteOffset":40776,
			"target":34963
		}
	],
	"samplers":[
		{
			"magFilter":9729,
			"minFilter":9987
		}
	],
	"buffers":[
		{
			"byteLength":43560,
			"uri":"Noticeboard_Wall.bin"
		}
	]
}
