{
	"asset":{
		"generator":"Khronos glTF Blender I/O v5.2.39",
		"version":"2.0"
	},
	"scene":0,
	"scenes":[
		{
			"name":"CAFETERIA \u2022 Reference scene",
			"nodes":[
				0
			]
		}
	],
	"nodes":[
		{
			"extras":{
				"asset_id":"Painting_Autumn_River",
				"units":"meters",
				"front_axis_blender":"-Y",
				"pivot":"bottom center"
			},
			"mesh":0,
			"name":"Painting_Autumn_River_Export"
		}
	],
	"materials":[
		{
			"name":"CAFE \u2022 Wood",
			"normalTexture":{
				"index":0
			},
			"pbrMetallicRoughness":{
				"baseColorTexture":{
					"index":1
				},
				"metallicRoughnessTexture":{
					"index":2
				}
			}
		},
		{
			"name":"CAFE \u2022 Art",
			"pbrMetallicRoughness":{
				"baseColorTexture":{
					"index":3
				},
				"metallicFactor":0,
				"roughnessFactor":0.800000011920929
			}
		}
	],
	"meshes":[
		{
			"name":"Painting_Autumn_River_Mesh.001",
			"primitives":[
				{
					"attributes":{
						"POSITION":0,
						"NORMAL":1,
						"TEXCOORD_0":2,
						"TANGENT":3
					},
					"indices":4,
					"material":0
				},
				{
					"attributes":{
						"POSITION":5,
						"NORMAL":6,
						"TEXCOORD_0":7,
						"TANGENT":8
					},
					"indices":9,
					"material":1
				}
			]
		}
	],
	"textures":[
		{
			"sampler":0,
			"source":0
		},
		{
			"sampler":0,
			"source":1
		},
		{
			"sampler":0,
			"source":2
		},
		{
			"sampler":0,
			"source":3
		}
	],
	"images":[
		{
			"mimeType":"image/png",
			"name":"cafeteria_walnut_used_normal_opengl",
			"uri":"textures/cafeteria_walnut_used_normal_opengl.png"
		},
		{
			"mimeType":"image/png",
			"name":"cafeteria_walnut_used_basecolor",
			"uri":"textures/cafeteria_walnut_used_basecolor.png"
		},
		{
			"mimeType":"image/png",
			"name":"cafeteria_walnut_used_orm",
			"uri":"textures/cafeteria_walnut_used_orm.png"
		},
		{
			"mimeType":"image/png",
			"name":"landscape_atlas_basecolor",
			"uri":"textures/landscape_atlas_basecolor.png"
		}
	],
	"accessors":[
		{
			"bufferView":0,
			"componentType":5126,
			"count":96,
			"max":[
				0.4000000059604645,
				0.6000000238418579,
				0.021000012755393982
			],
			"min":[
				-0.4000000059604645,
				0,
				-0.017000000923871994
			],
			"type":"VEC3"
		},
		{
			"bufferView":1,
			"componentType":5126,
			"count":96,
			"type":"VEC3"
		},
		{
			"bufferView":2,
			"componentType":5126,
			"count":96,
			"type":"VEC2"
		},
		{
			"bufferView":3,
			"componentType":5126,
			"count":96,
			"type":"VEC4"
		},
		{
			"bufferView":4,
			"componentType":5123,
			"count":228,
			"type":"SCALAR"
		},
		{
			"bufferView":5,
			"componentType":5126,
			"count":13,
			"max":[
				0.3709999918937683,
				0.5709999799728394,
				0.018400000408291817
			],
			"min":[
				-0.3709999918937683,
				0.029000017791986465,
				-0.005600000265985727
			],
			"type":"VEC3"
		},
		{
			"bufferView":6,
			"componentType":5126,
			"count":13,
			"type":"VEC3"
		},
		{
			"bufferView":7,
			"componentType":5126,
			"count":13,
			"type":"VEC2"
		},
		{
			"bufferView":8,
			"componentType":5126,
			"count":13,
			"type":"VEC4"
		},
		{
			"bufferView":9,
			"componentType":5123,
			"count":36,
			"type":"SCALAR"
		}
	],
	"bufferViews":[
		{
			"buffer":0,
			"byteLength":1152,
			"byteOffset":0,
			"target":34962
		},
		{
			"buffer":0,
			"byteLength":1152,
			"byteOffset":1152,
			"target":34962
		},
		{
			"buffer":0,
			"byteLength":768,
			"byteOffset":2304,
			"target":34962
		},
		{
			"buffer":0,
			"byteLength":1536,
			"byteOffset":3072,
			"target":34962
		},
		{
			"buffer":0,
			"byteLength":456,
			"byteOffset":4608,
			"target":34963
		},
		{
			"buffer":0,
			"byteLength":156,
			"byteOffset":5064,
			"target":34962
		},
		{
			"buffer":0,
			"byteLength":156,
			"byteOffset":5220,
			"target":34962
		},
		{
			"buffer":0,
			"byteLength":104,
			"byteOffset":5376,
			"target":34962
		},
		{
			"buffer":0,
			"byteLength":208,
			"byteOffset":5480,
			"target":34962
		},
		{
			"buffer":0,
			"byteLength":72,
			"byteOffset":5688,
			"target":34963
		}
	],
	"samplers":[
		{
			"magFilter":9729,
			"minFilter":9987
		}
	],
	"buffers":[
		{
			"byteLength":5760,
			"uri":"Painting_Autumn_River.bin"
		}
	]
}
