{
	"asset":{
		"generator":"Khronos glTF Blender I/O v5.2.39",
		"version":"2.0"
	},
	"scene":0,
	"scenes":[
		{
			"name":"CAFETERIA \u2022 Reference scene",
			"nodes":[
				0
			]
		}
	],
	"nodes":[
		{
			"extras":{
				"asset_id":"Piano_Bench",
				"units":"meters",
				"front_axis_blender":"-Y",
				"pivot":"bottom center"
			},
			"mesh":0,
			"name":"Piano_Bench_Export"
		}
	],
	"materials":[
		{
			"name":"CAFE \u2022 Wood",
			"normalTexture":{
				"index":0
			},
			"pbrMetallicRoughness":{
				"baseColorTexture":{
					"index":1
				},
				"metallicRoughnessTexture":{
					"index":2
				}
			}
		},
		{
			"name":"CAFE \u2022 Vinyl",
			"normalTexture":{
				"index":3
			},
			"pbrMetallicRoughness":{
				"baseColorTexture":{
					"index":4
				},
				"metallicRoughnessTexture":{
					"index":5
				}
			}
		},
		{
			"name":"CAFE \u2022 Rubber",
			"pbrMetallicRoughness":{
				"baseColorFactor":[
					0.014999999664723873,
					0.01899999938905239,
					0.01600000075995922,
					1
				],
				"metallicFactor":0,
				"roughnessFactor":0.800000011920929
			}
		}
	],
	"meshes":[
		{
			"name":"Piano_Bench_Mesh.001",
			"primitives":[
				{
					"attributes":{
						"POSITION":0,
						"NORMAL":1,
						"TEXCOORD_0":2,
						"TANGENT":3
					},
					"indices":4,
					"material":0
				},
				{
					"attributes":{
						"POSITION":5,
						"NORMAL":6,
						"TEXCOORD_0":7,
						"TANGENT":8
					},
					"indices":9,
					"material":1
				},
				{
					"attributes":{
						"POSITION":10,
						"NORMAL":11,
						"TEXCOORD_0":12,
						"TANGENT":13
					},
					"indices":14,
					"material":2
				}
			]
		}
	],
	"textures":[
		{
			"sampler":0,
			"source":0
		},
		{
			"sampler":0,
			"source":1
		},
		{
			"sampler":0,
			"source":2
		},
		{
			"sampler":0,
			"source":3
		},
		{
			"sampler":0,
			"source":4
		},
		{
			"sampler":0,
			"source":5
		}
	],
	"images":[
		{
			"mimeType":"image/png",
			"name":"cafeteria_walnut_used_normal_opengl",
			"uri":"textures/cafeteria_walnut_used_normal_opengl.png"
		},
		{
			"mimeType":"image/png",
			"name":"cafeteria_walnut_used_basecolor",
			"uri":"textures/cafeteria_walnut_used_basecolor.png"
		},
		{
			"mimeType":"image/png",
			"name":"cafeteria_walnut_used_orm",
			"uri":"textures/cafeteria_walnut_used_orm.png"
		},
		{
			"mimeType":"image/png",
			"name":"cafeteria_olive_vinyl_normal_opengl",
			"uri":"textures/cafeteria_olive_vinyl_normal_opengl.png"
		},
		{
			"mimeType":"image/png",
			"name":"cafeteria_olive_vinyl_basecolor",
			"uri":"textures/cafeteria_olive_vinyl_basecolor.png"
		},
		{
			"mimeType":"image/png",
			"name":"cafeteria_olive_vinyl_orm",
			"uri":"textures/cafeteria_olive_vinyl_orm.png"
		}
	],
	"accessors":[
		{
			"bufferView":0,
			"componentType":5126,
			"count":480,
			"max":[
				0.3499999940395355,
				0.4699999988079071,
				0.16500000655651093
			],
			"min":[
				-0.3499999940395355,
				0.00800000037997961,
				-0.16500000655651093
			],
			"type":"VEC3"
		},
		{
			"bufferView":1,
			"componentType":5126,
			"count":480,
			"type":"VEC3"
		},
		{
			"bufferView":2,
			"componentType":5126,
			"count":480,
			"type":"VEC2"
		},
		{
			"bufferView":3,
			"componentType":5126,
			"count":480,
			"type":"VEC4"
		},
		{
			"bufferView":4,
			"componentType":5123,
			"count":1620,
			"type":"SCALAR"
		},
		{
			"bufferView":5,
			"componentType":5126,
			"count":152,
			"max":[
				0.3700000047683716,
				0.5054999589920044,
				0.1850000023841858
			],
			"min":[
				-0.3700000047683716,
				0.4584999978542328,
				-0.1850000023841858
			],
			"type":"VEC3"
		},
		{
			"bufferView":6,
			"componentType":5126,
			"count":152,
			"type":"VEC3"
		},
		{
			"bufferView":7,
			"componentType":5126,
			"count":152,
			"type":"VEC2"
		},
		{
			"bufferView":8,
			"componentType":5126,
			"count":152,
			"type":"VEC4"
		},
		{
			"bufferView":9,
			"componentType":5123,
			"count":564,
			"type":"SCALAR"
		},
		{
			"bufferView":10,
			"componentType":5126,
			"count":192,
			"max":[
				0.3240000009536743,
				0.015999972820281982,
				0.14500001072883606
			],
			"min":[
				-0.3240000009536743,
				0,
				-0.14500001072883606
			],
			"type":"VEC3"
		},
		{
			"bufferView":11,
			"componentType":5126,
			"count":192,
			"type":"VEC3"
		},
		{
			"bufferView":12,
			"componentType":5126,
			"count":192,
			"type":"VEC2"
		},
		{
			"bufferView":13,
			"componentType":5126,
			"count":192,
			"type":"VEC4"
		},
		{
			"bufferView":14,
			"componentType":5123,
			"count":528,
			"type":"SCALAR"
		}
	],
	"bufferViews":[
		{
			"buffer":0,
			"byteLength":5760,
			"byteOffset":0,
			"target":34962
		},
		{
			"buffer":0,
			"byteLength":5760,
			"byteOffset":5760,
			"target":34962
		},
		{
			"buffer":0,
			"byteLength":3840,
			"byteOffset":11520,
			"target":34962
		},
		{
			"buffer":0,
			"byteLength":7680,
			"byteOffset":15360,
			"target":34962
		},
		{
			"buffer":0,
			"byteLength":3240,
			"byteOffset":23040,
			"target":34963
		},
		{
			"buffer":0,
			"byteLength":1824,
			"byteOffset":26280,
			"target":34962
		},
		{
			"buffer":0,
			"byteLength":1824,
			"byteOffset":28104,
			"target":34962
		},
		{
			"buffer":0,
			"byteLength":1216,
			"byteOffset":29928,
			"target":34962
		},
		{
			"buffer":0,
			"byteLength":2432,
			"byteOffset":31144,
			"target":34962
		},
		{
			"buffer":0,
			"byteLength":1128,
			"byteOffset":33576,
			"target":34963
		},
		{
			"buffer":0,
			"byteLength":2304,
			"byteOffset":34704,
			"target":34962
		},
		{
			"buffer":0,
			"byteLength":2304,
			"byteOffset":37008,
			"target":34962
		},
		{
			"buffer":0,
			"byteLength":1536,
			"byteOffset":39312,
			"target":34962
		},
		{
			"buffer":0,
			"byteLength":3072,
			"byteOffset":40848,
			"target":34962
		},
		{
			"buffer":0,
			"byteLength":1056,
			"byteOffset":43920,
			"target":34963
		}
	],
	"samplers":[
		{
			"magFilter":9729,
			"minFilter":9987
		}
	],
	"buffers":[
		{
			"byteLength":44976,
			"uri":"Piano_Bench.bin"
		}
	]
}
