{
	"asset":{
		"generator":"Khronos glTF Blender I/O v5.2.39",
		"version":"2.0"
	},
	"scene":0,
	"scenes":[
		{
			"name":"CAFETERIA \u2022 Reference scene",
			"nodes":[
				0
			]
		}
	],
	"nodes":[
		{
			"extras":{
				"asset_id":"Salt_Shaker",
				"units":"meters",
				"front_axis_blender":"-Y",
				"pivot":"bottom center"
			},
			"mesh":0,
			"name":"Salt_Shaker_Export"
		}
	],
	"materials":[
		{
			"name":"CAFE \u2022 Ceramic",
			"normalTexture":{
				"index":0
			},
			"pbrMetallicRoughness":{
				"baseColorTexture":{
					"index":1
				},
				"metallicRoughnessTexture":{
					"index":2
				}
			}
		},
		{
			"name":"CAFE \u2022 Steel",
			"normalTexture":{
				"index":3
			},
			"pbrMetallicRoughness":{
				"baseColorTexture":{
					"index":4
				},
				"metallicRoughnessTexture":{
					"index":5
				}
			}
		},
		{
			"name":"CAFE \u2022 Dark recess",
			"pbrMetallicRoughness":{
				"baseColorFactor":[
					0.00800000037997961,
					0.009999999776482582,
					0.008999999612569809,
					1
				],
				"metallicFactor":0,
				"roughnessFactor":0.800000011920929
			}
		}
	],
	"meshes":[
		{
			"name":"Salt_Shaker_Mesh.001",
			"primitives":[
				{
					"attributes":{
						"POSITION":0,
						"NORMAL":1,
						"TEXCOORD_0":2,
						"TANGENT":3
					},
					"indices":4,
					"material":0
				},
				{
					"attributes":{
						"POSITION":5,
						"NORMAL":6,
						"TEXCOORD_0":7,
						"TANGENT":8
					},
					"indices":9,
					"material":1
				},
				{
					"attributes":{
						"POSITION":10,
						"NORMAL":11,
						"TEXCOORD_0":12,
						"TANGENT":13
					},
					"indices":14,
					"material":2
				}
			]
		}
	],
	"textures":[
		{
			"sampler":0,
			"source":0
		},
		{
			"sampler":0,
			"source":1
		},
		{
			"sampler":0,
			"source":2
		},
		{
			"sampler":0,
			"source":3
		},
		{
			"sampler":0,
			"source":4
		},
		{
			"sampler":0,
			"source":5
		}
	],
	"images":[
		{
			"mimeType":"image/png",
			"name":"cafeteria_ceramic_used_normal_opengl",
			"uri":"textures/cafeteria_ceramic_used_normal_opengl.png"
		},
		{
			"mimeType":"image/png",
			"name":"cafeteria_ceramic_used_basecolor",
			"uri":"textures/cafeteria_ceramic_used_basecolor.png"
		},
		{
			"mimeType":"image/png",
			"name":"cafeteria_ceramic_used_orm",
			"uri":"textures/cafeteria_ceramic_used_orm.png"
		},
		{
			"mimeType":"image/png",
			"name":"cafeteria_steel_used_normal_opengl",
			"uri":"textures/cafeteria_steel_used_normal_opengl.png"
		},
		{
			"mimeType":"image/png",
			"name":"cafeteria_steel_used_basecolor",
			"uri":"textures/cafeteria_steel_used_basecolor.png"
		},
		{
			"mimeType":"image/png",
			"name":"cafeteria_steel_used_orm",
			"uri":"textures/cafeteria_steel_used_orm.png"
		}
	],
	"accessors":[
		{
			"bufferView":0,
			"componentType":5126,
			"count":188,
			"max":[
				0.02500000037252903,
				0.07699999958276749,
				0.02500000037252903
			],
			"min":[
				-0.02500000037252903,
				0,
				-0.02500000037252903
			],
			"type":"VEC3"
		},
		{
			"bufferView":1,
			"componentType":5126,
			"count":188,
			"type":"VEC3"
		},
		{
			"bufferView":2,
			"componentType":5126,
			"count":188,
			"type":"VEC2"
		},
		{
			"bufferView":3,
			"componentType":5126,
			"count":188,
			"type":"VEC4"
		},
		{
			"bufferView":4,
			"componentType":5123,
			"count":708,
			"type":"SCALAR"
		},
		{
			"bufferView":5,
			"componentType":5126,
			"count":184,
			"max":[
				0.020999999716877937,
				0.09399999678134918,
				0.020999999716877937
			],
			"min":[
				-0.020999999716877937,
				0.07199999690055847,
				-0.020999999716877937
			],
			"type":"VEC3"
		},
		{
			"bufferView":6,
			"componentType":5126,
			"count":184,
			"type":"VEC3"
		},
		{
			"bufferView":7,
			"componentType":5126,
			"count":184,
			"type":"VEC2"
		},
		{
			"bufferView":8,
			"componentType":5126,
			"count":184,
			"type":"VEC4"
		},
		{
			"bufferView":9,
			"componentType":5123,
			"count":708,
			"type":"SCALAR"
		},
		{
			"bufferView":10,
			"componentType":5126,
			"count":200,
			"max":[
				0.00860000029206276,
				0.09429999440908432,
				0.008257395587861538
			],
			"min":[
				-0.007263118866831064,
				0.09369999915361404,
				-0.008257395587861538
			],
			"type":"VEC3"
		},
		{
			"bufferView":11,
			"componentType":5126,
			"count":200,
			"type":"VEC3"
		},
		{
			"bufferView":12,
			"componentType":5126,
			"count":200,
			"type":"VEC2"
		},
		{
			"bufferView":13,
			"componentType":5126,
			"count":200,
			"type":"VEC4"
		},
		{
			"bufferView":14,
			"componentType":5123,
			"count":420,
			"type":"SCALAR"
		}
	],
	"bufferViews":[
		{
			"buffer":0,
			"byteLength":2256,
			"byteOffset":0,
			"target":34962
		},
		{
			"buffer":0,
			"byteLength":2256,
			"byteOffset":2256,
			"target":34962
		},
		{
			"buffer":0,
			"byteLength":1504,
			"byteOffset":4512,
			"target":34962
		},
		{
			"buffer":0,
			"byteLength":3008,
			"byteOffset":6016,
			"target":34962
		},
		{
			"buffer":0,
			"byteLength":1416,
			"byteOffset":9024,
			"target":34963
		},
		{
			"buffer":0,
			"byteLength":2208,
			"byteOffset":10440,
			"target":34962
		},
		{
			"buffer":0,
			"byteLength":2208,
			"byteOffset":12648,
			"target":34962
		},
		{
			"buffer":0,
			"byteLength":1472,
			"byteOffset":14856,
			"target":34962
		},
		{
			"buffer":0,
			"byteLength":2944,
			"byteOffset":16328,
			"target":34962
		},
		{
			"buffer":0,
			"byteLength":1416,
			"byteOffset":19272,
			"target":34963
		},
		{
			"buffer":0,
			"byteLength":2400,
			"byteOffset":20688,
			"target":34962
		},
		{
			"buffer":0,
			"byteLength":2400,
			"byteOffset":23088,
			"target":34962
		},
		{
			"buffer":0,
			"byteLength":1600,
			"byteOffset":25488,
			"target":34962
		},
		{
			"buffer":0,
			"byteLength":3200,
			"byteOffset":27088,
			"target":34962
		},
		{
			"buffer":0,
			"byteLength":840,
			"byteOffset":30288,
			"target":34963
		}
	],
	"samplers":[
		{
			"magFilter":9729,
			"minFilter":9987
		}
	],
	"buffers":[
		{
			"byteLength":31128,
			"uri":"Salt_Shaker.bin"
		}
	]
}
