{
	"asset":{
		"generator":"Khronos glTF Blender I/O v5.2.39",
		"version":"2.0"
	},
	"scene":0,
	"scenes":[
		{
			"name":"CAFETERIA \u2022 Reference scene",
			"nodes":[
				0
			]
		}
	],
	"nodes":[
		{
			"extras":{
				"asset_id":"Upright_Piano",
				"units":"meters",
				"front_axis_blender":"-Y",
				"pivot":"bottom center"
			},
			"mesh":0,
			"name":"Upright_Piano_Export"
		}
	],
	"materials":[
		{
			"name":"CAFE \u2022 Piano walnut",
			"pbrMetallicRoughness":{
				"baseColorTexture":{
					"index":0
				},
				"metallicFactor":0,
				"roughnessFactor":0.46000000834465027
			}
		},
		{
			"name":"CAFE \u2022 Brass",
			"pbrMetallicRoughness":{
				"baseColorFactor":[
					0.4699999988079071,
					0.28999999165534973,
					0.09000000357627869,
					1
				],
				"metallicFactor":0.699999988079071,
				"roughnessFactor":0.3400000035762787
			}
		},
		{
			"name":"CAFE \u2022 Dark recess",
			"pbrMetallicRoughness":{
				"baseColorFactor":[
					0.00800000037997961,
					0.009999999776482582,
					0.008999999612569809,
					1
				],
				"metallicFactor":0,
				"roughnessFactor":0.800000011920929
			}
		},
		{
			"name":"CAFE \u2022 Ivory",
			"pbrMetallicRoughness":{
				"baseColorFactor":[
					0.7599999904632568,
					0.7300000190734863,
					0.6299999952316284,
					1
				],
				"metallicFactor":0,
				"roughnessFactor":0.3199999928474426
			}
		},
		{
			"name":"CAFE \u2022 Rubber",
			"pbrMetallicRoughness":{
				"baseColorFactor":[
					0.014999999664723873,
					0.01899999938905239,
					0.01600000075995922,
					1
				],
				"metallicFactor":0,
				"roughnessFactor":0.800000011920929
			}
		}
	],
	"meshes":[
		{
			"name":"Upright_Piano_Mesh.002",
			"primitives":[
				{
					"attributes":{
						"POSITION":0,
						"NORMAL":1,
						"TEXCOORD_0":2,
						"TANGENT":3
					},
					"indices":4,
					"material":0
				},
				{
					"attributes":{
						"POSITION":5,
						"NORMAL":6,
						"TEXCOORD_0":7,
						"TANGENT":8
					},
					"indices":9,
					"material":1
				},
				{
					"attributes":{
						"POSITION":10,
						"NORMAL":11,
						"TEXCOORD_0":12,
						"TANGENT":13
					},
					"indices":14,
					"material":2
				},
				{
					"attributes":{
						"POSITION":15,
						"NORMAL":16,
						"TEXCOORD_0":17,
						"TANGENT":18
					},
					"indices":19,
					"material":3
				},
				{
					"attributes":{
						"POSITION":20,
						"NORMAL":21,
						"TEXCOORD_0":22,
						"TANGENT":23
					},
					"indices":24,
					"material":4
				}
			]
		}
	],
	"textures":[
		{
			"sampler":0,
			"source":0
		}
	],
	"images":[
		{
			"mimeType":"image/png",
			"name":"piano_walnut_basecolor",
			"uri":"textures/piano_walnut_basecolor.png"
		}
	],
	"accessors":[
		{
			"bufferView":0,
			"componentType":5126,
			"count":1512,
			"max":[
				0.7400000095367432,
				1.2809998989105225,
				0.4189999997615814
			],
			"min":[
				-0.7400000095367432,
				0,
				-0.34549999237060547
			],
			"type":"VEC3"
		},
		{
			"bufferView":1,
			"componentType":5126,
			"count":1512,
			"type":"VEC3"
		},
		{
			"bufferView":2,
			"componentType":5126,
			"count":1512,
			"type":"VEC2"
		},
		{
			"bufferView":3,
			"componentType":5126,
			"count":1512,
			"type":"VEC4"
		},
		{
			"bufferView":4,
			"componentType":5123,
			"count":5028,
			"type":"SCALAR"
		},
		{
			"bufferView":5,
			"componentType":5126,
			"count":680,
			"max":[
				0.6910000443458557,
				0.12719418108463287,
				0.3500000238418579
			],
			"min":[
				-0.6910000443458557,
				0.0020000040531158447,
				-0.2680000066757202
			],
			"type":"VEC3"
		},
		{
			"bufferView":6,
			"componentType":5126,
			"count":680,
			"type":"VEC3"
		},
		{
			"bufferView":7,
			"componentType":5126,
			"count":680,
			"type":"VEC2"
		},
		{
			"bufferView":8,
			"componentType":5126,
			"count":680,
			"type":"VEC4"
		},
		{
			"bufferView":9,
			"componentType":5123,
			"count":1896,
			"type":"SCALAR"
		},
		{
			"bufferView":10,
			"componentType":5126,
			"count":48,
			"max":[
				0.6140000224113464,
				0.7484999895095825,
				0.38850000500679016
			],
			"min":[
				-0.6140000224113464,
				0.7145000100135803,
				0.23149999976158142
			],
			"type":"VEC3"
		},
		{
			"bufferView":11,
			"componentType":5126,
			"count":48,
			"type":"VEC3"
		},
		{
			"bufferView":12,
			"componentType":5126,
			"count":48,
			"type":"VEC2"
		},
		{
			"bufferView":13,
			"componentType":5126,
			"count":48,
			"type":"VEC4"
		},
		{
			"bufferView":14,
			"componentType":5123,
			"count":132,
			"type":"SCALAR"
		},
		{
			"bufferView":15,
			"componentType":5126,
			"count":2496,
			"max":[
				0.6107000112533569,
				0.7674999833106995,
				0.38499999046325684
			],
			"min":[
				-0.6107000112533569,
				0.7405000329017639,
				0.23499999940395355
			],
			"type":"VEC3"
		},
		{
			"bufferView":16,
			"componentType":5126,
			"count":2496,
			"type":"VEC3"
		},
		{
			"bufferView":17,
			"componentType":5126,
			"count":2496,
			"type":"VEC2"
		},
		{
			"bufferView":18,
			"componentType":5126,
			"count":2496,
			"type":"VEC4"
		},
		{
			"bufferView":19,
			"componentType":5123,
			"count":6864,
			"type":"SCALAR"
		},
		{
			"bufferView":20,
			"componentType":5126,
			"count":1728,
			"max":[
				0.5709325075149536,
				0.7959999442100525,
				0.32999998331069946
			],
			"min":[
				-0.5944324731826782,
				0.7639999985694885,
				0.23680000007152557
			],
			"type":"VEC3"
		},
		{
			"bufferView":21,
			"componentType":5126,
			"count":1728,
			"type":"VEC3"
		},
		{
			"bufferView":22,
			"componentType":5126,
			"count":1728,
			"type":"VEC2"
		},
		{
			"bufferView":23,
			"componentType":5126,
			"count":1728,
			"type":"VEC4"
		},
		{
			"bufferView":24,
			"componentType":5123,
			"count":4752,
			"type":"SCALAR"
		}
	],
	"bufferViews":[
		{
			"buffer":0,
			"byteLength":18144,
			"byteOffset":0,
			"target":34962
		},
		{
			"buffer":0,
			"byteLength":18144,
			"byteOffset":18144,
			"target":34962
		},
		{
			"buffer":0,
			"byteLength":12096,
			"byteOffset":36288,
			"target":34962
		},
		{
			"buffer":0,
			"byteLength":24192,
			"byteOffset":48384,
			"target":34962
		},
		{
			"buffer":0,
			"byteLength":10056,
			"byteOffset":72576,
			"target":34963
		},
		{
			"buffer":0,
			"byteLength":8160,
			"byteOffset":82632,
			"target":34962
		},
		{
			"buffer":0,
			"byteLength":8160,
			"byteOffset":90792,
			"target":34962
		},
		{
			"buffer":0,
			"byteLength":5440,
			"byteOffset":98952,
			"target":34962
		},
		{
			"buffer":0,
			"byteLength":10880,
			"byteOffset":104392,
			"target":34962
		},
		{
			"buffer":0,
			"byteLength":3792,
			"byteOffset":115272,
			"target":34963
		},
		{
			"buffer":0,
			"byteLength":576,
			"byteOffset":119064,
			"target":34962
		},
		{
			"buffer":0,
			"byteLength":576,
			"byteOffset":119640,
			"target":34962
		},
		{
			"buffer":0,
			"byteLength":384,
			"byteOffset":120216,
			"target":34962
		},
		{
			"buffer":0,
			"byteLength":768,
			"byteOffset":120600,
			"target":34962
		},
		{
			"buffer":0,
			"byteLength":264,
			"byteOffset":121368,
			"target":34963
		},
		{
			"buffer":0,
			"byteLength":29952,
			"byteOffset":121632,
			"target":34962
		},
		{
			"buffer":0,
			"byteLength":29952,
			"byteOffset":151584,
			"target":34962
		},
		{
			"buffer":0,
			"byteLength":19968,
			"byteOffset":181536,
			"target":34962
		},
		{
			"buffer":0,
			"byteLength":39936,
			"byteOffset":201504,
			"target":34962
		},
		{
			"buffer":0,
			"byteLength":13728,
			"byteOffset":241440,
			"target":34963
		},
		{
			"buffer":0,
			"byteLength":20736,
			"byteOffset":255168,
			"target":34962
		},
		{
			"buffer":0,
			"byteLength":20736,
			"byteOffset":275904,
			"target":34962
		},
		{
			"buffer":0,
			"byteLength":13824,
			"byteOffset":296640,
			"target":34962
		},
		{
			"buffer":0,
			"byteLength":27648,
			"byteOffset":310464,
			"target":34962
		},
		{
			"buffer":0,
			"byteLength":9504,
			"byteOffset":338112,
			"target":34963
		}
	],
	"samplers":[
		{
			"magFilter":9729,
			"minFilter":9987
		}
	],
	"buffers":[
		{
			"byteLength":347616,
			"uri":"Upright_Piano.bin"
		}
	]
}
