{
	"asset":{
		"generator":"Khronos glTF Blender I/O v5.2.39",
		"version":"2.0"
	},
	"scene":0,
	"scenes":[
		{
			"name":"CAFETERIA \u2022 Reference scene",
			"nodes":[
				0
			]
		}
	],
	"nodes":[
		{
			"extras":{
				"asset_id":"Wall_Clock_360",
				"units":"meters",
				"front_axis_blender":"-Y",
				"pivot":"bottom center"
			},
			"mesh":0,
			"name":"Wall_Clock_360_Export"
		}
	],
	"materials":[
		{
			"name":"CAFE \u2022 Rubber",
			"pbrMetallicRoughness":{
				"baseColorFactor":[
					0.014999999664723873,
					0.01899999938905239,
					0.01600000075995922,
					1
				],
				"metallicFactor":0,
				"roughnessFactor":0.800000011920929
			}
		},
		{
			"name":"CAFE \u2022 Printed details",
			"pbrMetallicRoughness":{
				"baseColorTexture":{
					"index":0
				},
				"metallicFactor":0,
				"roughnessFactor":0.800000011920929
			}
		},
		{
			"name":"CAFE \u2022 Print",
			"pbrMetallicRoughness":{
				"baseColorFactor":[
					0.06499999761581421,
					0.06199999898672104,
					0.05000000074505806,
					1
				],
				"metallicFactor":0,
				"roughnessFactor":0.8600000143051147
			}
		},
		{
			"name":"CAFE \u2022 Steel",
			"normalTexture":{
				"index":1
			},
			"pbrMetallicRoughness":{
				"baseColorTexture":{
					"index":2
				},
				"metallicRoughnessTexture":{
					"index":3
				}
			}
		}
	],
	"meshes":[
		{
			"name":"Wall_Clock_360_Mesh.001",
			"primitives":[
				{
					"attributes":{
						"POSITION":0,
						"NORMAL":1,
						"TEXCOORD_0":2,
						"TANGENT":3
					},
					"indices":4,
					"material":0
				},
				{
					"attributes":{
						"POSITION":5,
						"NORMAL":6,
						"TEXCOORD_0":7,
						"TANGENT":8
					},
					"indices":9,
					"material":1
				},
				{
					"attributes":{
						"POSITION":10,
						"NORMAL":11,
						"TEXCOORD_0":12,
						"TANGENT":13
					},
					"indices":14,
					"material":2
				},
				{
					"attributes":{
						"POSITION":15,
						"NORMAL":16,
						"TEXCOORD_0":17,
						"TANGENT":18
					},
					"indices":19,
					"material":3
				}
			]
		}
	],
	"textures":[
		{
			"sampler":0,
			"source":0
		},
		{
			"sampler":0,
			"source":1
		},
		{
			"sampler":0,
			"source":2
		},
		{
			"sampler":0,
			"source":3
		}
	],
	"images":[
		{
			"mimeType":"image/png",
			"name":"printed_details_basecolor",
			"uri":"textures/printed_details_basecolor.png"
		},
		{
			"mimeType":"image/png",
			"name":"cafeteria_steel_used_normal_opengl",
			"uri":"textures/cafeteria_steel_used_normal_opengl.png"
		},
		{
			"mimeType":"image/png",
			"name":"cafeteria_steel_used_basecolor",
			"uri":"textures/cafeteria_steel_used_basecolor.png"
		},
		{
			"mimeType":"image/png",
			"name":"cafeteria_steel_used_orm",
			"uri":"textures/cafeteria_steel_used_orm.png"
		}
	],
	"accessors":[
		{
			"bufferView":0,
			"componentType":5126,
			"count":296,
			"max":[
				0.1809999942779541,
				0.3619999885559082,
				0.02250000834465027
			],
			"min":[
				-0.1809999942779541,
				0,
				-0.02250000834465027
			],
			"type":"VEC3"
		},
		{
			"bufferView":1,
			"componentType":5126,
			"count":296,
			"type":"VEC3"
		},
		{
			"bufferView":2,
			"componentType":5126,
			"count":296,
			"type":"VEC2"
		},
		{
			"bufferView":3,
			"componentType":5126,
			"count":296,
			"type":"VEC4"
		},
		{
			"bufferView":4,
			"componentType":5123,
			"count":1140,
			"type":"SCALAR"
		},
		{
			"bufferView":5,
			"componentType":5126,
			"count":287,
			"max":[
				0.164000004529953,
				0.3449999988079071,
				0.02900000847876072
			],
			"min":[
				-0.164000004529953,
				0.0169999897480011,
				0.02099999226629734
			],
			"type":"VEC3"
		},
		{
			"bufferView":6,
			"componentType":5126,
			"count":287,
			"type":"VEC3"
		},
		{
			"bufferView":7,
			"componentType":5126,
			"count":287,
			"type":"VEC2"
		},
		{
			"bufferView":8,
			"componentType":5126,
			"count":287,
			"type":"VEC4"
		},
		{
			"bufferView":9,
			"componentType":5123,
			"count":1140,
			"type":"SCALAR"
		},
		{
			"bufferView":10,
			"componentType":5126,
			"count":80,
			"max":[
				0.12099401652812958,
				0.2352938950061798,
				0.03850000724196434
			],
			"min":[
				-0.07392330467700958,
				0.1781052052974701,
				0.02850000001490116
			],
			"type":"VEC3"
		},
		{
			"bufferView":11,
			"componentType":5126,
			"count":80,
			"type":"VEC3"
		},
		{
			"bufferView":12,
			"componentType":5126,
			"count":80,
			"type":"VEC2"
		},
		{
			"bufferView":13,
			"componentType":5126,
			"count":80,
			"type":"VEC4"
		},
		{
			"bufferView":14,
			"componentType":5123,
			"count":168,
			"type":"SCALAR"
		},
		{
			"bufferView":15,
			"componentType":5126,
			"count":72,
			"max":[
				0.009999999776482582,
				0.19099999964237213,
				0.04399999976158142
			],
			"min":[
				-0.009999999776482582,
				0.17099998891353607,
				0.03199999779462814
			],
			"type":"VEC3"
		},
		{
			"bufferView":16,
			"componentType":5126,
			"count":72,
			"type":"VEC3"
		},
		{
			"bufferView":17,
			"componentType":5126,
			"count":72,
			"type":"VEC2"
		},
		{
			"bufferView":18,
			"componentType":5126,
			"count":72,
			"type":"VEC4"
		},
		{
			"bufferView":19,
			"componentType":5123,
			"count":180,
			"type":"SCALAR"
		}
	],
	"bufferViews":[
		{
			"buffer":0,
			"byteLength":3552,
			"byteOffset":0,
			"target":34962
		},
		{
			"buffer":0,
			"byteLength":3552,
			"byteOffset":3552,
			"target":34962
		},
		{
			"buffer":0,
			"byteLength":2368,
			"byteOffset":7104,
			"target":34962
		},
		{
			"buffer":0,
			"byteLength":4736,
			"byteOffset":9472,
			"target":34962
		},
		{
			"buffer":0,
			"byteLength":2280,
			"byteOffset":14208,
			"target":34963
		},
		{
			"buffer":0,
			"byteLength":3444,
			"byteOffset":16488,
			"target":34962
		},
		{
			"buffer":0,
			"byteLength":3444,
			"byteOffset":19932,
			"target":34962
		},
		{
			"buffer":0,
			"byteLength":2296,
			"byteOffset":23376,
			"target":34962
		},
		{
			"buffer":0,
			"byteLength":4592,
			"byteOffset":25672,
			"target":34962
		},
		{
			"buffer":0,
			"byteLength":2280,
			"byteOffset":30264,
			"target":34963
		},
		{
			"buffer":0,
			"byteLength":960,
			"byteOffset":32544,
			"target":34962
		},
		{
			"buffer":0,
			"byteLength":960,
			"byteOffset":33504,
			"target":34962
		},
		{
			"buffer":0,
			"byteLength":640,
			"byteOffset":34464,
			"target":34962
		},
		{
			"buffer":0,
			"byteLength":1280,
			"byteOffset":35104,
			"target":34962
		},
		{
			"buffer":0,
			"byteLength":336,
			"byteOffset":36384,
			"target":34963
		},
		{
			"buffer":0,
			"byteLength":864,
			"byteOffset":36720,
			"target":34962
		},
		{
			"buffer":0,
			"byteLength":864,
			"byteOffset":37584,
			"target":34962
		},
		{
			"buffer":0,
			"byteLength":576,
			"byteOffset":38448,
			"target":34962
		},
		{
			"buffer":0,
			"byteLength":1152,
			"byteOffset":39024,
			"target":34962
		},
		{
			"buffer":0,
			"byteLength":360,
			"byteOffset":40176,
			"target":34963
		}
	],
	"samplers":[
		{
			"magFilter":9729,
			"minFilter":9987
		}
	],
	"buffers":[
		{
			"byteLength":40536,
			"uri":"Wall_Clock_360.bin"
		}
	]
}
