{
	"asset":{
		"generator":"Khronos glTF Blender I/O v5.2.39",
		"version":"2.0"
	},
	"scene":0,
	"scenes":[
		{
			"name":"CAFETERIA \u2022 Reference scene",
			"nodes":[
				0
			]
		}
	],
	"nodes":[
		{
			"extras":{
				"asset_id":"Waste_Bin_Swing",
				"units":"meters",
				"front_axis_blender":"-Y",
				"pivot":"bottom center"
			},
			"mesh":0,
			"name":"Waste_Bin_Swing_Export"
		}
	],
	"materials":[
		{
			"name":"CAFE \u2022 Vinyl",
			"normalTexture":{
				"index":0
			},
			"pbrMetallicRoughness":{
				"baseColorTexture":{
					"index":1
				},
				"metallicRoughnessTexture":{
					"index":2
				}
			}
		},
		{
			"name":"CAFE \u2022 Rubber",
			"pbrMetallicRoughness":{
				"baseColorFactor":[
					0.014999999664723873,
					0.01899999938905239,
					0.01600000075995922,
					1
				],
				"metallicFactor":0,
				"roughnessFactor":0.800000011920929
			}
		},
		{
			"name":"CAFE \u2022 Dark recess",
			"pbrMetallicRoughness":{
				"baseColorFactor":[
					0.00800000037997961,
					0.009999999776482582,
					0.008999999612569809,
					1
				],
				"metallicFactor":0,
				"roughnessFactor":0.800000011920929
			}
		},
		{
			"name":"CAFE \u2022 Steel",
			"normalTexture":{
				"index":3
			},
			"pbrMetallicRoughness":{
				"baseColorTexture":{
					"index":4
				},
				"metallicRoughnessTexture":{
					"index":5
				}
			}
		}
	],
	"meshes":[
		{
			"name":"Waste_Bin_Swing_Mesh.001",
			"primitives":[
				{
					"attributes":{
						"POSITION":0,
						"NORMAL":1,
						"TEXCOORD_0":2,
						"TANGENT":3
					},
					"indices":4,
					"material":0
				},
				{
					"attributes":{
						"POSITION":5,
						"NORMAL":6,
						"TEXCOORD_0":7,
						"TANGENT":8
					},
					"indices":9,
					"material":1
				},
				{
					"attributes":{
						"POSITION":10,
						"NORMAL":11,
						"TEXCOORD_0":12,
						"TANGENT":13
					},
					"indices":14,
					"material":2
				},
				{
					"attributes":{
						"POSITION":15,
						"NORMAL":16,
						"TEXCOORD_0":17,
						"TANGENT":18
					},
					"indices":19,
					"material":3
				}
			]
		}
	],
	"textures":[
		{
			"sampler":0,
			"source":0
		},
		{
			"sampler":0,
			"source":1
		},
		{
			"sampler":0,
			"source":2
		},
		{
			"sampler":0,
			"source":3
		},
		{
			"sampler":0,
			"source":4
		},
		{
			"sampler":0,
			"source":5
		}
	],
	"images":[
		{
			"mimeType":"image/png",
			"name":"cafeteria_olive_vinyl_normal_opengl",
			"uri":"textures/cafeteria_olive_vinyl_normal_opengl.png"
		},
		{
			"mimeType":"image/png",
			"name":"cafeteria_olive_vinyl_basecolor",
			"uri":"textures/cafeteria_olive_vinyl_basecolor.png"
		},
		{
			"mimeType":"image/png",
			"name":"cafeteria_olive_vinyl_orm",
			"uri":"textures/cafeteria_olive_vinyl_orm.png"
		},
		{
			"mimeType":"image/png",
			"name":"cafeteria_steel_used_normal_opengl",
			"uri":"textures/cafeteria_steel_used_normal_opengl.png"
		},
		{
			"mimeType":"image/png",
			"name":"cafeteria_steel_used_basecolor",
			"uri":"textures/cafeteria_steel_used_basecolor.png"
		},
		{
			"mimeType":"image/png",
			"name":"cafeteria_steel_used_orm",
			"uri":"textures/cafeteria_steel_used_orm.png"
		}
	],
	"accessors":[
		{
			"bufferView":0,
			"componentType":5126,
			"count":288,
			"max":[
				0.1889999955892563,
				0.7039999961853027,
				0.1550000011920929
			],
			"min":[
				-0.1889999955892563,
				0.00800000037997961,
				-0.1850000023841858
			],
			"type":"VEC3"
		},
		{
			"bufferView":1,
			"componentType":5126,
			"count":288,
			"type":"VEC3"
		},
		{
			"bufferView":2,
			"componentType":5126,
			"count":288,
			"type":"VEC2"
		},
		{
			"bufferView":3,
			"componentType":5126,
			"count":288,
			"type":"VEC4"
		},
		{
			"bufferView":4,
			"componentType":5123,
			"count":1128,
			"type":"SCALAR"
		},
		{
			"bufferView":5,
			"componentType":5126,
			"count":96,
			"max":[
				0.18250000476837158,
				0.02799999713897705,
				0.1574999988079071
			],
			"min":[
				-0.18250000476837158,
				0,
				-0.1574999988079071
			],
			"type":"VEC3"
		},
		{
			"bufferView":6,
			"componentType":5126,
			"count":96,
			"type":"VEC3"
		},
		{
			"bufferView":7,
			"componentType":5126,
			"count":96,
			"type":"VEC2"
		},
		{
			"bufferView":8,
			"componentType":5126,
			"count":96,
			"type":"VEC4"
		},
		{
			"bufferView":9,
			"componentType":5123,
			"count":324,
			"type":"SCALAR"
		},
		{
			"bufferView":10,
			"componentType":5126,
			"count":96,
			"max":[
				0.14300000667572021,
				0.6639999747276306,
				0.1550000011920929
			],
			"min":[
				-0.14300000667572021,
				0.5979999899864197,
				0.14300000667572021
			],
			"type":"VEC3"
		},
		{
			"bufferView":11,
			"componentType":5126,
			"count":96,
			"type":"VEC3"
		},
		{
			"bufferView":12,
			"componentType":5126,
			"count":96,
			"type":"VEC2"
		},
		{
			"bufferView":13,
			"componentType":5126,
			"count":96,
			"type":"VEC4"
		},
		{
			"bufferView":14,
			"componentType":5123,
			"count":324,
			"type":"SCALAR"
		},
		{
			"bufferView":15,
			"componentType":5126,
			"count":96,
			"max":[
				0.1340000033378601,
				0.6619657278060913,
				0.1739613115787506
			],
			"min":[
				-0.1340000033378601,
				0.6180342435836792,
				0.1500386893749237
			],
			"type":"VEC3"
		},
		{
			"bufferView":16,
			"componentType":5126,
			"count":96,
			"type":"VEC3"
		},
		{
			"bufferView":17,
			"componentType":5126,
			"count":96,
			"type":"VEC2"
		},
		{
			"bufferView":18,
			"componentType":5126,
			"count":96,
			"type":"VEC4"
		},
		{
			"bufferView":19,
			"componentType":5123,
			"count":324,
			"type":"SCALAR"
		}
	],
	"bufferViews":[
		{
			"buffer":0,
			"byteLength":3456,
			"byteOffset":0,
			"target":34962
		},
		{
			"buffer":0,
			"byteLength":3456,
			"byteOffset":3456,
			"target":34962
		},
		{
			"buffer":0,
			"byteLength":2304,
			"byteOffset":6912,
			"target":34962
		},
		{
			"buffer":0,
			"byteLength":4608,
			"byteOffset":9216,
			"target":34962
		},
		{
			"buffer":0,
			"byteLength":2256,
			"byteOffset":13824,
			"target":34963
		},
		{
			"buffer":0,
			"byteLength":1152,
			"byteOffset":16080,
			"target":34962
		},
		{
			"buffer":0,
			"byteLength":1152,
			"byteOffset":17232,
			"target":34962
		},
		{
			"buffer":0,
			"byteLength":768,
			"byteOffset":18384,
			"target":34962
		},
		{
			"buffer":0,
			"byteLength":1536,
			"byteOffset":19152,
			"target":34962
		},
		{
			"buffer":0,
			"byteLength":648,
			"byteOffset":20688,
			"target":34963
		},
		{
			"buffer":0,
			"byteLength":1152,
			"byteOffset":21336,
			"target":34962
		},
		{
			"buffer":0,
			"byteLength":1152,
			"byteOffset":22488,
			"target":34962
		},
		{
			"buffer":0,
			"byteLength":768,
			"byteOffset":23640,
			"target":34962
		},
		{
			"buffer":0,
			"byteLength":1536,
			"byteOffset":24408,
			"target":34962
		},
		{
			"buffer":0,
			"byteLength":648,
			"byteOffset":25944,
			"target":34963
		},
		{
			"buffer":0,
			"byteLength":1152,
			"byteOffset":26592,
			"target":34962
		},
		{
			"buffer":0,
			"byteLength":1152,
			"byteOffset":27744,
			"target":34962
		},
		{
			"buffer":0,
			"byteLength":768,
			"byteOffset":28896,
			"target":34962
		},
		{
			"buffer":0,
			"byteLength":1536,
			"byteOffset":29664,
			"target":34962
		},
		{
			"buffer":0,
			"byteLength":648,
			"byteOffset":31200,
			"target":34963
		}
	],
	"samplers":[
		{
			"magFilter":9729,
			"minFilter":9987
		}
	],
	"buffers":[
		{
			"byteLength":31848,
			"uri":"Waste_Bin_Swing.bin"
		}
	]
}
