{
  "asset": {
    "generator": "Khronos glTF Blender I/O v5.2.40",
    "version": "2.0"
  },
  "scene": 0,
  "scenes": [
    {
      "name": "LITTER KIT",
      "nodes": [
        0
      ]
    }
  ],
  "nodes": [
    {
      "mesh": 0,
      "name": "Bottle_Amber_Export"
    }
  ],
  "materials": [
    {
      "name": "Litter_AmberGlass",
      "normalTexture": {
        "index": 0,
        "scale": 0.6499999761581421
      },
      "pbrMetallicRoughness": {
        "baseColorTexture": {
          "index": 1
        },
        "metallicRoughnessTexture": {
          "index": 2
        },
        "baseColorFactor": [
          0.2,
          0.067,
          0.012,
          1
        ]
      },
      "occlusionTexture": {
        "index": 2,
        "strength": 1.0
      }
    },
    {
      "name": "Litter_Print",
      "normalTexture": {
        "index": 3,
        "scale": 0.6499999761581421
      },
      "pbrMetallicRoughness": {
        "baseColorTexture": {
          "index": 4
        },
        "metallicRoughnessTexture": {
          "index": 5
        },
        "baseColorFactor": [
          1,
          1,
          1,
          1
        ]
      },
      "occlusionTexture": {
        "index": 5,
        "strength": 1.0
      }
    }
  ],
  "meshes": [
    {
      "name": "Thick bottle shell.002",
      "primitives": [
        {
          "attributes": {
            "POSITION": 0,
            "NORMAL": 1,
            "TEXCOORD_0": 2,
            "TANGENT": 3
          },
          "indices": 4,
          "material": 0
        },
        {
          "attributes": {
            "POSITION": 5,
            "NORMAL": 6,
            "TEXCOORD_0": 7,
            "TANGENT": 8
          },
          "indices": 9,
          "material": 1
        }
      ]
    }
  ],
  "textures": [
    {
      "sampler": 0,
      "source": 0
    },
    {
      "sampler": 0,
      "source": 1
    },
    {
      "sampler": 0,
      "source": 2
    },
    {
      "sampler": 0,
      "source": 3
    },
    {
      "sampler": 0,
      "source": 4
    },
    {
      "sampler": 0,
      "source": 5
    }
  ],
  "images": [
    {
      "mimeType": "image/png",
      "name": "Dusty_Glass_normal_opengl",
      "uri": "textures/Dusty_Glass_normal_opengl.png"
    },
    {
      "mimeType": "image/png",
      "name": "Dusty_Glass_basecolor",
      "uri": "textures/Dusty_Glass_basecolor.png"
    },
    {
      "mimeType": "image/png",
      "name": "Dusty_Glass_orm",
      "uri": "textures/Dusty_Glass_orm.png"
    },
    {
      "mimeType": "image/png",
      "name": "Packaging_Atlas_normal_opengl",
      "uri": "textures/Packaging_Atlas_normal_opengl.png"
    },
    {
      "mimeType": "image/png",
      "name": "Packaging_Atlas_basecolor",
      "uri": "textures/Packaging_Atlas_basecolor.png"
    },
    {
      "mimeType": "image/png",
      "name": "Packaging_Atlas_orm",
      "uri": "textures/Packaging_Atlas_orm.png"
    }
  ],
  "accessors": [
    {
      "bufferView": 0,
      "componentType": 5126,
      "count": 755,
      "max": [
        0.03099999949336052,
        0.24500000476837158,
        0.03099999949336052
      ],
      "min": [
        -0.03099999949336052,
        0,
        -0.03099999949336052
      ],
      "type": "VEC3"
    },
    {
      "bufferView": 1,
      "componentType": 5126,
      "count": 755,
      "type": "VEC3"
    },
    {
      "bufferView": 2,
      "componentType": 5126,
      "count": 755,
      "type": "VEC2"
    },
    {
      "bufferView": 3,
      "componentType": 5126,
      "count": 755,
      "type": "VEC4"
    },
    {
      "bufferView": 4,
      "componentType": 5123,
      "count": 3444,
      "type": "SCALAR"
    },
    {
      "bufferView": 5,
      "componentType": 5126,
      "count": 66,
      "max": [
        0.03099999949336052,
        0.133725106716156,
        0.03099999949336052
      ],
      "min": [
        -0.03099999949336052,
        0.04197211191058159,
        -0.03099999949336052
      ],
      "type": "VEC3"
    },
    {
      "bufferView": 6,
      "componentType": 5126,
      "count": 66,
      "type": "VEC3"
    },
    {
      "bufferView": 7,
      "componentType": 5126,
      "count": 66,
      "type": "VEC2"
    },
    {
      "bufferView": 8,
      "componentType": 5126,
      "count": 66,
      "type": "VEC4"
    },
    {
      "bufferView": 9,
      "componentType": 5123,
      "count": 192,
      "type": "SCALAR"
    }
  ],
  "bufferViews": [
    {
      "buffer": 0,
      "byteLength": 9060,
      "byteOffset": 0,
      "target": 34962
    },
    {
      "buffer": 0,
      "byteLength": 9060,
      "byteOffset": 9060,
      "target": 34962
    },
    {
      "buffer": 0,
      "byteLength": 6040,
      "byteOffset": 18120,
      "target": 34962
    },
    {
      "buffer": 0,
      "byteLength": 12080,
      "byteOffset": 24160,
      "target": 34962
    },
    {
      "buffer": 0,
      "byteLength": 6888,
      "byteOffset": 36240,
      "target": 34963
    },
    {
      "buffer": 0,
      "byteLength": 792,
      "byteOffset": 43128,
      "target": 34962
    },
    {
      "buffer": 0,
      "byteLength": 792,
      "byteOffset": 43920,
      "target": 34962
    },
    {
      "buffer": 0,
      "byteLength": 528,
      "byteOffset": 44712,
      "target": 34962
    },
    {
      "buffer": 0,
      "byteLength": 1056,
      "byteOffset": 45240,
      "target": 34962
    },
    {
      "buffer": 0,
      "byteLength": 384,
      "byteOffset": 46296,
      "target": 34963
    }
  ],
  "samplers": [
    {
      "magFilter": 9729,
      "minFilter": 9987
    }
  ],
  "buffers": [
    {
      "byteLength": 46680,
      "uri": "Bottle_Amber.bin"
    }
  ]
}
