{
  "asset": {
    "generator": "Khronos glTF Blender I/O v5.2.40",
    "version": "2.0"
  },
  "scene": 0,
  "scenes": [
    {
      "name": "LITTER KIT",
      "nodes": [
        0
      ]
    }
  ],
  "nodes": [
    {
      "mesh": 0,
      "name": "Bottle_Plastic_Dented_Export"
    }
  ],
  "materials": [
    {
      "name": "Litter_PlasticBottle",
      "normalTexture": {
        "index": 0,
        "scale": 0.6499999761581421
      },
      "pbrMetallicRoughness": {
        "baseColorTexture": {
          "index": 1
        },
        "metallicRoughnessTexture": {
          "index": 2
        },
        "baseColorFactor": [
          0.42,
          0.51,
          0.54,
          1
        ]
      },
      "occlusionTexture": {
        "index": 2,
        "strength": 1.0
      }
    },
    {
      "name": "Litter_CapBlue",
      "pbrMetallicRoughness": {
        "baseColorFactor": [
          0.03500000014901161,
          0.10999999940395355,
          0.1899999976158142,
          1
        ],
        "metallicFactor": 0,
        "roughnessFactor": 0.6499999761581421
      }
    }
  ],
  "meshes": [
    {
      "name": "Dented PET bottle.001",
      "primitives": [
        {
          "attributes": {
            "POSITION": 0,
            "NORMAL": 1,
            "TEXCOORD_0": 2,
            "TANGENT": 3
          },
          "indices": 4,
          "material": 0
        },
        {
          "attributes": {
            "POSITION": 5,
            "NORMAL": 6,
            "TEXCOORD_0": 7,
            "TANGENT": 8
          },
          "indices": 9,
          "material": 1
        }
      ]
    }
  ],
  "textures": [
    {
      "sampler": 0,
      "source": 0
    },
    {
      "sampler": 0,
      "source": 1
    },
    {
      "sampler": 0,
      "source": 2
    }
  ],
  "images": [
    {
      "mimeType": "image/png",
      "name": "Dusty_Glass_normal_opengl",
      "uri": "textures/Dusty_Glass_normal_opengl.png"
    },
    {
      "mimeType": "image/png",
      "name": "Dusty_Glass_basecolor",
      "uri": "textures/Dusty_Glass_basecolor.png"
    },
    {
      "mimeType": "image/png",
      "name": "Dusty_Glass_orm",
      "uri": "textures/Dusty_Glass_orm.png"
    }
  ],
  "accessors": [
    {
      "bufferView": 0,
      "componentType": 5126,
      "count": 781,
      "max": [
        0.03543681651353836,
        0.20200000703334808,
        0.03200000151991844
      ],
      "min": [
        -0.03543681651353836,
        0,
        -0.03200000151991844
      ],
      "type": "VEC3"
    },
    {
      "bufferView": 1,
      "componentType": 5126,
      "count": 781,
      "type": "VEC3"
    },
    {
      "bufferView": 2,
      "componentType": 5126,
      "count": 781,
      "type": "VEC2"
    },
    {
      "bufferView": 3,
      "componentType": 5126,
      "count": 781,
      "type": "VEC4"
    },
    {
      "bufferView": 4,
      "componentType": 5123,
      "count": 4188,
      "type": "SCALAR"
    },
    {
      "bufferView": 5,
      "componentType": 5126,
      "count": 148,
      "max": [
        0.012220991775393486,
        0.21299999952316284,
        0.013000000268220901
      ],
      "min": [
        -0.013779008761048317,
        0.19499999284744263,
        -0.013000000268220901
      ],
      "type": "VEC3"
    },
    {
      "bufferView": 6,
      "componentType": 5126,
      "count": 148,
      "type": "VEC3"
    },
    {
      "bufferView": 7,
      "componentType": 5126,
      "count": 148,
      "type": "VEC2"
    },
    {
      "bufferView": 8,
      "componentType": 5126,
      "count": 148,
      "type": "VEC4"
    },
    {
      "bufferView": 9,
      "componentType": 5123,
      "count": 564,
      "type": "SCALAR"
    }
  ],
  "bufferViews": [
    {
      "buffer": 0,
      "byteLength": 9372,
      "byteOffset": 0,
      "target": 34962
    },
    {
      "buffer": 0,
      "byteLength": 9372,
      "byteOffset": 9372,
      "target": 34962
    },
    {
      "buffer": 0,
      "byteLength": 6248,
      "byteOffset": 18744,
      "target": 34962
    },
    {
      "buffer": 0,
      "byteLength": 12496,
      "byteOffset": 24992,
      "target": 34962
    },
    {
      "buffer": 0,
      "byteLength": 8376,
      "byteOffset": 37488,
      "target": 34963
    },
    {
      "buffer": 0,
      "byteLength": 1776,
      "byteOffset": 45864,
      "target": 34962
    },
    {
      "buffer": 0,
      "byteLength": 1776,
      "byteOffset": 47640,
      "target": 34962
    },
    {
      "buffer": 0,
      "byteLength": 1184,
      "byteOffset": 49416,
      "target": 34962
    },
    {
      "buffer": 0,
      "byteLength": 2368,
      "byteOffset": 50600,
      "target": 34962
    },
    {
      "buffer": 0,
      "byteLength": 1128,
      "byteOffset": 52968,
      "target": 34963
    }
  ],
  "samplers": [
    {
      "magFilter": 9729,
      "minFilter": 9987
    }
  ],
  "buffers": [
    {
      "byteLength": 54096,
      "uri": "Bottle_Plastic_Dented.bin"
    }
  ]
}
