{
  "asset": {
    "generator": "Khronos glTF Blender I/O v5.2.40",
    "version": "2.0"
  },
  "scene": 0,
  "scenes": [
    {
      "name": "LITTER KIT",
      "nodes": [
        0
      ]
    }
  ],
  "nodes": [
    {
      "mesh": 0,
      "name": "Can_Crushed_Blue_Export"
    }
  ],
  "materials": [
    {
      "name": "Litter_Tin",
      "pbrMetallicRoughness": {
        "baseColorFactor": [
          0.550000011920929,
          0.5899999737739563,
          0.6000000238418579,
          1
        ],
        "metallicFactor": 0.7799999713897705,
        "roughnessFactor": 0.4000000059604645
      }
    },
    {
      "name": "Litter_Print",
      "normalTexture": {
        "index": 0,
        "scale": 0.6499999761581421
      },
      "pbrMetallicRoughness": {
        "baseColorTexture": {
          "index": 1
        },
        "metallicRoughnessTexture": {
          "index": 2
        },
        "baseColorFactor": [
          1,
          1,
          1,
          1
        ]
      },
      "occlusionTexture": {
        "index": 2,
        "strength": 1.0
      }
    }
  ],
  "meshes": [
    {
      "name": "Creased can shell.002",
      "primitives": [
        {
          "attributes": {
            "POSITION": 0,
            "NORMAL": 1,
            "TEXCOORD_0": 2,
            "TANGENT": 3
          },
          "indices": 4,
          "material": 0
        },
        {
          "attributes": {
            "POSITION": 5,
            "NORMAL": 6,
            "TEXCOORD_0": 7,
            "TANGENT": 8
          },
          "indices": 9,
          "material": 1
        }
      ]
    }
  ],
  "textures": [
    {
      "sampler": 0,
      "source": 0
    },
    {
      "sampler": 0,
      "source": 1
    },
    {
      "sampler": 0,
      "source": 2
    }
  ],
  "images": [
    {
      "mimeType": "image/png",
      "name": "Packaging_Atlas_normal_opengl",
      "uri": "textures/Packaging_Atlas_normal_opengl.png"
    },
    {
      "mimeType": "image/png",
      "name": "Packaging_Atlas_basecolor",
      "uri": "textures/Packaging_Atlas_basecolor.png"
    },
    {
      "mimeType": "image/png",
      "name": "Packaging_Atlas_orm",
      "uri": "textures/Packaging_Atlas_orm.png"
    }
  ],
  "accessors": [
    {
      "bufferView": 0,
      "componentType": 5126,
      "count": 1282,
      "max": [
        0.043283507227897644,
        0.07451006025075912,
        0.04785893112421036
      ],
      "min": [
        -0.043283507227897644,
        0.0023235566914081573,
        -0.04785893112421036
      ],
      "type": "VEC3"
    },
    {
      "bufferView": 1,
      "componentType": 5126,
      "count": 1282,
      "type": "VEC3"
    },
    {
      "bufferView": 2,
      "componentType": 5126,
      "count": 1282,
      "type": "VEC2"
    },
    {
      "bufferView": 3,
      "componentType": 5126,
      "count": 1282,
      "type": "VEC4"
    },
    {
      "bufferView": 4,
      "componentType": 5123,
      "count": 4548,
      "type": "SCALAR"
    },
    {
      "bufferView": 5,
      "componentType": 5126,
      "count": 231,
      "max": [
        0.03862045705318451,
        0.07651595026254654,
        0.04161499813199043
      ],
      "min": [
        -0.04171701520681381,
        0,
        -0.03849407285451889
      ],
      "type": "VEC3"
    },
    {
      "bufferView": 6,
      "componentType": 5126,
      "count": 231,
      "type": "VEC3"
    },
    {
      "bufferView": 7,
      "componentType": 5126,
      "count": 231,
      "type": "VEC2"
    },
    {
      "bufferView": 8,
      "componentType": 5126,
      "count": 231,
      "type": "VEC4"
    },
    {
      "bufferView": 9,
      "componentType": 5123,
      "count": 1152,
      "type": "SCALAR"
    }
  ],
  "bufferViews": [
    {
      "buffer": 0,
      "byteLength": 15384,
      "byteOffset": 0,
      "target": 34962
    },
    {
      "buffer": 0,
      "byteLength": 15384,
      "byteOffset": 15384,
      "target": 34962
    },
    {
      "buffer": 0,
      "byteLength": 10256,
      "byteOffset": 30768,
      "target": 34962
    },
    {
      "buffer": 0,
      "byteLength": 20512,
      "byteOffset": 41024,
      "target": 34962
    },
    {
      "buffer": 0,
      "byteLength": 9096,
      "byteOffset": 61536,
      "target": 34963
    },
    {
      "buffer": 0,
      "byteLength": 2772,
      "byteOffset": 70632,
      "target": 34962
    },
    {
      "buffer": 0,
      "byteLength": 2772,
      "byteOffset": 73404,
      "target": 34962
    },
    {
      "buffer": 0,
      "byteLength": 1848,
      "byteOffset": 76176,
      "target": 34962
    },
    {
      "buffer": 0,
      "byteLength": 3696,
      "byteOffset": 78024,
      "target": 34962
    },
    {
      "buffer": 0,
      "byteLength": 2304,
      "byteOffset": 81720,
      "target": 34963
    }
  ],
  "samplers": [
    {
      "magFilter": 9729,
      "minFilter": 9987
    }
  ],
  "buffers": [
    {
      "byteLength": 84024,
      "uri": "Can_Crushed_Blue.bin"
    }
  ]
}
