{
  "asset": {
    "generator": "Khronos glTF Blender I/O v5.2.40",
    "version": "2.0"
  },
  "scene": 0,
  "scenes": [
    {
      "name": "LITTER KIT",
      "nodes": [
        0
      ]
    }
  ],
  "nodes": [
    {
      "mesh": 0,
      "name": "Cardboard_Box_Torn_Open_Export"
    }
  ],
  "materials": [
    {
      "name": "Litter_Card",
      "normalTexture": {
        "index": 0,
        "scale": 0.6499999761581421
      },
      "pbrMetallicRoughness": {
        "baseColorTexture": {
          "index": 1
        },
        "metallicRoughnessTexture": {
          "index": 2
        },
        "baseColorFactor": [
          1,
          1,
          1,
          1
        ]
      },
      "occlusionTexture": {
        "index": 2,
        "strength": 1.0
      }
    }
  ],
  "meshes": [
    {
      "name": "Open carton shell.001",
      "primitives": [
        {
          "attributes": {
            "POSITION": 0,
            "NORMAL": 1,
            "TEXCOORD_0": 2,
            "TANGENT": 3
          },
          "indices": 4,
          "material": 0
        }
      ]
    }
  ],
  "textures": [
    {
      "sampler": 0,
      "source": 0
    },
    {
      "sampler": 0,
      "source": 1
    },
    {
      "sampler": 0,
      "source": 2
    }
  ],
  "images": [
    {
      "mimeType": "image/png",
      "name": "Cardboard_normal_opengl",
      "uri": "textures/Cardboard_normal_opengl.png"
    },
    {
      "mimeType": "image/png",
      "name": "Cardboard_basecolor",
      "uri": "textures/Cardboard_basecolor.png"
    },
    {
      "mimeType": "image/png",
      "name": "Cardboard_orm",
      "uri": "textures/Cardboard_orm.png"
    }
  ],
  "accessors": [
    {
      "bufferView": 0,
      "componentType": 5126,
      "count": 160,
      "max": [
        0.26899999380111694,
        0.18000000715255737,
        0.20900000631809235
      ],
      "min": [
        -0.26899999380111694,
        0,
        -0.20900000631809235
      ],
      "type": "VEC3"
    },
    {
      "bufferView": 1,
      "componentType": 5126,
      "count": 160,
      "type": "VEC3"
    },
    {
      "bufferView": 2,
      "componentType": 5126,
      "count": 160,
      "type": "VEC2"
    },
    {
      "bufferView": 3,
      "componentType": 5126,
      "count": 160,
      "type": "VEC4"
    },
    {
      "bufferView": 4,
      "componentType": 5123,
      "count": 228,
      "type": "SCALAR"
    }
  ],
  "bufferViews": [
    {
      "buffer": 0,
      "byteLength": 1920,
      "byteOffset": 0,
      "target": 34962
    },
    {
      "buffer": 0,
      "byteLength": 1920,
      "byteOffset": 1920,
      "target": 34962
    },
    {
      "buffer": 0,
      "byteLength": 1280,
      "byteOffset": 3840,
      "target": 34962
    },
    {
      "buffer": 0,
      "byteLength": 2560,
      "byteOffset": 5120,
      "target": 34962
    },
    {
      "buffer": 0,
      "byteLength": 456,
      "byteOffset": 7680,
      "target": 34963
    }
  ],
  "samplers": [
    {
      "magFilter": 9729,
      "minFilter": 9987
    }
  ],
  "buffers": [
    {
      "byteLength": 8136,
      "uri": "Cardboard_Box_Torn_Open.bin"
    }
  ]
}
