{
  "asset": {
    "generator": "Khronos glTF Blender I/O v5.2.40",
    "version": "2.0"
  },
  "scene": 0,
  "scenes": [
    {
      "name": "LITTER KIT",
      "nodes": [
        0
      ]
    }
  ],
  "nodes": [
    {
      "mesh": 0,
      "name": "Cup_Paper_Discarded_Export"
    }
  ],
  "materials": [
    {
      "name": "Litter_Print",
      "normalTexture": {
        "index": 0,
        "scale": 0.6499999761581421
      },
      "pbrMetallicRoughness": {
        "baseColorTexture": {
          "index": 1
        },
        "metallicRoughnessTexture": {
          "index": 2
        },
        "baseColorFactor": [
          1,
          1,
          1,
          1
        ]
      },
      "occlusionTexture": {
        "index": 2,
        "strength": 1.0
      }
    }
  ],
  "meshes": [
    {
      "name": "Discarded paper cup.001",
      "primitives": [
        {
          "attributes": {
            "POSITION": 0,
            "NORMAL": 1,
            "TEXCOORD_0": 2,
            "TANGENT": 3
          },
          "indices": 4,
          "material": 0
        }
      ]
    }
  ],
  "textures": [
    {
      "sampler": 0,
      "source": 0
    },
    {
      "sampler": 0,
      "source": 1
    },
    {
      "sampler": 0,
      "source": 2
    }
  ],
  "images": [
    {
      "mimeType": "image/png",
      "name": "Packaging_Atlas_normal_opengl",
      "uri": "textures/Packaging_Atlas_normal_opengl.png"
    },
    {
      "mimeType": "image/png",
      "name": "Packaging_Atlas_basecolor",
      "uri": "textures/Packaging_Atlas_basecolor.png"
    },
    {
      "mimeType": "image/png",
      "name": "Packaging_Atlas_orm",
      "uri": "textures/Packaging_Atlas_orm.png"
    }
  ],
  "accessors": [
    {
      "bufferView": 0,
      "componentType": 5126,
      "count": 427,
      "max": [
        0.05748781934380531,
        0.0866382047533989,
        0.04719705134630203
      ],
      "min": [
        -0.05748782306909561,
        0,
        -0.04719705134630203
      ],
      "type": "VEC3"
    },
    {
      "bufferView": 1,
      "componentType": 5126,
      "count": 427,
      "type": "VEC3"
    },
    {
      "bufferView": 2,
      "componentType": 5126,
      "count": 427,
      "type": "VEC2"
    },
    {
      "bufferView": 3,
      "componentType": 5126,
      "count": 427,
      "type": "VEC4"
    },
    {
      "bufferView": 4,
      "componentType": 5123,
      "count": 1908,
      "type": "SCALAR"
    }
  ],
  "bufferViews": [
    {
      "buffer": 0,
      "byteLength": 5124,
      "byteOffset": 0,
      "target": 34962
    },
    {
      "buffer": 0,
      "byteLength": 5124,
      "byteOffset": 5124,
      "target": 34962
    },
    {
      "buffer": 0,
      "byteLength": 3416,
      "byteOffset": 10248,
      "target": 34962
    },
    {
      "buffer": 0,
      "byteLength": 6832,
      "byteOffset": 13664,
      "target": 34962
    },
    {
      "buffer": 0,
      "byteLength": 3816,
      "byteOffset": 20496,
      "target": 34963
    }
  ],
  "samplers": [
    {
      "magFilter": 9729,
      "minFilter": 9987
    }
  ],
  "buffers": [
    {
      "byteLength": 24312,
      "uri": "Cup_Paper_Discarded.bin"
    }
  ]
}
