{
  "asset": {
    "generator": "Khronos glTF Blender I/O v5.2.40",
    "version": "2.0"
  },
  "scene": 0,
  "scenes": [
    {
      "name": "LITTER KIT",
      "nodes": [
        0
      ]
    }
  ],
  "nodes": [
    {
      "mesh": 0,
      "name": "Trash_Bag_Small_Export"
    }
  ],
  "materials": [
    {
      "name": "Litter_Bag",
      "normalTexture": {
        "index": 0,
        "scale": 0.6499999761581421
      },
      "pbrMetallicRoughness": {
        "baseColorTexture": {
          "index": 1
        },
        "metallicRoughnessTexture": {
          "index": 2
        },
        "baseColorFactor": [
          1,
          1,
          1,
          1
        ]
      },
      "occlusionTexture": {
        "index": 2,
        "strength": 1.0
      }
    }
  ],
  "meshes": [
    {
      "name": "Gathered refuse bag.003",
      "primitives": [
        {
          "attributes": {
            "POSITION": 0,
            "NORMAL": 1,
            "TEXCOORD_0": 2,
            "TANGENT": 3
          },
          "indices": 4,
          "material": 0
        }
      ]
    }
  ],
  "textures": [
    {
      "sampler": 0,
      "source": 0
    },
    {
      "sampler": 0,
      "source": 1
    },
    {
      "sampler": 0,
      "source": 2
    }
  ],
  "images": [
    {
      "mimeType": "image/png",
      "name": "Bag_Plastic_normal_opengl",
      "uri": "textures/Bag_Plastic_normal_opengl.png"
    },
    {
      "mimeType": "image/png",
      "name": "Bag_Plastic_basecolor",
      "uri": "textures/Bag_Plastic_basecolor.png"
    },
    {
      "mimeType": "image/png",
      "name": "Bag_Plastic_orm",
      "uri": "textures/Bag_Plastic_orm.png"
    }
  ],
  "accessors": [
    {
      "bufferView": 0,
      "componentType": 5126,
      "count": 2288,
      "max": [
        0.16679808497428894,
        0.3593025803565979,
        0.1472567468881607
      ],
      "min": [
        -0.16679808497428894,
        0,
        -0.1472567468881607
      ],
      "type": "VEC3"
    },
    {
      "bufferView": 1,
      "componentType": 5126,
      "count": 2288,
      "type": "VEC3"
    },
    {
      "bufferView": 2,
      "componentType": 5126,
      "count": 2288,
      "type": "VEC2"
    },
    {
      "bufferView": 3,
      "componentType": 5126,
      "count": 2288,
      "type": "VEC4"
    },
    {
      "bufferView": 4,
      "componentType": 5123,
      "count": 11220,
      "type": "SCALAR"
    }
  ],
  "bufferViews": [
    {
      "buffer": 0,
      "byteLength": 27456,
      "byteOffset": 0,
      "target": 34962
    },
    {
      "buffer": 0,
      "byteLength": 27456,
      "byteOffset": 27456,
      "target": 34962
    },
    {
      "buffer": 0,
      "byteLength": 18304,
      "byteOffset": 54912,
      "target": 34962
    },
    {
      "buffer": 0,
      "byteLength": 36608,
      "byteOffset": 73216,
      "target": 34962
    },
    {
      "buffer": 0,
      "byteLength": 22440,
      "byteOffset": 109824,
      "target": 34963
    }
  ],
  "samplers": [
    {
      "magFilter": 9729,
      "minFilter": 9987
    }
  ],
  "buffers": [
    {
      "byteLength": 132264,
      "uri": "Trash_Bag_Small.bin"
    }
  ]
}
