{
	"asset":{
		"generator":"Khronos glTF Blender I/O v5.2.39",
		"version":"2.0"
	},
	"scene":0,
	"scenes":[
		{
			"name":"BATHROOM \u2022 Reference scene",
			"nodes":[
				0
			]
		}
	],
	"nodes":[
		{
			"extras":{
				"asset_id":"Cubicle_Divider_1640",
				"units":"meters",
				"front_axis_blender":"-Y",
				"pivot":"bottom center"
			},
			"mesh":0,
			"name":"Cubicle_Divider_1640_Export"
		}
	],
	"materials":[
		{
			"name":"BATH \u2022 Worn paint",
			"normalTexture":{
				"index":0
			},
			"pbrMetallicRoughness":{
				"baseColorTexture":{
					"index":1
				},
				"metallicRoughnessTexture":{
					"index":2
				}
			}
		},
		{
			"name":"BATH \u2022 Aged nickel",
			"normalTexture":{
				"index":3
			},
			"pbrMetallicRoughness":{
				"baseColorTexture":{
					"index":4
				},
				"metallicRoughnessTexture":{
					"index":5
				}
			}
		},
		{
			"name":"BATH \u2022 Rubber",
			"pbrMetallicRoughness":{
				"baseColorFactor":[
					0.009999999776482582,
					0.010999999940395355,
					0.008999999612569809,
					1
				],
				"metallicFactor":0,
				"roughnessFactor":0.8500000238418579
			}
		},
		{
			"name":"BATH \u2022 Primer wear",
			"pbrMetallicRoughness":{
				"baseColorFactor":[
					0.1899999976158142,
					0.18000000715255737,
					0.14000000059604645,
					1
				],
				"metallicFactor":0.3499999940395355,
				"roughnessFactor":0.8199999928474426
			}
		}
	],
	"meshes":[
		{
			"name":"Cubicle_Divider_1640_Mesh.001",
			"primitives":[
				{
					"attributes":{
						"POSITION":0,
						"NORMAL":1,
						"TEXCOORD_0":2,
						"TANGENT":3
					},
					"indices":4,
					"material":0
				},
				{
					"attributes":{
						"POSITION":5,
						"NORMAL":6,
						"TEXCOORD_0":7,
						"TANGENT":8
					},
					"indices":9,
					"material":1
				},
				{
					"attributes":{
						"POSITION":10,
						"NORMAL":11,
						"TEXCOORD_0":12,
						"TANGENT":13
					},
					"indices":14,
					"material":2
				},
				{
					"attributes":{
						"POSITION":15,
						"NORMAL":16,
						"TEXCOORD_0":17,
						"TANGENT":18
					},
					"indices":19,
					"material":3
				}
			]
		}
	],
	"textures":[
		{
			"sampler":0,
			"source":0
		},
		{
			"sampler":0,
			"source":1
		},
		{
			"sampler":0,
			"source":2
		},
		{
			"sampler":0,
			"source":3
		},
		{
			"sampler":0,
			"source":4
		},
		{
			"sampler":0,
			"source":5
		}
	],
	"images":[
		{
			"mimeType":"image/png",
			"name":"paint_worn_normal_opengl",
			"uri":"textures/paint_worn_normal_opengl.png"
		},
		{
			"mimeType":"image/png",
			"name":"paint_worn_basecolor",
			"uri":"textures/paint_worn_basecolor.png"
		},
		{
			"mimeType":"image/png",
			"name":"paint_worn_orm",
			"uri":"textures/paint_worn_orm.png"
		},
		{
			"mimeType":"image/png",
			"name":"nickel_used_normal_opengl",
			"uri":"textures/nickel_used_normal_opengl.png"
		},
		{
			"mimeType":"image/png",
			"name":"nickel_used_basecolor",
			"uri":"textures/nickel_used_basecolor.png"
		},
		{
			"mimeType":"image/png",
			"name":"nickel_used_orm",
			"uri":"textures/nickel_used_orm.png"
		}
	],
	"accessors":[
		{
			"bufferView":0,
			"componentType":5126,
			"count":96,
			"max":[
				0.017500000074505806,
				2.0199999809265137,
				0.8199999928474426
			],
			"min":[
				-0.017500000074505806,
				0.19999998807907104,
				-0.8199999928474426
			],
			"type":"VEC3"
		},
		{
			"bufferView":1,
			"componentType":5126,
			"count":96,
			"type":"VEC3"
		},
		{
			"bufferView":2,
			"componentType":5126,
			"count":96,
			"type":"VEC2"
		},
		{
			"bufferView":3,
			"componentType":5126,
			"count":96,
			"type":"VEC4"
		},
		{
			"bufferView":4,
			"componentType":5123,
			"count":324,
			"type":"SCALAR"
		},
		{
			"bufferView":5,
			"componentType":5126,
			"count":384,
			"max":[
				0.039000000804662704,
				1.8334999084472656,
				0.8279999494552612
			],
			"min":[
				-0.039000000804662704,
				0.04999995231628418,
				-0.8339999914169312
			],
			"type":"VEC3"
		},
		{
			"bufferView":6,
			"componentType":5126,
			"count":384,
			"type":"VEC3"
		},
		{
			"bufferView":7,
			"componentType":5126,
			"count":384,
			"type":"VEC2"
		},
		{
			"bufferView":8,
			"componentType":5126,
			"count":384,
			"type":"VEC4"
		},
		{
			"bufferView":9,
			"componentType":5123,
			"count":1296,
			"type":"SCALAR"
		},
		{
			"bufferView":10,
			"componentType":5126,
			"count":192,
			"max":[
				0.05000000074505806,
				0.0280001163482666,
				0.8399999737739563
			],
			"min":[
				-0.05000000074505806,
				0,
				-0.8399999737739563
			],
			"type":"VEC3"
		},
		{
			"bufferView":11,
			"componentType":5126,
			"count":192,
			"type":"VEC3"
		},
		{
			"bufferView":12,
			"componentType":5126,
			"count":192,
			"type":"VEC2"
		},
		{
			"bufferView":13,
			"componentType":5126,
			"count":192,
			"type":"VEC4"
		},
		{
			"bufferView":14,
			"componentType":5123,
			"count":648,
			"type":"SCALAR"
		},
		{
			"bufferView":15,
			"componentType":5126,
			"count":144,
			"max":[
				0.019999999552965164,
				0.2824999690055847,
				0.6410000324249268
			],
			"min":[
				0.017999999225139618,
				0.20249998569488525,
				-0.3610000014305115
			],
			"type":"VEC3"
		},
		{
			"bufferView":16,
			"componentType":5126,
			"count":144,
			"type":"VEC3"
		},
		{
			"bufferView":17,
			"componentType":5126,
			"count":144,
			"type":"VEC2"
		},
		{
			"bufferView":18,
			"componentType":5126,
			"count":144,
			"type":"VEC4"
		},
		{
			"bufferView":19,
			"componentType":5123,
			"count":396,
			"type":"SCALAR"
		}
	],
	"bufferViews":[
		{
			"buffer":0,
			"byteLength":1152,
			"byteOffset":0,
			"target":34962
		},
		{
			"buffer":0,
			"byteLength":1152,
			"byteOffset":1152,
			"target":34962
		},
		{
			"buffer":0,
			"byteLength":768,
			"byteOffset":2304,
			"target":34962
		},
		{
			"buffer":0,
			"byteLength":1536,
			"byteOffset":3072,
			"target":34962
		},
		{
			"buffer":0,
			"byteLength":648,
			"byteOffset":4608,
			"target":34963
		},
		{
			"buffer":0,
			"byteLength":4608,
			"byteOffset":5256,
			"target":34962
		},
		{
			"buffer":0,
			"byteLength":4608,
			"byteOffset":9864,
			"target":34962
		},
		{
			"buffer":0,
			"byteLength":3072,
			"byteOffset":14472,
			"target":34962
		},
		{
			"buffer":0,
			"byteLength":6144,
			"byteOffset":17544,
			"target":34962
		},
		{
			"buffer":0,
			"byteLength":2592,
			"byteOffset":23688,
			"target":34963
		},
		{
			"buffer":0,
			"byteLength":2304,
			"byteOffset":26280,
			"target":34962
		},
		{
			"buffer":0,
			"byteLength":2304,
			"byteOffset":28584,
			"target":34962
		},
		{
			"buffer":0,
			"byteLength":1536,
			"byteOffset":30888,
			"target":34962
		},
		{
			"buffer":0,
			"byteLength":3072,
			"byteOffset":32424,
			"target":34962
		},
		{
			"buffer":0,
			"byteLength":1296,
			"byteOffset":35496,
			"target":34963
		},
		{
			"buffer":0,
			"byteLength":1728,
			"byteOffset":36792,
			"target":34962
		},
		{
			"buffer":0,
			"byteLength":1728,
			"byteOffset":38520,
			"target":34962
		},
		{
			"buffer":0,
			"byteLength":1152,
			"byteOffset":40248,
			"target":34962
		},
		{
			"buffer":0,
			"byteLength":2304,
			"byteOffset":41400,
			"target":34962
		},
		{
			"buffer":0,
			"byteLength":792,
			"byteOffset":43704,
			"target":34963
		}
	],
	"samplers":[
		{
			"magFilter":9729,
			"minFilter":9987
		}
	],
	"buffers":[
		{
			"byteLength":44496,
			"uri":"Cubicle_Divider_1640.bin"
		}
	]
}
