{
	"asset":{
		"generator":"Khronos glTF Blender I/O v5.2.39",
		"version":"2.0"
	},
	"scene":0,
	"scenes":[
		{
			"name":"BATHROOM \u2022 Reference scene",
			"nodes":[
				0
			]
		}
	],
	"nodes":[
		{
			"extras":{
				"asset_id":"Cubicle_Infill_355",
				"units":"meters",
				"front_axis_blender":"-Y",
				"pivot":"bottom center"
			},
			"mesh":0,
			"name":"Cubicle_Infill_355_Export"
		}
	],
	"materials":[
		{
			"name":"BATH \u2022 Worn paint",
			"normalTexture":{
				"index":0
			},
			"pbrMetallicRoughness":{
				"baseColorTexture":{
					"index":1
				},
				"metallicRoughnessTexture":{
					"index":2
				}
			}
		},
		{
			"name":"BATH \u2022 Aged nickel",
			"normalTexture":{
				"index":3
			},
			"pbrMetallicRoughness":{
				"baseColorTexture":{
					"index":4
				},
				"metallicRoughnessTexture":{
					"index":5
				}
			}
		},
		{
			"name":"BATH \u2022 Primer wear",
			"pbrMetallicRoughness":{
				"baseColorFactor":[
					0.1899999976158142,
					0.18000000715255737,
					0.14000000059604645,
					1
				],
				"metallicFactor":0.3499999940395355,
				"roughnessFactor":0.8199999928474426
			}
		}
	],
	"meshes":[
		{
			"name":"Cubicle_Infill_355_Mesh.001",
			"primitives":[
				{
					"attributes":{
						"POSITION":0,
						"NORMAL":1,
						"TEXCOORD_0":2,
						"TANGENT":3
					},
					"indices":4,
					"material":0
				},
				{
					"attributes":{
						"POSITION":5,
						"NORMAL":6,
						"TEXCOORD_0":7,
						"TANGENT":8
					},
					"indices":9,
					"material":1
				},
				{
					"attributes":{
						"POSITION":10,
						"NORMAL":11,
						"TEXCOORD_0":12,
						"TANGENT":13
					},
					"indices":14,
					"material":2
				}
			]
		}
	],
	"textures":[
		{
			"sampler":0,
			"source":0
		},
		{
			"sampler":0,
			"source":1
		},
		{
			"sampler":0,
			"source":2
		},
		{
			"sampler":0,
			"source":3
		},
		{
			"sampler":0,
			"source":4
		},
		{
			"sampler":0,
			"source":5
		}
	],
	"images":[
		{
			"mimeType":"image/png",
			"name":"paint_worn_normal_opengl",
			"uri":"textures/paint_worn_normal_opengl.png"
		},
		{
			"mimeType":"image/png",
			"name":"paint_worn_basecolor",
			"uri":"textures/paint_worn_basecolor.png"
		},
		{
			"mimeType":"image/png",
			"name":"paint_worn_orm",
			"uri":"textures/paint_worn_orm.png"
		},
		{
			"mimeType":"image/png",
			"name":"nickel_used_normal_opengl",
			"uri":"textures/nickel_used_normal_opengl.png"
		},
		{
			"mimeType":"image/png",
			"name":"nickel_used_basecolor",
			"uri":"textures/nickel_used_basecolor.png"
		},
		{
			"mimeType":"image/png",
			"name":"nickel_used_orm",
			"uri":"textures/nickel_used_orm.png"
		}
	],
	"accessors":[
		{
			"bufferView":0,
			"componentType":5126,
			"count":96,
			"max":[
				0.17749999463558197,
				1.8199999332427979,
				0.017500000074505806
			],
			"min":[
				-0.17749999463558197,
				0,
				-0.017500000074505806
			],
			"type":"VEC3"
		},
		{
			"bufferView":1,
			"componentType":5126,
			"count":96,
			"type":"VEC3"
		},
		{
			"bufferView":2,
			"componentType":5126,
			"count":96,
			"type":"VEC2"
		},
		{
			"bufferView":3,
			"componentType":5126,
			"count":96,
			"type":"VEC4"
		},
		{
			"bufferView":4,
			"componentType":5123,
			"count":324,
			"type":"SCALAR"
		},
		{
			"bufferView":5,
			"componentType":5126,
			"count":192,
			"max":[
				-0.15049999952316284,
				1.6549999713897705,
				0.02149999886751175
			],
			"min":[
				-0.18549999594688416,
				0.1850000023841858,
				-0.03150000050663948
			],
			"type":"VEC3"
		},
		{
			"bufferView":6,
			"componentType":5126,
			"count":192,
			"type":"VEC3"
		},
		{
			"bufferView":7,
			"componentType":5126,
			"count":192,
			"type":"VEC2"
		},
		{
			"bufferView":8,
			"componentType":5126,
			"count":192,
			"type":"VEC4"
		},
		{
			"bufferView":9,
			"componentType":5123,
			"count":648,
			"type":"SCALAR"
		},
		{
			"bufferView":10,
			"componentType":5126,
			"count":96,
			"max":[
				0.17599999904632568,
				1.6545000076293945,
				0.019999999552965164
			],
			"min":[
				0.1680000126361847,
				0.18549996614456177,
				0.017999999225139618
			],
			"type":"VEC3"
		},
		{
			"bufferView":11,
			"componentType":5126,
			"count":96,
			"type":"VEC3"
		},
		{
			"bufferView":12,
			"componentType":5126,
			"count":96,
			"type":"VEC2"
		},
		{
			"bufferView":13,
			"componentType":5126,
			"count":96,
			"type":"VEC4"
		},
		{
			"bufferView":14,
			"componentType":5123,
			"count":264,
			"type":"SCALAR"
		}
	],
	"bufferViews":[
		{
			"buffer":0,
			"byteLength":1152,
			"byteOffset":0,
			"target":34962
		},
		{
			"buffer":0,
			"byteLength":1152,
			"byteOffset":1152,
			"target":34962
		},
		{
			"buffer":0,
			"byteLength":768,
			"byteOffset":2304,
			"target":34962
		},
		{
			"buffer":0,
			"byteLength":1536,
			"byteOffset":3072,
			"target":34962
		},
		{
			"buffer":0,
			"byteLength":648,
			"byteOffset":4608,
			"target":34963
		},
		{
			"buffer":0,
			"byteLength":2304,
			"byteOffset":5256,
			"target":34962
		},
		{
			"buffer":0,
			"byteLength":2304,
			"byteOffset":7560,
			"target":34962
		},
		{
			"buffer":0,
			"byteLength":1536,
			"byteOffset":9864,
			"target":34962
		},
		{
			"buffer":0,
			"byteLength":3072,
			"byteOffset":11400,
			"target":34962
		},
		{
			"buffer":0,
			"byteLength":1296,
			"byteOffset":14472,
			"target":34963
		},
		{
			"buffer":0,
			"byteLength":1152,
			"byteOffset":15768,
			"target":34962
		},
		{
			"buffer":0,
			"byteLength":1152,
			"byteOffset":16920,
			"target":34962
		},
		{
			"buffer":0,
			"byteLength":768,
			"byteOffset":18072,
			"target":34962
		},
		{
			"buffer":0,
			"byteLength":1536,
			"byteOffset":18840,
			"target":34962
		},
		{
			"buffer":0,
			"byteLength":528,
			"byteOffset":20376,
			"target":34963
		}
	],
	"samplers":[
		{
			"magFilter":9729,
			"minFilter":9987
		}
	],
	"buffers":[
		{
			"byteLength":20904,
			"uri":"Cubicle_Infill_355.bin"
		}
	]
}
