{
	"asset":{
		"generator":"Khronos glTF Blender I/O v5.2.39",
		"version":"2.0"
	},
	"scene":0,
	"scenes":[
		{
			"name":"BATHROOM \u2022 Reference scene",
			"nodes":[
				0
			]
		}
	],
	"nodes":[
		{
			"extras":{
				"asset_id":"Cubicle_Pilaster_150",
				"units":"meters",
				"front_axis_blender":"-Y",
				"pivot":"bottom center"
			},
			"mesh":0,
			"name":"Cubicle_Pilaster_150_Export"
		}
	],
	"materials":[
		{
			"name":"BATH \u2022 Worn paint",
			"normalTexture":{
				"index":0
			},
			"pbrMetallicRoughness":{
				"baseColorTexture":{
					"index":1
				},
				"metallicRoughnessTexture":{
					"index":2
				}
			}
		},
		{
			"name":"BATH \u2022 Aged nickel",
			"normalTexture":{
				"index":3
			},
			"pbrMetallicRoughness":{
				"baseColorTexture":{
					"index":4
				},
				"metallicRoughnessTexture":{
					"index":5
				}
			}
		},
		{
			"name":"BATH \u2022 Rubber",
			"pbrMetallicRoughness":{
				"baseColorFactor":[
					0.009999999776482582,
					0.010999999940395355,
					0.008999999612569809,
					1
				],
				"metallicFactor":0,
				"roughnessFactor":0.8500000238418579
			}
		},
		{
			"name":"BATH \u2022 Dark recess",
			"pbrMetallicRoughness":{
				"baseColorFactor":[
					0.00800000037997961,
					0.008999999612569809,
					0.00800000037997961,
					1
				],
				"metallicFactor":0,
				"roughnessFactor":0.949999988079071
			}
		}
	],
	"meshes":[
		{
			"name":"Cubicle_Pilaster_150_Mesh.001",
			"primitives":[
				{
					"attributes":{
						"POSITION":0,
						"NORMAL":1,
						"TEXCOORD_0":2,
						"TANGENT":3
					},
					"indices":4,
					"material":0
				},
				{
					"attributes":{
						"POSITION":5,
						"NORMAL":6,
						"TEXCOORD_0":7,
						"TANGENT":8
					},
					"indices":9,
					"material":1
				},
				{
					"attributes":{
						"POSITION":10,
						"NORMAL":11,
						"TEXCOORD_0":12,
						"TANGENT":13
					},
					"indices":14,
					"material":2
				},
				{
					"attributes":{
						"POSITION":15,
						"NORMAL":16,
						"TEXCOORD_0":17,
						"TANGENT":18
					},
					"indices":19,
					"material":3
				}
			]
		}
	],
	"textures":[
		{
			"sampler":0,
			"source":0
		},
		{
			"sampler":0,
			"source":1
		},
		{
			"sampler":0,
			"source":2
		},
		{
			"sampler":0,
			"source":3
		},
		{
			"sampler":0,
			"source":4
		},
		{
			"sampler":0,
			"source":5
		}
	],
	"images":[
		{
			"mimeType":"image/png",
			"name":"paint_worn_normal_opengl",
			"uri":"textures/paint_worn_normal_opengl.png"
		},
		{
			"mimeType":"image/png",
			"name":"paint_worn_basecolor",
			"uri":"textures/paint_worn_basecolor.png"
		},
		{
			"mimeType":"image/png",
			"name":"paint_worn_orm",
			"uri":"textures/paint_worn_orm.png"
		},
		{
			"mimeType":"image/png",
			"name":"nickel_used_normal_opengl",
			"uri":"textures/nickel_used_normal_opengl.png"
		},
		{
			"mimeType":"image/png",
			"name":"nickel_used_basecolor",
			"uri":"textures/nickel_used_basecolor.png"
		},
		{
			"mimeType":"image/png",
			"name":"nickel_used_orm",
			"uri":"textures/nickel_used_orm.png"
		}
	],
	"accessors":[
		{
			"bufferView":0,
			"componentType":5126,
			"count":96,
			"max":[
				0.07500000298023224,
				2.0199999809265137,
				0.023499999195337296
			],
			"min":[
				-0.07500000298023224,
				0.19999998807907104,
				-0.023499999195337296
			],
			"type":"VEC3"
		},
		{
			"bufferView":1,
			"componentType":5126,
			"count":96,
			"type":"VEC3"
		},
		{
			"bufferView":2,
			"componentType":5126,
			"count":96,
			"type":"VEC2"
		},
		{
			"bufferView":3,
			"componentType":5126,
			"count":96,
			"type":"VEC4"
		},
		{
			"bufferView":4,
			"componentType":5123,
			"count":324,
			"type":"SCALAR"
		},
		{
			"bufferView":5,
			"componentType":5126,
			"count":288,
			"max":[
				0.08500000089406967,
				1.8245000839233398,
				0.03200000151991844
			],
			"min":[
				-0.08500000089406967,
				0.04999995231628418,
				-0.03200000151991844
			],
			"type":"VEC3"
		},
		{
			"bufferView":6,
			"componentType":5126,
			"count":288,
			"type":"VEC3"
		},
		{
			"bufferView":7,
			"componentType":5126,
			"count":288,
			"type":"VEC2"
		},
		{
			"bufferView":8,
			"componentType":5126,
			"count":288,
			"type":"VEC4"
		},
		{
			"bufferView":9,
			"componentType":5123,
			"count":756,
			"type":"SCALAR"
		},
		{
			"bufferView":10,
			"componentType":5126,
			"count":96,
			"max":[
				0.0949999988079071,
				0.0280001163482666,
				0.042500000447034836
			],
			"min":[
				-0.0949999988079071,
				0,
				-0.042500000447034836
			],
			"type":"VEC3"
		},
		{
			"bufferView":11,
			"componentType":5126,
			"count":96,
			"type":"VEC3"
		},
		{
			"bufferView":12,
			"componentType":5126,
			"count":96,
			"type":"VEC2"
		},
		{
			"bufferView":13,
			"componentType":5126,
			"count":96,
			"type":"VEC4"
		},
		{
			"bufferView":14,
			"componentType":5123,
			"count":324,
			"type":"SCALAR"
		},
		{
			"bufferView":15,
			"componentType":5126,
			"count":96,
			"max":[
				0.0494999997317791,
				1.8204500675201416,
				0.02694999985396862
			],
			"min":[
				-0.0494999997317791,
				0.3695499897003174,
				0.025450000539422035
			],
			"type":"VEC3"
		},
		{
			"bufferView":16,
			"componentType":5126,
			"count":96,
			"type":"VEC3"
		},
		{
			"bufferView":17,
			"componentType":5126,
			"count":96,
			"type":"VEC2"
		},
		{
			"bufferView":18,
			"componentType":5126,
			"count":96,
			"type":"VEC4"
		},
		{
			"bufferView":19,
			"componentType":5123,
			"count":144,
			"type":"SCALAR"
		}
	],
	"bufferViews":[
		{
			"buffer":0,
			"byteLength":1152,
			"byteOffset":0,
			"target":34962
		},
		{
			"buffer":0,
			"byteLength":1152,
			"byteOffset":1152,
			"target":34962
		},
		{
			"buffer":0,
			"byteLength":768,
			"byteOffset":2304,
			"target":34962
		},
		{
			"buffer":0,
			"byteLength":1536,
			"byteOffset":3072,
			"target":34962
		},
		{
			"buffer":0,
			"byteLength":648,
			"byteOffset":4608,
			"target":34963
		},
		{
			"buffer":0,
			"byteLength":3456,
			"byteOffset":5256,
			"target":34962
		},
		{
			"buffer":0,
			"byteLength":3456,
			"byteOffset":8712,
			"target":34962
		},
		{
			"buffer":0,
			"byteLength":2304,
			"byteOffset":12168,
			"target":34962
		},
		{
			"buffer":0,
			"byteLength":4608,
			"byteOffset":14472,
			"target":34962
		},
		{
			"buffer":0,
			"byteLength":1512,
			"byteOffset":19080,
			"target":34963
		},
		{
			"buffer":0,
			"byteLength":1152,
			"byteOffset":20592,
			"target":34962
		},
		{
			"buffer":0,
			"byteLength":1152,
			"byteOffset":21744,
			"target":34962
		},
		{
			"buffer":0,
			"byteLength":768,
			"byteOffset":22896,
			"target":34962
		},
		{
			"buffer":0,
			"byteLength":1536,
			"byteOffset":23664,
			"target":34962
		},
		{
			"buffer":0,
			"byteLength":648,
			"byteOffset":25200,
			"target":34963
		},
		{
			"buffer":0,
			"byteLength":1152,
			"byteOffset":25848,
			"target":34962
		},
		{
			"buffer":0,
			"byteLength":1152,
			"byteOffset":27000,
			"target":34962
		},
		{
			"buffer":0,
			"byteLength":768,
			"byteOffset":28152,
			"target":34962
		},
		{
			"buffer":0,
			"byteLength":1536,
			"byteOffset":28920,
			"target":34962
		},
		{
			"buffer":0,
			"byteLength":288,
			"byteOffset":30456,
			"target":34963
		}
	],
	"samplers":[
		{
			"magFilter":9729,
			"minFilter":9987
		}
	],
	"buffers":[
		{
			"byteLength":30744,
			"uri":"Cubicle_Pilaster_150.bin"
		}
	]
}
