{
	"asset":{
		"generator":"Khronos glTF Blender I/O v5.2.39",
		"version":"2.0"
	},
	"scene":0,
	"scenes":[
		{
			"name":"BATHROOM \u2022 Reference scene",
			"nodes":[
				0
			]
		}
	],
	"nodes":[
		{
			"extras":{
				"asset_id":"Cubicle_Door_890",
				"units":"meters",
				"front_axis_blender":"-Y",
				"pivot":"hinge at local X=0, floor Z=0"
			},
			"mesh":0,
			"name":"Cubicle_Door_890_Export"
		}
	],
	"materials":[
		{
			"name":"BATH \u2022 Worn paint",
			"normalTexture":{
				"index":0
			},
			"pbrMetallicRoughness":{
				"baseColorTexture":{
					"index":1
				},
				"metallicRoughnessTexture":{
					"index":2
				}
			}
		},
		{
			"name":"BATH \u2022 Aged nickel",
			"normalTexture":{
				"index":3
			},
			"pbrMetallicRoughness":{
				"baseColorTexture":{
					"index":4
				},
				"metallicRoughnessTexture":{
					"index":5
				}
			}
		},
		{
			"name":"BATH \u2022 Dark recess",
			"pbrMetallicRoughness":{
				"baseColorFactor":[
					0.00800000037997961,
					0.008999999612569809,
					0.00800000037997961,
					1
				],
				"metallicFactor":0,
				"roughnessFactor":0.949999988079071
			}
		},
		{
			"name":"BATH \u2022 Dark polymer",
			"pbrMetallicRoughness":{
				"baseColorFactor":[
					0.023000000044703484,
					0.02500000037252903,
					0.023000000044703484,
					1
				],
				"metallicFactor":0,
				"roughnessFactor":0.6200000047683716
			}
		},
		{
			"name":"BATH \u2022 Paper",
			"pbrMetallicRoughness":{
				"baseColorFactor":[
					0.6800000071525574,
					0.6499999761581421,
					0.550000011920929,
					1
				],
				"metallicFactor":0,
				"roughnessFactor":0.8600000143051147
			}
		},
		{
			"name":"BATH \u2022 Primer wear",
			"pbrMetallicRoughness":{
				"baseColorFactor":[
					0.1899999976158142,
					0.18000000715255737,
					0.14000000059604645,
					1
				],
				"metallicFactor":0.3499999940395355,
				"roughnessFactor":0.8199999928474426
			}
		}
	],
	"meshes":[
		{
			"name":"Cubicle_Door_890_Mesh.001",
			"primitives":[
				{
					"attributes":{
						"POSITION":0,
						"NORMAL":1,
						"TEXCOORD_0":2,
						"TANGENT":3
					},
					"indices":4,
					"material":0
				},
				{
					"attributes":{
						"POSITION":5,
						"NORMAL":6,
						"TEXCOORD_0":7,
						"TANGENT":8
					},
					"indices":9,
					"material":1
				},
				{
					"attributes":{
						"POSITION":10,
						"NORMAL":11,
						"TEXCOORD_0":12,
						"TANGENT":13
					},
					"indices":14,
					"material":2
				},
				{
					"attributes":{
						"POSITION":15,
						"NORMAL":16,
						"TEXCOORD_0":17,
						"TANGENT":18
					},
					"indices":19,
					"material":3
				},
				{
					"attributes":{
						"POSITION":20,
						"NORMAL":21,
						"TEXCOORD_0":22,
						"TANGENT":23
					},
					"indices":24,
					"material":4
				},
				{
					"attributes":{
						"POSITION":25,
						"NORMAL":26,
						"TEXCOORD_0":27,
						"TANGENT":28
					},
					"indices":29,
					"material":5
				}
			]
		}
	],
	"textures":[
		{
			"sampler":0,
			"source":0
		},
		{
			"sampler":0,
			"source":1
		},
		{
			"sampler":0,
			"source":2
		},
		{
			"sampler":0,
			"source":3
		},
		{
			"sampler":0,
			"source":4
		},
		{
			"sampler":0,
			"source":5
		}
	],
	"images":[
		{
			"mimeType":"image/png",
			"name":"paint_worn_normal_opengl",
			"uri":"textures/paint_worn_normal_opengl.png"
		},
		{
			"mimeType":"image/png",
			"name":"paint_worn_basecolor",
			"uri":"textures/paint_worn_basecolor.png"
		},
		{
			"mimeType":"image/png",
			"name":"paint_worn_orm",
			"uri":"textures/paint_worn_orm.png"
		},
		{
			"mimeType":"image/png",
			"name":"nickel_used_normal_opengl",
			"uri":"textures/nickel_used_normal_opengl.png"
		},
		{
			"mimeType":"image/png",
			"name":"nickel_used_basecolor",
			"uri":"textures/nickel_used_basecolor.png"
		},
		{
			"mimeType":"image/png",
			"name":"nickel_used_orm",
			"uri":"textures/nickel_used_orm.png"
		}
	],
	"accessors":[
		{
			"bufferView":0,
			"componentType":5126,
			"count":96,
			"max":[
				0.8899999856948853,
				1.9900000095367432,
				0.01600000075995922
			],
			"min":[
				0,
				0.21000003814697266,
				-0.01600000075995922
			],
			"type":"VEC3"
		},
		{
			"bufferView":1,
			"componentType":5126,
			"count":96,
			"type":"VEC3"
		},
		{
			"bufferView":2,
			"componentType":5126,
			"count":96,
			"type":"VEC2"
		},
		{
			"bufferView":3,
			"componentType":5126,
			"count":96,
			"type":"VEC4"
		},
		{
			"bufferView":4,
			"componentType":5123,
			"count":324,
			"type":"SCALAR"
		},
		{
			"bufferView":5,
			"componentType":5126,
			"count":1144,
			"max":[
				0.8819999694824219,
				1.7699999809265137,
				0.06399999558925629
			],
			"min":[
				-0.020999997854232788,
				0.23500001430511475,
				-0.03999999910593033
			],
			"type":"VEC3"
		},
		{
			"bufferView":6,
			"componentType":5126,
			"count":1144,
			"type":"VEC3"
		},
		{
			"bufferView":7,
			"componentType":5126,
			"count":1144,
			"type":"VEC2"
		},
		{
			"bufferView":8,
			"componentType":5126,
			"count":1144,
			"type":"VEC4"
		},
		{
			"bufferView":9,
			"componentType":5123,
			"count":3624,
			"type":"SCALAR"
		},
		{
			"bufferView":10,
			"componentType":5126,
			"count":96,
			"max":[
				0.0494999885559082,
				1.7464500665664673,
				0.02694999985396862
			],
			"min":[
				0.044499993324279785,
				0.4435499906539917,
				0.025450000539422035
			],
			"type":"VEC3"
		},
		{
			"bufferView":11,
			"componentType":5126,
			"count":96,
			"type":"VEC3"
		},
		{
			"bufferView":12,
			"componentType":5126,
			"count":96,
			"type":"VEC2"
		},
		{
			"bufferView":13,
			"componentType":5126,
			"count":96,
			"type":"VEC4"
		},
		{
			"bufferView":14,
			"componentType":5123,
			"count":144,
			"type":"SCALAR"
		},
		{
			"bufferView":15,
			"componentType":5126,
			"count":128,
			"max":[
				0.8209999799728394,
				1.0609999895095825,
				0.036500003188848495
			],
			"min":[
				0.7890000343322754,
				1.028999924659729,
				0.027500001713633537
			],
			"type":"VEC3"
		},
		{
			"bufferView":16,
			"componentType":5126,
			"count":128,
			"type":"VEC3"
		},
		{
			"bufferView":17,
			"componentType":5126,
			"count":128,
			"type":"VEC2"
		},
		{
			"bufferView":18,
			"componentType":5126,
			"count":128,
			"type":"VEC4"
		},
		{
			"bufferView":19,
			"componentType":5123,
			"count":468,
			"type":"SCALAR"
		},
		{
			"bufferView":20,
			"componentType":5126,
			"count":96,
			"max":[
				0.8135000467300415,
				1.0469999313354492,
				0.03799999877810478
			],
			"min":[
				0.7964999675750732,
				1.0429999828338623,
				0.036000002175569534
			],
			"type":"VEC3"
		},
		{
			"bufferView":21,
			"componentType":5126,
			"count":96,
			"type":"VEC3"
		},
		{
			"bufferView":22,
			"componentType":5126,
			"count":96,
			"type":"VEC2"
		},
		{
			"bufferView":23,
			"componentType":5126,
			"count":96,
			"type":"VEC4"
		},
		{
			"bufferView":24,
			"componentType":5123,
			"count":324,
			"type":"SCALAR"
		},
		{
			"bufferView":25,
			"componentType":5126,
			"count":144,
			"max":[
				0.765500009059906,
				1.0945000648498535,
				0.018400000408291817
			],
			"min":[
				0.2175000011920929,
				0.2120000123977661,
				0.016999999061226845
			],
			"type":"VEC3"
		},
		{
			"bufferView":26,
			"componentType":5126,
			"count":144,
			"type":"VEC3"
		},
		{
			"bufferView":27,
			"componentType":5126,
			"count":144,
			"type":"VEC2"
		},
		{
			"bufferView":28,
			"componentType":5126,
			"count":144,
			"type":"VEC4"
		},
		{
			"bufferView":29,
			"componentType":5123,
			"count":396,
			"type":"SCALAR"
		}
	],
	"bufferViews":[
		{
			"buffer":0,
			"byteLength":1152,
			"byteOffset":0,
			"target":34962
		},
		{
			"buffer":0,
			"byteLength":1152,
			"byteOffset":1152,
			"target":34962
		},
		{
			"buffer":0,
			"byteLength":768,
			"byteOffset":2304,
			"target":34962
		},
		{
			"buffer":0,
			"byteLength":1536,
			"byteOffset":3072,
			"target":34962
		},
		{
			"buffer":0,
			"byteLength":648,
			"byteOffset":4608,
			"target":34963
		},
		{
			"buffer":0,
			"byteLength":13728,
			"byteOffset":5256,
			"target":34962
		},
		{
			"buffer":0,
			"byteLength":13728,
			"byteOffset":18984,
			"target":34962
		},
		{
			"buffer":0,
			"byteLength":9152,
			"byteOffset":32712,
			"target":34962
		},
		{
			"buffer":0,
			"byteLength":18304,
			"byteOffset":41864,
			"target":34962
		},
		{
			"buffer":0,
			"byteLength":7248,
			"byteOffset":60168,
			"target":34963
		},
		{
			"buffer":0,
			"byteLength":1152,
			"byteOffset":67416,
			"target":34962
		},
		{
			"buffer":0,
			"byteLength":1152,
			"byteOffset":68568,
			"target":34962
		},
		{
			"buffer":0,
			"byteLength":768,
			"byteOffset":69720,
			"target":34962
		},
		{
			"buffer":0,
			"byteLength":1536,
			"byteOffset":70488,
			"target":34962
		},
		{
			"buffer":0,
			"byteLength":288,
			"byteOffset":72024,
			"target":34963
		},
		{
			"buffer":0,
			"byteLength":1536,
			"byteOffset":72312,
			"target":34962
		},
		{
			"buffer":0,
			"byteLength":1536,
			"byteOffset":73848,
			"target":34962
		},
		{
			"buffer":0,
			"byteLength":1024,
			"byteOffset":75384,
			"target":34962
		},
		{
			"buffer":0,
			"byteLength":2048,
			"byteOffset":76408,
			"target":34962
		},
		{
			"buffer":0,
			"byteLength":936,
			"byteOffset":78456,
			"target":34963
		},
		{
			"buffer":0,
			"byteLength":1152,
			"byteOffset":79392,
			"target":34962
		},
		{
			"buffer":0,
			"byteLength":1152,
			"byteOffset":80544,
			"target":34962
		},
		{
			"buffer":0,
			"byteLength":768,
			"byteOffset":81696,
			"target":34962
		},
		{
			"buffer":0,
			"byteLength":1536,
			"byteOffset":82464,
			"target":34962
		},
		{
			"buffer":0,
			"byteLength":648,
			"byteOffset":84000,
			"target":34963
		},
		{
			"buffer":0,
			"byteLength":1728,
			"byteOffset":84648,
			"target":34962
		},
		{
			"buffer":0,
			"byteLength":1728,
			"byteOffset":86376,
			"target":34962
		},
		{
			"buffer":0,
			"byteLength":1152,
			"byteOffset":88104,
			"target":34962
		},
		{
			"buffer":0,
			"byteLength":2304,
			"byteOffset":89256,
			"target":34962
		},
		{
			"buffer":0,
			"byteLength":792,
			"byteOffset":91560,
			"target":34963
		}
	],
	"samplers":[
		{
			"magFilter":9729,
			"minFilter":9987
		}
	],
	"buffers":[
		{
			"byteLength":92352,
			"uri":"Cubicle_Door_890.bin"
		}
	]
}
