{
	"asset":{
		"generator":"Khronos glTF Blender I/O v5.2.39",
		"version":"2.0"
	},
	"extensionsUsed":[
		"KHR_materials_emissive_strength"
	],
	"scene":0,
	"scenes":[
		{
			"name":"BATHROOM \u2022 Reference scene",
			"nodes":[
				0
			]
		}
	],
	"nodes":[
		{
			"extras":{
				"asset_id":"Fluorescent_Fixture_1240",
				"units":"meters",
				"front_axis_blender":"-Y",
				"pivot":"bottom center"
			},
			"mesh":0,
			"name":"Fluorescent_Fixture_1240_Export"
		}
	],
	"materials":[
		{
			"name":"BATH \u2022 Worn paint",
			"normalTexture":{
				"index":0
			},
			"pbrMetallicRoughness":{
				"baseColorTexture":{
					"index":1
				},
				"metallicRoughnessTexture":{
					"index":2
				}
			}
		},
		{
			"name":"BATH \u2022 Aged nickel",
			"normalTexture":{
				"index":3
			},
			"pbrMetallicRoughness":{
				"baseColorTexture":{
					"index":4
				},
				"metallicRoughnessTexture":{
					"index":5
				}
			}
		},
		{
			"emissiveFactor":[
				1,
				1,
				1
			],
			"emissiveTexture":{
				"index":6
			},
			"extensions":{
				"KHR_materials_emissive_strength":{
					"emissiveStrength":2
				}
			},
			"name":"BATH \u2022 Warm phosphor",
			"pbrMetallicRoughness":{
				"baseColorFactor":[
					0.800000011920929,
					0.8299999833106995,
					0.7699999809265137,
					1
				],
				"metallicFactor":0,
				"roughnessFactor":0.44999998807907104
			}
		},
		{
			"name":"BATH \u2022 Dark polymer",
			"pbrMetallicRoughness":{
				"baseColorFactor":[
					0.023000000044703484,
					0.02500000037252903,
					0.023000000044703484,
					1
				],
				"metallicFactor":0,
				"roughnessFactor":0.6200000047683716
			}
		}
	],
	"meshes":[
		{
			"name":"Fluorescent_Fixture_1240_Mesh.001",
			"primitives":[
				{
					"attributes":{
						"POSITION":0,
						"NORMAL":1,
						"TEXCOORD_0":2,
						"TANGENT":3
					},
					"indices":4,
					"material":0
				},
				{
					"attributes":{
						"POSITION":5,
						"NORMAL":6,
						"TEXCOORD_0":7,
						"TANGENT":8
					},
					"indices":9,
					"material":1
				},
				{
					"attributes":{
						"POSITION":10,
						"NORMAL":11,
						"TEXCOORD_0":12,
						"TANGENT":13
					},
					"indices":14,
					"material":2
				},
				{
					"attributes":{
						"POSITION":15,
						"NORMAL":16,
						"TEXCOORD_0":17,
						"TANGENT":18
					},
					"indices":19,
					"material":3
				}
			]
		}
	],
	"textures":[
		{
			"sampler":0,
			"source":0
		},
		{
			"sampler":0,
			"source":1
		},
		{
			"sampler":0,
			"source":2
		},
		{
			"sampler":0,
			"source":3
		},
		{
			"sampler":0,
			"source":4
		},
		{
			"sampler":0,
			"source":5
		},
		{
			"sampler":0,
			"source":6
		}
	],
	"images":[
		{
			"mimeType":"image/png",
			"name":"paint_worn_normal_opengl",
			"uri":"textures/paint_worn_normal_opengl.png"
		},
		{
			"mimeType":"image/png",
			"name":"paint_worn_basecolor",
			"uri":"textures/paint_worn_basecolor.png"
		},
		{
			"mimeType":"image/png",
			"name":"paint_worn_orm",
			"uri":"textures/paint_worn_orm.png"
		},
		{
			"mimeType":"image/png",
			"name":"nickel_used_normal_opengl",
			"uri":"textures/nickel_used_normal_opengl.png"
		},
		{
			"mimeType":"image/png",
			"name":"nickel_used_basecolor",
			"uri":"textures/nickel_used_basecolor.png"
		},
		{
			"mimeType":"image/png",
			"name":"nickel_used_orm",
			"uri":"textures/nickel_used_orm.png"
		},
		{
			"mimeType":"image/png",
			"name":"tube_emission",
			"uri":"textures/tube_emission.png"
		}
	],
	"accessors":[
		{
			"bufferView":0,
			"componentType":5126,
			"count":52,
			"max":[
				0.6200000047683716,
				0.16850003600120544,
				0.10499999672174454
			],
			"min":[
				-0.6200000047683716,
				0.051500022411346436,
				-0.10499999672174454
			],
			"type":"VEC3"
		},
		{
			"bufferView":1,
			"componentType":5126,
			"count":52,
			"type":"VEC3"
		},
		{
			"bufferView":2,
			"componentType":5126,
			"count":52,
			"type":"VEC2"
		},
		{
			"bufferView":3,
			"componentType":5126,
			"count":52,
			"type":"VEC4"
		},
		{
			"bufferView":4,
			"componentType":5123,
			"count":96,
			"type":"SCALAR"
		},
		{
			"bufferView":5,
			"componentType":5126,
			"count":1220,
			"max":[
				0.5659999847412109,
				0.19350001215934753,
				0.09940185397863388
			],
			"min":[
				-0.5659999847412109,
				0,
				-0.09940185397863388
			],
			"type":"VEC3"
		},
		{
			"bufferView":6,
			"componentType":5126,
			"count":1220,
			"type":"VEC3"
		},
		{
			"bufferView":7,
			"componentType":5126,
			"count":1220,
			"type":"VEC2"
		},
		{
			"bufferView":8,
			"componentType":5126,
			"count":1220,
			"type":"VEC4"
		},
		{
			"bufferView":9,
			"componentType":5123,
			"count":3432,
			"type":"SCALAR"
		},
		{
			"bufferView":10,
			"componentType":5126,
			"count":208,
			"max":[
				0.5260000228881836,
				0.060500044375658035,
				0.061000000685453415
			],
			"min":[
				-0.5260000228881836,
				0.024500001221895218,
				-0.061000000685453415
			],
			"type":"VEC3"
		},
		{
			"bufferView":11,
			"componentType":5126,
			"count":208,
			"type":"VEC3"
		},
		{
			"bufferView":12,
			"componentType":5126,
			"count":208,
			"type":"VEC2"
		},
		{
			"bufferView":13,
			"componentType":5126,
			"count":208,
			"type":"VEC4"
		},
		{
			"bufferView":14,
			"componentType":5123,
			"count":552,
			"type":"SCALAR"
		},
		{
			"bufferView":15,
			"componentType":5126,
			"count":384,
			"max":[
				0.5634999871253967,
				0.09250002354383469,
				0.06949999928474426
			],
			"min":[
				-0.5634999871253967,
				0.028500022366642952,
				-0.06949999928474426
			],
			"type":"VEC3"
		},
		{
			"bufferView":16,
			"componentType":5126,
			"count":384,
			"type":"VEC3"
		},
		{
			"bufferView":17,
			"componentType":5126,
			"count":384,
			"type":"VEC2"
		},
		{
			"bufferView":18,
			"componentType":5126,
			"count":384,
			"type":"VEC4"
		},
		{
			"bufferView":19,
			"componentType":5123,
			"count":1296,
			"type":"SCALAR"
		}
	],
	"bufferViews":[
		{
			"buffer":0,
			"byteLength":624,
			"byteOffset":0,
			"target":34962
		},
		{
			"buffer":0,
			"byteLength":624,
			"byteOffset":624,
			"target":34962
		},
		{
			"buffer":0,
			"byteLength":416,
			"byteOffset":1248,
			"target":34962
		},
		{
			"buffer":0,
			"byteLength":832,
			"byteOffset":1664,
			"target":34962
		},
		{
			"buffer":0,
			"byteLength":192,
			"byteOffset":2496,
			"target":34963
		},
		{
			"buffer":0,
			"byteLength":14640,
			"byteOffset":2688,
			"target":34962
		},
		{
			"buffer":0,
			"byteLength":14640,
			"byteOffset":17328,
			"target":34962
		},
		{
			"buffer":0,
			"byteLength":9760,
			"byteOffset":31968,
			"target":34962
		},
		{
			"buffer":0,
			"byteLength":19520,
			"byteOffset":41728,
			"target":34962
		},
		{
			"buffer":0,
			"byteLength":6864,
			"byteOffset":61248,
			"target":34963
		},
		{
			"buffer":0,
			"byteLength":2496,
			"byteOffset":68112,
			"target":34962
		},
		{
			"buffer":0,
			"byteLength":2496,
			"byteOffset":70608,
			"target":34962
		},
		{
			"buffer":0,
			"byteLength":1664,
			"byteOffset":73104,
			"target":34962
		},
		{
			"buffer":0,
			"byteLength":3328,
			"byteOffset":74768,
			"target":34962
		},
		{
			"buffer":0,
			"byteLength":1104,
			"byteOffset":78096,
			"target":34963
		},
		{
			"buffer":0,
			"byteLength":4608,
			"byteOffset":79200,
			"target":34962
		},
		{
			"buffer":0,
			"byteLength":4608,
			"byteOffset":83808,
			"target":34962
		},
		{
			"buffer":0,
			"byteLength":3072,
			"byteOffset":88416,
			"target":34962
		},
		{
			"buffer":0,
			"byteLength":6144,
			"byteOffset":91488,
			"target":34962
		},
		{
			"buffer":0,
			"byteLength":2592,
			"byteOffset":97632,
			"target":34963
		}
	],
	"samplers":[
		{
			"magFilter":9729,
			"minFilter":9987
		}
	],
	"buffers":[
		{
			"byteLength":100224,
			"uri":"Fluorescent_Fixture_1240.bin"
		}
	]
}
