{
	"asset":{
		"generator":"Khronos glTF Blender I/O v5.2.39",
		"version":"2.0"
	},
	"scene":0,
	"scenes":[
		{
			"name":"BATHROOM \u2022 Reference scene",
			"nodes":[
				0
			]
		}
	],
	"nodes":[
		{
			"extras":{
				"asset_id":"Mirror_Dulled_460x800",
				"units":"meters",
				"front_axis_blender":"-Y",
				"pivot":"bottom center"
			},
			"mesh":0,
			"name":"Mirror_Dulled_460x800_Export"
		}
	],
	"materials":[
		{
			"name":"BATH \u2022 Worn paint",
			"normalTexture":{
				"index":0
			},
			"pbrMetallicRoughness":{
				"baseColorTexture":{
					"index":1
				},
				"metallicRoughnessTexture":{
					"index":2
				}
			}
		},
		{
			"name":"BATH \u2022 Dulled mirror",
			"normalTexture":{
				"index":3
			},
			"pbrMetallicRoughness":{
				"baseColorTexture":{
					"index":4
				},
				"metallicRoughnessTexture":{
					"index":5
				}
			}
		},
		{
			"name":"BATH \u2022 Aged nickel",
			"normalTexture":{
				"index":6
			},
			"pbrMetallicRoughness":{
				"baseColorTexture":{
					"index":7
				},
				"metallicRoughnessTexture":{
					"index":8
				}
			}
		},
		{
			"name":"BATH \u2022 Dark recess",
			"pbrMetallicRoughness":{
				"baseColorFactor":[
					0.00800000037997961,
					0.008999999612569809,
					0.00800000037997961,
					1
				],
				"metallicFactor":0,
				"roughnessFactor":0.949999988079071
			}
		}
	],
	"meshes":[
		{
			"name":"Mirror_Dulled_460x800_Mesh.001",
			"primitives":[
				{
					"attributes":{
						"POSITION":0,
						"NORMAL":1,
						"TEXCOORD_0":2,
						"TANGENT":3
					},
					"indices":4,
					"material":0
				},
				{
					"attributes":{
						"POSITION":5,
						"NORMAL":6,
						"TEXCOORD_0":7,
						"TANGENT":8
					},
					"indices":9,
					"material":1
				},
				{
					"attributes":{
						"POSITION":10,
						"NORMAL":11,
						"TEXCOORD_0":12,
						"TANGENT":13
					},
					"indices":14,
					"material":2
				},
				{
					"attributes":{
						"POSITION":15,
						"NORMAL":16,
						"TEXCOORD_0":17,
						"TANGENT":18
					},
					"indices":19,
					"material":3
				}
			]
		}
	],
	"textures":[
		{
			"sampler":0,
			"source":0
		},
		{
			"sampler":0,
			"source":1
		},
		{
			"sampler":0,
			"source":2
		},
		{
			"sampler":0,
			"source":3
		},
		{
			"sampler":0,
			"source":4
		},
		{
			"sampler":0,
			"source":5
		},
		{
			"sampler":0,
			"source":6
		},
		{
			"sampler":0,
			"source":7
		},
		{
			"sampler":0,
			"source":8
		}
	],
	"images":[
		{
			"mimeType":"image/png",
			"name":"paint_worn_normal_opengl",
			"uri":"textures/paint_worn_normal_opengl.png"
		},
		{
			"mimeType":"image/png",
			"name":"paint_worn_basecolor",
			"uri":"textures/paint_worn_basecolor.png"
		},
		{
			"mimeType":"image/png",
			"name":"paint_worn_orm",
			"uri":"textures/paint_worn_orm.png"
		},
		{
			"mimeType":"image/png",
			"name":"mirror_dulled_normal_opengl",
			"uri":"textures/mirror_dulled_normal_opengl.png"
		},
		{
			"mimeType":"image/png",
			"name":"mirror_dulled_basecolor",
			"uri":"textures/mirror_dulled_basecolor.png"
		},
		{
			"mimeType":"image/png",
			"name":"mirror_dulled_orm",
			"uri":"textures/mirror_dulled_orm.png"
		},
		{
			"mimeType":"image/png",
			"name":"nickel_used_normal_opengl",
			"uri":"textures/nickel_used_normal_opengl.png"
		},
		{
			"mimeType":"image/png",
			"name":"nickel_used_basecolor",
			"uri":"textures/nickel_used_basecolor.png"
		},
		{
			"mimeType":"image/png",
			"name":"nickel_used_orm",
			"uri":"textures/nickel_used_orm.png"
		}
	],
	"accessors":[
		{
			"bufferView":0,
			"componentType":5126,
			"count":96,
			"max":[
				0.23000000417232513,
				0.8055000305175781,
				-0.005499999038875103
			],
			"min":[
				-0.23000000417232513,
				0.005499988794326782,
				-0.030499998480081558
			],
			"type":"VEC3"
		},
		{
			"bufferView":1,
			"componentType":5126,
			"count":96,
			"type":"VEC3"
		},
		{
			"bufferView":2,
			"componentType":5126,
			"count":96,
			"type":"VEC2"
		},
		{
			"bufferView":3,
			"componentType":5126,
			"count":96,
			"type":"VEC4"
		},
		{
			"bufferView":4,
			"componentType":5123,
			"count":324,
			"type":"SCALAR"
		},
		{
			"bufferView":5,
			"componentType":5126,
			"count":96,
			"max":[
				0.21299999952316284,
				0.7884999513626099,
				0.013000000268220901
			],
			"min":[
				-0.21299999952316284,
				0.02250000834465027,
				-0.004999998956918716
			],
			"type":"VEC3"
		},
		{
			"bufferView":6,
			"componentType":5126,
			"count":96,
			"type":"VEC3"
		},
		{
			"bufferView":7,
			"componentType":5126,
			"count":96,
			"type":"VEC2"
		},
		{
			"bufferView":8,
			"componentType":5126,
			"count":96,
			"type":"VEC4"
		},
		{
			"bufferView":9,
			"componentType":5123,
			"count":324,
			"type":"SCALAR"
		},
		{
			"bufferView":10,
			"componentType":5126,
			"count":576,
			"max":[
				0.23399999737739563,
				0.8109999895095825,
				0.02969999797642231
			],
			"min":[
				-0.23399999737739563,
				0,
				-0.007500000298023224
			],
			"type":"VEC3"
		},
		{
			"bufferView":11,
			"componentType":5126,
			"count":576,
			"type":"VEC3"
		},
		{
			"bufferView":12,
			"componentType":5126,
			"count":576,
			"type":"VEC2"
		},
		{
			"bufferView":13,
			"componentType":5126,
			"count":576,
			"type":"VEC4"
		},
		{
			"bufferView":14,
			"componentType":5123,
			"count":1728,
			"type":"SCALAR"
		},
		{
			"bufferView":15,
			"componentType":5126,
			"count":96,
			"max":[
				0.2224999964237213,
				0.7409499883651733,
				0.030950000509619713
			],
			"min":[
				-0.2224999964237213,
				0.07005000114440918,
				0.02944999746978283
			],
			"type":"VEC3"
		},
		{
			"bufferView":16,
			"componentType":5126,
			"count":96,
			"type":"VEC3"
		},
		{
			"bufferView":17,
			"componentType":5126,
			"count":96,
			"type":"VEC2"
		},
		{
			"bufferView":18,
			"componentType":5126,
			"count":96,
			"type":"VEC4"
		},
		{
			"bufferView":19,
			"componentType":5123,
			"count":144,
			"type":"SCALAR"
		}
	],
	"bufferViews":[
		{
			"buffer":0,
			"byteLength":1152,
			"byteOffset":0,
			"target":34962
		},
		{
			"buffer":0,
			"byteLength":1152,
			"byteOffset":1152,
			"target":34962
		},
		{
			"buffer":0,
			"byteLength":768,
			"byteOffset":2304,
			"target":34962
		},
		{
			"buffer":0,
			"byteLength":1536,
			"byteOffset":3072,
			"target":34962
		},
		{
			"buffer":0,
			"byteLength":648,
			"byteOffset":4608,
			"target":34963
		},
		{
			"buffer":0,
			"byteLength":1152,
			"byteOffset":5256,
			"target":34962
		},
		{
			"buffer":0,
			"byteLength":1152,
			"byteOffset":6408,
			"target":34962
		},
		{
			"buffer":0,
			"byteLength":768,
			"byteOffset":7560,
			"target":34962
		},
		{
			"buffer":0,
			"byteLength":1536,
			"byteOffset":8328,
			"target":34962
		},
		{
			"buffer":0,
			"byteLength":648,
			"byteOffset":9864,
			"target":34963
		},
		{
			"buffer":0,
			"byteLength":6912,
			"byteOffset":10512,
			"target":34962
		},
		{
			"buffer":0,
			"byteLength":6912,
			"byteOffset":17424,
			"target":34962
		},
		{
			"buffer":0,
			"byteLength":4608,
			"byteOffset":24336,
			"target":34962
		},
		{
			"buffer":0,
			"byteLength":9216,
			"byteOffset":28944,
			"target":34962
		},
		{
			"buffer":0,
			"byteLength":3456,
			"byteOffset":38160,
			"target":34963
		},
		{
			"buffer":0,
			"byteLength":1152,
			"byteOffset":41616,
			"target":34962
		},
		{
			"buffer":0,
			"byteLength":1152,
			"byteOffset":42768,
			"target":34962
		},
		{
			"buffer":0,
			"byteLength":768,
			"byteOffset":43920,
			"target":34962
		},
		{
			"buffer":0,
			"byteLength":1536,
			"byteOffset":44688,
			"target":34962
		},
		{
			"buffer":0,
			"byteLength":288,
			"byteOffset":46224,
			"target":34963
		}
	],
	"samplers":[
		{
			"magFilter":9729,
			"minFilter":9987
		}
	],
	"buffers":[
		{
			"byteLength":46512,
			"uri":"Mirror_Dulled_460x800.bin"
		}
	]
}
