{
	"asset":{
		"generator":"Khronos glTF Blender I/O v5.2.39",
		"version":"2.0"
	},
	"scene":0,
	"scenes":[
		{
			"name":"BATHROOM \u2022 Reference scene",
			"nodes":[
				0
			]
		}
	],
	"nodes":[
		{
			"extras":{
				"asset_id":"Paper_Towel_Dispenser",
				"units":"meters",
				"front_axis_blender":"-Y",
				"pivot":"bottom center"
			},
			"mesh":0,
			"name":"Paper_Towel_Dispenser_Export"
		}
	],
	"materials":[
		{
			"name":"BATH \u2022 Aged nickel",
			"normalTexture":{
				"index":0
			},
			"pbrMetallicRoughness":{
				"baseColorTexture":{
					"index":1
				},
				"metallicRoughnessTexture":{
					"index":2
				}
			}
		},
		{
			"name":"BATH \u2022 Dark polymer",
			"pbrMetallicRoughness":{
				"baseColorFactor":[
					0.023000000044703484,
					0.02500000037252903,
					0.023000000044703484,
					1
				],
				"metallicFactor":0,
				"roughnessFactor":0.6200000047683716
			}
		},
		{
			"name":"BATH \u2022 Dark recess",
			"pbrMetallicRoughness":{
				"baseColorFactor":[
					0.00800000037997961,
					0.008999999612569809,
					0.00800000037997961,
					1
				],
				"metallicFactor":0,
				"roughnessFactor":0.949999988079071
			}
		},
		{
			"name":"BATH \u2022 Paper",
			"pbrMetallicRoughness":{
				"baseColorFactor":[
					0.6800000071525574,
					0.6499999761581421,
					0.550000011920929,
					1
				],
				"metallicFactor":0,
				"roughnessFactor":0.8600000143051147
			}
		}
	],
	"meshes":[
		{
			"name":"Paper_Towel_Dispenser_Mesh.001",
			"primitives":[
				{
					"attributes":{
						"POSITION":0,
						"NORMAL":1,
						"TEXCOORD_0":2,
						"TANGENT":3
					},
					"indices":4,
					"material":0
				},
				{
					"attributes":{
						"POSITION":5,
						"NORMAL":6,
						"TEXCOORD_0":7,
						"TANGENT":8
					},
					"indices":9,
					"material":1
				},
				{
					"attributes":{
						"POSITION":10,
						"NORMAL":11,
						"TEXCOORD_0":12,
						"TANGENT":13
					},
					"indices":14,
					"material":2
				},
				{
					"attributes":{
						"POSITION":15,
						"NORMAL":16,
						"TEXCOORD_0":17,
						"TANGENT":18
					},
					"indices":19,
					"material":3
				}
			]
		}
	],
	"textures":[
		{
			"sampler":0,
			"source":0
		},
		{
			"sampler":0,
			"source":1
		},
		{
			"sampler":0,
			"source":2
		}
	],
	"images":[
		{
			"mimeType":"image/png",
			"name":"nickel_used_normal_opengl",
			"uri":"textures/nickel_used_normal_opengl.png"
		},
		{
			"mimeType":"image/png",
			"name":"nickel_used_basecolor",
			"uri":"textures/nickel_used_basecolor.png"
		},
		{
			"mimeType":"image/png",
			"name":"nickel_used_orm",
			"uri":"textures/nickel_used_orm.png"
		}
	],
	"accessors":[
		{
			"bufferView":0,
			"componentType":5126,
			"count":296,
			"max":[
				0.14249999821186066,
				0.42750000953674316,
				0.13200001418590546
			],
			"min":[
				-0.14249999821186066,
				0.08249999582767487,
				-0.029999999329447746
			],
			"type":"VEC3"
		},
		{
			"bufferView":1,
			"componentType":5126,
			"count":296,
			"type":"VEC3"
		},
		{
			"bufferView":2,
			"componentType":5126,
			"count":296,
			"type":"VEC2"
		},
		{
			"bufferView":3,
			"componentType":5126,
			"count":296,
			"type":"VEC4"
		},
		{
			"bufferView":4,
			"componentType":5123,
			"count":1020,
			"type":"SCALAR"
		},
		{
			"bufferView":5,
			"componentType":5126,
			"count":157,
			"max":[
				0.1550000011920929,
				0.43199998140335083,
				0.12549999356269836
			],
			"min":[
				-0.1550000011920929,
				0.0820000022649765,
				-0.011500000022351742
			],
			"type":"VEC3"
		},
		{
			"bufferView":6,
			"componentType":5126,
			"count":157,
			"type":"VEC3"
		},
		{
			"bufferView":7,
			"componentType":5126,
			"count":157,
			"type":"VEC2"
		},
		{
			"bufferView":8,
			"componentType":5126,
			"count":157,
			"type":"VEC4"
		},
		{
			"bufferView":9,
			"componentType":5123,
			"count":564,
			"type":"SCALAR"
		},
		{
			"bufferView":10,
			"componentType":5126,
			"count":96,
			"max":[
				0.1145000010728836,
				0.09049999713897705,
				0.12700000405311584
			],
			"min":[
				-0.1145000010728836,
				0.07749998569488525,
				0.05300000309944153
			],
			"type":"VEC3"
		},
		{
			"bufferView":11,
			"componentType":5126,
			"count":96,
			"type":"VEC3"
		},
		{
			"bufferView":12,
			"componentType":5126,
			"count":96,
			"type":"VEC2"
		},
		{
			"bufferView":13,
			"componentType":5126,
			"count":96,
			"type":"VEC4"
		},
		{
			"bufferView":14,
			"componentType":5123,
			"count":324,
			"type":"SCALAR"
		},
		{
			"bufferView":15,
			"componentType":5126,
			"count":96,
			"max":[
				0.1014999970793724,
				0.07999998331069946,
				0.08249999582767487
			],
			"min":[
				-0.1014999970793724,
				0,
				0.07750000059604645
			],
			"type":"VEC3"
		},
		{
			"bufferView":16,
			"componentType":5126,
			"count":96,
			"type":"VEC3"
		},
		{
			"bufferView":17,
			"componentType":5126,
			"count":96,
			"type":"VEC2"
		},
		{
			"bufferView":18,
			"componentType":5126,
			"count":96,
			"type":"VEC4"
		},
		{
			"bufferView":19,
			"componentType":5123,
			"count":324,
			"type":"SCALAR"
		}
	],
	"bufferViews":[
		{
			"buffer":0,
			"byteLength":3552,
			"byteOffset":0,
			"target":34962
		},
		{
			"buffer":0,
			"byteLength":3552,
			"byteOffset":3552,
			"target":34962
		},
		{
			"buffer":0,
			"byteLength":2368,
			"byteOffset":7104,
			"target":34962
		},
		{
			"buffer":0,
			"byteLength":4736,
			"byteOffset":9472,
			"target":34962
		},
		{
			"buffer":0,
			"byteLength":2040,
			"byteOffset":14208,
			"target":34963
		},
		{
			"buffer":0,
			"byteLength":1884,
			"byteOffset":16248,
			"target":34962
		},
		{
			"buffer":0,
			"byteLength":1884,
			"byteOffset":18132,
			"target":34962
		},
		{
			"buffer":0,
			"byteLength":1256,
			"byteOffset":20016,
			"target":34962
		},
		{
			"buffer":0,
			"byteLength":2512,
			"byteOffset":21272,
			"target":34962
		},
		{
			"buffer":0,
			"byteLength":1128,
			"byteOffset":23784,
			"target":34963
		},
		{
			"buffer":0,
			"byteLength":1152,
			"byteOffset":24912,
			"target":34962
		},
		{
			"buffer":0,
			"byteLength":1152,
			"byteOffset":26064,
			"target":34962
		},
		{
			"buffer":0,
			"byteLength":768,
			"byteOffset":27216,
			"target":34962
		},
		{
			"buffer":0,
			"byteLength":1536,
			"byteOffset":27984,
			"target":34962
		},
		{
			"buffer":0,
			"byteLength":648,
			"byteOffset":29520,
			"target":34963
		},
		{
			"buffer":0,
			"byteLength":1152,
			"byteOffset":30168,
			"target":34962
		},
		{
			"buffer":0,
			"byteLength":1152,
			"byteOffset":31320,
			"target":34962
		},
		{
			"buffer":0,
			"byteLength":768,
			"byteOffset":32472,
			"target":34962
		},
		{
			"buffer":0,
			"byteLength":1536,
			"byteOffset":33240,
			"target":34962
		},
		{
			"buffer":0,
			"byteLength":648,
			"byteOffset":34776,
			"target":34963
		}
	],
	"samplers":[
		{
			"magFilter":9729,
			"minFilter":9987
		}
	],
	"buffers":[
		{
			"byteLength":35424,
			"uri":"Paper_Towel_Dispenser.bin"
		}
	]
}
