{
	"asset":{
		"generator":"Khronos glTF Blender I/O v5.2.39",
		"version":"2.0"
	},
	"scene":0,
	"scenes":[
		{
			"name":"BATHROOM \u2022 Reference scene",
			"nodes":[
				0
			]
		}
	],
	"nodes":[
		{
			"extras":{
				"asset_id":"Soap_Dispenser_Wall",
				"units":"meters",
				"front_axis_blender":"-Y",
				"pivot":"bottom center"
			},
			"mesh":0,
			"name":"Soap_Dispenser_Wall_Export"
		}
	],
	"materials":[
		{
			"name":"BATH \u2022 Worn paint",
			"normalTexture":{
				"index":0
			},
			"pbrMetallicRoughness":{
				"baseColorTexture":{
					"index":1
				},
				"metallicRoughnessTexture":{
					"index":2
				}
			}
		},
		{
			"name":"BATH \u2022 Aged nickel",
			"normalTexture":{
				"index":3
			},
			"pbrMetallicRoughness":{
				"baseColorTexture":{
					"index":4
				},
				"metallicRoughnessTexture":{
					"index":5
				}
			}
		},
		{
			"name":"BATH \u2022 Dark polymer",
			"pbrMetallicRoughness":{
				"baseColorFactor":[
					0.023000000044703484,
					0.02500000037252903,
					0.023000000044703484,
					1
				],
				"metallicFactor":0,
				"roughnessFactor":0.6200000047683716
			}
		}
	],
	"meshes":[
		{
			"name":"Soap_Dispenser_Wall_Mesh.001",
			"primitives":[
				{
					"attributes":{
						"POSITION":0,
						"NORMAL":1,
						"TEXCOORD_0":2,
						"TANGENT":3
					},
					"indices":4,
					"material":0
				},
				{
					"attributes":{
						"POSITION":5,
						"NORMAL":6,
						"TEXCOORD_0":7,
						"TANGENT":8
					},
					"indices":9,
					"material":1
				},
				{
					"attributes":{
						"POSITION":10,
						"NORMAL":11,
						"TEXCOORD_0":12,
						"TANGENT":13
					},
					"indices":14,
					"material":2
				}
			]
		}
	],
	"textures":[
		{
			"sampler":0,
			"source":0
		},
		{
			"sampler":0,
			"source":1
		},
		{
			"sampler":0,
			"source":2
		},
		{
			"sampler":0,
			"source":3
		},
		{
			"sampler":0,
			"source":4
		},
		{
			"sampler":0,
			"source":5
		}
	],
	"images":[
		{
			"mimeType":"image/png",
			"name":"paint_worn_normal_opengl",
			"uri":"textures/paint_worn_normal_opengl.png"
		},
		{
			"mimeType":"image/png",
			"name":"paint_worn_basecolor",
			"uri":"textures/paint_worn_basecolor.png"
		},
		{
			"mimeType":"image/png",
			"name":"paint_worn_orm",
			"uri":"textures/paint_worn_orm.png"
		},
		{
			"mimeType":"image/png",
			"name":"nickel_used_normal_opengl",
			"uri":"textures/nickel_used_normal_opengl.png"
		},
		{
			"mimeType":"image/png",
			"name":"nickel_used_basecolor",
			"uri":"textures/nickel_used_basecolor.png"
		},
		{
			"mimeType":"image/png",
			"name":"nickel_used_orm",
			"uri":"textures/nickel_used_orm.png"
		}
	],
	"accessors":[
		{
			"bufferView":0,
			"componentType":5126,
			"count":96,
			"max":[
				0.05550000071525574,
				0.2639999985694885,
				0.0015000002458691597
			],
			"min":[
				-0.05550000071525574,
				0.013999998569488525,
				-0.023499999195337296
			],
			"type":"VEC3"
		},
		{
			"bufferView":1,
			"componentType":5126,
			"count":96,
			"type":"VEC3"
		},
		{
			"bufferView":2,
			"componentType":5126,
			"count":96,
			"type":"VEC2"
		},
		{
			"bufferView":3,
			"componentType":5126,
			"count":96,
			"type":"VEC4"
		},
		{
			"bufferView":4,
			"componentType":5123,
			"count":324,
			"type":"SCALAR"
		},
		{
			"bufferView":5,
			"componentType":5126,
			"count":248,
			"max":[
				0.06499999761581421,
				0.2865000367164612,
				0.07499999552965164
			],
			"min":[
				-0.06499999761581421,
				0,
				-0.013000000268220901
			],
			"type":"VEC3"
		},
		{
			"bufferView":6,
			"componentType":5126,
			"count":248,
			"type":"VEC3"
		},
		{
			"bufferView":7,
			"componentType":5126,
			"count":248,
			"type":"VEC2"
		},
		{
			"bufferView":8,
			"componentType":5126,
			"count":248,
			"type":"VEC4"
		},
		{
			"bufferView":9,
			"componentType":5123,
			"count":936,
			"type":"SCALAR"
		},
		{
			"bufferView":10,
			"componentType":5126,
			"count":192,
			"max":[
				0.026000000536441803,
				0.18850000202655792,
				0.09850000590085983
			],
			"min":[
				-0.026000000536441803,
				0.015499994158744812,
				0.03550000116229057
			],
			"type":"VEC3"
		},
		{
			"bufferView":11,
			"componentType":5126,
			"count":192,
			"type":"VEC3"
		},
		{
			"bufferView":12,
			"componentType":5126,
			"count":192,
			"type":"VEC2"
		},
		{
			"bufferView":13,
			"componentType":5126,
			"count":192,
			"type":"VEC4"
		},
		{
			"bufferView":14,
			"componentType":5123,
			"count":648,
			"type":"SCALAR"
		}
	],
	"bufferViews":[
		{
			"buffer":0,
			"byteLength":1152,
			"byteOffset":0,
			"target":34962
		},
		{
			"buffer":0,
			"byteLength":1152,
			"byteOffset":1152,
			"target":34962
		},
		{
			"buffer":0,
			"byteLength":768,
			"byteOffset":2304,
			"target":34962
		},
		{
			"buffer":0,
			"byteLength":1536,
			"byteOffset":3072,
			"target":34962
		},
		{
			"buffer":0,
			"byteLength":648,
			"byteOffset":4608,
			"target":34963
		},
		{
			"buffer":0,
			"byteLength":2976,
			"byteOffset":5256,
			"target":34962
		},
		{
			"buffer":0,
			"byteLength":2976,
			"byteOffset":8232,
			"target":34962
		},
		{
			"buffer":0,
			"byteLength":1984,
			"byteOffset":11208,
			"target":34962
		},
		{
			"buffer":0,
			"byteLength":3968,
			"byteOffset":13192,
			"target":34962
		},
		{
			"buffer":0,
			"byteLength":1872,
			"byteOffset":17160,
			"target":34963
		},
		{
			"buffer":0,
			"byteLength":2304,
			"byteOffset":19032,
			"target":34962
		},
		{
			"buffer":0,
			"byteLength":2304,
			"byteOffset":21336,
			"target":34962
		},
		{
			"buffer":0,
			"byteLength":1536,
			"byteOffset":23640,
			"target":34962
		},
		{
			"buffer":0,
			"byteLength":3072,
			"byteOffset":25176,
			"target":34962
		},
		{
			"buffer":0,
			"byteLength":1296,
			"byteOffset":28248,
			"target":34963
		}
	],
	"samplers":[
		{
			"magFilter":9729,
			"minFilter":9987
		}
	],
	"buffers":[
		{
			"byteLength":29544,
			"uri":"Soap_Dispenser_Wall.bin"
		}
	]
}
