{
	"asset":{
		"generator":"Khronos glTF Blender I/O v5.2.39",
		"version":"2.0"
	},
	"scene":0,
	"scenes":[
		{
			"name":"BATHROOM \u2022 Reference scene",
			"nodes":[
				0
			]
		}
	],
	"nodes":[
		{
			"extras":{
				"asset_id":"Toilet_Floor",
				"units":"meters",
				"front_axis_blender":"-Y",
				"pivot":"bottom center"
			},
			"mesh":0,
			"name":"Toilet_Floor_Export"
		}
	],
	"materials":[
		{
			"name":"BATH \u2022 Porcelain",
			"normalTexture":{
				"index":0
			},
			"pbrMetallicRoughness":{
				"baseColorTexture":{
					"index":1
				},
				"metallicRoughnessTexture":{
					"index":2
				}
			}
		},
		{
			"name":"BATH \u2022 Aged nickel",
			"normalTexture":{
				"index":3
			},
			"pbrMetallicRoughness":{
				"baseColorTexture":{
					"index":4
				},
				"metallicRoughnessTexture":{
					"index":5
				}
			}
		},
		{
			"name":"BATH \u2022 Dark polymer",
			"pbrMetallicRoughness":{
				"baseColorFactor":[
					0.023000000044703484,
					0.02500000037252903,
					0.023000000044703484,
					1
				],
				"metallicFactor":0,
				"roughnessFactor":0.6200000047683716
			}
		},
		{
			"name":"BATH \u2022 Rubber",
			"pbrMetallicRoughness":{
				"baseColorFactor":[
					0.009999999776482582,
					0.010999999940395355,
					0.008999999612569809,
					1
				],
				"metallicFactor":0,
				"roughnessFactor":0.8500000238418579
			}
		}
	],
	"meshes":[
		{
			"name":"Toilet_Floor_Mesh.002",
			"primitives":[
				{
					"attributes":{
						"POSITION":0,
						"NORMAL":1,
						"TEXCOORD_0":2,
						"TANGENT":3
					},
					"indices":4,
					"material":0
				},
				{
					"attributes":{
						"POSITION":5,
						"NORMAL":6,
						"TEXCOORD_0":7,
						"TANGENT":8
					},
					"indices":9,
					"material":1
				},
				{
					"attributes":{
						"POSITION":10,
						"NORMAL":11,
						"TEXCOORD_0":12,
						"TANGENT":13
					},
					"indices":14,
					"material":2
				},
				{
					"attributes":{
						"POSITION":15,
						"NORMAL":16,
						"TEXCOORD_0":17,
						"TANGENT":18
					},
					"indices":19,
					"material":3
				}
			]
		}
	],
	"textures":[
		{
			"sampler":0,
			"source":0
		},
		{
			"sampler":0,
			"source":1
		},
		{
			"sampler":0,
			"source":2
		},
		{
			"sampler":0,
			"source":3
		},
		{
			"sampler":0,
			"source":4
		},
		{
			"sampler":0,
			"source":5
		}
	],
	"images":[
		{
			"mimeType":"image/png",
			"name":"porcelain_used_normal_opengl",
			"uri":"textures/porcelain_used_normal_opengl.png"
		},
		{
			"mimeType":"image/png",
			"name":"porcelain_used_basecolor",
			"uri":"textures/porcelain_used_basecolor.png"
		},
		{
			"mimeType":"image/png",
			"name":"porcelain_used_orm",
			"uri":"textures/porcelain_used_orm.png"
		},
		{
			"mimeType":"image/png",
			"name":"nickel_used_normal_opengl",
			"uri":"textures/nickel_used_normal_opengl.png"
		},
		{
			"mimeType":"image/png",
			"name":"nickel_used_basecolor",
			"uri":"textures/nickel_used_basecolor.png"
		},
		{
			"mimeType":"image/png",
			"name":"nickel_used_orm",
			"uri":"textures/nickel_used_orm.png"
		}
	],
	"accessors":[
		{
			"bufferView":0,
			"componentType":5126,
			"count":1512,
			"max":[
				0.2070000022649765,
				0.8245000243186951,
				0.35100001096725464
			],
			"min":[
				-0.2070000022649765,
				0,
				-0.37199997901916504
			],
			"type":"VEC3"
		},
		{
			"bufferView":1,
			"componentType":5126,
			"count":1512,
			"type":"VEC3"
		},
		{
			"bufferView":2,
			"componentType":5126,
			"count":1512,
			"type":"VEC2"
		},
		{
			"bufferView":3,
			"componentType":5126,
			"count":1512,
			"type":"VEC4"
		},
		{
			"bufferView":4,
			"componentType":5123,
			"count":5772,
			"type":"SCALAR"
		},
		{
			"bufferView":5,
			"componentType":5126,
			"count":1026,
			"max":[
				0.23799997568130493,
				0.8339999914169312,
				-0.1469999998807907
			],
			"min":[
				-0.12449999898672104,
				0.12200000137090683,
				-0.3465000092983246
			],
			"type":"VEC3"
		},
		{
			"bufferView":6,
			"componentType":5126,
			"count":1026,
			"type":"VEC3"
		},
		{
			"bufferView":7,
			"componentType":5126,
			"count":1026,
			"type":"VEC2"
		},
		{
			"bufferView":8,
			"componentType":5126,
			"count":1026,
			"type":"VEC4"
		},
		{
			"bufferView":9,
			"componentType":5123,
			"count":3564,
			"type":"SCALAR"
		},
		{
			"bufferView":10,
			"componentType":5126,
			"count":784,
			"max":[
				0.20600000023841858,
				0.9826396107673645,
				0.3479999899864197
			],
			"min":[
				-0.20600000023841858,
				0.43300002813339233,
				-0.20000000298023224
			],
			"type":"VEC3"
		},
		{
			"bufferView":11,
			"componentType":5126,
			"count":784,
			"type":"VEC3"
		},
		{
			"bufferView":12,
			"componentType":5126,
			"count":784,
			"type":"VEC2"
		},
		{
			"bufferView":13,
			"componentType":5126,
			"count":784,
			"type":"VEC4"
		},
		{
			"bufferView":14,
			"componentType":5123,
			"count":2508,
			"type":"SCALAR"
		},
		{
			"bufferView":15,
			"componentType":5126,
			"count":384,
			"max":[
				0.12849999964237213,
				0.437000036239624,
				0.24450001120567322
			],
			"min":[
				-0.12849999964237213,
				0.41100001335144043,
				-0.11949999630451202
			],
			"type":"VEC3"
		},
		{
			"bufferView":16,
			"componentType":5126,
			"count":384,
			"type":"VEC3"
		},
		{
			"bufferView":17,
			"componentType":5126,
			"count":384,
			"type":"VEC2"
		},
		{
			"bufferView":18,
			"componentType":5126,
			"count":384,
			"type":"VEC4"
		},
		{
			"bufferView":19,
			"componentType":5123,
			"count":1296,
			"type":"SCALAR"
		}
	],
	"bufferViews":[
		{
			"buffer":0,
			"byteLength":18144,
			"byteOffset":0,
			"target":34962
		},
		{
			"buffer":0,
			"byteLength":18144,
			"byteOffset":18144,
			"target":34962
		},
		{
			"buffer":0,
			"byteLength":12096,
			"byteOffset":36288,
			"target":34962
		},
		{
			"buffer":0,
			"byteLength":24192,
			"byteOffset":48384,
			"target":34962
		},
		{
			"buffer":0,
			"byteLength":11544,
			"byteOffset":72576,
			"target":34963
		},
		{
			"buffer":0,
			"byteLength":12312,
			"byteOffset":84120,
			"target":34962
		},
		{
			"buffer":0,
			"byteLength":12312,
			"byteOffset":96432,
			"target":34962
		},
		{
			"buffer":0,
			"byteLength":8208,
			"byteOffset":108744,
			"target":34962
		},
		{
			"buffer":0,
			"byteLength":16416,
			"byteOffset":116952,
			"target":34962
		},
		{
			"buffer":0,
			"byteLength":7128,
			"byteOffset":133368,
			"target":34963
		},
		{
			"buffer":0,
			"byteLength":9408,
			"byteOffset":140496,
			"target":34962
		},
		{
			"buffer":0,
			"byteLength":9408,
			"byteOffset":149904,
			"target":34962
		},
		{
			"buffer":0,
			"byteLength":6272,
			"byteOffset":159312,
			"target":34962
		},
		{
			"buffer":0,
			"byteLength":12544,
			"byteOffset":165584,
			"target":34962
		},
		{
			"buffer":0,
			"byteLength":5016,
			"byteOffset":178128,
			"target":34963
		},
		{
			"buffer":0,
			"byteLength":4608,
			"byteOffset":183144,
			"target":34962
		},
		{
			"buffer":0,
			"byteLength":4608,
			"byteOffset":187752,
			"target":34962
		},
		{
			"buffer":0,
			"byteLength":3072,
			"byteOffset":192360,
			"target":34962
		},
		{
			"buffer":0,
			"byteLength":6144,
			"byteOffset":195432,
			"target":34962
		},
		{
			"buffer":0,
			"byteLength":2592,
			"byteOffset":201576,
			"target":34963
		}
	],
	"samplers":[
		{
			"magFilter":9729,
			"minFilter":9987
		}
	],
	"buffers":[
		{
			"byteLength":204168,
			"uri":"Toilet_Floor.bin"
		}
	]
}
