{
	"asset":{
		"generator":"Khronos glTF Blender I/O v5.2.39",
		"version":"2.0"
	},
	"scene":0,
	"scenes":[
		{
			"name":"BATHROOM \u2022 Reference scene",
			"nodes":[
				0
			]
		}
	],
	"nodes":[
		{
			"extras":{
				"asset_id":"Toilet_Brush_Holder",
				"units":"meters",
				"front_axis_blender":"-Y",
				"pivot":"bottom center"
			},
			"mesh":0,
			"name":"Toilet_Brush_Holder_Export"
		}
	],
	"materials":[
		{
			"name":"BATH \u2022 Aged nickel",
			"normalTexture":{
				"index":0
			},
			"pbrMetallicRoughness":{
				"baseColorTexture":{
					"index":1
				},
				"metallicRoughnessTexture":{
					"index":2
				}
			}
		},
		{
			"name":"BATH \u2022 Dark recess",
			"pbrMetallicRoughness":{
				"baseColorFactor":[
					0.00800000037997961,
					0.008999999612569809,
					0.00800000037997961,
					1
				],
				"metallicFactor":0,
				"roughnessFactor":0.949999988079071
			}
		},
		{
			"name":"BATH \u2022 Dark polymer",
			"pbrMetallicRoughness":{
				"baseColorFactor":[
					0.023000000044703484,
					0.02500000037252903,
					0.023000000044703484,
					1
				],
				"metallicFactor":0,
				"roughnessFactor":0.6200000047683716
			}
		}
	],
	"meshes":[
		{
			"name":"Toilet_Brush_Holder_Mesh.001",
			"primitives":[
				{
					"attributes":{
						"POSITION":0,
						"NORMAL":1,
						"TEXCOORD_0":2,
						"TANGENT":3
					},
					"indices":4,
					"material":0
				},
				{
					"attributes":{
						"POSITION":5,
						"NORMAL":6,
						"TEXCOORD_0":7,
						"TANGENT":8
					},
					"indices":9,
					"material":1
				},
				{
					"attributes":{
						"POSITION":10,
						"NORMAL":11,
						"TEXCOORD_0":12,
						"TANGENT":13
					},
					"indices":14,
					"material":2
				}
			]
		}
	],
	"textures":[
		{
			"sampler":0,
			"source":0
		},
		{
			"sampler":0,
			"source":1
		},
		{
			"sampler":0,
			"source":2
		}
	],
	"images":[
		{
			"mimeType":"image/png",
			"name":"nickel_used_normal_opengl",
			"uri":"textures/nickel_used_normal_opengl.png"
		},
		{
			"mimeType":"image/png",
			"name":"nickel_used_basecolor",
			"uri":"textures/nickel_used_basecolor.png"
		},
		{
			"mimeType":"image/png",
			"name":"nickel_used_orm",
			"uri":"textures/nickel_used_orm.png"
		}
	],
	"accessors":[
		{
			"bufferView":0,
			"componentType":5126,
			"count":496,
			"max":[
				0.0689999982714653,
				0.445000022649765,
				0.0689999982714653
			],
			"min":[
				-0.0689999982714653,
				0,
				-0.0689999982714653
			],
			"type":"VEC3"
		},
		{
			"bufferView":1,
			"componentType":5126,
			"count":496,
			"type":"VEC3"
		},
		{
			"bufferView":2,
			"componentType":5126,
			"count":496,
			"type":"VEC2"
		},
		{
			"bufferView":3,
			"componentType":5126,
			"count":496,
			"type":"VEC4"
		},
		{
			"bufferView":4,
			"componentType":5123,
			"count":1608,
			"type":"SCALAR"
		},
		{
			"bufferView":5,
			"componentType":5126,
			"count":104,
			"max":[
				0.05000000074505806,
				0.22949999570846558,
				0.05000000074505806
			],
			"min":[
				-0.05000000074505806,
				0.226500004529953,
				-0.05000000074505806
			],
			"type":"VEC3"
		},
		{
			"bufferView":6,
			"componentType":5126,
			"count":104,
			"type":"VEC3"
		},
		{
			"bufferView":7,
			"componentType":5126,
			"count":104,
			"type":"VEC2"
		},
		{
			"bufferView":8,
			"componentType":5126,
			"count":104,
			"type":"VEC4"
		},
		{
			"bufferView":9,
			"componentType":5123,
			"count":276,
			"type":"SCALAR"
		},
		{
			"bufferView":10,
			"componentType":5126,
			"count":104,
			"max":[
				0.014999999664723873,
				0.4930000305175781,
				0.014999999664723873
			],
			"min":[
				-0.014999999664723873,
				0.39100000262260437,
				-0.014999999664723873
			],
			"type":"VEC3"
		},
		{
			"bufferView":11,
			"componentType":5126,
			"count":104,
			"type":"VEC3"
		},
		{
			"bufferView":12,
			"componentType":5126,
			"count":104,
			"type":"VEC2"
		},
		{
			"bufferView":13,
			"componentType":5126,
			"count":104,
			"type":"VEC4"
		},
		{
			"bufferView":14,
			"componentType":5123,
			"count":372,
			"type":"SCALAR"
		}
	],
	"bufferViews":[
		{
			"buffer":0,
			"byteLength":5952,
			"byteOffset":0,
			"target":34962
		},
		{
			"buffer":0,
			"byteLength":5952,
			"byteOffset":5952,
			"target":34962
		},
		{
			"buffer":0,
			"byteLength":3968,
			"byteOffset":11904,
			"target":34962
		},
		{
			"buffer":0,
			"byteLength":7936,
			"byteOffset":15872,
			"target":34962
		},
		{
			"buffer":0,
			"byteLength":3216,
			"byteOffset":23808,
			"target":34963
		},
		{
			"buffer":0,
			"byteLength":1248,
			"byteOffset":27024,
			"target":34962
		},
		{
			"buffer":0,
			"byteLength":1248,
			"byteOffset":28272,
			"target":34962
		},
		{
			"buffer":0,
			"byteLength":832,
			"byteOffset":29520,
			"target":34962
		},
		{
			"buffer":0,
			"byteLength":1664,
			"byteOffset":30352,
			"target":34962
		},
		{
			"buffer":0,
			"byteLength":552,
			"byteOffset":32016,
			"target":34963
		},
		{
			"buffer":0,
			"byteLength":1248,
			"byteOffset":32568,
			"target":34962
		},
		{
			"buffer":0,
			"byteLength":1248,
			"byteOffset":33816,
			"target":34962
		},
		{
			"buffer":0,
			"byteLength":832,
			"byteOffset":35064,
			"target":34962
		},
		{
			"buffer":0,
			"byteLength":1664,
			"byteOffset":35896,
			"target":34962
		},
		{
			"buffer":0,
			"byteLength":744,
			"byteOffset":37560,
			"target":34963
		}
	],
	"samplers":[
		{
			"magFilter":9729,
			"minFilter":9987
		}
	],
	"buffers":[
		{
			"byteLength":38304,
			"uri":"Toilet_Brush_Holder.bin"
		}
	]
}
