{
	"asset":{
		"generator":"Khronos glTF Blender I/O v5.2.39",
		"version":"2.0"
	},
	"scene":0,
	"scenes":[
		{
			"name":"BATHROOM \u2022 Reference scene",
			"nodes":[
				0
			]
		}
	],
	"nodes":[
		{
			"extras":{
				"asset_id":"Urinal_Plumbed",
				"units":"meters",
				"front_axis_blender":"-Y",
				"pivot":"bottom center"
			},
			"mesh":0,
			"name":"Urinal_Plumbed_Export"
		}
	],
	"materials":[
		{
			"name":"BATH \u2022 Porcelain",
			"normalTexture":{
				"index":0
			},
			"pbrMetallicRoughness":{
				"baseColorTexture":{
					"index":1
				},
				"metallicRoughnessTexture":{
					"index":2
				}
			}
		},
		{
			"name":"BATH \u2022 Aged nickel",
			"normalTexture":{
				"index":3
			},
			"pbrMetallicRoughness":{
				"baseColorTexture":{
					"index":4
				},
				"metallicRoughnessTexture":{
					"index":5
				}
			}
		},
		{
			"name":"BATH \u2022 Dark recess",
			"pbrMetallicRoughness":{
				"baseColorFactor":[
					0.00800000037997961,
					0.008999999612569809,
					0.00800000037997961,
					1
				],
				"metallicFactor":0,
				"roughnessFactor":0.949999988079071
			}
		}
	],
	"meshes":[
		{
			"name":"Urinal_Plumbed_Mesh.001",
			"primitives":[
				{
					"attributes":{
						"POSITION":0,
						"NORMAL":1,
						"TEXCOORD_0":2,
						"TANGENT":3
					},
					"indices":4,
					"material":0
				},
				{
					"attributes":{
						"POSITION":5,
						"NORMAL":6,
						"TEXCOORD_0":7,
						"TANGENT":8
					},
					"indices":9,
					"material":1
				},
				{
					"attributes":{
						"POSITION":10,
						"NORMAL":11,
						"TEXCOORD_0":12,
						"TANGENT":13
					},
					"indices":14,
					"material":2
				}
			]
		}
	],
	"textures":[
		{
			"sampler":0,
			"source":0
		},
		{
			"sampler":0,
			"source":1
		},
		{
			"sampler":0,
			"source":2
		},
		{
			"sampler":0,
			"source":3
		},
		{
			"sampler":0,
			"source":4
		},
		{
			"sampler":0,
			"source":5
		}
	],
	"images":[
		{
			"mimeType":"image/png",
			"name":"porcelain_used_normal_opengl",
			"uri":"textures/porcelain_used_normal_opengl.png"
		},
		{
			"mimeType":"image/png",
			"name":"porcelain_used_basecolor",
			"uri":"textures/porcelain_used_basecolor.png"
		},
		{
			"mimeType":"image/png",
			"name":"porcelain_used_orm",
			"uri":"textures/porcelain_used_orm.png"
		},
		{
			"mimeType":"image/png",
			"name":"nickel_used_normal_opengl",
			"uri":"textures/nickel_used_normal_opengl.png"
		},
		{
			"mimeType":"image/png",
			"name":"nickel_used_basecolor",
			"uri":"textures/nickel_used_basecolor.png"
		},
		{
			"mimeType":"image/png",
			"name":"nickel_used_orm",
			"uri":"textures/nickel_used_orm.png"
		}
	],
	"accessors":[
		{
			"bufferView":0,
			"componentType":5126,
			"count":788,
			"max":[
				0.1953950673341751,
				0.7484221458435059,
				0.2720000147819519
			],
			"min":[
				-0.1953950673341751,
				0.12492209672927856,
				-0.02500000037252903
			],
			"type":"VEC3"
		},
		{
			"bufferView":1,
			"componentType":5126,
			"count":788,
			"type":"VEC3"
		},
		{
			"bufferView":2,
			"componentType":5126,
			"count":788,
			"type":"VEC2"
		},
		{
			"bufferView":3,
			"componentType":5126,
			"count":788,
			"type":"VEC4"
		},
		{
			"bufferView":4,
			"componentType":5123,
			"count":2940,
			"type":"SCALAR"
		},
		{
			"bufferView":5,
			"componentType":5126,
			"count":1136,
			"max":[
				0.15199999511241913,
				1.0339220762252808,
				0.20100000500679016
			],
			"min":[
				-0.10599999874830246,
				0,
				-0.0702609270811081
			],
			"type":"VEC3"
		},
		{
			"bufferView":6,
			"componentType":5126,
			"count":1136,
			"type":"VEC3"
		},
		{
			"bufferView":7,
			"componentType":5126,
			"count":1136,
			"type":"VEC2"
		},
		{
			"bufferView":8,
			"componentType":5126,
			"count":1136,
			"type":"VEC4"
		},
		{
			"bufferView":9,
			"componentType":5123,
			"count":3864,
			"type":"SCALAR"
		},
		{
			"bufferView":10,
			"componentType":5126,
			"count":72,
			"max":[
				0.013500000350177288,
				0.2804221212863922,
				0.20240001380443573
			],
			"min":[
				-0.013500000350177288,
				0.25142207741737366,
				0.20040000975131989
			],
			"type":"VEC3"
		},
		{
			"bufferView":11,
			"componentType":5126,
			"count":72,
			"type":"VEC3"
		},
		{
			"bufferView":12,
			"componentType":5126,
			"count":72,
			"type":"VEC2"
		},
		{
			"bufferView":13,
			"componentType":5126,
			"count":72,
			"type":"VEC4"
		},
		{
			"bufferView":14,
			"componentType":5123,
			"count":108,
			"type":"SCALAR"
		}
	],
	"bufferViews":[
		{
			"buffer":0,
			"byteLength":9456,
			"byteOffset":0,
			"target":34962
		},
		{
			"buffer":0,
			"byteLength":9456,
			"byteOffset":9456,
			"target":34962
		},
		{
			"buffer":0,
			"byteLength":6304,
			"byteOffset":18912,
			"target":34962
		},
		{
			"buffer":0,
			"byteLength":12608,
			"byteOffset":25216,
			"target":34962
		},
		{
			"buffer":0,
			"byteLength":5880,
			"byteOffset":37824,
			"target":34963
		},
		{
			"buffer":0,
			"byteLength":13632,
			"byteOffset":43704,
			"target":34962
		},
		{
			"buffer":0,
			"byteLength":13632,
			"byteOffset":57336,
			"target":34962
		},
		{
			"buffer":0,
			"byteLength":9088,
			"byteOffset":70968,
			"target":34962
		},
		{
			"buffer":0,
			"byteLength":18176,
			"byteOffset":80056,
			"target":34962
		},
		{
			"buffer":0,
			"byteLength":7728,
			"byteOffset":98232,
			"target":34963
		},
		{
			"buffer":0,
			"byteLength":864,
			"byteOffset":105960,
			"target":34962
		},
		{
			"buffer":0,
			"byteLength":864,
			"byteOffset":106824,
			"target":34962
		},
		{
			"buffer":0,
			"byteLength":576,
			"byteOffset":107688,
			"target":34962
		},
		{
			"buffer":0,
			"byteLength":1152,
			"byteOffset":108264,
			"target":34962
		},
		{
			"buffer":0,
			"byteLength":216,
			"byteOffset":109416,
			"target":34963
		}
	],
	"samplers":[
		{
			"magFilter":9729,
			"minFilter":9987
		}
	],
	"buffers":[
		{
			"byteLength":109632,
			"uri":"Urinal_Plumbed.bin"
		}
	]
}
