{
	"asset":{
		"generator":"Khronos glTF Blender I/O v5.2.39",
		"version":"2.0"
	},
	"scene":0,
	"scenes":[
		{
			"name":"BATHROOM \u2022 Reference scene",
			"nodes":[
				0
			]
		}
	],
	"nodes":[
		{
			"extras":{
				"asset_id":"Utility_Valve",
				"units":"meters",
				"front_axis_blender":"-Y",
				"pivot":"bottom center"
			},
			"mesh":0,
			"name":"Utility_Valve_Export"
		}
	],
	"materials":[
		{
			"name":"BATH \u2022 Worn paint",
			"normalTexture":{
				"index":0
			},
			"pbrMetallicRoughness":{
				"baseColorTexture":{
					"index":1
				},
				"metallicRoughnessTexture":{
					"index":2
				}
			}
		},
		{
			"name":"BATH \u2022 Aged nickel",
			"normalTexture":{
				"index":3
			},
			"pbrMetallicRoughness":{
				"baseColorTexture":{
					"index":4
				},
				"metallicRoughnessTexture":{
					"index":5
				}
			}
		}
	],
	"meshes":[
		{
			"name":"Utility_Valve_Mesh.001",
			"primitives":[
				{
					"attributes":{
						"POSITION":0,
						"NORMAL":1,
						"TEXCOORD_0":2,
						"TANGENT":3
					},
					"indices":4,
					"material":0
				},
				{
					"attributes":{
						"POSITION":5,
						"NORMAL":6,
						"TEXCOORD_0":7,
						"TANGENT":8
					},
					"indices":9,
					"material":1
				}
			]
		}
	],
	"textures":[
		{
			"sampler":0,
			"source":0
		},
		{
			"sampler":0,
			"source":1
		},
		{
			"sampler":0,
			"source":2
		},
		{
			"sampler":0,
			"source":3
		},
		{
			"sampler":0,
			"source":4
		},
		{
			"sampler":0,
			"source":5
		}
	],
	"images":[
		{
			"mimeType":"image/png",
			"name":"paint_worn_normal_opengl",
			"uri":"textures/paint_worn_normal_opengl.png"
		},
		{
			"mimeType":"image/png",
			"name":"paint_worn_basecolor",
			"uri":"textures/paint_worn_basecolor.png"
		},
		{
			"mimeType":"image/png",
			"name":"paint_worn_orm",
			"uri":"textures/paint_worn_orm.png"
		},
		{
			"mimeType":"image/png",
			"name":"nickel_used_normal_opengl",
			"uri":"textures/nickel_used_normal_opengl.png"
		},
		{
			"mimeType":"image/png",
			"name":"nickel_used_basecolor",
			"uri":"textures/nickel_used_basecolor.png"
		},
		{
			"mimeType":"image/png",
			"name":"nickel_used_orm",
			"uri":"textures/nickel_used_orm.png"
		}
	],
	"accessors":[
		{
			"bufferView":0,
			"componentType":5126,
			"count":568,
			"max":[
				0.0820000022649765,
				0.3199999928474426,
				0.12800000607967377
			],
			"min":[
				-0.0820000022649765,
				0,
				-0.03400000184774399
			],
			"type":"VEC3"
		},
		{
			"bufferView":1,
			"componentType":5126,
			"count":568,
			"type":"VEC3"
		},
		{
			"bufferView":2,
			"componentType":5126,
			"count":568,
			"type":"VEC2"
		},
		{
			"bufferView":3,
			"componentType":5126,
			"count":568,
			"type":"VEC4"
		},
		{
			"bufferView":4,
			"componentType":5123,
			"count":1512,
			"type":"SCALAR"
		},
		{
			"bufferView":5,
			"componentType":5126,
			"count":416,
			"max":[
				0.054999999701976776,
				0.3100000023841858,
				0.14249999821186066
			],
			"min":[
				-0.054999999701976776,
				0.009999990463256836,
				-0.054999999701976776
			],
			"type":"VEC3"
		},
		{
			"bufferView":6,
			"componentType":5126,
			"count":416,
			"type":"VEC3"
		},
		{
			"bufferView":7,
			"componentType":5126,
			"count":416,
			"type":"VEC2"
		},
		{
			"bufferView":8,
			"componentType":5126,
			"count":416,
			"type":"VEC4"
		},
		{
			"bufferView":9,
			"componentType":5123,
			"count":1380,
			"type":"SCALAR"
		}
	],
	"bufferViews":[
		{
			"buffer":0,
			"byteLength":6816,
			"byteOffset":0,
			"target":34962
		},
		{
			"buffer":0,
			"byteLength":6816,
			"byteOffset":6816,
			"target":34962
		},
		{
			"buffer":0,
			"byteLength":4544,
			"byteOffset":13632,
			"target":34962
		},
		{
			"buffer":0,
			"byteLength":9088,
			"byteOffset":18176,
			"target":34962
		},
		{
			"buffer":0,
			"byteLength":3024,
			"byteOffset":27264,
			"target":34963
		},
		{
			"buffer":0,
			"byteLength":4992,
			"byteOffset":30288,
			"target":34962
		},
		{
			"buffer":0,
			"byteLength":4992,
			"byteOffset":35280,
			"target":34962
		},
		{
			"buffer":0,
			"byteLength":3328,
			"byteOffset":40272,
			"target":34962
		},
		{
			"buffer":0,
			"byteLength":6656,
			"byteOffset":43600,
			"target":34962
		},
		{
			"buffer":0,
			"byteLength":2760,
			"byteOffset":50256,
			"target":34963
		}
	],
	"samplers":[
		{
			"magFilter":9729,
			"minFilter":9987
		}
	],
	"buffers":[
		{
			"byteLength":53016,
			"uri":"Utility_Valve.bin"
		}
	]
}
