{
	"asset":{
		"generator":"Khronos glTF Blender I/O v5.2.39",
		"version":"2.0"
	},
	"scene":0,
	"scenes":[
		{
			"name":"BATHROOM \u2022 Reference scene",
			"nodes":[
				0
			]
		}
	],
	"nodes":[
		{
			"extras":{
				"asset_id":"Wall_Basin_Plumbed",
				"units":"meters",
				"front_axis_blender":"-Y",
				"pivot":"bottom center"
			},
			"mesh":0,
			"name":"Wall_Basin_Plumbed_Export"
		}
	],
	"materials":[
		{
			"name":"BATH \u2022 Porcelain",
			"normalTexture":{
				"index":0
			},
			"pbrMetallicRoughness":{
				"baseColorTexture":{
					"index":1
				},
				"metallicRoughnessTexture":{
					"index":2
				}
			}
		},
		{
			"name":"BATH \u2022 Aged nickel",
			"normalTexture":{
				"index":3
			},
			"pbrMetallicRoughness":{
				"baseColorTexture":{
					"index":4
				},
				"metallicRoughnessTexture":{
					"index":5
				}
			}
		},
		{
			"name":"BATH \u2022 Dark recess",
			"pbrMetallicRoughness":{
				"baseColorFactor":[
					0.00800000037997961,
					0.008999999612569809,
					0.00800000037997961,
					1
				],
				"metallicFactor":0,
				"roughnessFactor":0.949999988079071
			}
		},
		{
			"name":"BATH \u2022 Worn paint",
			"normalTexture":{
				"index":6
			},
			"pbrMetallicRoughness":{
				"baseColorTexture":{
					"index":7
				},
				"metallicRoughnessTexture":{
					"index":8
				}
			}
		}
	],
	"meshes":[
		{
			"name":"Wall_Basin_Plumbed_Mesh.001",
			"primitives":[
				{
					"attributes":{
						"POSITION":0,
						"NORMAL":1,
						"TEXCOORD_0":2,
						"TANGENT":3
					},
					"indices":4,
					"material":0
				},
				{
					"attributes":{
						"POSITION":5,
						"NORMAL":6,
						"TEXCOORD_0":7,
						"TANGENT":8
					},
					"indices":9,
					"material":1
				},
				{
					"attributes":{
						"POSITION":10,
						"NORMAL":11,
						"TEXCOORD_0":12,
						"TANGENT":13
					},
					"indices":14,
					"material":2
				},
				{
					"attributes":{
						"POSITION":15,
						"NORMAL":16,
						"TEXCOORD_0":17,
						"TANGENT":18
					},
					"indices":19,
					"material":3
				}
			]
		}
	],
	"textures":[
		{
			"sampler":0,
			"source":0
		},
		{
			"sampler":0,
			"source":1
		},
		{
			"sampler":0,
			"source":2
		},
		{
			"sampler":0,
			"source":3
		},
		{
			"sampler":0,
			"source":4
		},
		{
			"sampler":0,
			"source":5
		},
		{
			"sampler":0,
			"source":6
		},
		{
			"sampler":0,
			"source":7
		},
		{
			"sampler":0,
			"source":8
		}
	],
	"images":[
		{
			"mimeType":"image/png",
			"name":"porcelain_used_normal_opengl",
			"uri":"textures/porcelain_used_normal_opengl.png"
		},
		{
			"mimeType":"image/png",
			"name":"porcelain_used_basecolor",
			"uri":"textures/porcelain_used_basecolor.png"
		},
		{
			"mimeType":"image/png",
			"name":"porcelain_used_orm",
			"uri":"textures/porcelain_used_orm.png"
		},
		{
			"mimeType":"image/png",
			"name":"nickel_used_normal_opengl",
			"uri":"textures/nickel_used_normal_opengl.png"
		},
		{
			"mimeType":"image/png",
			"name":"nickel_used_basecolor",
			"uri":"textures/nickel_used_basecolor.png"
		},
		{
			"mimeType":"image/png",
			"name":"nickel_used_orm",
			"uri":"textures/nickel_used_orm.png"
		},
		{
			"mimeType":"image/png",
			"name":"paint_worn_normal_opengl",
			"uri":"textures/paint_worn_normal_opengl.png"
		},
		{
			"mimeType":"image/png",
			"name":"paint_worn_basecolor",
			"uri":"textures/paint_worn_basecolor.png"
		},
		{
			"mimeType":"image/png",
			"name":"paint_worn_orm",
			"uri":"textures/paint_worn_orm.png"
		}
	],
	"accessors":[
		{
			"bufferView":0,
			"componentType":5126,
			"count":902,
			"max":[
				0.32199999690055847,
				0.5579878091812134,
				0.2460000067949295
			],
			"min":[
				-0.32199999690055847,
				0.27298781275749207,
				-0.30300000309944153
			],
			"type":"VEC3"
		},
		{
			"bufferView":1,
			"componentType":5126,
			"count":902,
			"type":"VEC3"
		},
		{
			"bufferView":2,
			"componentType":5126,
			"count":902,
			"type":"VEC2"
		},
		{
			"bufferView":3,
			"componentType":5126,
			"count":902,
			"type":"VEC4"
		},
		{
			"bufferView":4,
			"componentType":5123,
			"count":3516,
			"type":"SCALAR"
		},
		{
			"bufferView":5,
			"componentType":5126,
			"count":2432,
			"max":[
				0.21799999475479126,
				0.6330499649047852,
				0.09000000357627869
			],
			"min":[
				-0.21799999475479126,
				0,
				-0.30399999022483826
			],
			"type":"VEC3"
		},
		{
			"bufferView":6,
			"componentType":5126,
			"count":2432,
			"type":"VEC3"
		},
		{
			"bufferView":7,
			"componentType":5126,
			"count":2432,
			"type":"VEC2"
		},
		{
			"bufferView":8,
			"componentType":5126,
			"count":2432,
			"type":"VEC4"
		},
		{
			"bufferView":9,
			"componentType":5123,
			"count":8256,
			"type":"SCALAR"
		},
		{
			"bufferView":10,
			"componentType":5126,
			"count":200,
			"max":[
				0.024000000208616257,
				0.4469877779483795,
				0.07899999618530273
			],
			"min":[
				-0.024000000208616257,
				0.3244877755641937,
				-0.17099998891353607
			],
			"type":"VEC3"
		},
		{
			"bufferView":11,
			"componentType":5126,
			"count":200,
			"type":"VEC3"
		},
		{
			"bufferView":12,
			"componentType":5126,
			"count":200,
			"type":"VEC2"
		},
		{
			"bufferView":13,
			"componentType":5126,
			"count":200,
			"type":"VEC4"
		},
		{
			"bufferView":14,
			"componentType":5123,
			"count":600,
			"type":"SCALAR"
		},
		{
			"bufferView":15,
			"componentType":5126,
			"count":192,
			"max":[
				0.2070000022649765,
				0.4339878261089325,
				-0.22099998593330383
			],
			"min":[
				-0.2070000022649765,
				0.22398778796195984,
				-0.30300000309944153
			],
			"type":"VEC3"
		},
		{
			"bufferView":16,
			"componentType":5126,
			"count":192,
			"type":"VEC3"
		},
		{
			"bufferView":17,
			"componentType":5126,
			"count":192,
			"type":"VEC2"
		},
		{
			"bufferView":18,
			"componentType":5126,
			"count":192,
			"type":"VEC4"
		},
		{
			"bufferView":19,
			"componentType":5123,
			"count":648,
			"type":"SCALAR"
		}
	],
	"bufferViews":[
		{
			"buffer":0,
			"byteLength":10824,
			"byteOffset":0,
			"target":34962
		},
		{
			"buffer":0,
			"byteLength":10824,
			"byteOffset":10824,
			"target":34962
		},
		{
			"buffer":0,
			"byteLength":7216,
			"byteOffset":21648,
			"target":34962
		},
		{
			"buffer":0,
			"byteLength":14432,
			"byteOffset":28864,
			"target":34962
		},
		{
			"buffer":0,
			"byteLength":7032,
			"byteOffset":43296,
			"target":34963
		},
		{
			"buffer":0,
			"byteLength":29184,
			"byteOffset":50328,
			"target":34962
		},
		{
			"buffer":0,
			"byteLength":29184,
			"byteOffset":79512,
			"target":34962
		},
		{
			"buffer":0,
			"byteLength":19456,
			"byteOffset":108696,
			"target":34962
		},
		{
			"buffer":0,
			"byteLength":38912,
			"byteOffset":128152,
			"target":34962
		},
		{
			"buffer":0,
			"byteLength":16512,
			"byteOffset":167064,
			"target":34963
		},
		{
			"buffer":0,
			"byteLength":2400,
			"byteOffset":183576,
			"target":34962
		},
		{
			"buffer":0,
			"byteLength":2400,
			"byteOffset":185976,
			"target":34962
		},
		{
			"buffer":0,
			"byteLength":1600,
			"byteOffset":188376,
			"target":34962
		},
		{
			"buffer":0,
			"byteLength":3200,
			"byteOffset":189976,
			"target":34962
		},
		{
			"buffer":0,
			"byteLength":1200,
			"byteOffset":193176,
			"target":34963
		},
		{
			"buffer":0,
			"byteLength":2304,
			"byteOffset":194376,
			"target":34962
		},
		{
			"buffer":0,
			"byteLength":2304,
			"byteOffset":196680,
			"target":34962
		},
		{
			"buffer":0,
			"byteLength":1536,
			"byteOffset":198984,
			"target":34962
		},
		{
			"buffer":0,
			"byteLength":3072,
			"byteOffset":200520,
			"target":34962
		},
		{
			"buffer":0,
			"byteLength":1296,
			"byteOffset":203592,
			"target":34963
		}
	],
	"samplers":[
		{
			"magFilter":9729,
			"minFilter":9987
		}
	],
	"buffers":[
		{
			"byteLength":204888,
			"uri":"Wall_Basin_Plumbed.bin"
		}
	]
}
