{
	"asset":{
		"generator":"Khronos glTF Blender I/O v5.2.39",
		"version":"2.0"
	},
	"scene":0,
	"scenes":[
		{
			"name":"BATHROOM \u2022 Reference scene",
			"nodes":[
				0
			]
		}
	],
	"nodes":[
		{
			"extras":{
				"asset_id":"Waste_Bin_Pedal",
				"units":"meters",
				"front_axis_blender":"-Y",
				"pivot":"bottom center"
			},
			"mesh":0,
			"name":"Waste_Bin_Pedal_Export"
		}
	],
	"materials":[
		{
			"name":"BATH \u2022 Aged nickel",
			"normalTexture":{
				"index":0
			},
			"pbrMetallicRoughness":{
				"baseColorTexture":{
					"index":1
				},
				"metallicRoughnessTexture":{
					"index":2
				}
			}
		},
		{
			"name":"BATH \u2022 Rubber",
			"pbrMetallicRoughness":{
				"baseColorFactor":[
					0.009999999776482582,
					0.010999999940395355,
					0.008999999612569809,
					1
				],
				"metallicFactor":0,
				"roughnessFactor":0.8500000238418579
			}
		},
		{
			"name":"BATH \u2022 Dark polymer",
			"pbrMetallicRoughness":{
				"baseColorFactor":[
					0.023000000044703484,
					0.02500000037252903,
					0.023000000044703484,
					1
				],
				"metallicFactor":0,
				"roughnessFactor":0.6200000047683716
			}
		}
	],
	"meshes":[
		{
			"name":"Waste_Bin_Pedal_Mesh.001",
			"primitives":[
				{
					"attributes":{
						"POSITION":0,
						"NORMAL":1,
						"TEXCOORD_0":2,
						"TANGENT":3
					},
					"indices":4,
					"material":0
				},
				{
					"attributes":{
						"POSITION":5,
						"NORMAL":6,
						"TEXCOORD_0":7,
						"TANGENT":8
					},
					"indices":9,
					"material":1
				},
				{
					"attributes":{
						"POSITION":10,
						"NORMAL":11,
						"TEXCOORD_0":12,
						"TANGENT":13
					},
					"indices":14,
					"material":2
				}
			]
		}
	],
	"textures":[
		{
			"sampler":0,
			"source":0
		},
		{
			"sampler":0,
			"source":1
		},
		{
			"sampler":0,
			"source":2
		}
	],
	"images":[
		{
			"mimeType":"image/png",
			"name":"nickel_used_normal_opengl",
			"uri":"textures/nickel_used_normal_opengl.png"
		},
		{
			"mimeType":"image/png",
			"name":"nickel_used_basecolor",
			"uri":"textures/nickel_used_basecolor.png"
		},
		{
			"mimeType":"image/png",
			"name":"nickel_used_orm",
			"uri":"textures/nickel_used_orm.png"
		}
	],
	"accessors":[
		{
			"bufferView":0,
			"componentType":5126,
			"count":840,
			"max":[
				0.1889999955892563,
				0.48250001668930054,
				0.1889999955892563
			],
			"min":[
				-0.1889999955892563,
				0.007500000298023224,
				-0.19349999725818634
			],
			"type":"VEC3"
		},
		{
			"bufferView":1,
			"componentType":5126,
			"count":840,
			"type":"VEC3"
		},
		{
			"bufferView":2,
			"componentType":5126,
			"count":840,
			"type":"VEC2"
		},
		{
			"bufferView":3,
			"componentType":5126,
			"count":840,
			"type":"VEC4"
		},
		{
			"bufferView":4,
			"componentType":5123,
			"count":2880,
			"type":"SCALAR"
		},
		{
			"bufferView":5,
			"componentType":5126,
			"count":728,
			"max":[
				0.18299999833106995,
				0.04450000077486038,
				0.23749999701976776
			],
			"min":[
				-0.18299999833106995,
				0,
				-0.18299999833106995
			],
			"type":"VEC3"
		},
		{
			"bufferView":6,
			"componentType":5126,
			"count":728,
			"type":"VEC3"
		},
		{
			"bufferView":7,
			"componentType":5126,
			"count":728,
			"type":"VEC2"
		},
		{
			"bufferView":8,
			"componentType":5126,
			"count":728,
			"type":"VEC4"
		},
		{
			"bufferView":9,
			"componentType":5123,
			"count":2568,
			"type":"SCALAR"
		},
		{
			"bufferView":10,
			"componentType":5126,
			"count":96,
			"max":[
				0.05000000074505806,
				0.04100000113248825,
				0.24650000035762787
			],
			"min":[
				-0.05000000074505806,
				0.01600000262260437,
				0.12350000441074371
			],
			"type":"VEC3"
		},
		{
			"bufferView":11,
			"componentType":5126,
			"count":96,
			"type":"VEC3"
		},
		{
			"bufferView":12,
			"componentType":5126,
			"count":96,
			"type":"VEC2"
		},
		{
			"bufferView":13,
			"componentType":5126,
			"count":96,
			"type":"VEC4"
		},
		{
			"bufferView":14,
			"componentType":5123,
			"count":324,
			"type":"SCALAR"
		}
	],
	"bufferViews":[
		{
			"buffer":0,
			"byteLength":10080,
			"byteOffset":0,
			"target":34962
		},
		{
			"buffer":0,
			"byteLength":10080,
			"byteOffset":10080,
			"target":34962
		},
		{
			"buffer":0,
			"byteLength":6720,
			"byteOffset":20160,
			"target":34962
		},
		{
			"buffer":0,
			"byteLength":13440,
			"byteOffset":26880,
			"target":34962
		},
		{
			"buffer":0,
			"byteLength":5760,
			"byteOffset":40320,
			"target":34963
		},
		{
			"buffer":0,
			"byteLength":8736,
			"byteOffset":46080,
			"target":34962
		},
		{
			"buffer":0,
			"byteLength":8736,
			"byteOffset":54816,
			"target":34962
		},
		{
			"buffer":0,
			"byteLength":5824,
			"byteOffset":63552,
			"target":34962
		},
		{
			"buffer":0,
			"byteLength":11648,
			"byteOffset":69376,
			"target":34962
		},
		{
			"buffer":0,
			"byteLength":5136,
			"byteOffset":81024,
			"target":34963
		},
		{
			"buffer":0,
			"byteLength":1152,
			"byteOffset":86160,
			"target":34962
		},
		{
			"buffer":0,
			"byteLength":1152,
			"byteOffset":87312,
			"target":34962
		},
		{
			"buffer":0,
			"byteLength":768,
			"byteOffset":88464,
			"target":34962
		},
		{
			"buffer":0,
			"byteLength":1536,
			"byteOffset":89232,
			"target":34962
		},
		{
			"buffer":0,
			"byteLength":648,
			"byteOffset":90768,
			"target":34963
		}
	],
	"samplers":[
		{
			"magFilter":9729,
			"minFilter":9987
		}
	],
	"buffers":[
		{
			"byteLength":91416,
			"uri":"Waste_Bin_Pedal.bin"
		}
	]
}
