{
  "asset": {
    "generator": "Khronos glTF Blender I/O v5.2.40",
    "version": "2.0"
  },
  "scene": 0,
  "scenes": [
    {
      "name": "GRATES AND FENCES",
      "nodes": [
        0
      ]
    }
  ],
  "nodes": [
    {
      "mesh": 0,
      "name": "Chainlink_Panel_2m_Export"
    }
  ],
  "materials": [
    {
      "name": "GF_Galvanized",
      "normalTexture": {
        "index": 0,
        "scale": 0.5
      },
      "pbrMetallicRoughness": {
        "baseColorTexture": {
          "index": 1
        },
        "metallicRoughnessTexture": {
          "index": 2
        }
      },
      "occlusionTexture": {
        "index": 2,
        "strength": 1.0
      }
    }
  ],
  "meshes": [
    {
      "name": "Chainlink_Panel_2m.004",
      "primitives": [
        {
          "attributes": {
            "POSITION": 0,
            "NORMAL": 1,
            "TEXCOORD_0": 2,
            "TANGENT": 3
          },
          "indices": 4,
          "material": 0
        }
      ]
    }
  ],
  "textures": [
    {
      "sampler": 0,
      "source": 0
    },
    {
      "sampler": 0,
      "source": 1
    },
    {
      "sampler": 0,
      "source": 2
    }
  ],
  "images": [
    {
      "mimeType": "image/png",
      "name": "Galvanized_normal_opengl",
      "uri": "textures/Galvanized_normal_opengl.png"
    },
    {
      "mimeType": "image/png",
      "name": "Galvanized_basecolor",
      "uri": "textures/Galvanized_basecolor.png"
    },
    {
      "mimeType": "image/png",
      "name": "Galvanized_orm",
      "uri": "textures/Galvanized_orm.png"
    }
  ],
  "accessors": [
    {
      "bufferView": 0,
      "componentType": 5126,
      "count": 4124,
      "max": [
        1.9620000123977661,
        2.38100004196167,
        0.01600000075995922
      ],
      "min": [
        0.03800000250339508,
        0.06399999558925629,
        -0.01600000075995922
      ],
      "type": "VEC3"
    },
    {
      "bufferView": 1,
      "componentType": 5126,
      "count": 4124,
      "type": "VEC3"
    },
    {
      "bufferView": 2,
      "componentType": 5126,
      "count": 4124,
      "type": "VEC2"
    },
    {
      "bufferView": 3,
      "componentType": 5126,
      "count": 4124,
      "type": "VEC4"
    },
    {
      "bufferView": 4,
      "componentType": 5123,
      "count": 14148,
      "type": "SCALAR"
    }
  ],
  "bufferViews": [
    {
      "buffer": 0,
      "byteLength": 49488,
      "byteOffset": 0,
      "target": 34962
    },
    {
      "buffer": 0,
      "byteLength": 49488,
      "byteOffset": 49488,
      "target": 34962
    },
    {
      "buffer": 0,
      "byteLength": 32992,
      "byteOffset": 98976,
      "target": 34962
    },
    {
      "buffer": 0,
      "byteLength": 65984,
      "byteOffset": 131968,
      "target": 34962
    },
    {
      "buffer": 0,
      "byteLength": 28296,
      "byteOffset": 197952,
      "target": 34963
    }
  ],
  "samplers": [
    {
      "magFilter": 9729,
      "minFilter": 9987
    }
  ],
  "buffers": [
    {
      "byteLength": 226248,
      "uri": "Chainlink_Panel_2m.bin"
    }
  ]
}
