{
	"asset":{
		"generator":"Khronos glTF Blender I/O v5.2.39",
		"version":"2.0"
	},
	"scene":0,
	"scenes":[
		{
			"name":"ROOM CLUTTER \u2022 Reference scene",
			"nodes":[
				0
			]
		}
	],
	"nodes":[
		{
			"extras":{
				"asset_id":"Books_Stack",
				"units":"meters",
				"front_axis_blender":"-Y",
				"pivot":"bottom center"
			},
			"mesh":0,
			"name":"Books_Stack_Export"
		}
	],
	"materials":[
		{
			"name":"CLUTTER \u2022 Paper",
			"normalTexture":{
				"index":0
			},
			"occlusionTexture":{
				"index":1
			},
			"pbrMetallicRoughness":{
				"baseColorTexture":{
					"index":2
				},
				"metallicRoughnessTexture":{
					"index":1
				}
			}
		},
		{
			"name":"CLUTTER \u2022 Book covers",
			"normalTexture":{
				"index":3
			},
			"occlusionTexture":{
				"index":4
			},
			"pbrMetallicRoughness":{
				"baseColorTexture":{
					"index":5
				},
				"metallicRoughnessTexture":{
					"index":4
				}
			}
		}
	],
	"meshes":[
		{
			"name":"Books_Stack_Mesh.001",
			"primitives":[
				{
					"attributes":{
						"POSITION":0,
						"NORMAL":1,
						"TEXCOORD_0":2,
						"TANGENT":3
					},
					"indices":4,
					"material":0
				},
				{
					"attributes":{
						"POSITION":5,
						"NORMAL":6,
						"TEXCOORD_0":7,
						"TANGENT":8
					},
					"indices":9,
					"material":1
				}
			]
		}
	],
	"textures":[
		{
			"sampler":0,
			"source":0
		},
		{
			"sampler":0,
			"source":1
		},
		{
			"sampler":0,
			"source":2
		},
		{
			"sampler":0,
			"source":0
		},
		{
			"sampler":0,
			"source":1
		},
		{
			"sampler":0,
			"source":3
		}
	],
	"images":[
		{
			"mimeType":"image/png",
			"name":"paper_shared_normal_opengl",
			"uri":"textures/paper_shared_normal_opengl.png"
		},
		{
			"mimeType":"image/png",
			"name":"paper_shared_orm",
			"uri":"textures/paper_shared_orm.png"
		},
		{
			"mimeType":"image/png",
			"name":"paper_pages_basecolor",
			"uri":"textures/paper_pages_basecolor.png"
		},
		{
			"mimeType":"image/png",
			"name":"books_covers_basecolor",
			"uri":"textures/books_covers_basecolor.png"
		}
	],
	"accessors":[
		{
			"bufferView":0,
			"componentType":5126,
			"count":288,
			"max":[
				0.0782548114657402,
				0.08884000033140182,
				0.1120000034570694
			],
			"min":[
				-0.07718584686517715,
				0.002160000614821911,
				-0.1120000034570694
			],
			"type":"VEC3"
		},
		{
			"bufferView":1,
			"componentType":5126,
			"count":288,
			"type":"VEC3"
		},
		{
			"bufferView":2,
			"componentType":5126,
			"count":288,
			"type":"VEC2"
		},
		{
			"bufferView":3,
			"componentType":5126,
			"count":288,
			"type":"VEC4"
		},
		{
			"bufferView":4,
			"componentType":5123,
			"count":972,
			"type":"SCALAR"
		},
		{
			"bufferView":5,
			"componentType":5126,
			"count":864,
			"max":[
				0.08101452887058258,
				0.09100000560283661,
				0.11500000208616257
			],
			"min":[
				-0.08251440525054932,
				0,
				-0.11512425541877747
			],
			"type":"VEC3"
		},
		{
			"bufferView":6,
			"componentType":5126,
			"count":864,
			"type":"VEC3"
		},
		{
			"bufferView":7,
			"componentType":5126,
			"count":864,
			"type":"VEC2"
		},
		{
			"bufferView":8,
			"componentType":5126,
			"count":864,
			"type":"VEC4"
		},
		{
			"bufferView":9,
			"componentType":5123,
			"count":2916,
			"type":"SCALAR"
		}
	],
	"bufferViews":[
		{
			"buffer":0,
			"byteLength":3456,
			"byteOffset":0,
			"target":34962
		},
		{
			"buffer":0,
			"byteLength":3456,
			"byteOffset":3456,
			"target":34962
		},
		{
			"buffer":0,
			"byteLength":2304,
			"byteOffset":6912,
			"target":34962
		},
		{
			"buffer":0,
			"byteLength":4608,
			"byteOffset":9216,
			"target":34962
		},
		{
			"buffer":0,
			"byteLength":1944,
			"byteOffset":13824,
			"target":34963
		},
		{
			"buffer":0,
			"byteLength":10368,
			"byteOffset":15768,
			"target":34962
		},
		{
			"buffer":0,
			"byteLength":10368,
			"byteOffset":26136,
			"target":34962
		},
		{
			"buffer":0,
			"byteLength":6912,
			"byteOffset":36504,
			"target":34962
		},
		{
			"buffer":0,
			"byteLength":13824,
			"byteOffset":43416,
			"target":34962
		},
		{
			"buffer":0,
			"byteLength":5832,
			"byteOffset":57240,
			"target":34963
		}
	],
	"samplers":[
		{
			"magFilter":9729,
			"minFilter":9987
		}
	],
	"buffers":[
		{
			"byteLength":63072,
			"uri":"Books_Stack.bin"
		}
	]
}
