{
	"asset":{
		"generator":"Khronos glTF Blender I/O v5.2.39",
		"version":"2.0"
	},
	"scene":0,
	"scenes":[
		{
			"name":"ROOM CLUTTER \u2022 Reference scene",
			"nodes":[
				0
			]
		}
	],
	"nodes":[
		{
			"extras":{
				"asset_id":"Book_Open_Text",
				"units":"meters",
				"front_axis_blender":"-Y",
				"pivot":"bottom center"
			},
			"mesh":0,
			"name":"Book_Open_Text_Export"
		}
	],
	"materials":[
		{
			"name":"CLUTTER \u2022 Book covers",
			"normalTexture":{
				"index":0
			},
			"occlusionTexture":{
				"index":1
			},
			"pbrMetallicRoughness":{
				"baseColorTexture":{
					"index":2
				},
				"metallicRoughnessTexture":{
					"index":1
				}
			}
		},
		{
			"name":"CLUTTER \u2022 Paper",
			"normalTexture":{
				"index":3
			},
			"occlusionTexture":{
				"index":4
			},
			"pbrMetallicRoughness":{
				"baseColorTexture":{
					"index":5
				},
				"metallicRoughnessTexture":{
					"index":4
				}
			}
		}
	],
	"meshes":[
		{
			"name":"Book_Open_Text_Mesh.001",
			"primitives":[
				{
					"attributes":{
						"POSITION":0,
						"NORMAL":1,
						"TEXCOORD_0":2,
						"TANGENT":3
					},
					"indices":4,
					"material":0
				},
				{
					"attributes":{
						"POSITION":5,
						"NORMAL":6,
						"TEXCOORD_0":7,
						"TANGENT":8
					},
					"indices":9,
					"material":1
				}
			]
		}
	],
	"textures":[
		{
			"sampler":0,
			"source":0
		},
		{
			"sampler":0,
			"source":1
		},
		{
			"sampler":0,
			"source":2
		},
		{
			"sampler":0,
			"source":0
		},
		{
			"sampler":0,
			"source":1
		},
		{
			"sampler":0,
			"source":3
		}
	],
	"images":[
		{
			"mimeType":"image/png",
			"name":"paper_shared_normal_opengl",
			"uri":"textures/paper_shared_normal_opengl.png"
		},
		{
			"mimeType":"image/png",
			"name":"paper_shared_orm",
			"uri":"textures/paper_shared_orm.png"
		},
		{
			"mimeType":"image/png",
			"name":"books_covers_basecolor",
			"uri":"textures/books_covers_basecolor.png"
		},
		{
			"mimeType":"image/png",
			"name":"paper_pages_basecolor",
			"uri":"textures/paper_pages_basecolor.png"
		}
	],
	"accessors":[
		{
			"bufferView":0,
			"componentType":5126,
			"count":96,
			"max":[
				0.1589999943971634,
				0.00279999990016222,
				0.11699999868869781
			],
			"min":[
				-0.1589999943971634,
				0,
				-0.11699999868869781
			],
			"type":"VEC3"
		},
		{
			"bufferView":1,
			"componentType":5126,
			"count":96,
			"type":"VEC3"
		},
		{
			"bufferView":2,
			"componentType":5126,
			"count":96,
			"type":"VEC2"
		},
		{
			"bufferView":3,
			"componentType":5126,
			"count":96,
			"type":"VEC4"
		},
		{
			"bufferView":4,
			"componentType":5123,
			"count":324,
			"type":"SCALAR"
		},
		{
			"bufferView":5,
			"componentType":5126,
			"count":773,
			"max":[
				0.1550000011920929,
				0.025334594771265984,
				0.11400000005960464
			],
			"min":[
				-0.1550000011920929,
				0.002199999988079071,
				-0.11400000005960464
			],
			"type":"VEC3"
		},
		{
			"bufferView":6,
			"componentType":5126,
			"count":773,
			"type":"VEC3"
		},
		{
			"bufferView":7,
			"componentType":5126,
			"count":773,
			"type":"VEC2"
		},
		{
			"bufferView":8,
			"componentType":5126,
			"count":773,
			"type":"VEC4"
		},
		{
			"bufferView":9,
			"componentType":5123,
			"count":3432,
			"type":"SCALAR"
		}
	],
	"bufferViews":[
		{
			"buffer":0,
			"byteLength":1152,
			"byteOffset":0,
			"target":34962
		},
		{
			"buffer":0,
			"byteLength":1152,
			"byteOffset":1152,
			"target":34962
		},
		{
			"buffer":0,
			"byteLength":768,
			"byteOffset":2304,
			"target":34962
		},
		{
			"buffer":0,
			"byteLength":1536,
			"byteOffset":3072,
			"target":34962
		},
		{
			"buffer":0,
			"byteLength":648,
			"byteOffset":4608,
			"target":34963
		},
		{
			"buffer":0,
			"byteLength":9276,
			"byteOffset":5256,
			"target":34962
		},
		{
			"buffer":0,
			"byteLength":9276,
			"byteOffset":14532,
			"target":34962
		},
		{
			"buffer":0,
			"byteLength":6184,
			"byteOffset":23808,
			"target":34962
		},
		{
			"buffer":0,
			"byteLength":12368,
			"byteOffset":29992,
			"target":34962
		},
		{
			"buffer":0,
			"byteLength":6864,
			"byteOffset":42360,
			"target":34963
		}
	],
	"samplers":[
		{
			"magFilter":9729,
			"minFilter":9987
		}
	],
	"buffers":[
		{
			"byteLength":49224,
			"uri":"Book_Open_Text.bin"
		}
	]
}
