{
	"asset":{
		"generator":"Khronos glTF Blender I/O v5.2.39",
		"version":"2.0"
	},
	"scene":0,
	"scenes":[
		{
			"name":"ROOM CLUTTER \u2022 Reference scene",
			"nodes":[
				0
			]
		}
	],
	"nodes":[
		{
			"extras":{
				"asset_id":"Calendar_Wall_October",
				"units":"meters",
				"front_axis_blender":"-Y",
				"pivot":"bottom center"
			},
			"mesh":0,
			"name":"Calendar_Wall_October_Export"
		}
	],
	"materials":[
		{
			"name":"CLUTTER \u2022 Paper",
			"normalTexture":{
				"index":0
			},
			"occlusionTexture":{
				"index":1
			},
			"pbrMetallicRoughness":{
				"baseColorTexture":{
					"index":2
				},
				"metallicRoughnessTexture":{
					"index":1
				}
			}
		},
		{
			"name":"CLUTTER \u2022 Calendar print",
			"normalTexture":{
				"index":3
			},
			"occlusionTexture":{
				"index":4
			},
			"pbrMetallicRoughness":{
				"baseColorTexture":{
					"index":5
				},
				"metallicRoughnessTexture":{
					"index":4
				}
			}
		},
		{
			"name":"CLUTTER \u2022 Steel",
			"pbrMetallicRoughness":{
				"baseColorFactor":[
					0.5600000023841858,
					0.5799999833106995,
					0.5799999833106995,
					1
				],
				"metallicFactor":0.75,
				"roughnessFactor":0.3700000047683716
			}
		},
		{
			"name":"CLUTTER \u2022 Calendar photograph",
			"normalTexture":{
				"index":6
			},
			"occlusionTexture":{
				"index":7
			},
			"pbrMetallicRoughness":{
				"baseColorTexture":{
					"index":8
				},
				"metallicRoughnessTexture":{
					"index":7
				}
			}
		}
	],
	"meshes":[
		{
			"name":"Calendar_Wall_October_Mesh.001",
			"primitives":[
				{
					"attributes":{
						"POSITION":0,
						"NORMAL":1,
						"TEXCOORD_0":2,
						"TANGENT":3
					},
					"indices":4,
					"material":0
				},
				{
					"attributes":{
						"POSITION":5,
						"NORMAL":6,
						"TEXCOORD_0":7,
						"TANGENT":8
					},
					"indices":9,
					"material":1
				},
				{
					"attributes":{
						"POSITION":10,
						"NORMAL":11,
						"TEXCOORD_0":12,
						"TANGENT":13
					},
					"indices":14,
					"material":2
				},
				{
					"attributes":{
						"POSITION":15,
						"NORMAL":16,
						"TEXCOORD_0":17,
						"TANGENT":18
					},
					"indices":19,
					"material":3
				}
			]
		}
	],
	"textures":[
		{
			"sampler":0,
			"source":0
		},
		{
			"sampler":0,
			"source":1
		},
		{
			"sampler":0,
			"source":2
		},
		{
			"sampler":0,
			"source":0
		},
		{
			"sampler":0,
			"source":1
		},
		{
			"sampler":0,
			"source":3
		},
		{
			"sampler":0,
			"source":0
		},
		{
			"sampler":0,
			"source":1
		},
		{
			"sampler":0,
			"source":4
		}
	],
	"images":[
		{
			"mimeType":"image/png",
			"name":"paper_shared_normal_opengl",
			"uri":"textures/paper_shared_normal_opengl.png"
		},
		{
			"mimeType":"image/png",
			"name":"paper_shared_orm",
			"uri":"textures/paper_shared_orm.png"
		},
		{
			"mimeType":"image/png",
			"name":"paper_pages_basecolor",
			"uri":"textures/paper_pages_basecolor.png"
		},
		{
			"mimeType":"image/png",
			"name":"calendar_grid_basecolor",
			"uri":"textures/calendar_grid_basecolor.png"
		},
		{
			"mimeType":"image/png",
			"name":"movie_calendar_art_basecolor",
			"uri":"textures/movie_calendar_art_basecolor.png"
		}
	],
	"accessors":[
		{
			"bufferView":0,
			"componentType":5126,
			"count":64,
			"max":[
				0.13899999856948853,
				0.3959999978542328,
				0.001500000013038516
			],
			"min":[
				-0.13899999856948853,
				0,
				-0.001500000013038516
			],
			"type":"VEC3"
		},
		{
			"bufferView":1,
			"componentType":5126,
			"count":64,
			"type":"VEC3"
		},
		{
			"bufferView":2,
			"componentType":5126,
			"count":64,
			"type":"VEC2"
		},
		{
			"bufferView":3,
			"componentType":5126,
			"count":64,
			"type":"VEC4"
		},
		{
			"bufferView":4,
			"componentType":5123,
			"count":132,
			"type":"SCALAR"
		},
		{
			"bufferView":5,
			"componentType":5126,
			"count":491,
			"max":[
				0.1379999965429306,
				0.3919999897480011,
				0.0049999915063381195
			],
			"min":[
				-0.1379999965429306,
				0.0020000040531158447,
				0.001600006246007979
			],
			"type":"VEC3"
		},
		{
			"bufferView":6,
			"componentType":5126,
			"count":491,
			"type":"VEC3"
		},
		{
			"bufferView":7,
			"componentType":5126,
			"count":491,
			"type":"VEC2"
		},
		{
			"bufferView":8,
			"componentType":5126,
			"count":491,
			"type":"VEC4"
		},
		{
			"bufferView":9,
			"componentType":5123,
			"count":1440,
			"type":"SCALAR"
		},
		{
			"bufferView":10,
			"componentType":5126,
			"count":2016,
			"max":[
				0.12277942150831223,
				0.39739999175071716,
				0.00839999970048666
			],
			"min":[
				-0.12277942150831223,
				0.3806000053882599,
				-0.00839999970048666
			],
			"type":"VEC3"
		},
		{
			"bufferView":11,
			"componentType":5126,
			"count":2016,
			"type":"VEC3"
		},
		{
			"bufferView":12,
			"componentType":5126,
			"count":2016,
			"type":"VEC2"
		},
		{
			"bufferView":13,
			"componentType":5126,
			"count":2016,
			"type":"VEC4"
		},
		{
			"bufferView":14,
			"componentType":5123,
			"count":6048,
			"type":"SCALAR"
		},
		{
			"bufferView":15,
			"componentType":5126,
			"count":99,
			"max":[
				0.1379999965429306,
				0.3919999897480011,
				0.0020058592781424522
			],
			"min":[
				-0.1379999965429306,
				0.19699999690055847,
				0.0020000061485916376
			],
			"type":"VEC3"
		},
		{
			"bufferView":16,
			"componentType":5126,
			"count":99,
			"type":"VEC3"
		},
		{
			"bufferView":17,
			"componentType":5126,
			"count":99,
			"type":"VEC2"
		},
		{
			"bufferView":18,
			"componentType":5126,
			"count":99,
			"type":"VEC4"
		},
		{
			"bufferView":19,
			"componentType":5123,
			"count":384,
			"type":"SCALAR"
		}
	],
	"bufferViews":[
		{
			"buffer":0,
			"byteLength":768,
			"byteOffset":0,
			"target":34962
		},
		{
			"buffer":0,
			"byteLength":768,
			"byteOffset":768,
			"target":34962
		},
		{
			"buffer":0,
			"byteLength":512,
			"byteOffset":1536,
			"target":34962
		},
		{
			"buffer":0,
			"byteLength":1024,
			"byteOffset":2048,
			"target":34962
		},
		{
			"buffer":0,
			"byteLength":264,
			"byteOffset":3072,
			"target":34963
		},
		{
			"buffer":0,
			"byteLength":5892,
			"byteOffset":3336,
			"target":34962
		},
		{
			"buffer":0,
			"byteLength":5892,
			"byteOffset":9228,
			"target":34962
		},
		{
			"buffer":0,
			"byteLength":3928,
			"byteOffset":15120,
			"target":34962
		},
		{
			"buffer":0,
			"byteLength":7856,
			"byteOffset":19048,
			"target":34962
		},
		{
			"buffer":0,
			"byteLength":2880,
			"byteOffset":26904,
			"target":34963
		},
		{
			"buffer":0,
			"byteLength":24192,
			"byteOffset":29784,
			"target":34962
		},
		{
			"buffer":0,
			"byteLength":24192,
			"byteOffset":53976,
			"target":34962
		},
		{
			"buffer":0,
			"byteLength":16128,
			"byteOffset":78168,
			"target":34962
		},
		{
			"buffer":0,
			"byteLength":32256,
			"byteOffset":94296,
			"target":34962
		},
		{
			"buffer":0,
			"byteLength":12096,
			"byteOffset":126552,
			"target":34963
		},
		{
			"buffer":0,
			"byteLength":1188,
			"byteOffset":138648,
			"target":34962
		},
		{
			"buffer":0,
			"byteLength":1188,
			"byteOffset":139836,
			"target":34962
		},
		{
			"buffer":0,
			"byteLength":792,
			"byteOffset":141024,
			"target":34962
		},
		{
			"buffer":0,
			"byteLength":1584,
			"byteOffset":141816,
			"target":34962
		},
		{
			"buffer":0,
			"byteLength":768,
			"byteOffset":143400,
			"target":34963
		}
	],
	"samplers":[
		{
			"magFilter":9729,
			"minFilter":9987
		}
	],
	"buffers":[
		{
			"byteLength":144168,
			"uri":"Calendar_Wall_October.bin"
		}
	]
}
