{
	"asset":{
		"generator":"Khronos glTF Blender I/O v5.2.39",
		"version":"2.0"
	},
	"scene":0,
	"scenes":[
		{
			"name":"ROOM CLUTTER \u2022 Reference scene",
			"nodes":[
				0
			]
		}
	],
	"nodes":[
		{
			"extras":{
				"asset_id":"Magazine_Open",
				"units":"meters",
				"front_axis_blender":"-Y",
				"pivot":"bottom center"
			},
			"mesh":0,
			"name":"Magazine_Open_Export"
		}
	],
	"materials":[
		{
			"name":"CLUTTER \u2022 Magazine print",
			"normalTexture":{
				"index":0
			},
			"occlusionTexture":{
				"index":1
			},
			"pbrMetallicRoughness":{
				"baseColorTexture":{
					"index":2
				},
				"metallicRoughnessTexture":{
					"index":1
				}
			}
		}
	],
	"meshes":[
		{
			"name":"Magazine_Open_Mesh.001",
			"primitives":[
				{
					"attributes":{
						"POSITION":0,
						"NORMAL":1,
						"TEXCOORD_0":2,
						"TANGENT":3
					},
					"indices":4,
					"material":0
				}
			]
		}
	],
	"textures":[
		{
			"sampler":0,
			"source":0
		},
		{
			"sampler":0,
			"source":1
		},
		{
			"sampler":0,
			"source":2
		}
	],
	"images":[
		{
			"mimeType":"image/png",
			"name":"paper_shared_normal_opengl",
			"uri":"textures/paper_shared_normal_opengl.png"
		},
		{
			"mimeType":"image/png",
			"name":"paper_shared_orm",
			"uri":"textures/paper_shared_orm.png"
		},
		{
			"mimeType":"image/png",
			"name":"magazine_art_basecolor",
			"uri":"textures/magazine_art_basecolor.png"
		}
	],
	"accessors":[
		{
			"bufferView":0,
			"componentType":5126,
			"count":622,
			"max":[
				0.210999995470047,
				0.006997250951826572,
				0.14399999380111694
			],
			"min":[
				-0.210999995470047,
				0,
				-0.14399999380111694
			],
			"type":"VEC3"
		},
		{
			"bufferView":1,
			"componentType":5126,
			"count":622,
			"type":"VEC3"
		},
		{
			"bufferView":2,
			"componentType":5126,
			"count":622,
			"type":"VEC2"
		},
		{
			"bufferView":3,
			"componentType":5126,
			"count":622,
			"type":"VEC4"
		},
		{
			"bufferView":4,
			"componentType":5123,
			"count":2760,
			"type":"SCALAR"
		}
	],
	"bufferViews":[
		{
			"buffer":0,
			"byteLength":7464,
			"byteOffset":0,
			"target":34962
		},
		{
			"buffer":0,
			"byteLength":7464,
			"byteOffset":7464,
			"target":34962
		},
		{
			"buffer":0,
			"byteLength":4976,
			"byteOffset":14928,
			"target":34962
		},
		{
			"buffer":0,
			"byteLength":9952,
			"byteOffset":19904,
			"target":34962
		},
		{
			"buffer":0,
			"byteLength":5520,
			"byteOffset":29856,
			"target":34963
		}
	],
	"samplers":[
		{
			"magFilter":9729,
			"minFilter":9987
		}
	],
	"buffers":[
		{
			"byteLength":35376,
			"uri":"Magazine_Open.bin"
		}
	]
}
