{
	"asset":{
		"generator":"Khronos glTF Blender I/O v5.2.39",
		"version":"2.0"
	},
	"scene":0,
	"scenes":[
		{
			"name":"ROOM CLUTTER \u2022 Reference scene",
			"nodes":[
				0
			]
		}
	],
	"nodes":[
		{
			"extras":{
				"asset_id":"Poster_Movie_Platform_Nine",
				"units":"meters",
				"front_axis_blender":"-Y",
				"pivot":"bottom center"
			},
			"mesh":0,
			"name":"Poster_Movie_Platform_Nine_Export"
		}
	],
	"materials":[
		{
			"name":"CLUTTER \u2022 Poster Platform",
			"normalTexture":{
				"index":0
			},
			"occlusionTexture":{
				"index":1
			},
			"pbrMetallicRoughness":{
				"baseColorTexture":{
					"index":2
				},
				"metallicRoughnessTexture":{
					"index":1
				}
			}
		},
		{
			"name":"CLUTTER \u2022 Paper",
			"normalTexture":{
				"index":3
			},
			"occlusionTexture":{
				"index":4
			},
			"pbrMetallicRoughness":{
				"baseColorTexture":{
					"index":5
				},
				"metallicRoughnessTexture":{
					"index":4
				}
			}
		},
		{
			"name":"CLUTTER \u2022 Tape",
			"pbrMetallicRoughness":{
				"baseColorFactor":[
					0.550000011920929,
					0.49000000953674316,
					0.3400000035762787,
					1
				],
				"metallicFactor":0,
				"roughnessFactor":0.800000011920929
			}
		}
	],
	"meshes":[
		{
			"name":"Poster_Movie_Platform_Nine_Mesh.001",
			"primitives":[
				{
					"attributes":{
						"POSITION":0,
						"NORMAL":1,
						"TEXCOORD_0":2,
						"TANGENT":3
					},
					"indices":4,
					"material":0
				},
				{
					"attributes":{
						"POSITION":5,
						"NORMAL":6,
						"TEXCOORD_0":7,
						"TANGENT":8
					},
					"indices":9,
					"material":1
				},
				{
					"attributes":{
						"POSITION":10,
						"NORMAL":11,
						"TEXCOORD_0":12,
						"TANGENT":13
					},
					"indices":14,
					"material":2
				}
			]
		}
	],
	"textures":[
		{
			"sampler":0,
			"source":0
		},
		{
			"sampler":0,
			"source":1
		},
		{
			"sampler":0,
			"source":2
		},
		{
			"sampler":0,
			"source":0
		},
		{
			"sampler":0,
			"source":1
		},
		{
			"sampler":0,
			"source":3
		}
	],
	"images":[
		{
			"mimeType":"image/png",
			"name":"paper_shared_normal_opengl",
			"uri":"textures/paper_shared_normal_opengl.png"
		},
		{
			"mimeType":"image/png",
			"name":"paper_shared_orm",
			"uri":"textures/paper_shared_orm.png"
		},
		{
			"mimeType":"image/png",
			"name":"movie_calendar_art_basecolor",
			"uri":"textures/movie_calendar_art_basecolor.png"
		},
		{
			"mimeType":"image/png",
			"name":"paper_pages_basecolor",
			"uri":"textures/paper_pages_basecolor.png"
		}
	],
	"accessors":[
		{
			"bufferView":0,
			"componentType":5126,
			"count":774,
			"max":[
				0.20999999344348907,
				0.6299999952316284,
				0.006000014021992683
			],
			"min":[
				-0.20999999344348907,
				0,
				0.0010000112233683467
			],
			"type":"VEC3"
		},
		{
			"bufferView":1,
			"componentType":5126,
			"count":774,
			"type":"VEC3"
		},
		{
			"bufferView":2,
			"componentType":5126,
			"count":774,
			"type":"VEC2"
		},
		{
			"bufferView":3,
			"componentType":5126,
			"count":774,
			"type":"VEC4"
		},
		{
			"bufferView":4,
			"componentType":5123,
			"count":1152,
			"type":"SCALAR"
		},
		{
			"bufferView":5,
			"componentType":5126,
			"count":894,
			"max":[
				0.20999999344348907,
				0.6299999952316284,
				0.006000014021992683
			],
			"min":[
				-0.20999999344348907,
				0,
				0.0006000111461617053
			],
			"type":"VEC3"
		},
		{
			"bufferView":6,
			"componentType":5126,
			"count":894,
			"type":"VEC3"
		},
		{
			"bufferView":7,
			"componentType":5126,
			"count":894,
			"type":"VEC2"
		},
		{
			"bufferView":8,
			"componentType":5126,
			"count":894,
			"type":"VEC4"
		},
		{
			"bufferView":9,
			"componentType":5123,
			"count":1488,
			"type":"SCALAR"
		},
		{
			"bufferView":10,
			"componentType":5126,
			"count":96,
			"max":[
				0.1678999960422516,
				0.6355000138282776,
				0.0017499999376013875
			],
			"min":[
				-0.1678999960422516,
				0.6044999957084656,
				0.0007499998901039362
			],
			"type":"VEC3"
		},
		{
			"bufferView":11,
			"componentType":5126,
			"count":96,
			"type":"VEC3"
		},
		{
			"bufferView":12,
			"componentType":5126,
			"count":96,
			"type":"VEC2"
		},
		{
			"bufferView":13,
			"componentType":5126,
			"count":96,
			"type":"VEC4"
		},
		{
			"bufferView":14,
			"componentType":5123,
			"count":264,
			"type":"SCALAR"
		}
	],
	"bufferViews":[
		{
			"buffer":0,
			"byteLength":9288,
			"byteOffset":0,
			"target":34962
		},
		{
			"buffer":0,
			"byteLength":9288,
			"byteOffset":9288,
			"target":34962
		},
		{
			"buffer":0,
			"byteLength":6192,
			"byteOffset":18576,
			"target":34962
		},
		{
			"buffer":0,
			"byteLength":12384,
			"byteOffset":24768,
			"target":34962
		},
		{
			"buffer":0,
			"byteLength":2304,
			"byteOffset":37152,
			"target":34963
		},
		{
			"buffer":0,
			"byteLength":10728,
			"byteOffset":39456,
			"target":34962
		},
		{
			"buffer":0,
			"byteLength":10728,
			"byteOffset":50184,
			"target":34962
		},
		{
			"buffer":0,
			"byteLength":7152,
			"byteOffset":60912,
			"target":34962
		},
		{
			"buffer":0,
			"byteLength":14304,
			"byteOffset":68064,
			"target":34962
		},
		{
			"buffer":0,
			"byteLength":2976,
			"byteOffset":82368,
			"target":34963
		},
		{
			"buffer":0,
			"byteLength":1152,
			"byteOffset":85344,
			"target":34962
		},
		{
			"buffer":0,
			"byteLength":1152,
			"byteOffset":86496,
			"target":34962
		},
		{
			"buffer":0,
			"byteLength":768,
			"byteOffset":87648,
			"target":34962
		},
		{
			"buffer":0,
			"byteLength":1536,
			"byteOffset":88416,
			"target":34962
		},
		{
			"buffer":0,
			"byteLength":528,
			"byteOffset":89952,
			"target":34963
		}
	],
	"samplers":[
		{
			"magFilter":9729,
			"minFilter":9987
		}
	],
	"buffers":[
		{
			"byteLength":90480,
			"uri":"Poster_Movie_Platform_Nine.bin"
		}
	]
}
