{
	"asset":{
		"generator":"Khronos glTF Blender I/O v5.2.39",
		"version":"2.0"
	},
	"scene":0,
	"scenes":[
		{
			"name":"ROOM CLUTTER \u2022 Reference scene",
			"nodes":[
				0
			]
		}
	],
	"nodes":[
		{
			"extras":{
				"asset_id":"Poster_Pinup_Woman_Swimsuit",
				"units":"meters",
				"front_axis_blender":"-Y",
				"pivot":"bottom center"
			},
			"mesh":0,
			"name":"Poster_Pinup_Woman_Swimsuit_Export"
		}
	],
	"materials":[
		{
			"name":"CLUTTER \u2022 Pinup source",
			"normalTexture":{
				"index":0
			},
			"occlusionTexture":{
				"index":1
			},
			"pbrMetallicRoughness":{
				"baseColorTexture":{
					"index":2
				},
				"metallicRoughnessTexture":{
					"index":1
				}
			}
		},
		{
			"name":"CLUTTER \u2022 Paper",
			"normalTexture":{
				"index":3
			},
			"occlusionTexture":{
				"index":4
			},
			"pbrMetallicRoughness":{
				"baseColorTexture":{
					"index":5
				},
				"metallicRoughnessTexture":{
					"index":4
				}
			}
		},
		{
			"name":"CLUTTER \u2022 Tape",
			"pbrMetallicRoughness":{
				"baseColorFactor":[
					0.550000011920929,
					0.49000000953674316,
					0.3400000035762787,
					1
				],
				"metallicFactor":0,
				"roughnessFactor":0.800000011920929
			}
		}
	],
	"meshes":[
		{
			"name":"Poster_Pinup_Woman_Swimsuit_Mesh.001",
			"primitives":[
				{
					"attributes":{
						"POSITION":0,
						"NORMAL":1,
						"TEXCOORD_0":2,
						"TANGENT":3
					},
					"indices":4,
					"material":0
				},
				{
					"attributes":{
						"POSITION":5,
						"NORMAL":6,
						"TEXCOORD_0":7,
						"TANGENT":8
					},
					"indices":9,
					"material":1
				},
				{
					"attributes":{
						"POSITION":10,
						"NORMAL":11,
						"TEXCOORD_0":12,
						"TANGENT":13
					},
					"indices":14,
					"material":2
				}
			]
		}
	],
	"textures":[
		{
			"sampler":0,
			"source":0
		},
		{
			"sampler":0,
			"source":1
		},
		{
			"sampler":0,
			"source":2
		},
		{
			"sampler":0,
			"source":0
		},
		{
			"sampler":0,
			"source":1
		},
		{
			"sampler":0,
			"source":3
		}
	],
	"images":[
		{
			"mimeType":"image/png",
			"name":"paper_shared_normal_opengl",
			"uri":"textures/paper_shared_normal_opengl.png"
		},
		{
			"mimeType":"image/png",
			"name":"paper_shared_orm",
			"uri":"textures/paper_shared_orm.png"
		},
		{
			"mimeType":"image/png",
			"name":"approved_pinups_source_basecolor",
			"uri":"textures/approved_pinups_source_basecolor.png"
		},
		{
			"mimeType":"image/png",
			"name":"paper_pages_basecolor",
			"uri":"textures/paper_pages_basecolor.png"
		}
	],
	"accessors":[
		{
			"bufferView":0,
			"componentType":5126,
			"count":1135,
			"max":[
				0.14000000059604645,
				0.41999998688697815,
				0.010000009089708328
			],
			"min":[
				-0.14000000059604645,
				0,
				0.0010000080801546574
			],
			"type":"VEC3"
		},
		{
			"bufferView":1,
			"componentType":5126,
			"count":1135,
			"type":"VEC3"
		},
		{
			"bufferView":2,
			"componentType":5126,
			"count":1135,
			"type":"VEC2"
		},
		{
			"bufferView":3,
			"componentType":5126,
			"count":1135,
			"type":"VEC4"
		},
		{
			"bufferView":4,
			"componentType":5123,
			"count":1152,
			"type":"SCALAR"
		},
		{
			"bufferView":5,
			"componentType":5126,
			"count":971,
			"max":[
				0.14000000059604645,
				0.41999998688697815,
				0.010000009089708328
			],
			"min":[
				-0.14000000059604645,
				0,
				0.0006000080611556768
			],
			"type":"VEC3"
		},
		{
			"bufferView":6,
			"componentType":5126,
			"count":971,
			"type":"VEC3"
		},
		{
			"bufferView":7,
			"componentType":5126,
			"count":971,
			"type":"VEC2"
		},
		{
			"bufferView":8,
			"componentType":5126,
			"count":971,
			"type":"VEC4"
		},
		{
			"bufferView":9,
			"componentType":5123,
			"count":1488,
			"type":"SCALAR"
		},
		{
			"bufferView":10,
			"componentType":5126,
			"count":96,
			"max":[
				0.1161000058054924,
				0.42549997568130493,
				0.0017500000540167093
			],
			"min":[
				-0.1161000058054924,
				0.3945000171661377,
				0.0007499999483115971
			],
			"type":"VEC3"
		},
		{
			"bufferView":11,
			"componentType":5126,
			"count":96,
			"type":"VEC3"
		},
		{
			"bufferView":12,
			"componentType":5126,
			"count":96,
			"type":"VEC2"
		},
		{
			"bufferView":13,
			"componentType":5126,
			"count":96,
			"type":"VEC4"
		},
		{
			"bufferView":14,
			"componentType":5123,
			"count":264,
			"type":"SCALAR"
		}
	],
	"bufferViews":[
		{
			"buffer":0,
			"byteLength":13620,
			"byteOffset":0,
			"target":34962
		},
		{
			"buffer":0,
			"byteLength":13620,
			"byteOffset":13620,
			"target":34962
		},
		{
			"buffer":0,
			"byteLength":9080,
			"byteOffset":27240,
			"target":34962
		},
		{
			"buffer":0,
			"byteLength":18160,
			"byteOffset":36320,
			"target":34962
		},
		{
			"buffer":0,
			"byteLength":2304,
			"byteOffset":54480,
			"target":34963
		},
		{
			"buffer":0,
			"byteLength":11652,
			"byteOffset":56784,
			"target":34962
		},
		{
			"buffer":0,
			"byteLength":11652,
			"byteOffset":68436,
			"target":34962
		},
		{
			"buffer":0,
			"byteLength":7768,
			"byteOffset":80088,
			"target":34962
		},
		{
			"buffer":0,
			"byteLength":15536,
			"byteOffset":87856,
			"target":34962
		},
		{
			"buffer":0,
			"byteLength":2976,
			"byteOffset":103392,
			"target":34963
		},
		{
			"buffer":0,
			"byteLength":1152,
			"byteOffset":106368,
			"target":34962
		},
		{
			"buffer":0,
			"byteLength":1152,
			"byteOffset":107520,
			"target":34962
		},
		{
			"buffer":0,
			"byteLength":768,
			"byteOffset":108672,
			"target":34962
		},
		{
			"buffer":0,
			"byteLength":1536,
			"byteOffset":109440,
			"target":34962
		},
		{
			"buffer":0,
			"byteLength":528,
			"byteOffset":110976,
			"target":34963
		}
	],
	"samplers":[
		{
			"magFilter":9729,
			"minFilter":9987
		}
	],
	"buffers":[
		{
			"byteLength":111504,
			"uri":"Poster_Pinup_Woman_Swimsuit.bin"
		}
	]
}
