{
	"asset":{
		"generator":"Khronos glTF Blender I/O v5.2.39",
		"version":"2.0"
	},
	"scene":0,
	"scenes":[
		{
			"name":"ROOM CLUTTER \u2022 Reference scene",
			"nodes":[
				0
			]
		}
	],
	"nodes":[
		{
			"extras":{
				"asset_id":"Sticky_Notes_Cluster",
				"units":"meters",
				"front_axis_blender":"-Y",
				"pivot":"bottom center"
			},
			"mesh":0,
			"name":"Sticky_Notes_Cluster_Export"
		}
	],
	"materials":[
		{
			"name":"CLUTTER \u2022 Paper",
			"normalTexture":{
				"index":0
			},
			"occlusionTexture":{
				"index":1
			},
			"pbrMetallicRoughness":{
				"baseColorTexture":{
					"index":2
				},
				"metallicRoughnessTexture":{
					"index":1
				}
			}
		}
	],
	"meshes":[
		{
			"name":"Sticky_Notes_Cluster_Mesh.001",
			"primitives":[
				{
					"attributes":{
						"POSITION":0,
						"NORMAL":1,
						"TEXCOORD_0":2,
						"TANGENT":3
					},
					"indices":4,
					"material":0
				}
			]
		}
	],
	"textures":[
		{
			"sampler":0,
			"source":0
		},
		{
			"sampler":0,
			"source":1
		},
		{
			"sampler":0,
			"source":2
		}
	],
	"images":[
		{
			"mimeType":"image/png",
			"name":"paper_shared_normal_opengl",
			"uri":"textures/paper_shared_normal_opengl.png"
		},
		{
			"mimeType":"image/png",
			"name":"paper_shared_orm",
			"uri":"textures/paper_shared_orm.png"
		},
		{
			"mimeType":"image/png",
			"name":"paper_pages_basecolor",
			"uri":"textures/paper_pages_basecolor.png"
		}
	],
	"accessors":[
		{
			"bufferView":0,
			"componentType":5126,
			"count":1458,
			"max":[
				0.07656476646661758,
				0.004670000169426203,
				0.051275789737701416
			],
			"min":[
				-0.06493084877729416,
				0,
				-0.08556476980447769
			],
			"type":"VEC3"
		},
		{
			"bufferView":1,
			"componentType":5126,
			"count":1458,
			"type":"VEC3"
		},
		{
			"bufferView":2,
			"componentType":5126,
			"count":1458,
			"type":"VEC2"
		},
		{
			"bufferView":3,
			"componentType":5126,
			"count":1458,
			"type":"VEC4"
		},
		{
			"bufferView":4,
			"componentType":5123,
			"count":6696,
			"type":"SCALAR"
		}
	],
	"bufferViews":[
		{
			"buffer":0,
			"byteLength":17496,
			"byteOffset":0,
			"target":34962
		},
		{
			"buffer":0,
			"byteLength":17496,
			"byteOffset":17496,
			"target":34962
		},
		{
			"buffer":0,
			"byteLength":11664,
			"byteOffset":34992,
			"target":34962
		},
		{
			"buffer":0,
			"byteLength":23328,
			"byteOffset":46656,
			"target":34962
		},
		{
			"buffer":0,
			"byteLength":13392,
			"byteOffset":69984,
			"target":34963
		}
	],
	"samplers":[
		{
			"magFilter":9729,
			"minFilter":9987
		}
	],
	"buffers":[
		{
			"byteLength":83376,
			"uri":"Sticky_Notes_Cluster.bin"
		}
	]
}
