{
  "asset": {
    "generator": "Khronos glTF Blender I/O v5.2.40",
    "version": "2.0"
  },
  "scene": 0,
  "scenes": [
    {
      "name": "ASHDOWN SUBWAY",
      "nodes": [
        0
      ]
    }
  ],
  "nodes": [
    {
      "mesh": 0,
      "name": "Electrical_Service_Cabinet_Export"
    }
  ],
  "materials": [
    {
      "name": "Subway_Steel",
      "normalTexture": {
        "index": 0,
        "scale": 0.5
      },
      "pbrMetallicRoughness": {
        "baseColorTexture": {
          "index": 1
        },
        "metallicRoughnessTexture": {
          "index": 2
        }
      },
      "occlusionTexture": {
        "index": 2,
        "strength": 1.0
      }
    },
    {
      "name": "Subway_Charcoal",
      "normalTexture": {
        "index": 3,
        "scale": 0.5
      },
      "pbrMetallicRoughness": {
        "baseColorTexture": {
          "index": 4
        },
        "metallicRoughnessTexture": {
          "index": 5
        }
      },
      "occlusionTexture": {
        "index": 5,
        "strength": 1.0
      }
    },
    {
      "name": "Subway_Yellow",
      "pbrMetallicRoughness": {
        "baseColorFactor": [
          0.5199999809265137,
          0.3400000035762787,
          0.054999999701976776,
          1
        ],
        "metallicFactor": 0,
        "roughnessFactor": 0.699999988079071
      }
    }
  ],
  "meshes": [
    {
      "name": "Electrical_Service_Cabinet.010",
      "primitives": [
        {
          "attributes": {
            "POSITION": 0,
            "NORMAL": 1,
            "TEXCOORD_0": 2,
            "TANGENT": 3
          },
          "indices": 4,
          "material": 0
        },
        {
          "attributes": {
            "POSITION": 5,
            "NORMAL": 6,
            "TEXCOORD_0": 7,
            "TANGENT": 8
          },
          "indices": 9,
          "material": 1
        },
        {
          "attributes": {
            "POSITION": 10,
            "NORMAL": 11,
            "TEXCOORD_0": 12,
            "TANGENT": 13
          },
          "indices": 14,
          "material": 2
        }
      ]
    }
  ],
  "textures": [
    {
      "sampler": 0,
      "source": 0
    },
    {
      "sampler": 0,
      "source": 1
    },
    {
      "sampler": 0,
      "source": 2
    },
    {
      "sampler": 0,
      "source": 3
    },
    {
      "sampler": 0,
      "source": 4
    },
    {
      "sampler": 0,
      "source": 5
    }
  ],
  "images": [
    {
      "mimeType": "image/png",
      "name": "Steel_normal_opengl",
      "uri": "textures/Steel_normal_opengl.png"
    },
    {
      "mimeType": "image/png",
      "name": "Steel_basecolor",
      "uri": "textures/Steel_basecolor.png"
    },
    {
      "mimeType": "image/png",
      "name": "Steel_orm",
      "uri": "textures/Steel_orm.png"
    },
    {
      "mimeType": "image/png",
      "name": "Charcoal_normal_opengl",
      "uri": "textures/Charcoal_normal_opengl.png"
    },
    {
      "mimeType": "image/png",
      "name": "Charcoal_basecolor",
      "uri": "textures/Charcoal_basecolor.png"
    },
    {
      "mimeType": "image/png",
      "name": "Charcoal_orm",
      "uri": "textures/Charcoal_orm.png"
    }
  ],
  "accessors": [
    {
      "bufferView": 0,
      "componentType": 5126,
      "count": 96,
      "max": [
        0.32499998807907104,
        1.2799999713897705,
        0.13699999451637268
      ],
      "min": [
        -0.32499998807907104,
        0.019999999552965164,
        0.10499999672174454
      ],
      "type": "VEC3"
    },
    {
      "bufferView": 1,
      "componentType": 5126,
      "count": 96,
      "type": "VEC3"
    },
    {
      "bufferView": 2,
      "componentType": 5126,
      "count": 96,
      "type": "VEC2"
    },
    {
      "bufferView": 3,
      "componentType": 5126,
      "count": 96,
      "type": "VEC4"
    },
    {
      "bufferView": 4,
      "componentType": 5123,
      "count": 132,
      "type": "SCALAR"
    },
    {
      "bufferView": 5,
      "componentType": 5126,
      "count": 544,
      "max": [
        0.3449999988079071,
        1.2999999523162842,
        0.16599999368190765
      ],
      "min": [
        -0.3449999988079071,
        0,
        -0.15000000596046448
      ],
      "type": "VEC3"
    },
    {
      "bufferView": 6,
      "componentType": 5126,
      "count": 544,
      "type": "VEC3"
    },
    {
      "bufferView": 7,
      "componentType": 5126,
      "count": 544,
      "type": "VEC2"
    },
    {
      "bufferView": 8,
      "componentType": 5126,
      "count": 544,
      "type": "VEC4"
    },
    {
      "bufferView": 9,
      "componentType": 5123,
      "count": 768,
      "type": "SCALAR"
    },
    {
      "bufferView": 10,
      "componentType": 5126,
      "count": 18,
      "max": [
        0.10000000149011612,
        1.1699999570846558,
        0.1469999998807907
      ],
      "min": [
        -0.10000000149011612,
        0.9900000095367432,
        0.13300000131130219
      ],
      "type": "VEC3"
    },
    {
      "bufferView": 11,
      "componentType": 5126,
      "count": 18,
      "type": "VEC3"
    },
    {
      "bufferView": 12,
      "componentType": 5126,
      "count": 18,
      "type": "VEC2"
    },
    {
      "bufferView": 13,
      "componentType": 5126,
      "count": 18,
      "type": "VEC4"
    },
    {
      "bufferView": 14,
      "componentType": 5123,
      "count": 24,
      "type": "SCALAR"
    }
  ],
  "bufferViews": [
    {
      "buffer": 0,
      "byteLength": 1152,
      "byteOffset": 0,
      "target": 34962
    },
    {
      "buffer": 0,
      "byteLength": 1152,
      "byteOffset": 1152,
      "target": 34962
    },
    {
      "buffer": 0,
      "byteLength": 768,
      "byteOffset": 2304,
      "target": 34962
    },
    {
      "buffer": 0,
      "byteLength": 1536,
      "byteOffset": 3072,
      "target": 34962
    },
    {
      "buffer": 0,
      "byteLength": 264,
      "byteOffset": 4608,
      "target": 34963
    },
    {
      "buffer": 0,
      "byteLength": 6528,
      "byteOffset": 4872,
      "target": 34962
    },
    {
      "buffer": 0,
      "byteLength": 6528,
      "byteOffset": 11400,
      "target": 34962
    },
    {
      "buffer": 0,
      "byteLength": 4352,
      "byteOffset": 17928,
      "target": 34962
    },
    {
      "buffer": 0,
      "byteLength": 8704,
      "byteOffset": 22280,
      "target": 34962
    },
    {
      "buffer": 0,
      "byteLength": 1536,
      "byteOffset": 30984,
      "target": 34963
    },
    {
      "buffer": 0,
      "byteLength": 216,
      "byteOffset": 32520,
      "target": 34962
    },
    {
      "buffer": 0,
      "byteLength": 216,
      "byteOffset": 32736,
      "target": 34962
    },
    {
      "buffer": 0,
      "byteLength": 144,
      "byteOffset": 32952,
      "target": 34962
    },
    {
      "buffer": 0,
      "byteLength": 288,
      "byteOffset": 33096,
      "target": 34962
    },
    {
      "buffer": 0,
      "byteLength": 48,
      "byteOffset": 33384,
      "target": 34963
    }
  ],
  "samplers": [
    {
      "magFilter": 9729,
      "minFilter": 9987
    }
  ],
  "buffers": [
    {
      "byteLength": 33432,
      "uri": "Electrical_Service_Cabinet.bin"
    }
  ]
}
