{
  "asset": {
    "generator": "Khronos glTF Blender I/O v5.2.40",
    "version": "2.0"
  },
  "scene": 0,
  "scenes": [
    {
      "name": "ASHDOWN SUBWAY",
      "nodes": [
        0
      ]
    }
  ],
  "nodes": [
    {
      "mesh": 0,
      "name": "Platform_Edge_Tactile_1m_Export"
    }
  ],
  "materials": [
    {
      "name": "Subway_Yellow",
      "pbrMetallicRoughness": {
        "baseColorFactor": [
          0.5199999809265137,
          0.3400000035762787,
          0.054999999701976776,
          1
        ],
        "metallicFactor": 0,
        "roughnessFactor": 0.699999988079071
      }
    }
  ],
  "meshes": [
    {
      "name": "Platform_Edge_Tactile_1m.010",
      "primitives": [
        {
          "attributes": {
            "POSITION": 0,
            "NORMAL": 1,
            "TEXCOORD_0": 2,
            "TANGENT": 3
          },
          "indices": 4,
          "material": 0
        }
      ]
    }
  ],
  "accessors": [
    {
      "bufferView": 0,
      "componentType": 5126,
      "count": 1712,
      "max": [
        0.20000000298023224,
        0.03999999910593033,
        0
      ],
      "min": [
        -0.20000000298023224,
        0,
        -1
      ],
      "type": "VEC3"
    },
    {
      "bufferView": 1,
      "componentType": 5126,
      "count": 1712,
      "type": "VEC3"
    },
    {
      "bufferView": 2,
      "componentType": 5126,
      "count": 1712,
      "type": "VEC2"
    },
    {
      "bufferView": 3,
      "componentType": 5126,
      "count": 1712,
      "type": "VEC4"
    },
    {
      "bufferView": 4,
      "componentType": 5123,
      "count": 3492,
      "type": "SCALAR"
    }
  ],
  "bufferViews": [
    {
      "buffer": 0,
      "byteLength": 20544,
      "byteOffset": 0,
      "target": 34962
    },
    {
      "buffer": 0,
      "byteLength": 20544,
      "byteOffset": 20544,
      "target": 34962
    },
    {
      "buffer": 0,
      "byteLength": 13696,
      "byteOffset": 41088,
      "target": 34962
    },
    {
      "buffer": 0,
      "byteLength": 27392,
      "byteOffset": 54784,
      "target": 34962
    },
    {
      "buffer": 0,
      "byteLength": 6984,
      "byteOffset": 82176,
      "target": 34963
    }
  ],
  "buffers": [
    {
      "byteLength": 89160,
      "uri": "Platform_Edge_Tactile_1m.bin"
    }
  ]
}
