{
  "asset": {
    "generator": "Khronos glTF Blender I/O v5.2.40",
    "version": "2.0"
  },
  "scene": 0,
  "scenes": [
    {
      "name": "ASHDOWN SUBWAY",
      "nodes": [
        0
      ]
    }
  ],
  "nodes": [
    {
      "mesh": 0,
      "name": "Recycling_Bin_Export"
    }
  ],
  "materials": [
    {
      "name": "Subway_Steel",
      "normalTexture": {
        "index": 0,
        "scale": 0.5
      },
      "pbrMetallicRoughness": {
        "baseColorTexture": {
          "index": 1
        },
        "metallicRoughnessTexture": {
          "index": 2
        }
      },
      "occlusionTexture": {
        "index": 2,
        "strength": 1.0
      }
    },
    {
      "name": "Subway_Teal",
      "normalTexture": {
        "index": 3,
        "scale": 0.5
      },
      "pbrMetallicRoughness": {
        "baseColorTexture": {
          "index": 4
        },
        "metallicRoughnessTexture": {
          "index": 5
        }
      },
      "occlusionTexture": {
        "index": 5,
        "strength": 1.0
      }
    },
    {
      "name": "Subway_Charcoal",
      "normalTexture": {
        "index": 6,
        "scale": 0.5
      },
      "pbrMetallicRoughness": {
        "baseColorTexture": {
          "index": 7
        },
        "metallicRoughnessTexture": {
          "index": 8
        }
      },
      "occlusionTexture": {
        "index": 8,
        "strength": 1.0
      }
    },
    {
      "name": "Subway_Print",
      "pbrMetallicRoughness": {
        "baseColorTexture": {
          "index": 9
        },
        "metallicFactor": 0,
        "roughnessFactor": 0.7699999809265137
      }
    }
  ],
  "meshes": [
    {
      "name": "Recycling_Bin.010",
      "primitives": [
        {
          "attributes": {
            "POSITION": 0,
            "NORMAL": 1,
            "TEXCOORD_0": 2,
            "TANGENT": 3
          },
          "indices": 4,
          "material": 0
        },
        {
          "attributes": {
            "POSITION": 5,
            "NORMAL": 6,
            "TEXCOORD_0": 7,
            "TANGENT": 8
          },
          "indices": 4,
          "material": 1
        },
        {
          "attributes": {
            "POSITION": 9,
            "NORMAL": 10,
            "TEXCOORD_0": 11,
            "TANGENT": 12
          },
          "indices": 13,
          "material": 2
        },
        {
          "attributes": {
            "POSITION": 14,
            "NORMAL": 15,
            "TEXCOORD_0": 16,
            "TANGENT": 17
          },
          "indices": 18,
          "material": 3
        }
      ]
    }
  ],
  "textures": [
    {
      "sampler": 0,
      "source": 0
    },
    {
      "sampler": 0,
      "source": 1
    },
    {
      "sampler": 0,
      "source": 2
    },
    {
      "sampler": 0,
      "source": 3
    },
    {
      "sampler": 0,
      "source": 4
    },
    {
      "sampler": 0,
      "source": 5
    },
    {
      "sampler": 0,
      "source": 6
    },
    {
      "sampler": 0,
      "source": 7
    },
    {
      "sampler": 0,
      "source": 8
    },
    {
      "sampler": 0,
      "source": 9
    }
  ],
  "images": [
    {
      "mimeType": "image/png",
      "name": "Steel_normal_opengl",
      "uri": "textures/Steel_normal_opengl.png"
    },
    {
      "mimeType": "image/png",
      "name": "Steel_basecolor",
      "uri": "textures/Steel_basecolor.png"
    },
    {
      "mimeType": "image/png",
      "name": "Steel_orm",
      "uri": "textures/Steel_orm.png"
    },
    {
      "mimeType": "image/png",
      "name": "Teal_normal_opengl",
      "uri": "textures/Teal_normal_opengl.png"
    },
    {
      "mimeType": "image/png",
      "name": "Teal_basecolor",
      "uri": "textures/Teal_basecolor.png"
    },
    {
      "mimeType": "image/png",
      "name": "Teal_orm",
      "uri": "textures/Teal_orm.png"
    },
    {
      "mimeType": "image/png",
      "name": "Charcoal_normal_opengl",
      "uri": "textures/Charcoal_normal_opengl.png"
    },
    {
      "mimeType": "image/png",
      "name": "Charcoal_basecolor",
      "uri": "textures/Charcoal_basecolor.png"
    },
    {
      "mimeType": "image/png",
      "name": "Charcoal_orm",
      "uri": "textures/Charcoal_orm.png"
    },
    {
      "mimeType": "image/png",
      "name": "Signage",
      "uri": "textures/Signage.png"
    }
  ],
  "accessors": [
    {
      "bufferView": 0,
      "componentType": 5126,
      "count": 384,
      "max": [
        0.24699999392032623,
        0.8809999823570251,
        0.22550000250339508
      ],
      "min": [
        -0.24699999392032623,
        0.8289999961853027,
        -0.22550000250339508
      ],
      "type": "VEC3"
    },
    {
      "bufferView": 1,
      "componentType": 5126,
      "count": 384,
      "type": "VEC3"
    },
    {
      "bufferView": 2,
      "componentType": 5126,
      "count": 384,
      "type": "VEC2"
    },
    {
      "bufferView": 3,
      "componentType": 5126,
      "count": 384,
      "type": "VEC4"
    },
    {
      "bufferView": 4,
      "componentType": 5123,
      "count": 528,
      "type": "SCALAR"
    },
    {
      "bufferView": 5,
      "componentType": 5126,
      "count": 384,
      "max": [
        0.2409999966621399,
        0.8399999737739563,
        0.210999995470047
      ],
      "min": [
        -0.2409999966621399,
        0.05000000074505806,
        -0.210999995470047
      ],
      "type": "VEC3"
    },
    {
      "bufferView": 6,
      "componentType": 5126,
      "count": 384,
      "type": "VEC3"
    },
    {
      "bufferView": 7,
      "componentType": 5126,
      "count": 384,
      "type": "VEC2"
    },
    {
      "bufferView": 8,
      "componentType": 5126,
      "count": 384,
      "type": "VEC4"
    },
    {
      "bufferView": 9,
      "componentType": 5126,
      "count": 96,
      "max": [
        0.24500000476837158,
        0.07999999821186066,
        0.2199999988079071
      ],
      "min": [
        -0.24500000476837158,
        0,
        -0.2199999988079071
      ],
      "type": "VEC3"
    },
    {
      "bufferView": 10,
      "componentType": 5126,
      "count": 96,
      "type": "VEC3"
    },
    {
      "bufferView": 11,
      "componentType": 5126,
      "count": 96,
      "type": "VEC2"
    },
    {
      "bufferView": 12,
      "componentType": 5126,
      "count": 96,
      "type": "VEC4"
    },
    {
      "bufferView": 13,
      "componentType": 5123,
      "count": 132,
      "type": "SCALAR"
    },
    {
      "bufferView": 14,
      "componentType": 5126,
      "count": 24,
      "max": [
        0.15000000596046448,
        0.6499999761581421,
        0.22200000286102295
      ],
      "min": [
        -0.15000000596046448,
        0.3100000023841858,
        0.20800000429153442
      ],
      "type": "VEC3"
    },
    {
      "bufferView": 15,
      "componentType": 5126,
      "count": 24,
      "type": "VEC3"
    },
    {
      "bufferView": 16,
      "componentType": 5126,
      "count": 24,
      "type": "VEC2"
    },
    {
      "bufferView": 17,
      "componentType": 5126,
      "count": 24,
      "type": "VEC4"
    },
    {
      "bufferView": 18,
      "componentType": 5123,
      "count": 36,
      "type": "SCALAR"
    }
  ],
  "bufferViews": [
    {
      "buffer": 0,
      "byteLength": 4608,
      "byteOffset": 0,
      "target": 34962
    },
    {
      "buffer": 0,
      "byteLength": 4608,
      "byteOffset": 4608,
      "target": 34962
    },
    {
      "buffer": 0,
      "byteLength": 3072,
      "byteOffset": 9216,
      "target": 34962
    },
    {
      "buffer": 0,
      "byteLength": 6144,
      "byteOffset": 12288,
      "target": 34962
    },
    {
      "buffer": 0,
      "byteLength": 1056,
      "byteOffset": 18432,
      "target": 34963
    },
    {
      "buffer": 0,
      "byteLength": 4608,
      "byteOffset": 19488,
      "target": 34962
    },
    {
      "buffer": 0,
      "byteLength": 4608,
      "byteOffset": 24096,
      "target": 34962
    },
    {
      "buffer": 0,
      "byteLength": 3072,
      "byteOffset": 28704,
      "target": 34962
    },
    {
      "buffer": 0,
      "byteLength": 6144,
      "byteOffset": 31776,
      "target": 34962
    },
    {
      "buffer": 0,
      "byteLength": 1152,
      "byteOffset": 37920,
      "target": 34962
    },
    {
      "buffer": 0,
      "byteLength": 1152,
      "byteOffset": 39072,
      "target": 34962
    },
    {
      "buffer": 0,
      "byteLength": 768,
      "byteOffset": 40224,
      "target": 34962
    },
    {
      "buffer": 0,
      "byteLength": 1536,
      "byteOffset": 40992,
      "target": 34962
    },
    {
      "buffer": 0,
      "byteLength": 264,
      "byteOffset": 42528,
      "target": 34963
    },
    {
      "buffer": 0,
      "byteLength": 288,
      "byteOffset": 42792,
      "target": 34962
    },
    {
      "buffer": 0,
      "byteLength": 288,
      "byteOffset": 43080,
      "target": 34962
    },
    {
      "buffer": 0,
      "byteLength": 192,
      "byteOffset": 43368,
      "target": 34962
    },
    {
      "buffer": 0,
      "byteLength": 384,
      "byteOffset": 43560,
      "target": 34962
    },
    {
      "buffer": 0,
      "byteLength": 72,
      "byteOffset": 43944,
      "target": 34963
    }
  ],
  "samplers": [
    {
      "magFilter": 9729,
      "minFilter": 9987
    }
  ],
  "buffers": [
    {
      "byteLength": 44016,
      "uri": "Recycling_Bin.bin"
    }
  ]
}
