{
  "asset": {
    "generator": "Khronos glTF Blender I/O v5.2.40",
    "version": "2.0"
  },
  "scene": 0,
  "scenes": [
    {
      "name": "ASHDOWN SUBWAY",
      "nodes": [
        0
      ]
    }
  ],
  "nodes": [
    {
      "mesh": 0,
      "name": "Track_Straight_8m_Export"
    }
  ],
  "materials": [
    {
      "name": "Subway_Steel",
      "normalTexture": {
        "index": 0,
        "scale": 0.5
      },
      "pbrMetallicRoughness": {
        "baseColorTexture": {
          "index": 1
        },
        "metallicRoughnessTexture": {
          "index": 2
        }
      },
      "occlusionTexture": {
        "index": 2,
        "strength": 1.0
      }
    },
    {
      "name": "Subway_Charcoal",
      "normalTexture": {
        "index": 3,
        "scale": 0.5
      },
      "pbrMetallicRoughness": {
        "baseColorTexture": {
          "index": 4
        },
        "metallicRoughnessTexture": {
          "index": 5
        }
      },
      "occlusionTexture": {
        "index": 5,
        "strength": 1.0
      }
    },
    {
      "name": "Subway_Sleeper",
      "normalTexture": {
        "index": 6,
        "scale": 0.5
      },
      "pbrMetallicRoughness": {
        "baseColorTexture": {
          "index": 7
        },
        "metallicRoughnessTexture": {
          "index": 8
        }
      },
      "occlusionTexture": {
        "index": 8,
        "strength": 1.0
      }
    }
  ],
  "meshes": [
    {
      "name": "Track_Straight_8m.010",
      "primitives": [
        {
          "attributes": {
            "POSITION": 0,
            "NORMAL": 1,
            "TEXCOORD_0": 2,
            "TANGENT": 3
          },
          "indices": 4,
          "material": 0
        },
        {
          "attributes": {
            "POSITION": 5,
            "NORMAL": 6,
            "TEXCOORD_0": 7,
            "TANGENT": 8
          },
          "indices": 9,
          "material": 1
        },
        {
          "attributes": {
            "POSITION": 10,
            "NORMAL": 11,
            "TEXCOORD_0": 12,
            "TANGENT": 13
          },
          "indices": 14,
          "material": 2
        }
      ]
    }
  ],
  "textures": [
    {
      "sampler": 0,
      "source": 0
    },
    {
      "sampler": 0,
      "source": 1
    },
    {
      "sampler": 0,
      "source": 2
    },
    {
      "sampler": 0,
      "source": 3
    },
    {
      "sampler": 0,
      "source": 4
    },
    {
      "sampler": 0,
      "source": 5
    },
    {
      "sampler": 0,
      "source": 6
    },
    {
      "sampler": 0,
      "source": 7
    },
    {
      "sampler": 0,
      "source": 8
    }
  ],
  "images": [
    {
      "mimeType": "image/png",
      "name": "Steel_normal_opengl",
      "uri": "textures/Steel_normal_opengl.png"
    },
    {
      "mimeType": "image/png",
      "name": "Steel_basecolor",
      "uri": "textures/Steel_basecolor.png"
    },
    {
      "mimeType": "image/png",
      "name": "Steel_orm",
      "uri": "textures/Steel_orm.png"
    },
    {
      "mimeType": "image/png",
      "name": "Charcoal_normal_opengl",
      "uri": "textures/Charcoal_normal_opengl.png"
    },
    {
      "mimeType": "image/png",
      "name": "Charcoal_basecolor",
      "uri": "textures/Charcoal_basecolor.png"
    },
    {
      "mimeType": "image/png",
      "name": "Charcoal_orm",
      "uri": "textures/Charcoal_orm.png"
    },
    {
      "mimeType": "image/png",
      "name": "Sleeper_normal_opengl",
      "uri": "textures/Sleeper_normal_opengl.png"
    },
    {
      "mimeType": "image/png",
      "name": "Sleeper_basecolor",
      "uri": "textures/Sleeper_basecolor.png"
    },
    {
      "mimeType": "image/png",
      "name": "Sleeper_orm",
      "uri": "textures/Sleeper_orm.png"
    }
  ],
  "accessors": [
    {
      "bufferView": 0,
      "componentType": 5126,
      "count": 6544,
      "max": [
        0.8539999723434448,
        0.33000001311302185,
        0
      ],
      "min": [
        -0.8539999723434448,
        0.17499999701976776,
        -8
      ],
      "type": "VEC3"
    },
    {
      "bufferView": 1,
      "componentType": 5126,
      "count": 6544,
      "type": "VEC3"
    },
    {
      "bufferView": 2,
      "componentType": 5126,
      "count": 6544,
      "type": "VEC2"
    },
    {
      "bufferView": 3,
      "componentType": 5126,
      "count": 6544,
      "type": "VEC4"
    },
    {
      "bufferView": 4,
      "componentType": 5123,
      "count": 8712,
      "type": "SCALAR"
    },
    {
      "bufferView": 5,
      "componentType": 5126,
      "count": 3288,
      "max": [
        0.8725000023841858,
        0.17900000512599945,
        -0.1550000011920929
      ],
      "min": [
        -0.8725000023841858,
        0.1589999943971634,
        -7.84499979019165
      ],
      "type": "VEC3"
    },
    {
      "bufferView": 6,
      "componentType": 5126,
      "count": 3288,
      "type": "VEC3"
    },
    {
      "bufferView": 7,
      "componentType": 5126,
      "count": 3288,
      "type": "VEC2"
    },
    {
      "bufferView": 8,
      "componentType": 5126,
      "count": 3288,
      "type": "VEC4"
    },
    {
      "bufferView": 9,
      "componentType": 5123,
      "count": 4224,
      "type": "SCALAR"
    },
    {
      "bufferView": 10,
      "componentType": 5126,
      "count": 1536,
      "max": [
        1.1749999523162842,
        0.1599999964237213,
        -0.13500000536441803
      ],
      "min": [
        -1.1749999523162842,
        0,
        -7.864999771118164
      ],
      "type": "VEC3"
    },
    {
      "bufferView": 11,
      "componentType": 5126,
      "count": 1536,
      "type": "VEC3"
    },
    {
      "bufferView": 12,
      "componentType": 5126,
      "count": 1536,
      "type": "VEC2"
    },
    {
      "bufferView": 13,
      "componentType": 5126,
      "count": 1536,
      "type": "VEC4"
    },
    {
      "bufferView": 14,
      "componentType": 5123,
      "count": 2112,
      "type": "SCALAR"
    }
  ],
  "bufferViews": [
    {
      "buffer": 0,
      "byteLength": 78528,
      "byteOffset": 0,
      "target": 34962
    },
    {
      "buffer": 0,
      "byteLength": 78528,
      "byteOffset": 78528,
      "target": 34962
    },
    {
      "buffer": 0,
      "byteLength": 52352,
      "byteOffset": 157056,
      "target": 34962
    },
    {
      "buffer": 0,
      "byteLength": 104704,
      "byteOffset": 209408,
      "target": 34962
    },
    {
      "buffer": 0,
      "byteLength": 17424,
      "byteOffset": 314112,
      "target": 34963
    },
    {
      "buffer": 0,
      "byteLength": 39456,
      "byteOffset": 331536,
      "target": 34962
    },
    {
      "buffer": 0,
      "byteLength": 39456,
      "byteOffset": 370992,
      "target": 34962
    },
    {
      "buffer": 0,
      "byteLength": 26304,
      "byteOffset": 410448,
      "target": 34962
    },
    {
      "buffer": 0,
      "byteLength": 52608,
      "byteOffset": 436752,
      "target": 34962
    },
    {
      "buffer": 0,
      "byteLength": 8448,
      "byteOffset": 489360,
      "target": 34963
    },
    {
      "buffer": 0,
      "byteLength": 18432,
      "byteOffset": 497808,
      "target": 34962
    },
    {
      "buffer": 0,
      "byteLength": 18432,
      "byteOffset": 516240,
      "target": 34962
    },
    {
      "buffer": 0,
      "byteLength": 12288,
      "byteOffset": 534672,
      "target": 34962
    },
    {
      "buffer": 0,
      "byteLength": 24576,
      "byteOffset": 546960,
      "target": 34962
    },
    {
      "buffer": 0,
      "byteLength": 4224,
      "byteOffset": 571536,
      "target": 34963
    }
  ],
  "samplers": [
    {
      "magFilter": 9729,
      "minFilter": 9987
    }
  ],
  "buffers": [
    {
      "byteLength": 575760,
      "uri": "Track_Straight_8m.bin"
    }
  ]
}
