{
  "asset": {
    "generator": "Khronos glTF Blender I/O v5.2.40",
    "version": "2.0"
  },
  "extensionsUsed": [
    "KHR_materials_emissive_strength"
  ],
  "scene": 0,
  "scenes": [
    {
      "name": "ASHDOWN SUBWAY",
      "nodes": [
        0
      ]
    }
  ],
  "nodes": [
    {
      "mesh": 0,
      "name": "Vending_Drinks_Export"
    }
  ],
  "materials": [
    {
      "name": "Subway_Steel",
      "normalTexture": {
        "index": 0,
        "scale": 0.5
      },
      "pbrMetallicRoughness": {
        "baseColorTexture": {
          "index": 1
        },
        "metallicRoughnessTexture": {
          "index": 2
        }
      },
      "occlusionTexture": {
        "index": 2,
        "strength": 1.0
      }
    },
    {
      "name": "Subway_Charcoal",
      "normalTexture": {
        "index": 3,
        "scale": 0.5
      },
      "pbrMetallicRoughness": {
        "baseColorTexture": {
          "index": 4
        },
        "metallicRoughnessTexture": {
          "index": 5
        }
      },
      "occlusionTexture": {
        "index": 5,
        "strength": 1.0
      }
    },
    {
      "name": "Subway_Rubber",
      "pbrMetallicRoughness": {
        "baseColorFactor": [
          0.03500000014901161,
          0.03999999910593033,
          0.03799999877810478,
          1
        ],
        "metallicFactor": 0,
        "roughnessFactor": 0.8600000143051147
      }
    },
    {
      "emissiveFactor": [
        1,
        0.9615384968074834,
        0.7307692484037417
      ],
      "extensions": {
        "KHR_materials_emissive_strength": {
          "emissiveStrength": 1.0919999413490302
        }
      },
      "name": "Subway_Lens",
      "pbrMetallicRoughness": {
        "baseColorFactor": [
          0.7799999713897705,
          0.75,
          0.5699999928474426,
          1
        ],
        "metallicFactor": 0,
        "roughnessFactor": 0.30000001192092896
      }
    },
    {
      "emissiveFactor": [
        0.6499999761581421,
        0.6499999761581421,
        0.6499999761581421
      ],
      "emissiveTexture": {
        "index": 6
      },
      "name": "Subway_LitPrint",
      "pbrMetallicRoughness": {
        "baseColorTexture": {
          "index": 7
        },
        "metallicFactor": 0,
        "roughnessFactor": 0.550000011920929
      }
    },
    {
      "name": "Subway_VendingProducts",
      "pbrMetallicRoughness": {
        "baseColorTexture": {
          "index": 8
        },
        "metallicFactor": 0,
        "roughnessFactor": 0.47999998927116394
      }
    },
    {
      "name": "Subway_VendingControls",
      "pbrMetallicRoughness": {
        "baseColorTexture": {
          "index": 9
        },
        "metallicFactor": 0,
        "roughnessFactor": 0.6499999761581421
      }
    },
    {
      "emissiveFactor": [
        0.3499999940395355,
        0.3499999940395355,
        0.3499999940395355
      ],
      "emissiveTexture": {
        "index": 10
      },
      "name": "Subway_VendingDisplay",
      "pbrMetallicRoughness": {
        "baseColorTexture": {
          "index": 11
        },
        "metallicFactor": 0,
        "roughnessFactor": 0.44999998807907104
      }
    },
    {
      "name": "Subway_BottleBlue",
      "pbrMetallicRoughness": {
        "baseColorFactor": [
          0.2199999988079071,
          0.3499999940395355,
          0.38999998569488525,
          1
        ],
        "metallicFactor": 0.05999999865889549,
        "roughnessFactor": 0.28999999165534973
      }
    },
    {
      "name": "Subway_BottleAmber",
      "pbrMetallicRoughness": {
        "baseColorFactor": [
          0.23000000417232513,
          0.0949999988079071,
          0.02500000037252903,
          1
        ],
        "metallicFactor": 0.029999999329447746,
        "roughnessFactor": 0.3100000023841858
      }
    },
    {
      "name": "Subway_CapCream",
      "pbrMetallicRoughness": {
        "baseColorFactor": [
          0.5400000214576721,
          0.5199999809265137,
          0.4000000059604645,
          1
        ],
        "metallicFactor": 0,
        "roughnessFactor": 0.5199999809265137
      }
    },
    {
      "name": "Subway_VendingPaint",
      "normalTexture": {
        "index": 12,
        "scale": 0.3499999940395355
      },
      "pbrMetallicRoughness": {
        "baseColorTexture": {
          "index": 13
        },
        "metallicRoughnessTexture": {
          "index": 14
        }
      },
      "occlusionTexture": {
        "index": 14,
        "strength": 1.0
      }
    },
    {
      "name": "Subway_VendingSteel",
      "normalTexture": {
        "index": 15,
        "scale": 0.3499999940395355
      },
      "pbrMetallicRoughness": {
        "baseColorTexture": {
          "index": 16
        },
        "metallicRoughnessTexture": {
          "index": 17
        }
      },
      "occlusionTexture": {
        "index": 17,
        "strength": 1.0
      }
    }
  ],
  "meshes": [
    {
      "name": "Vending_Drinks.014",
      "primitives": [
        {
          "attributes": {
            "POSITION": 0,
            "NORMAL": 1,
            "TEXCOORD_0": 2,
            "TANGENT": 3
          },
          "indices": 4,
          "material": 0
        },
        {
          "attributes": {
            "POSITION": 5,
            "NORMAL": 6,
            "TEXCOORD_0": 7,
            "TANGENT": 8
          },
          "indices": 9,
          "material": 1
        },
        {
          "attributes": {
            "POSITION": 10,
            "NORMAL": 11,
            "TEXCOORD_0": 12,
            "TANGENT": 13
          },
          "indices": 14,
          "material": 2
        },
        {
          "attributes": {
            "POSITION": 15,
            "NORMAL": 16,
            "TEXCOORD_0": 17,
            "TANGENT": 18
          },
          "indices": 19,
          "material": 3
        },
        {
          "attributes": {
            "POSITION": 20,
            "NORMAL": 21,
            "TEXCOORD_0": 22,
            "TANGENT": 23
          },
          "indices": 24,
          "material": 4
        },
        {
          "attributes": {
            "POSITION": 25,
            "NORMAL": 26,
            "TEXCOORD_0": 27,
            "TANGENT": 28
          },
          "indices": 29,
          "material": 5
        },
        {
          "attributes": {
            "POSITION": 30,
            "NORMAL": 31,
            "TEXCOORD_0": 32,
            "TANGENT": 33
          },
          "indices": 34,
          "material": 6
        },
        {
          "attributes": {
            "POSITION": 35,
            "NORMAL": 36,
            "TEXCOORD_0": 37,
            "TANGENT": 38
          },
          "indices": 24,
          "material": 7
        },
        {
          "attributes": {
            "POSITION": 39,
            "NORMAL": 40,
            "TEXCOORD_0": 41,
            "TANGENT": 42
          },
          "indices": 43,
          "material": 8
        },
        {
          "attributes": {
            "POSITION": 44,
            "NORMAL": 45,
            "TEXCOORD_0": 46,
            "TANGENT": 47
          },
          "indices": 48,
          "material": 9
        },
        {
          "attributes": {
            "POSITION": 49,
            "NORMAL": 50,
            "TEXCOORD_0": 51,
            "TANGENT": 52
          },
          "indices": 53,
          "material": 10
        },
        {
          "attributes": {
            "POSITION": 54,
            "NORMAL": 55,
            "TEXCOORD_0": 56,
            "TANGENT": 57
          },
          "indices": 58,
          "material": 11
        },
        {
          "attributes": {
            "POSITION": 59,
            "NORMAL": 60,
            "TEXCOORD_0": 61,
            "TANGENT": 62
          },
          "indices": 63,
          "material": 12
        }
      ]
    }
  ],
  "textures": [
    {
      "sampler": 0,
      "source": 0
    },
    {
      "sampler": 0,
      "source": 1
    },
    {
      "sampler": 0,
      "source": 2
    },
    {
      "sampler": 0,
      "source": 3
    },
    {
      "sampler": 0,
      "source": 4
    },
    {
      "sampler": 0,
      "source": 5
    },
    {
      "sampler": 0,
      "source": 6
    },
    {
      "sampler": 0,
      "source": 6
    },
    {
      "sampler": 0,
      "source": 7
    },
    {
      "sampler": 0,
      "source": 8
    },
    {
      "sampler": 0,
      "source": 8
    },
    {
      "sampler": 0,
      "source": 8
    },
    {
      "sampler": 0,
      "source": 9
    },
    {
      "sampler": 0,
      "source": 10
    },
    {
      "sampler": 0,
      "source": 11
    },
    {
      "sampler": 0,
      "source": 12
    },
    {
      "sampler": 0,
      "source": 13
    },
    {
      "sampler": 0,
      "source": 14
    }
  ],
  "images": [
    {
      "mimeType": "image/png",
      "name": "Steel_normal_opengl",
      "uri": "textures/Steel_normal_opengl.png"
    },
    {
      "mimeType": "image/png",
      "name": "Steel_basecolor",
      "uri": "textures/Steel_basecolor.png"
    },
    {
      "mimeType": "image/png",
      "name": "Steel_orm",
      "uri": "textures/Steel_orm.png"
    },
    {
      "mimeType": "image/png",
      "name": "Charcoal_normal_opengl",
      "uri": "textures/Charcoal_normal_opengl.png"
    },
    {
      "mimeType": "image/png",
      "name": "Charcoal_basecolor",
      "uri": "textures/Charcoal_basecolor.png"
    },
    {
      "mimeType": "image/png",
      "name": "Charcoal_orm",
      "uri": "textures/Charcoal_orm.png"
    },
    {
      "mimeType": "image/png",
      "name": "Signage",
      "uri": "textures/Signage.png"
    },
    {
      "mimeType": "image/png",
      "name": "VendingProducts",
      "uri": "textures/VendingProducts.png"
    },
    {
      "mimeType": "image/png",
      "name": "VendingControls",
      "uri": "textures/VendingControls.png"
    },
    {
      "mimeType": "image/png",
      "name": "TrainTeal_normal_opengl",
      "uri": "textures/TrainTeal_normal_opengl.png"
    },
    {
      "mimeType": "image/png",
      "name": "TrainTeal_basecolor",
      "uri": "textures/TrainTeal_basecolor.png"
    },
    {
      "mimeType": "image/png",
      "name": "TrainTeal_orm",
      "uri": "textures/TrainTeal_orm.png"
    },
    {
      "mimeType": "image/png",
      "name": "TrainSteel_normal_opengl",
      "uri": "textures/TrainSteel_normal_opengl.png"
    },
    {
      "mimeType": "image/png",
      "name": "TrainSteel_basecolor",
      "uri": "textures/TrainSteel_basecolor.png"
    },
    {
      "mimeType": "image/png",
      "name": "TrainSteel_orm",
      "uri": "textures/TrainSteel_orm.png"
    }
  ],
  "accessors": [
    {
      "bufferView": 0,
      "componentType": 5126,
      "count": 24359,
      "max": [
        0.4860000014305115,
        1.8590000867843628,
        0.4880000054836273
      ],
      "min": [
        -0.4860000014305115,
        0.008999999612569809,
        -0.44300001859664917
      ],
      "type": "VEC3"
    },
    {
      "bufferView": 1,
      "componentType": 5126,
      "count": 24359,
      "type": "VEC3"
    },
    {
      "bufferView": 2,
      "componentType": 5126,
      "count": 24359,
      "type": "VEC2"
    },
    {
      "bufferView": 3,
      "componentType": 5126,
      "count": 24359,
      "type": "VEC4"
    },
    {
      "bufferView": 4,
      "componentType": 5123,
      "count": 38328,
      "type": "SCALAR"
    },
    {
      "bufferView": 5,
      "componentType": 5126,
      "count": 2120,
      "max": [
        0.4780000150203705,
        1.6519999504089355,
        0.4555000066757202
      ],
      "min": [
        -0.4779999852180481,
        0.10700000077486038,
        -0.3190000057220459
      ],
      "type": "VEC3"
    },
    {
      "bufferView": 6,
      "componentType": 5126,
      "count": 2120,
      "type": "VEC3"
    },
    {
      "bufferView": 7,
      "componentType": 5126,
      "count": 2120,
      "type": "VEC2"
    },
    {
      "bufferView": 8,
      "componentType": 5126,
      "count": 2120,
      "type": "VEC4"
    },
    {
      "bufferView": 9,
      "componentType": 5123,
      "count": 3276,
      "type": "SCALAR"
    },
    {
      "bufferView": 10,
      "componentType": 5126,
      "count": 1538,
      "max": [
        0.4154999852180481,
        1.4830000400543213,
        0.46299999952316284
      ],
      "min": [
        -0.40049999952316284,
        0,
        -0.3140000104904175
      ],
      "type": "VEC3"
    },
    {
      "bufferView": 11,
      "componentType": 5126,
      "count": 1538,
      "type": "VEC3"
    },
    {
      "bufferView": 12,
      "componentType": 5126,
      "count": 1538,
      "type": "VEC2"
    },
    {
      "bufferView": 13,
      "componentType": 5126,
      "count": 1538,
      "type": "VEC4"
    },
    {
      "bufferView": 14,
      "componentType": 5123,
      "count": 2772,
      "type": "SCALAR"
    },
    {
      "bufferView": 15,
      "componentType": 5126,
      "count": 96,
      "max": [
        0.18549999594688416,
        1.6204999685287476,
        0.3005000054836273
      ],
      "min": [
        -0.35350000858306885,
        1.6115000247955322,
        0.27950000762939453
      ],
      "type": "VEC3"
    },
    {
      "bufferView": 16,
      "componentType": 5126,
      "count": 96,
      "type": "VEC3"
    },
    {
      "bufferView": 17,
      "componentType": 5126,
      "count": 96,
      "type": "VEC2"
    },
    {
      "bufferView": 18,
      "componentType": 5126,
      "count": 96,
      "type": "VEC4"
    },
    {
      "bufferView": 19,
      "componentType": 5123,
      "count": 132,
      "type": "SCALAR"
    },
    {
      "bufferView": 20,
      "componentType": 5126,
      "count": 24,
      "max": [
        0.3959999978542328,
        1.847499966621399,
        0.4399999976158142
      ],
      "min": [
        -0.3959999978542328,
        1.6864999532699585,
        0.4320000112056732
      ],
      "type": "VEC3"
    },
    {
      "bufferView": 21,
      "componentType": 5126,
      "count": 24,
      "type": "VEC3"
    },
    {
      "bufferView": 22,
      "componentType": 5126,
      "count": 24,
      "type": "VEC2"
    },
    {
      "bufferView": 23,
      "componentType": 5126,
      "count": 24,
      "type": "VEC4"
    },
    {
      "bufferView": 24,
      "componentType": 5123,
      "count": 36,
      "type": "SCALAR"
    },
    {
      "bufferView": 25,
      "componentType": 5126,
      "count": 2665,
      "max": [
        0.16189999878406525,
        1.465999960899353,
        0.28790000081062317
      ],
      "min": [
        -0.3359000086784363,
        0.6029999852180481,
        -0.008899999782443047
      ],
      "type": "VEC3"
    },
    {
      "bufferView": 26,
      "componentType": 5126,
      "count": 2665,
      "type": "VEC3"
    },
    {
      "bufferView": 27,
      "componentType": 5126,
      "count": 2665,
      "type": "VEC2"
    },
    {
      "bufferView": 28,
      "componentType": 5126,
      "count": 2665,
      "type": "VEC4"
    },
    {
      "bufferView": 29,
      "componentType": 5123,
      "count": 6624,
      "type": "SCALAR"
    },
    {
      "bufferView": 30,
      "componentType": 5126,
      "count": 720,
      "max": [
        0.421999990940094,
        1.5399999618530273,
        0.46000000834465027
      ],
      "min": [
        -0.36500000953674316,
        0.45750001072883606,
        -0.4345000088214874
      ],
      "type": "VEC3"
    },
    {
      "bufferView": 31,
      "componentType": 5126,
      "count": 720,
      "type": "VEC3"
    },
    {
      "bufferView": 32,
      "componentType": 5126,
      "count": 720,
      "type": "VEC2"
    },
    {
      "bufferView": 33,
      "componentType": 5126,
      "count": 720,
      "type": "VEC4"
    },
    {
      "bufferView": 34,
      "componentType": 5123,
      "count": 1080,
      "type": "SCALAR"
    },
    {
      "bufferView": 35,
      "componentType": 5126,
      "count": 24,
      "max": [
        0.41499999165534973,
        1.5104999542236328,
        0.4569999873638153
      ],
      "min": [
        0.28700000047683716,
        1.4455000162124634,
        0.453000009059906
      ],
      "type": "VEC3"
    },
    {
      "bufferView": 36,
      "componentType": 5126,
      "count": 24,
      "type": "VEC3"
    },
    {
      "bufferView": 37,
      "componentType": 5126,
      "count": 24,
      "type": "VEC2"
    },
    {
      "bufferView": 38,
      "componentType": 5126,
      "count": 24,
      "type": "VEC4"
    },
    {
      "bufferView": 39,
      "componentType": 5126,
      "count": 3798,
      "max": [
        0.16200000047683716,
        1.2940000295639038,
        0.2879999876022339
      ],
      "min": [
        -0.335999995470047,
        0.5910000205039978,
        -0.008999999612569809
      ],
      "type": "VEC3"
    },
    {
      "bufferView": 40,
      "componentType": 5126,
      "count": 3798,
      "type": "VEC3"
    },
    {
      "bufferView": 41,
      "componentType": 5126,
      "count": 3798,
      "type": "VEC2"
    },
    {
      "bufferView": 42,
      "componentType": 5126,
      "count": 3798,
      "type": "VEC4"
    },
    {
      "bufferView": 43,
      "componentType": 5123,
      "count": 6264,
      "type": "SCALAR"
    },
    {
      "bufferView": 44,
      "componentType": 5126,
      "count": 3806,
      "max": [
        0.16200000047683716,
        1.5470000505447388,
        0.2879999876022339
      ],
      "min": [
        -0.335999995470047,
        0.843999981880188,
        -0.008999999612569809
      ],
      "type": "VEC3"
    },
    {
      "bufferView": 45,
      "componentType": 5126,
      "count": 3806,
      "type": "VEC3"
    },
    {
      "bufferView": 46,
      "componentType": 5126,
      "count": 3806,
      "type": "VEC2"
    },
    {
      "bufferView": 47,
      "componentType": 5126,
      "count": 3806,
      "type": "VEC4"
    },
    {
      "bufferView": 48,
      "componentType": 5123,
      "count": 6264,
      "type": "SCALAR"
    },
    {
      "bufferView": 49,
      "componentType": 5126,
      "count": 7032,
      "max": [
        0.14490000903606415,
        1.555999994277954,
        0.27090001106262207
      ],
      "min": [
        -0.3189000189304352,
        0.7789999842643738,
        0.008100000210106373
      ],
      "type": "VEC3"
    },
    {
      "bufferView": 50,
      "componentType": 5126,
      "count": 7032,
      "type": "VEC3"
    },
    {
      "bufferView": 51,
      "componentType": 5126,
      "count": 7032,
      "type": "VEC2"
    },
    {
      "bufferView": 52,
      "componentType": 5126,
      "count": 7032,
      "type": "VEC4"
    },
    {
      "bufferView": 53,
      "componentType": 5123,
      "count": 11952,
      "type": "SCALAR"
    },
    {
      "bufferView": 54,
      "componentType": 5126,
      "count": 2592,
      "max": [
        0.4880000054836273,
        1.909999966621399,
        0.4350000023841858
      ],
      "min": [
        -0.4880000054836273,
        0.07000000029802322,
        -0.43150001764297485
      ],
      "type": "VEC3"
    },
    {
      "bufferView": 55,
      "componentType": 5126,
      "count": 2592,
      "type": "VEC3"
    },
    {
      "bufferView": 56,
      "componentType": 5126,
      "count": 2592,
      "type": "VEC2"
    },
    {
      "bufferView": 57,
      "componentType": 5126,
      "count": 2592,
      "type": "VEC4"
    },
    {
      "bufferView": 58,
      "componentType": 5123,
      "count": 3564,
      "type": "SCALAR"
    },
    {
      "bufferView": 59,
      "componentType": 5126,
      "count": 964,
      "max": [
        0.29249998927116394,
        1.659000039100647,
        0.46950000524520874
      ],
      "min": [
        -0.4230000078678131,
        0.1875,
        -0.30799999833106995
      ],
      "type": "VEC3"
    },
    {
      "bufferView": 60,
      "componentType": 5126,
      "count": 964,
      "type": "VEC3"
    },
    {
      "bufferView": 61,
      "componentType": 5126,
      "count": 964,
      "type": "VEC2"
    },
    {
      "bufferView": 62,
      "componentType": 5126,
      "count": 964,
      "type": "VEC4"
    },
    {
      "bufferView": 63,
      "componentType": 5123,
      "count": 1320,
      "type": "SCALAR"
    }
  ],
  "bufferViews": [
    {
      "buffer": 0,
      "byteLength": 292308,
      "byteOffset": 0,
      "target": 34962
    },
    {
      "buffer": 0,
      "byteLength": 292308,
      "byteOffset": 292308,
      "target": 34962
    },
    {
      "buffer": 0,
      "byteLength": 194872,
      "byteOffset": 584616,
      "target": 34962
    },
    {
      "buffer": 0,
      "byteLength": 389744,
      "byteOffset": 779488,
      "target": 34962
    },
    {
      "buffer": 0,
      "byteLength": 76656,
      "byteOffset": 1169232,
      "target": 34963
    },
    {
      "buffer": 0,
      "byteLength": 25440,
      "byteOffset": 1245888,
      "target": 34962
    },
    {
      "buffer": 0,
      "byteLength": 25440,
      "byteOffset": 1271328,
      "target": 34962
    },
    {
      "buffer": 0,
      "byteLength": 16960,
      "byteOffset": 1296768,
      "target": 34962
    },
    {
      "buffer": 0,
      "byteLength": 33920,
      "byteOffset": 1313728,
      "target": 34962
    },
    {
      "buffer": 0,
      "byteLength": 6552,
      "byteOffset": 1347648,
      "target": 34963
    },
    {
      "buffer": 0,
      "byteLength": 18456,
      "byteOffset": 1354200,
      "target": 34962
    },
    {
      "buffer": 0,
      "byteLength": 18456,
      "byteOffset": 1372656,
      "target": 34962
    },
    {
      "buffer": 0,
      "byteLength": 12304,
      "byteOffset": 1391112,
      "target": 34962
    },
    {
      "buffer": 0,
      "byteLength": 24608,
      "byteOffset": 1403416,
      "target": 34962
    },
    {
      "buffer": 0,
      "byteLength": 5544,
      "byteOffset": 1428024,
      "target": 34963
    },
    {
      "buffer": 0,
      "byteLength": 1152,
      "byteOffset": 1433568,
      "target": 34962
    },
    {
      "buffer": 0,
      "byteLength": 1152,
      "byteOffset": 1434720,
      "target": 34962
    },
    {
      "buffer": 0,
      "byteLength": 768,
      "byteOffset": 1435872,
      "target": 34962
    },
    {
      "buffer": 0,
      "byteLength": 1536,
      "byteOffset": 1436640,
      "target": 34962
    },
    {
      "buffer": 0,
      "byteLength": 264,
      "byteOffset": 1438176,
      "target": 34963
    },
    {
      "buffer": 0,
      "byteLength": 288,
      "byteOffset": 1438440,
      "target": 34962
    },
    {
      "buffer": 0,
      "byteLength": 288,
      "byteOffset": 1438728,
      "target": 34962
    },
    {
      "buffer": 0,
      "byteLength": 192,
      "byteOffset": 1439016,
      "target": 34962
    },
    {
      "buffer": 0,
      "byteLength": 384,
      "byteOffset": 1439208,
      "target": 34962
    },
    {
      "buffer": 0,
      "byteLength": 72,
      "byteOffset": 1439592,
      "target": 34963
    },
    {
      "buffer": 0,
      "byteLength": 31980,
      "byteOffset": 1439664,
      "target": 34962
    },
    {
      "buffer": 0,
      "byteLength": 31980,
      "byteOffset": 1471644,
      "target": 34962
    },
    {
      "buffer": 0,
      "byteLength": 21320,
      "byteOffset": 1503624,
      "target": 34962
    },
    {
      "buffer": 0,
      "byteLength": 42640,
      "byteOffset": 1524944,
      "target": 34962
    },
    {
      "buffer": 0,
      "byteLength": 13248,
      "byteOffset": 1567584,
      "target": 34963
    },
    {
      "buffer": 0,
      "byteLength": 8640,
      "byteOffset": 1580832,
      "target": 34962
    },
    {
      "buffer": 0,
      "byteLength": 8640,
      "byteOffset": 1589472,
      "target": 34962
    },
    {
      "buffer": 0,
      "byteLength": 5760,
      "byteOffset": 1598112,
      "target": 34962
    },
    {
      "buffer": 0,
      "byteLength": 11520,
      "byteOffset": 1603872,
      "target": 34962
    },
    {
      "buffer": 0,
      "byteLength": 2160,
      "byteOffset": 1615392,
      "target": 34963
    },
    {
      "buffer": 0,
      "byteLength": 288,
      "byteOffset": 1617552,
      "target": 34962
    },
    {
      "buffer": 0,
      "byteLength": 288,
      "byteOffset": 1617840,
      "target": 34962
    },
    {
      "buffer": 0,
      "byteLength": 192,
      "byteOffset": 1618128,
      "target": 34962
    },
    {
      "buffer": 0,
      "byteLength": 384,
      "byteOffset": 1618320,
      "target": 34962
    },
    {
      "buffer": 0,
      "byteLength": 45576,
      "byteOffset": 1618704,
      "target": 34962
    },
    {
      "buffer": 0,
      "byteLength": 45576,
      "byteOffset": 1664280,
      "target": 34962
    },
    {
      "buffer": 0,
      "byteLength": 30384,
      "byteOffset": 1709856,
      "target": 34962
    },
    {
      "buffer": 0,
      "byteLength": 60768,
      "byteOffset": 1740240,
      "target": 34962
    },
    {
      "buffer": 0,
      "byteLength": 12528,
      "byteOffset": 1801008,
      "target": 34963
    },
    {
      "buffer": 0,
      "byteLength": 45672,
      "byteOffset": 1813536,
      "target": 34962
    },
    {
      "buffer": 0,
      "byteLength": 45672,
      "byteOffset": 1859208,
      "target": 34962
    },
    {
      "buffer": 0,
      "byteLength": 30448,
      "byteOffset": 1904880,
      "target": 34962
    },
    {
      "buffer": 0,
      "byteLength": 60896,
      "byteOffset": 1935328,
      "target": 34962
    },
    {
      "buffer": 0,
      "byteLength": 12528,
      "byteOffset": 1996224,
      "target": 34963
    },
    {
      "buffer": 0,
      "byteLength": 84384,
      "byteOffset": 2008752,
      "target": 34962
    },
    {
      "buffer": 0,
      "byteLength": 84384,
      "byteOffset": 2093136,
      "target": 34962
    },
    {
      "buffer": 0,
      "byteLength": 56256,
      "byteOffset": 2177520,
      "target": 34962
    },
    {
      "buffer": 0,
      "byteLength": 112512,
      "byteOffset": 2233776,
      "target": 34962
    },
    {
      "buffer": 0,
      "byteLength": 23904,
      "byteOffset": 2346288,
      "target": 34963
    },
    {
      "buffer": 0,
      "byteLength": 31104,
      "byteOffset": 2370192,
      "target": 34962
    },
    {
      "buffer": 0,
      "byteLength": 31104,
      "byteOffset": 2401296,
      "target": 34962
    },
    {
      "buffer": 0,
      "byteLength": 20736,
      "byteOffset": 2432400,
      "target": 34962
    },
    {
      "buffer": 0,
      "byteLength": 41472,
      "byteOffset": 2453136,
      "target": 34962
    },
    {
      "buffer": 0,
      "byteLength": 7128,
      "byteOffset": 2494608,
      "target": 34963
    },
    {
      "buffer": 0,
      "byteLength": 11568,
      "byteOffset": 2501736,
      "target": 34962
    },
    {
      "buffer": 0,
      "byteLength": 11568,
      "byteOffset": 2513304,
      "target": 34962
    },
    {
      "buffer": 0,
      "byteLength": 7712,
      "byteOffset": 2524872,
      "target": 34962
    },
    {
      "buffer": 0,
      "byteLength": 15424,
      "byteOffset": 2532584,
      "target": 34962
    },
    {
      "buffer": 0,
      "byteLength": 2640,
      "byteOffset": 2548008,
      "target": 34963
    }
  ],
  "samplers": [
    {
      "magFilter": 9729,
      "minFilter": 9987
    }
  ],
  "buffers": [
    {
      "byteLength": 2550648,
      "uri": "Vending_Drinks.bin"
    }
  ]
}
