{
	"asset":{
		"generator":"Khronos glTF Blender I/O v5.2.39",
		"version":"2.0"
	},
	"scene":0,
	"scenes":[
		{
			"name":"PLUMBING KIT",
			"nodes":[
				0
			]
		}
	],
	"nodes":[
		{
			"extras":{
				"connection_data":"{\"type\": \"elbow\", \"diameter\": 0.1, \"ports\": [[0, 0, 0], [0.15000000000000002, 0.15000000000000002, 0]], \"port_axes\": [[-1, 0, 0], [0, 1, 0]], \"bend_radius\": 0.15000000000000002, \"gltf_ports\": [[0, 0, 0], [0.15000000000000002, 0, -0.15000000000000002]], \"gltf_port_axes\": [[-1, 0, 0], [0, 0, -1]]}",
				"units":"meters"
			},
			"mesh":0,
			"name":"Elbow90_100_Oxide.001"
		}
	],
	"materials":[
		{
			"name":"PIPE Oxide",
			"normalTexture":{
				"index":0,
				"scale":0.30000001192092896
			},
			"pbrMetallicRoughness":{
				"baseColorTexture":{
					"index":1
				},
				"metallicRoughnessTexture":{
					"index":2
				}
			}
		}
	],
	"meshes":[
		{
			"name":"Elbow90_100_Oxide_Mesh.001",
			"primitives":[
				{
					"attributes":{
						"POSITION":0,
						"NORMAL":1,
						"TEXCOORD_0":2,
						"TANGENT":3
					},
					"indices":4,
					"material":0
				}
			]
		}
	],
	"textures":[
		{
			"sampler":0,
			"source":0
		},
		{
			"sampler":0,
			"source":1
		},
		{
			"sampler":0,
			"source":2
		}
	],
	"images":[
		{
			"mimeType":"image/png",
			"name":"Pipe_normal_opengl",
			"uri":"textures/Pipe_normal_opengl.png"
		},
		{
			"mimeType":"image/png",
			"name":"Oxide_basecolor",
			"uri":"textures/Oxide_basecolor.png"
		},
		{
			"mimeType":"image/png",
			"name":"Oxide_orm",
			"uri":"textures/Oxide_orm.png"
		}
	],
	"accessors":[
		{
			"bufferView":0,
			"componentType":5126,
			"count":746,
			"max":[
				0.20000000298023224,
				0.05000000074505806,
				0.05000000074505806
			],
			"min":[
				0,
				-0.05000000074505806,
				-0.15000000596046448
			],
			"type":"VEC3"
		},
		{
			"bufferView":1,
			"componentType":5126,
			"count":746,
			"type":"VEC3"
		},
		{
			"bufferView":2,
			"componentType":5126,
			"count":746,
			"type":"VEC2"
		},
		{
			"bufferView":3,
			"componentType":5126,
			"count":746,
			"type":"VEC4"
		},
		{
			"bufferView":4,
			"componentType":5123,
			"count":3744,
			"type":"SCALAR"
		}
	],
	"bufferViews":[
		{
			"buffer":0,
			"byteLength":8952,
			"byteOffset":0,
			"target":34962
		},
		{
			"buffer":0,
			"byteLength":8952,
			"byteOffset":8952,
			"target":34962
		},
		{
			"buffer":0,
			"byteLength":5968,
			"byteOffset":17904,
			"target":34962
		},
		{
			"buffer":0,
			"byteLength":11936,
			"byteOffset":23872,
			"target":34962
		},
		{
			"buffer":0,
			"byteLength":7488,
			"byteOffset":35808,
			"target":34963
		}
	],
	"samplers":[
		{
			"magFilter":9729,
			"minFilter":9987
		}
	],
	"buffers":[
		{
			"byteLength":43296,
			"uri":"Elbow90_100_Oxide.bin"
		}
	]
}
