{
	"asset":{
		"generator":"Khronos glTF Blender I/O v5.2.39",
		"version":"2.0"
	},
	"scene":0,
	"scenes":[
		{
			"name":"PLUMBING KIT",
			"nodes":[
				0
			]
		}
	],
	"nodes":[
		{
			"extras":{
				"connection_data":"{\"type\": \"endcap\", \"diameter\": 0.1, \"pivot\": \"pipe end center; cap extends +X\", \"gltf_ports\": [], \"gltf_port_axes\": []}",
				"units":"meters"
			},
			"mesh":0,
			"name":"EndCap_100.001"
		}
	],
	"materials":[
		{
			"name":"PIPE Steel",
			"normalTexture":{
				"index":0,
				"scale":0.30000001192092896
			},
			"pbrMetallicRoughness":{
				"baseColorTexture":{
					"index":1
				},
				"metallicRoughnessTexture":{
					"index":2
				}
			}
		}
	],
	"meshes":[
		{
			"name":"EndCap_100_Mesh.001",
			"primitives":[
				{
					"attributes":{
						"POSITION":0,
						"NORMAL":1,
						"TEXCOORD_0":2,
						"TANGENT":3
					},
					"indices":4,
					"material":0
				}
			]
		}
	],
	"textures":[
		{
			"sampler":0,
			"source":0
		},
		{
			"sampler":0,
			"source":1
		},
		{
			"sampler":0,
			"source":2
		}
	],
	"images":[
		{
			"mimeType":"image/png",
			"name":"Pipe_normal_opengl",
			"uri":"textures/Pipe_normal_opengl.png"
		},
		{
			"mimeType":"image/png",
			"name":"Steel_basecolor",
			"uri":"textures/Steel_basecolor.png"
		},
		{
			"mimeType":"image/png",
			"name":"Steel_orm",
			"uri":"textures/Steel_orm.png"
		}
	],
	"accessors":[
		{
			"bufferView":0,
			"componentType":5126,
			"count":432,
			"max":[
				0.01874999888241291,
				0.05299999937415123,
				0.05299999937415123
			],
			"min":[
				0,
				-0.05299999937415123,
				-0.05299999937415123
			],
			"type":"VEC3"
		},
		{
			"bufferView":1,
			"componentType":5126,
			"count":432,
			"type":"VEC3"
		},
		{
			"bufferView":2,
			"componentType":5126,
			"count":432,
			"type":"VEC2"
		},
		{
			"bufferView":3,
			"componentType":5126,
			"count":432,
			"type":"VEC4"
		},
		{
			"bufferView":4,
			"componentType":5123,
			"count":1236,
			"type":"SCALAR"
		}
	],
	"bufferViews":[
		{
			"buffer":0,
			"byteLength":5184,
			"byteOffset":0,
			"target":34962
		},
		{
			"buffer":0,
			"byteLength":5184,
			"byteOffset":5184,
			"target":34962
		},
		{
			"buffer":0,
			"byteLength":3456,
			"byteOffset":10368,
			"target":34962
		},
		{
			"buffer":0,
			"byteLength":6912,
			"byteOffset":13824,
			"target":34962
		},
		{
			"buffer":0,
			"byteLength":2472,
			"byteOffset":20736,
			"target":34963
		}
	],
	"samplers":[
		{
			"magFilter":9729,
			"minFilter":9987
		}
	],
	"buffers":[
		{
			"byteLength":23208,
			"uri":"EndCap_100.bin"
		}
	]
}
