{
	"asset":{
		"generator":"Khronos glTF Blender I/O v5.2.39",
		"version":"2.0"
	},
	"scene":0,
	"scenes":[
		{
			"name":"PLUMBING KIT",
			"nodes":[
				0
			]
		}
	],
	"nodes":[
		{
			"extras":{
				"connection_data":"{\"type\": \"gauge_needle\", \"rotation_axis_blender\": [0, 1, 0], \"pivot\": \"needle pin\", \"gltf_ports\": [], \"gltf_port_axes\": [], \"rotation_axis_gltf\": [0, 0, -1]}",
				"units":"meters"
			},
			"mesh":0,
			"name":"Gauge_Needle_Small.001"
		}
	],
	"materials":[
		{
			"name":"PIPE Needle",
			"pbrMetallicRoughness":{
				"baseColorFactor":[
					0.03999999910593033,
					0.04500000178813934,
					0.03999999910593033,
					1
				],
				"metallicFactor":0.05000000074505806,
				"roughnessFactor":0.5
			}
		},
		{
			"name":"PIPE Brass",
			"pbrMetallicRoughness":{
				"baseColorFactor":[
					0.5,
					0.3400000035762787,
					0.14000000059604645,
					1
				],
				"metallicFactor":0.6499999761581421,
				"roughnessFactor":0.4000000059604645
			}
		}
	],
	"meshes":[
		{
			"name":"Gauge_Needle_Small_Mesh.001",
			"primitives":[
				{
					"attributes":{
						"POSITION":0,
						"NORMAL":1,
						"TEXCOORD_0":2,
						"TANGENT":3
					},
					"indices":4,
					"material":0
				},
				{
					"attributes":{
						"POSITION":5,
						"NORMAL":6,
						"TEXCOORD_0":7,
						"TANGENT":8
					},
					"indices":9,
					"material":1
				}
			]
		}
	],
	"accessors":[
		{
			"bufferView":0,
			"componentType":5126,
			"count":18,
			"max":[
				0.02280000038444996,
				0.019999999552965164,
				0.0010000000474974513
			],
			"min":[
				-0.002400000113993883,
				-0.00279999990016222,
				-0.0010000000474974513
			],
			"type":"VEC3"
		},
		{
			"bufferView":1,
			"componentType":5126,
			"count":18,
			"type":"VEC3"
		},
		{
			"bufferView":2,
			"componentType":5126,
			"count":18,
			"type":"VEC2"
		},
		{
			"bufferView":3,
			"componentType":5126,
			"count":18,
			"type":"VEC4"
		},
		{
			"bufferView":4,
			"componentType":5123,
			"count":24,
			"type":"SCALAR"
		},
		{
			"bufferView":5,
			"componentType":5126,
			"count":72,
			"max":[
				0.003800000064074993,
				0.003800000064074993,
				0.0035000001080334187
			],
			"min":[
				-0.003800000064074993,
				-0.003800000064074993,
				-0.0015000001294538379
			],
			"type":"VEC3"
		},
		{
			"bufferView":6,
			"componentType":5126,
			"count":72,
			"type":"VEC3"
		},
		{
			"bufferView":7,
			"componentType":5126,
			"count":72,
			"type":"VEC2"
		},
		{
			"bufferView":8,
			"componentType":5126,
			"count":72,
			"type":"VEC4"
		},
		{
			"bufferView":9,
			"componentType":5123,
			"count":180,
			"type":"SCALAR"
		}
	],
	"bufferViews":[
		{
			"buffer":0,
			"byteLength":216,
			"byteOffset":0,
			"target":34962
		},
		{
			"buffer":0,
			"byteLength":216,
			"byteOffset":216,
			"target":34962
		},
		{
			"buffer":0,
			"byteLength":144,
			"byteOffset":432,
			"target":34962
		},
		{
			"buffer":0,
			"byteLength":288,
			"byteOffset":576,
			"target":34962
		},
		{
			"buffer":0,
			"byteLength":48,
			"byteOffset":864,
			"target":34963
		},
		{
			"buffer":0,
			"byteLength":864,
			"byteOffset":912,
			"target":34962
		},
		{
			"buffer":0,
			"byteLength":864,
			"byteOffset":1776,
			"target":34962
		},
		{
			"buffer":0,
			"byteLength":576,
			"byteOffset":2640,
			"target":34962
		},
		{
			"buffer":0,
			"byteLength":1152,
			"byteOffset":3216,
			"target":34962
		},
		{
			"buffer":0,
			"byteLength":360,
			"byteOffset":4368,
			"target":34963
		}
	],
	"buffers":[
		{
			"byteLength":4728,
			"uri":"Gauge_Needle_Small.bin"
		}
	]
}
