{
	"asset":{
		"generator":"Khronos glTF Blender I/O v5.2.39",
		"version":"2.0"
	},
	"scene":0,
	"scenes":[
		{
			"name":"PLUMBING KIT",
			"nodes":[
				0
			]
		}
	],
	"nodes":[
		{
			"extras":{
				"connection_data":"{\"type\": \"mount\", \"mount_kind\": \"Ceiling\", \"diameter\": 0.1, \"pivot\": \"supported pipe center\", \"support_direction_blender\": [0, 0, 1], \"gltf_ports\": [], \"gltf_port_axes\": []}",
				"units":"meters"
			},
			"mesh":0,
			"name":"Mount_Ceiling_100.001"
		}
	],
	"materials":[
		{
			"name":"PIPE Steel",
			"normalTexture":{
				"index":0,
				"scale":0.30000001192092896
			},
			"pbrMetallicRoughness":{
				"baseColorTexture":{
					"index":1
				},
				"metallicRoughnessTexture":{
					"index":2
				}
			}
		}
	],
	"meshes":[
		{
			"name":"Mount_Ceiling_100_Mesh.001",
			"primitives":[
				{
					"attributes":{
						"POSITION":0,
						"NORMAL":1,
						"TEXCOORD_0":2,
						"TANGENT":3
					},
					"indices":4,
					"material":0
				}
			]
		}
	],
	"textures":[
		{
			"sampler":0,
			"source":0
		},
		{
			"sampler":0,
			"source":1
		},
		{
			"sampler":0,
			"source":2
		}
	],
	"images":[
		{
			"mimeType":"image/png",
			"name":"Pipe_normal_opengl",
			"uri":"textures/Pipe_normal_opengl.png"
		},
		{
			"mimeType":"image/png",
			"name":"Steel_basecolor",
			"uri":"textures/Steel_basecolor.png"
		},
		{
			"mimeType":"image/png",
			"name":"Steel_orm",
			"uri":"textures/Steel_orm.png"
		}
	],
	"accessors":[
		{
			"bufferView":0,
			"componentType":5126,
			"count":1251,
			"max":[
				0.04749999940395355,
				0.45750001072883606,
				0.06849999725818634
			],
			"min":[
				-0.04749999940395355,
				-0.05400000140070915,
				-0.06849999725818634
			],
			"type":"VEC3"
		},
		{
			"bufferView":1,
			"componentType":5126,
			"count":1251,
			"type":"VEC3"
		},
		{
			"bufferView":2,
			"componentType":5126,
			"count":1251,
			"type":"VEC2"
		},
		{
			"bufferView":3,
			"componentType":5126,
			"count":1251,
			"type":"VEC4"
		},
		{
			"bufferView":4,
			"componentType":5123,
			"count":2076,
			"type":"SCALAR"
		}
	],
	"bufferViews":[
		{
			"buffer":0,
			"byteLength":15012,
			"byteOffset":0,
			"target":34962
		},
		{
			"buffer":0,
			"byteLength":15012,
			"byteOffset":15012,
			"target":34962
		},
		{
			"buffer":0,
			"byteLength":10008,
			"byteOffset":30024,
			"target":34962
		},
		{
			"buffer":0,
			"byteLength":20016,
			"byteOffset":40032,
			"target":34962
		},
		{
			"buffer":0,
			"byteLength":4152,
			"byteOffset":60048,
			"target":34963
		}
	],
	"samplers":[
		{
			"magFilter":9729,
			"minFilter":9987
		}
	],
	"buffers":[
		{
			"byteLength":64200,
			"uri":"Mount_Ceiling_100.bin"
		}
	]
}
