{
	"asset":{
		"generator":"Khronos glTF Blender I/O v5.2.39",
		"version":"2.0"
	},
	"scene":0,
	"scenes":[
		{
			"name":"PLUMBING KIT",
			"nodes":[
				0
			]
		}
	],
	"nodes":[
		{
			"extras":{
				"connection_data":"{\"type\": \"mount\", \"mount_kind\": \"Floor\", \"diameter\": 0.05, \"pivot\": \"supported pipe center\", \"support_direction_blender\": [0, 0, -1], \"gltf_ports\": [], \"gltf_port_axes\": []}",
				"units":"meters"
			},
			"mesh":0,
			"name":"Mount_Floor_050.001"
		}
	],
	"materials":[
		{
			"name":"PIPE Steel",
			"normalTexture":{
				"index":0,
				"scale":0.30000001192092896
			},
			"pbrMetallicRoughness":{
				"baseColorTexture":{
					"index":1
				},
				"metallicRoughnessTexture":{
					"index":2
				}
			}
		}
	],
	"meshes":[
		{
			"name":"Mount_Floor_050_Mesh.001",
			"primitives":[
				{
					"attributes":{
						"POSITION":0,
						"NORMAL":1,
						"TEXCOORD_0":2,
						"TANGENT":3
					},
					"indices":4,
					"material":0
				}
			]
		}
	],
	"textures":[
		{
			"sampler":0,
			"source":0
		},
		{
			"sampler":0,
			"source":1
		},
		{
			"sampler":0,
			"source":2
		}
	],
	"images":[
		{
			"mimeType":"image/png",
			"name":"Pipe_normal_opengl",
			"uri":"textures/Pipe_normal_opengl.png"
		},
		{
			"mimeType":"image/png",
			"name":"Steel_basecolor",
			"uri":"textures/Steel_basecolor.png"
		},
		{
			"mimeType":"image/png",
			"name":"Steel_orm",
			"uri":"textures/Steel_orm.png"
		}
	],
	"accessors":[
		{
			"bufferView":0,
			"componentType":5126,
			"count":1380,
			"max":[
				0.05249999836087227,
				0.028999999165534973,
				0.05000000074505806
			],
			"min":[
				-0.05249999836087227,
				-0.12099999934434891,
				-0.05000000074505806
			],
			"type":"VEC3"
		},
		{
			"bufferView":1,
			"componentType":5126,
			"count":1380,
			"type":"VEC3"
		},
		{
			"bufferView":2,
			"componentType":5126,
			"count":1380,
			"type":"VEC2"
		},
		{
			"bufferView":3,
			"componentType":5126,
			"count":1380,
			"type":"VEC4"
		},
		{
			"bufferView":4,
			"componentType":5123,
			"count":2112,
			"type":"SCALAR"
		}
	],
	"bufferViews":[
		{
			"buffer":0,
			"byteLength":16560,
			"byteOffset":0,
			"target":34962
		},
		{
			"buffer":0,
			"byteLength":16560,
			"byteOffset":16560,
			"target":34962
		},
		{
			"buffer":0,
			"byteLength":11040,
			"byteOffset":33120,
			"target":34962
		},
		{
			"buffer":0,
			"byteLength":22080,
			"byteOffset":44160,
			"target":34962
		},
		{
			"buffer":0,
			"byteLength":4224,
			"byteOffset":66240,
			"target":34963
		}
	],
	"samplers":[
		{
			"magFilter":9729,
			"minFilter":9987
		}
	],
	"buffers":[
		{
			"byteLength":70464,
			"uri":"Mount_Floor_050.bin"
		}
	]
}
