{
	"asset":{
		"generator":"Khronos glTF Blender I/O v5.2.39",
		"version":"2.0"
	},
	"scene":0,
	"scenes":[
		{
			"name":"PLUMBING KIT",
			"nodes":[
				0
			]
		}
	],
	"nodes":[
		{
			"extras":{
				"connection_data":"{\"type\": \"straight\", \"diameter\": 0.05, \"ports\": [[0, 0, 0], [0.5, 0, 0]], \"port_axes\": [[-1, 0, 0], [1, 0, 0]], \"gltf_ports\": [[0, 0, 0], [0.5, 0, 0]], \"gltf_port_axes\": [[-1, 0, 0], [1, 0, 0]]}",
				"units":"meters"
			},
			"mesh":0,
			"name":"Pipe_050_0500_Green.001"
		}
	],
	"materials":[
		{
			"name":"PIPE Green",
			"normalTexture":{
				"index":0,
				"scale":0.30000001192092896
			},
			"pbrMetallicRoughness":{
				"baseColorTexture":{
					"index":1
				},
				"metallicRoughnessTexture":{
					"index":2
				}
			}
		}
	],
	"meshes":[
		{
			"name":"Pipe_050_0500_Green_Mesh.001",
			"primitives":[
				{
					"attributes":{
						"POSITION":0,
						"NORMAL":1,
						"TEXCOORD_0":2,
						"TANGENT":3
					},
					"indices":4,
					"material":0
				}
			]
		}
	],
	"textures":[
		{
			"sampler":0,
			"source":0
		},
		{
			"sampler":0,
			"source":1
		},
		{
			"sampler":0,
			"source":2
		}
	],
	"images":[
		{
			"mimeType":"image/png",
			"name":"Pipe_normal_opengl",
			"uri":"textures/Pipe_normal_opengl.png"
		},
		{
			"mimeType":"image/png",
			"name":"Green_basecolor",
			"uri":"textures/Green_basecolor.png"
		},
		{
			"mimeType":"image/png",
			"name":"Green_orm",
			"uri":"textures/Green_orm.png"
		}
	],
	"accessors":[
		{
			"bufferView":0,
			"componentType":5126,
			"count":296,
			"max":[
				0.5,
				0.02500000037252903,
				0.02500000037252903
			],
			"min":[
				0,
				-0.02500000037252903,
				-0.02500000037252903
			],
			"type":"VEC3"
		},
		{
			"bufferView":1,
			"componentType":5126,
			"count":296,
			"type":"VEC3"
		},
		{
			"bufferView":2,
			"componentType":5126,
			"count":296,
			"type":"VEC2"
		},
		{
			"bufferView":3,
			"componentType":5126,
			"count":296,
			"type":"VEC4"
		},
		{
			"bufferView":4,
			"componentType":5123,
			"count":864,
			"type":"SCALAR"
		}
	],
	"bufferViews":[
		{
			"buffer":0,
			"byteLength":3552,
			"byteOffset":0,
			"target":34962
		},
		{
			"buffer":0,
			"byteLength":3552,
			"byteOffset":3552,
			"target":34962
		},
		{
			"buffer":0,
			"byteLength":2368,
			"byteOffset":7104,
			"target":34962
		},
		{
			"buffer":0,
			"byteLength":4736,
			"byteOffset":9472,
			"target":34962
		},
		{
			"buffer":0,
			"byteLength":1728,
			"byteOffset":14208,
			"target":34963
		}
	],
	"samplers":[
		{
			"magFilter":9729,
			"minFilter":9987
		}
	],
	"buffers":[
		{
			"byteLength":15936,
			"uri":"Pipe_050_0500_Green.bin"
		}
	]
}
