{
	"asset":{
		"generator":"Khronos glTF Blender I/O v5.2.39",
		"version":"2.0"
	},
	"scene":0,
	"scenes":[
		{
			"name":"PLUMBING KIT",
			"nodes":[
				1
			]
		}
	],
	"nodes":[
		{
			"extras":{
				"animation_role":"Needle",
				"rotation_axis_local":"Z"
			},
			"mesh":0,
			"name":"Needle",
			"translation":[
				0,
				0.10499999672174454,
				0.02199999988079071
			]
		},
		{
			"children":[
				0
			],
			"extras":{
				"connection_data":"{\"type\": \"gauge\", \"stem_pivot\": [0, 0, 0], \"face_direction_blender\": [0, -1, 0], \"needle_pivot_blender\": [0, -0.022, 0.10500000000000001], \"rotation_axis_blender\": [0, 1, 0], \"gltf_ports\": [], \"gltf_port_axes\": [], \"needle_pivot_gltf\": [0, 0.10500000000000001, 0.022], \"rotation_axis_gltf\": [0, 0, -1]}",
				"units":"meters"
			},
			"mesh":1,
			"name":"Pressure_Gauge_Small.001"
		}
	],
	"materials":[
		{
			"name":"PIPE Needle",
			"pbrMetallicRoughness":{
				"baseColorFactor":[
					0.03999999910593033,
					0.04500000178813934,
					0.03999999910593033,
					1
				],
				"metallicFactor":0.05000000074505806,
				"roughnessFactor":0.5
			}
		},
		{
			"name":"PIPE Brass",
			"pbrMetallicRoughness":{
				"baseColorFactor":[
					0.5,
					0.3400000035762787,
					0.14000000059604645,
					1
				],
				"metallicFactor":0.6499999761581421,
				"roughnessFactor":0.4000000059604645
			}
		},
		{
			"name":"PIPE Steel",
			"normalTexture":{
				"index":0,
				"scale":0.30000001192092896
			},
			"pbrMetallicRoughness":{
				"baseColorTexture":{
					"index":1
				},
				"metallicRoughnessTexture":{
					"index":2
				}
			}
		},
		{
			"name":"PIPE Dial",
			"pbrMetallicRoughness":{
				"baseColorTexture":{
					"index":3
				},
				"metallicFactor":0,
				"roughnessFactor":0.699999988079071
			}
		}
	],
	"meshes":[
		{
			"name":"Gauge_Needle_Small_Mesh.001",
			"primitives":[
				{
					"attributes":{
						"POSITION":0,
						"NORMAL":1,
						"TEXCOORD_0":2,
						"TANGENT":3
					},
					"indices":4,
					"material":0
				},
				{
					"attributes":{
						"POSITION":5,
						"NORMAL":6,
						"TEXCOORD_0":7,
						"TANGENT":8
					},
					"indices":9,
					"material":1
				}
			]
		},
		{
			"name":"Pressure_Gauge_Small_Mesh.001",
			"primitives":[
				{
					"attributes":{
						"POSITION":10,
						"NORMAL":11,
						"TEXCOORD_0":12,
						"TANGENT":13
					},
					"indices":14,
					"material":1
				},
				{
					"attributes":{
						"POSITION":15,
						"NORMAL":16,
						"TEXCOORD_0":17,
						"TANGENT":18
					},
					"indices":19,
					"material":2
				},
				{
					"attributes":{
						"POSITION":20,
						"NORMAL":21,
						"TEXCOORD_0":22,
						"TANGENT":23
					},
					"indices":24,
					"material":3
				}
			]
		}
	],
	"textures":[
		{
			"sampler":0,
			"source":0
		},
		{
			"sampler":0,
			"source":1
		},
		{
			"sampler":0,
			"source":2
		},
		{
			"sampler":0,
			"source":3
		}
	],
	"images":[
		{
			"mimeType":"image/png",
			"name":"Pipe_normal_opengl",
			"uri":"textures/Pipe_normal_opengl.png"
		},
		{
			"mimeType":"image/png",
			"name":"Steel_basecolor",
			"uri":"textures/Steel_basecolor.png"
		},
		{
			"mimeType":"image/png",
			"name":"Steel_orm",
			"uri":"textures/Steel_orm.png"
		},
		{
			"mimeType":"image/png",
			"name":"Gauge_face_basecolor",
			"uri":"textures/Gauge_face_basecolor.png"
		}
	],
	"accessors":[
		{
			"bufferView":0,
			"componentType":5126,
			"count":18,
			"max":[
				0.02280000038444996,
				0.019999999552965164,
				0.0010000000474974513
			],
			"min":[
				-0.002400000113993883,
				-0.00279999990016222,
				-0.0010000000474974513
			],
			"type":"VEC3"
		},
		{
			"bufferView":1,
			"componentType":5126,
			"count":18,
			"type":"VEC3"
		},
		{
			"bufferView":2,
			"componentType":5126,
			"count":18,
			"type":"VEC2"
		},
		{
			"bufferView":3,
			"componentType":5126,
			"count":18,
			"type":"VEC4"
		},
		{
			"bufferView":4,
			"componentType":5123,
			"count":24,
			"type":"SCALAR"
		},
		{
			"bufferView":5,
			"componentType":5126,
			"count":72,
			"max":[
				0.003800000064074993,
				0.003800000064074993,
				0.0035000001080334187
			],
			"min":[
				-0.003800000064074993,
				-0.003800000064074993,
				-0.0015000001294538379
			],
			"type":"VEC3"
		},
		{
			"bufferView":6,
			"componentType":5126,
			"count":72,
			"type":"VEC3"
		},
		{
			"bufferView":7,
			"componentType":5126,
			"count":72,
			"type":"VEC2"
		},
		{
			"bufferView":8,
			"componentType":5126,
			"count":72,
			"type":"VEC4"
		},
		{
			"bufferView":9,
			"componentType":5123,
			"count":180,
			"type":"SCALAR"
		},
		{
			"bufferView":10,
			"componentType":5126,
			"count":120,
			"max":[
				0.007794228382408619,
				0.0689999982714653,
				0.008999999612569809
			],
			"min":[
				-0.007794228382408619,
				0,
				-0.008999999612569809
			],
			"type":"VEC3"
		},
		{
			"bufferView":11,
			"componentType":5126,
			"count":120,
			"type":"VEC3"
		},
		{
			"bufferView":12,
			"componentType":5126,
			"count":120,
			"type":"VEC2"
		},
		{
			"bufferView":13,
			"componentType":5126,
			"count":120,
			"type":"VEC4"
		},
		{
			"bufferView":14,
			"componentType":5123,
			"count":288,
			"type":"SCALAR"
		},
		{
			"bufferView":15,
			"componentType":5126,
			"count":640,
			"max":[
				0.041999999433755875,
				0.14699998497962952,
				0.02200000174343586
			],
			"min":[
				-0.041999999433755875,
				0.06299999356269836,
				-0.014000002294778824
			],
			"type":"VEC3"
		},
		{
			"bufferView":16,
			"componentType":5126,
			"count":640,
			"type":"VEC3"
		},
		{
			"bufferView":17,
			"componentType":5126,
			"count":640,
			"type":"VEC2"
		},
		{
			"bufferView":18,
			"componentType":5126,
			"count":640,
			"type":"VEC4"
		},
		{
			"bufferView":19,
			"componentType":5123,
			"count":2292,
			"type":"SCALAR"
		},
		{
			"bufferView":20,
			"componentType":5126,
			"count":168,
			"max":[
				0.03400000184774399,
				0.13899999856948853,
				0.01900000311434269
			],
			"min":[
				-0.03400000184774399,
				0.07099999487400055,
				0.014999999664723873
			],
			"type":"VEC3"
		},
		{
			"bufferView":21,
			"componentType":5126,
			"count":168,
			"type":"VEC3"
		},
		{
			"bufferView":22,
			"componentType":5126,
			"count":168,
			"type":"VEC2"
		},
		{
			"bufferView":23,
			"componentType":5126,
			"count":168,
			"type":"VEC4"
		},
		{
			"bufferView":24,
			"componentType":5123,
			"count":468,
			"type":"SCALAR"
		}
	],
	"bufferViews":[
		{
			"buffer":0,
			"byteLength":216,
			"byteOffset":0,
			"target":34962
		},
		{
			"buffer":0,
			"byteLength":216,
			"byteOffset":216,
			"target":34962
		},
		{
			"buffer":0,
			"byteLength":144,
			"byteOffset":432,
			"target":34962
		},
		{
			"buffer":0,
			"byteLength":288,
			"byteOffset":576,
			"target":34962
		},
		{
			"buffer":0,
			"byteLength":48,
			"byteOffset":864,
			"target":34963
		},
		{
			"buffer":0,
			"byteLength":864,
			"byteOffset":912,
			"target":34962
		},
		{
			"buffer":0,
			"byteLength":864,
			"byteOffset":1776,
			"target":34962
		},
		{
			"buffer":0,
			"byteLength":576,
			"byteOffset":2640,
			"target":34962
		},
		{
			"buffer":0,
			"byteLength":1152,
			"byteOffset":3216,
			"target":34962
		},
		{
			"buffer":0,
			"byteLength":360,
			"byteOffset":4368,
			"target":34963
		},
		{
			"buffer":0,
			"byteLength":1440,
			"byteOffset":4728,
			"target":34962
		},
		{
			"buffer":0,
			"byteLength":1440,
			"byteOffset":6168,
			"target":34962
		},
		{
			"buffer":0,
			"byteLength":960,
			"byteOffset":7608,
			"target":34962
		},
		{
			"buffer":0,
			"byteLength":1920,
			"byteOffset":8568,
			"target":34962
		},
		{
			"buffer":0,
			"byteLength":576,
			"byteOffset":10488,
			"target":34963
		},
		{
			"buffer":0,
			"byteLength":7680,
			"byteOffset":11064,
			"target":34962
		},
		{
			"buffer":0,
			"byteLength":7680,
			"byteOffset":18744,
			"target":34962
		},
		{
			"buffer":0,
			"byteLength":5120,
			"byteOffset":26424,
			"target":34962
		},
		{
			"buffer":0,
			"byteLength":10240,
			"byteOffset":31544,
			"target":34962
		},
		{
			"buffer":0,
			"byteLength":4584,
			"byteOffset":41784,
			"target":34963
		},
		{
			"buffer":0,
			"byteLength":2016,
			"byteOffset":46368,
			"target":34962
		},
		{
			"buffer":0,
			"byteLength":2016,
			"byteOffset":48384,
			"target":34962
		},
		{
			"buffer":0,
			"byteLength":1344,
			"byteOffset":50400,
			"target":34962
		},
		{
			"buffer":0,
			"byteLength":2688,
			"byteOffset":51744,
			"target":34962
		},
		{
			"buffer":0,
			"byteLength":936,
			"byteOffset":54432,
			"target":34963
		}
	],
	"samplers":[
		{
			"magFilter":9729,
			"minFilter":9987
		}
	],
	"buffers":[
		{
			"byteLength":55368,
			"uri":"Pressure_Gauge_Small.bin"
		}
	]
}
