{
	"asset":{
		"generator":"Khronos glTF Blender I/O v5.2.39",
		"version":"2.0"
	},
	"scene":0,
	"scenes":[
		{
			"name":"PLUMBING KIT",
			"nodes":[
				0
			]
		}
	],
	"nodes":[
		{
			"extras":{
				"connection_data":"{\"type\": \"valve_body\", \"diameter\": 0.05, \"ports\": [[0, 0, 0], [0.15000000000000002, 0, 0]], \"port_axes\": [[-1, 0, 0], [1, 0, 0]], \"wheel_asset\": \"Valve_Wheel_050\", \"wheel_pivot_blender\": [0.07500000000000001, 0, 0.09175], \"rotation_axis_blender\": [0, 0, 1], \"wheel_exported_separately\": true, \"gltf_ports\": [[0, 0, 0], [0.15000000000000002, 0, 0]], \"gltf_port_axes\": [[-1, 0, 0], [1, 0, 0]], \"wheel_pivot_gltf\": [0.07500000000000001, 0.09175, 0], \"rotation_axis_gltf\": [0, 1, 0]}",
				"units":"meters"
			},
			"mesh":0,
			"name":"Valve_050_Steel_BodyOnly.001"
		}
	],
	"materials":[
		{
			"name":"PIPE Steel",
			"normalTexture":{
				"index":0,
				"scale":0.30000001192092896
			},
			"pbrMetallicRoughness":{
				"baseColorTexture":{
					"index":1
				},
				"metallicRoughnessTexture":{
					"index":2
				}
			}
		},
		{
			"name":"PIPE Brass",
			"pbrMetallicRoughness":{
				"baseColorFactor":[
					0.5,
					0.3400000035762787,
					0.14000000059604645,
					1
				],
				"metallicFactor":0.6499999761581421,
				"roughnessFactor":0.4000000059604645
			}
		}
	],
	"meshes":[
		{
			"name":"Valve_050_Steel_Mesh.001",
			"primitives":[
				{
					"attributes":{
						"POSITION":0,
						"NORMAL":1,
						"TEXCOORD_0":2,
						"TANGENT":3
					},
					"indices":4,
					"material":0
				},
				{
					"attributes":{
						"POSITION":5,
						"NORMAL":6,
						"TEXCOORD_0":7,
						"TANGENT":8
					},
					"indices":9,
					"material":1
				}
			]
		}
	],
	"textures":[
		{
			"sampler":0,
			"source":0
		},
		{
			"sampler":0,
			"source":1
		},
		{
			"sampler":0,
			"source":2
		}
	],
	"images":[
		{
			"mimeType":"image/png",
			"name":"Pipe_normal_opengl",
			"uri":"textures/Pipe_normal_opengl.png"
		},
		{
			"mimeType":"image/png",
			"name":"Steel_basecolor",
			"uri":"textures/Steel_basecolor.png"
		},
		{
			"mimeType":"image/png",
			"name":"Steel_orm",
			"uri":"textures/Steel_orm.png"
		}
	],
	"accessors":[
		{
			"bufferView":0,
			"componentType":5126,
			"count":1764,
			"max":[
				0.1509999930858612,
				0.09474999457597733,
				0.03700000047683716
			],
			"min":[
				0,
				-0.03700000047683716,
				-0.03700000047683716
			],
			"type":"VEC3"
		},
		{
			"bufferView":1,
			"componentType":5126,
			"count":1764,
			"type":"VEC3"
		},
		{
			"bufferView":2,
			"componentType":5126,
			"count":1764,
			"type":"VEC2"
		},
		{
			"bufferView":3,
			"componentType":5126,
			"count":1764,
			"type":"VEC4"
		},
		{
			"bufferView":4,
			"componentType":5123,
			"count":4524,
			"type":"SCALAR"
		},
		{
			"bufferView":5,
			"componentType":5126,
			"count":32,
			"max":[
				0.08279423415660858,
				0.05937499925494194,
				0.008999999612569809
			],
			"min":[
				0.0672057718038559,
				0.04312499985098839,
				-0.008999999612569809
			],
			"type":"VEC3"
		},
		{
			"bufferView":6,
			"componentType":5126,
			"count":32,
			"type":"VEC3"
		},
		{
			"bufferView":7,
			"componentType":5126,
			"count":32,
			"type":"VEC2"
		},
		{
			"bufferView":8,
			"componentType":5126,
			"count":32,
			"type":"VEC4"
		},
		{
			"bufferView":9,
			"componentType":5123,
			"count":60,
			"type":"SCALAR"
		}
	],
	"bufferViews":[
		{
			"buffer":0,
			"byteLength":21168,
			"byteOffset":0,
			"target":34962
		},
		{
			"buffer":0,
			"byteLength":21168,
			"byteOffset":21168,
			"target":34962
		},
		{
			"buffer":0,
			"byteLength":14112,
			"byteOffset":42336,
			"target":34962
		},
		{
			"buffer":0,
			"byteLength":28224,
			"byteOffset":56448,
			"target":34962
		},
		{
			"buffer":0,
			"byteLength":9048,
			"byteOffset":84672,
			"target":34963
		},
		{
			"buffer":0,
			"byteLength":384,
			"byteOffset":93720,
			"target":34962
		},
		{
			"buffer":0,
			"byteLength":384,
			"byteOffset":94104,
			"target":34962
		},
		{
			"buffer":0,
			"byteLength":256,
			"byteOffset":94488,
			"target":34962
		},
		{
			"buffer":0,
			"byteLength":512,
			"byteOffset":94744,
			"target":34962
		},
		{
			"buffer":0,
			"byteLength":120,
			"byteOffset":95256,
			"target":34963
		}
	],
	"samplers":[
		{
			"magFilter":9729,
			"minFilter":9987
		}
	],
	"buffers":[
		{
			"byteLength":95376,
			"uri":"Valve_050_Steel_BodyOnly.bin"
		}
	]
}
