{
	"asset":{
		"generator":"Khronos glTF Blender I/O v5.2.39",
		"version":"2.0"
	},
	"scene":0,
	"scenes":[
		{
			"name":"PLUMBING KIT",
			"nodes":[
				0
			]
		}
	],
	"nodes":[
		{
			"extras":{
				"connection_data":"{\"type\": \"handwheel\", \"diameter\": 0.2, \"rotation_axis_blender\": [0, 0, 1], \"pivot\": \"shaft center\", \"gltf_ports\": [], \"gltf_port_axes\": [], \"rotation_axis_gltf\": [0, 1, 0]}",
				"units":"meters"
			},
			"mesh":0,
			"name":"Valve_Wheel_200.001"
		}
	],
	"materials":[
		{
			"name":"PIPE Oxide",
			"normalTexture":{
				"index":0,
				"scale":0.30000001192092896
			},
			"pbrMetallicRoughness":{
				"baseColorTexture":{
					"index":1
				},
				"metallicRoughnessTexture":{
					"index":2
				}
			}
		},
		{
			"name":"PIPE Steel",
			"normalTexture":{
				"index":3,
				"scale":0.30000001192092896
			},
			"pbrMetallicRoughness":{
				"baseColorTexture":{
					"index":4
				},
				"metallicRoughnessTexture":{
					"index":5
				}
			}
		}
	],
	"meshes":[
		{
			"name":"Valve_Wheel_200_Mesh.001",
			"primitives":[
				{
					"attributes":{
						"POSITION":0,
						"NORMAL":1,
						"TEXCOORD_0":2,
						"TANGENT":3
					},
					"indices":4,
					"material":0
				},
				{
					"attributes":{
						"POSITION":5,
						"NORMAL":6,
						"TEXCOORD_0":7,
						"TANGENT":8
					},
					"indices":9,
					"material":1
				}
			]
		}
	],
	"textures":[
		{
			"sampler":0,
			"source":0
		},
		{
			"sampler":0,
			"source":1
		},
		{
			"sampler":0,
			"source":2
		},
		{
			"sampler":0,
			"source":0
		},
		{
			"sampler":0,
			"source":3
		},
		{
			"sampler":0,
			"source":4
		}
	],
	"images":[
		{
			"mimeType":"image/png",
			"name":"Pipe_normal_opengl",
			"uri":"textures/Pipe_normal_opengl.png"
		},
		{
			"mimeType":"image/png",
			"name":"Oxide_basecolor",
			"uri":"textures/Oxide_basecolor.png"
		},
		{
			"mimeType":"image/png",
			"name":"Oxide_orm",
			"uri":"textures/Oxide_orm.png"
		},
		{
			"mimeType":"image/png",
			"name":"Steel_basecolor",
			"uri":"textures/Steel_basecolor.png"
		},
		{
			"mimeType":"image/png",
			"name":"Steel_orm",
			"uri":"textures/Steel_orm.png"
		}
	],
	"accessors":[
		{
			"bufferView":0,
			"componentType":5126,
			"count":776,
			"max":[
				0.14000000059604645,
				0.012000000104308128,
				0.14000000059604645
			],
			"min":[
				-0.14000000059604645,
				-0.012000000104308128,
				-0.14000000059604645
			],
			"type":"VEC3"
		},
		{
			"bufferView":1,
			"componentType":5126,
			"count":776,
			"type":"VEC3"
		},
		{
			"bufferView":2,
			"componentType":5126,
			"count":776,
			"type":"VEC2"
		},
		{
			"bufferView":3,
			"componentType":5126,
			"count":776,
			"type":"VEC4"
		},
		{
			"bufferView":4,
			"componentType":5123,
			"count":2424,
			"type":"SCALAR"
		},
		{
			"bufferView":5,
			"componentType":5126,
			"count":32,
			"max":[
				0.011258330196142197,
				0.016499999910593033,
				0.013000000268220901
			],
			"min":[
				-0.011258330196142197,
				0.00950000062584877,
				-0.013000000268220901
			],
			"type":"VEC3"
		},
		{
			"bufferView":6,
			"componentType":5126,
			"count":32,
			"type":"VEC3"
		},
		{
			"bufferView":7,
			"componentType":5126,
			"count":32,
			"type":"VEC2"
		},
		{
			"bufferView":8,
			"componentType":5126,
			"count":32,
			"type":"VEC4"
		},
		{
			"bufferView":9,
			"componentType":5123,
			"count":60,
			"type":"SCALAR"
		}
	],
	"bufferViews":[
		{
			"buffer":0,
			"byteLength":9312,
			"byteOffset":0,
			"target":34962
		},
		{
			"buffer":0,
			"byteLength":9312,
			"byteOffset":9312,
			"target":34962
		},
		{
			"buffer":0,
			"byteLength":6208,
			"byteOffset":18624,
			"target":34962
		},
		{
			"buffer":0,
			"byteLength":12416,
			"byteOffset":24832,
			"target":34962
		},
		{
			"buffer":0,
			"byteLength":4848,
			"byteOffset":37248,
			"target":34963
		},
		{
			"buffer":0,
			"byteLength":384,
			"byteOffset":42096,
			"target":34962
		},
		{
			"buffer":0,
			"byteLength":384,
			"byteOffset":42480,
			"target":34962
		},
		{
			"buffer":0,
			"byteLength":256,
			"byteOffset":42864,
			"target":34962
		},
		{
			"buffer":0,
			"byteLength":512,
			"byteOffset":43120,
			"target":34962
		},
		{
			"buffer":0,
			"byteLength":120,
			"byteOffset":43632,
			"target":34963
		}
	],
	"samplers":[
		{
			"magFilter":9729,
			"minFilter":9987
		}
	],
	"buffers":[
		{
			"byteLength":43752,
			"uri":"Valve_Wheel_200.bin"
		}
	]
}
