{
	"asset":{
		"generator":"Khronos glTF Blender I/O v5.2.39",
		"version":"2.0"
	},
	"scene":0,
	"scenes":[
		{
			"name":"PLUMBING KIT",
			"nodes":[
				0
			]
		}
	],
	"nodes":[
		{
			"extras":{
				"connection_data":"{\"type\": \"valve_body\", \"diameter\": 0.2, \"ports\": [[0, 0, 0], [0.6000000000000001, 0, 0]], \"port_axes\": [[-1, 0, 0], [1, 0, 0]], \"wheel_asset\": \"Valve_Wheel_200\", \"wheel_pivot_blender\": [0.30000000000000004, 0, 0.3085], \"rotation_axis_blender\": [0, 0, 1], \"wheel_exported_separately\": true, \"gltf_ports\": [[0, 0, 0], [0.6000000000000001, 0, 0]], \"gltf_port_axes\": [[-1, 0, 0], [1, 0, 0]], \"wheel_pivot_gltf\": [0.30000000000000004, 0.3085, 0], \"rotation_axis_gltf\": [0, 1, 0]}",
				"units":"meters"
			},
			"mesh":0,
			"name":"Valve_200_Oxide_BodyOnly.001"
		}
	],
	"materials":[
		{
			"name":"PIPE Oxide",
			"normalTexture":{
				"index":0,
				"scale":0.30000001192092896
			},
			"pbrMetallicRoughness":{
				"baseColorTexture":{
					"index":1
				},
				"metallicRoughnessTexture":{
					"index":2
				}
			}
		},
		{
			"name":"PIPE Steel",
			"normalTexture":{
				"index":3,
				"scale":0.30000001192092896
			},
			"pbrMetallicRoughness":{
				"baseColorTexture":{
					"index":4
				},
				"metallicRoughnessTexture":{
					"index":5
				}
			}
		},
		{
			"name":"PIPE Brass",
			"pbrMetallicRoughness":{
				"baseColorFactor":[
					0.5,
					0.3400000035762787,
					0.14000000059604645,
					1
				],
				"metallicFactor":0.6499999761581421,
				"roughnessFactor":0.4000000059604645
			}
		}
	],
	"meshes":[
		{
			"name":"Valve_200_Oxide_Mesh.001",
			"primitives":[
				{
					"attributes":{
						"POSITION":0,
						"NORMAL":1,
						"TEXCOORD_0":2,
						"TANGENT":3
					},
					"indices":4,
					"material":0
				},
				{
					"attributes":{
						"POSITION":5,
						"NORMAL":6,
						"TEXCOORD_0":7,
						"TANGENT":8
					},
					"indices":9,
					"material":1
				},
				{
					"attributes":{
						"POSITION":10,
						"NORMAL":11,
						"TEXCOORD_0":12,
						"TANGENT":13
					},
					"indices":14,
					"material":2
				}
			]
		}
	],
	"textures":[
		{
			"sampler":0,
			"source":0
		},
		{
			"sampler":0,
			"source":1
		},
		{
			"sampler":0,
			"source":2
		},
		{
			"sampler":0,
			"source":0
		},
		{
			"sampler":0,
			"source":3
		},
		{
			"sampler":0,
			"source":4
		}
	],
	"images":[
		{
			"mimeType":"image/png",
			"name":"Pipe_normal_opengl",
			"uri":"textures/Pipe_normal_opengl.png"
		},
		{
			"mimeType":"image/png",
			"name":"Oxide_basecolor",
			"uri":"textures/Oxide_basecolor.png"
		},
		{
			"mimeType":"image/png",
			"name":"Oxide_orm",
			"uri":"textures/Oxide_orm.png"
		},
		{
			"mimeType":"image/png",
			"name":"Steel_basecolor",
			"uri":"textures/Steel_basecolor.png"
		},
		{
			"mimeType":"image/png",
			"name":"Steel_orm",
			"uri":"textures/Steel_orm.png"
		}
	],
	"accessors":[
		{
			"bufferView":0,
			"componentType":5126,
			"count":472,
			"max":[
				0.6000000238418579,
				0.1899999976158142,
				0.14800000190734863
			],
			"min":[
				0,
				-0.14800000190734863,
				-0.14800000190734863
			],
			"type":"VEC3"
		},
		{
			"bufferView":1,
			"componentType":5126,
			"count":472,
			"type":"VEC3"
		},
		{
			"bufferView":2,
			"componentType":5126,
			"count":472,
			"type":"VEC2"
		},
		{
			"bufferView":3,
			"componentType":5126,
			"count":472,
			"type":"VEC4"
		},
		{
			"bufferView":4,
			"componentType":5123,
			"count":1608,
			"type":"SCALAR"
		},
		{
			"bufferView":5,
			"componentType":5126,
			"count":1320,
			"max":[
				0.6079999804496765,
				0.31349998712539673,
				0.14800000190734863
			],
			"min":[
				0.001500000013038516,
				-0.14800000190734863,
				-0.14800000190734863
			],
			"type":"VEC3"
		},
		{
			"bufferView":6,
			"componentType":5126,
			"count":1320,
			"type":"VEC3"
		},
		{
			"bufferView":7,
			"componentType":5126,
			"count":1320,
			"type":"VEC2"
		},
		{
			"bufferView":8,
			"componentType":5126,
			"count":1320,
			"type":"VEC4"
		},
		{
			"bufferView":9,
			"componentType":5123,
			"count":3156,
			"type":"SCALAR"
		},
		{
			"bufferView":10,
			"componentType":5126,
			"count":32,
			"max":[
				0.3311769366264343,
				0.23749999701976776,
				0.035999998450279236
			],
			"min":[
				0.2688230872154236,
				0.17249999940395355,
				-0.035999998450279236
			],
			"type":"VEC3"
		},
		{
			"bufferView":11,
			"componentType":5126,
			"count":32,
			"type":"VEC3"
		},
		{
			"bufferView":12,
			"componentType":5126,
			"count":32,
			"type":"VEC2"
		},
		{
			"bufferView":13,
			"componentType":5126,
			"count":32,
			"type":"VEC4"
		},
		{
			"bufferView":14,
			"componentType":5123,
			"count":60,
			"type":"SCALAR"
		}
	],
	"bufferViews":[
		{
			"buffer":0,
			"byteLength":5664,
			"byteOffset":0,
			"target":34962
		},
		{
			"buffer":0,
			"byteLength":5664,
			"byteOffset":5664,
			"target":34962
		},
		{
			"buffer":0,
			"byteLength":3776,
			"byteOffset":11328,
			"target":34962
		},
		{
			"buffer":0,
			"byteLength":7552,
			"byteOffset":15104,
			"target":34962
		},
		{
			"buffer":0,
			"byteLength":3216,
			"byteOffset":22656,
			"target":34963
		},
		{
			"buffer":0,
			"byteLength":15840,
			"byteOffset":25872,
			"target":34962
		},
		{
			"buffer":0,
			"byteLength":15840,
			"byteOffset":41712,
			"target":34962
		},
		{
			"buffer":0,
			"byteLength":10560,
			"byteOffset":57552,
			"target":34962
		},
		{
			"buffer":0,
			"byteLength":21120,
			"byteOffset":68112,
			"target":34962
		},
		{
			"buffer":0,
			"byteLength":6312,
			"byteOffset":89232,
			"target":34963
		},
		{
			"buffer":0,
			"byteLength":384,
			"byteOffset":95544,
			"target":34962
		},
		{
			"buffer":0,
			"byteLength":384,
			"byteOffset":95928,
			"target":34962
		},
		{
			"buffer":0,
			"byteLength":256,
			"byteOffset":96312,
			"target":34962
		},
		{
			"buffer":0,
			"byteLength":512,
			"byteOffset":96568,
			"target":34962
		},
		{
			"buffer":0,
			"byteLength":120,
			"byteOffset":97080,
			"target":34963
		}
	],
	"samplers":[
		{
			"magFilter":9729,
			"minFilter":9987
		}
	],
	"buffers":[
		{
			"byteLength":97200,
			"uri":"Valve_200_Oxide_BodyOnly.bin"
		}
	]
}
